<?xml version="1.0" standalone="no"?>
<!DOCTYPE svg PUBLIC "-//W3C//DTD SVG 20010904//EN"
 "http://www.w3.org/TR/2001/REC-SVG-20010904/DTD/svg10.dtd">
<svg version="1.0" xmlns="http://www.w3.org/2000/svg"
 width="512.000000pt" height="512.000000pt" viewBox="0 0 512.000000 512.000000"
 preserveAspectRatio="xMidYMid meet">

<g transform="translate(0.000000,512.000000) scale(0.100000,-0.100000)"
fill="#000000" stroke="none">
<path d="M1865 5015 c-24 -23 -25 -29 -25 -160 l0 -135 -855 0 -856 0 -24 -25
-25 -24 0 -1551 0 -1551 25 -24 24 -25 391 0 c372 0 391 -1 386 -18 -4 -10
-139 -312 -301 -671 -162 -360 -295 -665 -295 -678 0 -13 11 -35 25 -48 l24
-25 268 0 c213 0 273 3 288 14 12 8 87 163 175 360 l155 346 1310 0 1310 0
155 -346 c88 -197 163 -352 175 -360 15 -11 75 -14 288 -14 l268 0 24 25 c14
13 25 35 25 48 0 13 -133 318 -295 678 -162 359 -297 661 -301 671 -5 17 14
18 391 18 l396 0 24 25 25 24 0 1551 0 1551 -25 24 -24 25 -856 0 -855 0 0
135 c0 131 -1 137 -25 160 l-24 25 -671 0 -671 0 -24 -25z m1255 -215 l0 -80
-560 0 -560 0 0 80 0 80 560 0 560 0 0 -80z m1760 -1322 c0 -638 -4 -1078 -9
-1072 -5 5 -309 405 -676 889 -367 484 -674 886 -683 893 -23 18 -77 15 -100
-5 -11 -10 -336 -414 -722 -898 -386 -484 -710 -888 -720 -898 -17 -18 -28 -5
-280 340 -145 197 -270 363 -279 370 -18 14 -50 16 -76 7 -10 -4 -251 -300
-537 -658 -286 -358 -529 -660 -539 -671 -19 -19 -19 12 -19 1383 l0 1402
2320 0 2320 0 0 -1082z m-705 -422 l705 -928 0 -224 0 -224 -1212 0 -1213 1
-202 276 -201 275 701 879 c386 483 705 877 710 876 4 -1 325 -420 712 -931z
m-2361 -768 l445 -608 -934 0 -935 0 487 609 c268 335 489 609 489 608 1 -1
203 -275 448 -609z m-428 -786 c-4 -10 -132 -297 -286 -638 l-280 -619 -150
-3 c-82 -1 -150 1 -150 4 0 4 120 273 267 598 146 325 275 610 285 634 l19 42
150 0 c141 0 150 -1 145 -18z m2279 -262 l124 -275 -620 -3 c-341 -1 -897 -1
-1234 0 l-614 3 117 260 c65 143 121 268 125 278 6 16 60 17 992 15 l986 -3
124 -275z m635 -344 c154 -341 282 -628 286 -638 5 -18 -3 -18 -145 -16 l-151
3 -280 619 c-154 341 -282 628 -286 638 -5 18 3 18 145 16 l151 -3 280 -619z"/>
<path d="M1245 4391 c-177 -39 -320 -149 -395 -306 -152 -312 3 -667 340 -781
40 -14 84 -19 160 -19 76 0 120 5 160 19 187 63 313 189 376 376 26 76 26 244
0 320 -80 238 -271 386 -511 395 -49 2 -108 0 -130 -4z m269 -189 c91 -42 149
-100 194 -190 35 -72 37 -81 37 -172 0 -91 -2 -100 -37 -172 -45 -91 -103
-147 -196 -191 -61 -29 -76 -32 -162 -32 -86 0 -101 3 -162 32 -93 44 -151
100 -196 191 -35 72 -37 81 -37 171 0 87 3 102 32 163 40 85 97 147 172 186
78 42 122 52 213 48 61 -3 92 -11 142 -34z"/>
</g>
</svg>
