<?xml version="1.0" standalone="no"?>
<!DOCTYPE svg PUBLIC "-//W3C//DTD SVG 20010904//EN"
 "http://www.w3.org/TR/2001/REC-SVG-20010904/DTD/svg10.dtd">
<svg version="1.0" xmlns="http://www.w3.org/2000/svg"
 width="512.000000pt" height="512.000000pt" viewBox="0 0 512.000000 512.000000"
 preserveAspectRatio="xMidYMid meet">

<g transform="translate(0.000000,512.000000) scale(0.100000,-0.100000)"
fill="#000000" stroke="none">
<path d="M605 4126 c-16 -7 -40 -24 -52 -37 -27 -30 -553 -1362 -553 -1401 0
-41 23 -91 53 -115 15 -11 127 -60 249 -109 236 -93 282 -103 332 -71 25 17
27 15 173 -76 81 -51 167 -106 190 -121 l41 -28 -19 -41 c-28 -64 -26 -160 7
-225 45 -90 141 -152 235 -152 35 0 37 -2 44 -37 22 -118 147 -223 266 -223
23 0 28 -6 38 -44 28 -110 123 -194 233 -205 l62 -6 8 -38 c28 -134 152 -227
288 -214 86 8 139 39 218 130 l32 38 77 -56 c46 -33 98 -62 131 -71 164 -48
341 57 376 223 7 30 9 31 39 22 90 -26 208 5 277 72 48 46 90 129 90 177 l0
32 58 0 c89 0 148 25 213 89 52 53 89 123 89 170 0 13 14 16 83 16 66 0 91 5
125 23 127 67 194 210 159 340 l-15 54 112 72 c185 120 168 113 211 86 63 -39
97 -32 343 65 122 48 233 96 246 106 30 23 56 78 56 117 0 36 -192 527 -217
554 -37 41 -123 9 -123 -47 0 -13 43 -133 95 -266 53 -133 94 -243 93 -244 -9
-7 -395 -155 -403 -155 -9 0 -93 207 -491 1217 l-32 81 205 81 c113 45 207 80
209 79 1 -2 48 -119 104 -261 104 -262 118 -287 168 -287 28 0 72 42 72 69 0
32 -210 554 -233 580 -27 29 -77 51 -116 51 -45 0 -481 -176 -514 -208 -28
-27 -49 -83 -45 -122 3 -21 -10 -28 -127 -71 -173 -63 -200 -66 -394 -38
l-160 23 -26 -24 c-32 -30 -33 -73 -2 -103 18 -19 48 -27 186 -47 202 -29 256
-24 449 49 132 49 133 49 142 28 4 -12 101 -256 214 -542 113 -285 204 -520
203 -520 -1 -1 -73 -48 -160 -104 l-159 -101 -71 52 c-40 28 -175 128 -301
221 -126 93 -243 177 -260 187 -27 15 -43 16 -133 7 -241 -24 -483 62 -674
241 -135 126 -184 123 -361 -21 -138 -112 -282 -177 -394 -177 -62 0 -105 14
-162 52 -69 48 -61 64 90 172 162 116 306 236 488 407 80 75 159 143 175 151
54 27 92 28 251 3 199 -31 208 -31 233 1 25 31 27 61 6 91 -18 25 -18 25 -228
58 -141 22 -178 24 -225 15 -82 -15 -147 -50 -228 -124 -39 -36 -73 -63 -76
-61 -2 3 -40 14 -84 25 -97 24 -245 37 -501 46 -191 7 -193 7 -285 44 -85 33
-93 38 -90 61 4 33 -24 101 -52 128 -30 29 -468 201 -509 201 -18 -1 -45 -7
-62 -14z m269 -216 l204 -81 -32 -82 c-392 -994 -482 -1217 -490 -1217 -9 0
-396 148 -404 155 -3 2 510 1305 514 1305 2 0 95 -36 208 -80z m581 -347 c277
-12 488 -25 548 -35 58 -10 65 -13 55 -26 -29 -35 -269 -227 -384 -307 -137
-96 -164 -132 -164 -219 0 -89 55 -157 177 -218 51 -25 79 -31 150 -35 181
-11 332 58 598 271 l24 19 64 -60 c127 -119 284 -205 456 -250 81 -22 120 -26
247 -27 l151 -1 297 -219 c163 -121 306 -230 317 -244 93 -118 -27 -285 -167
-232 -14 6 -104 70 -198 142 -94 72 -183 136 -198 142 -53 20 -107 -31 -92
-89 4 -16 55 -62 146 -132 77 -59 146 -120 154 -135 47 -91 -28 -208 -133
-208 -57 0 -60 2 -244 142 -102 77 -164 118 -180 118 -51 -1 -86 -55 -65 -102
6 -15 64 -67 131 -118 66 -51 125 -101 132 -113 7 -12 12 -45 13 -74 0 -41 -5
-58 -26 -83 -51 -60 -123 -77 -187 -44 -18 9 -87 59 -154 110 -151 116 -160
121 -201 100 -36 -19 -50 -56 -34 -91 6 -13 52 -56 101 -95 74 -59 91 -77 97
-105 10 -57 -4 -106 -42 -142 -40 -38 -91 -50 -143 -35 -44 14 -147 89 -143
104 2 6 12 23 23 37 51 65 67 187 34 264 -38 91 -145 167 -235 167 l-45 0 -12
51 c-26 108 -125 194 -235 206 l-54 5 -16 57 c-32 107 -131 187 -241 193 -45
3 -46 4 -57 47 -15 59 -33 93 -72 131 -79 79 -205 102 -303 57 -46 -22 -82
-55 -177 -161 l-35 -40 -69 45 c-38 25 -128 83 -201 128 l-132 83 19 46 c19
48 395 1000 410 1039 9 21 9 21 107 -19 84 -35 111 -41 188 -45z m73 -1228
c16 -13 35 -38 42 -55 23 -55 7 -88 -111 -226 -60 -71 -120 -134 -132 -141
-30 -17 -82 -16 -117 2 -37 19 -60 63 -60 114 0 36 9 51 78 133 42 51 100 117
128 145 46 49 54 53 96 53 35 0 54 -6 76 -25z m319 -270 c28 -32 37 -65 29
-108 -8 -41 -203 -274 -252 -301 -44 -23 -94 -15 -137 24 -29 25 -32 34 -32
83 0 54 0 54 96 168 117 137 138 158 175 168 42 11 96 -4 121 -34z m300 -259
c41 -45 46 -107 11 -152 -49 -64 -200 -235 -221 -249 -27 -19 -90 -19 -126 0
-31 15 -61 69 -61 107 0 13 13 44 29 69 41 62 202 241 231 257 42 22 100 8
137 -32z m299 -250 c45 -45 49 -107 11 -162 -49 -70 -210 -246 -233 -255 -94
-35 -195 54 -164 146 12 36 209 273 243 292 12 7 42 12 66 13 36 0 49 -6 77
-34z"/>
</g>
</svg>
