<?xml version="1.0" standalone="no"?>
<!DOCTYPE svg PUBLIC "-//W3C//DTD SVG 20010904//EN"
 "http://www.w3.org/TR/2001/REC-SVG-20010904/DTD/svg10.dtd">
<svg version="1.0" xmlns="http://www.w3.org/2000/svg"
 width="512.000000pt" height="512.000000pt" viewBox="0 0 512.000000 512.000000"
 preserveAspectRatio="xMidYMid meet">

<g transform="translate(0.000000,512.000000) scale(0.100000,-0.100000)"
fill="#000000" stroke="none">
<path d="M1865 4535 l-25 -24 0 -616 0 -615 -615 0 -616 0 -24 -25 -25 -24 0
-1311 0 -1311 25 -24 c16 -16 35 -25 57 -25 29 0 63 31 353 320 l320 320 958
0 958 0 24 25 25 24 0 616 0 615 262 0 263 0 320 -320 c290 -289 324 -320 353
-320 22 0 41 9 57 25 l25 24 0 1311 0 1311 -25 24 -24 25 -1311 0 -1311 0 -24
-25z m2535 -1277 l0 -1142 -263 262 -263 262 -937 0 -937 0 0 880 0 880 1200
0 1200 0 0 -1142z m-2560 -433 l0 -296 25 -24 24 -25 616 0 615 0 0 -560 0
-560 -937 0 -937 0 -263 -262 -263 -262 0 1142 0 1142 560 0 560 0 0 -295z"/>
<path d="M3343 3618 l-383 -382 -143 142 c-94 93 -151 142 -165 142 -56 0
-101 -52 -89 -102 4 -13 87 -103 185 -200 161 -161 182 -178 212 -178 32 0 65
31 452 417 246 246 419 427 423 441 13 52 -30 102 -88 102 -15 0 -135 -114
-404 -382z"/>
<path d="M1484 2708 c-24 -11 -44 -48 -44 -80 0 -15 60 -82 182 -205 l182
-183 -182 -183 c-161 -162 -182 -187 -182 -216 0 -43 38 -81 81 -81 29 0 54
21 216 182 l183 182 183 -182 c162 -161 187 -182 216 -182 21 0 41 9 56 25 16
15 25 35 25 56 0 29 -21 54 -182 216 -169 170 -181 184 -166 200 38 44 29 110
-18 132 -36 16 -58 14 -88 -10 l-28 -22 -182 182 c-189 188 -200 195 -252 169z"/>
</g>
</svg>
