<?xml version="1.0" standalone="no"?>
<!DOCTYPE svg PUBLIC "-//W3C//DTD SVG 20010904//EN"
 "http://www.w3.org/TR/2001/REC-SVG-20010904/DTD/svg10.dtd">
<svg version="1.0" xmlns="http://www.w3.org/2000/svg"
 width="512.000000pt" height="512.000000pt" viewBox="0 0 512.000000 512.000000"
 preserveAspectRatio="xMidYMid meet">

<g transform="translate(0.000000,512.000000) scale(0.100000,-0.100000)"
fill="#000000" stroke="none">
<path d="M2890 4924 c-135 -36 -236 -130 -291 -269 -23 -60 -23 -61 -27 -574
-2 -330 0 -544 7 -595 20 -151 107 -273 240 -339 l66 -32 362 -5 362 -5 94
-92 c89 -88 97 -93 136 -93 58 0 73 10 171 106 l85 83 356 3 355 3 76 37 c114
57 191 150 222 273 22 82 24 1111 2 1190 -42 159 -167 280 -324 314 -30 6
-146 11 -266 11 -201 0 -215 -1 -240 -21 -34 -27 -36 -77 -3 -107 22 -21 31
-22 238 -22 265 0 298 -7 375 -84 86 -86 84 -74 84 -685 0 -327 -4 -540 -10
-563 -17 -59 -71 -130 -124 -163 l-49 -30 -376 -5 c-431 -6 -383 5 -501 -114
l-65 -66 -87 87 -88 88 -378 5 c-362 5 -379 6 -417 27 -54 29 -99 78 -127 138
l-23 50 0 550 0 550 28 57 c30 61 64 95 131 131 41 22 46 22 581 24 297 2 550
5 562 8 13 3 30 19 39 36 13 26 13 36 3 60 -6 17 -20 34 -30 39 -11 6 -229 10
-556 9 -441 0 -548 -3 -593 -15z"/>
<path d="M3428 4633 c-23 -27 -373 -525 -386 -550 -7 -12 -12 -30 -12 -41 0
-19 348 -521 398 -574 40 -44 95 -36 117 16 9 20 10 38 4 54 -5 13 -78 121
-162 240 -85 119 -161 229 -171 244 l-18 27 178 252 c186 264 197 287 159 329
-23 26 -86 27 -107 3z"/>
<path d="M4110 4630 c-42 -42 -31 -66 151 -322 94 -133 173 -248 176 -254 2
-7 -75 -124 -171 -261 -192 -271 -201 -292 -150 -332 33 -26 65 -27 92 -3 10
9 94 123 184 252 224 319 218 309 218 339 0 18 -62 113 -191 296 -105 149
-198 278 -206 288 -22 23 -78 22 -103 -3z"/>
<path d="M3909 4628 c-15 -5 -32 -21 -38 -36 -6 -15 -65 -270 -131 -567 -129
-585 -128 -578 -69 -599 41 -14 79 0 93 37 8 18 67 272 131 565 92 415 116
539 109 559 -11 34 -59 54 -95 41z"/>
<path d="M423 3900 c-88 -18 -150 -66 -194 -150 l-24 -45 -3 -1423 -2 -1422
-53 0 c-61 0 -116 -24 -135 -60 -22 -42 -11 -271 16 -340 43 -109 140 -207
252 -253 l55 -22 2185 -3 c1602 -2 2201 0 2245 8 131 25 248 116 308 239 31
64 32 71 35 216 l4 151 -26 26 c-28 28 -64 38 -132 38 l-44 0 0 1030 0 1031
-25 24 c-31 32 -69 32 -100 0 l-25 -24 0 -1030 0 -1030 -325 -3 c-318 -3 -325
-3 -346 -25 -27 -26 -28 -77 -3 -104 16 -18 37 -19 446 -19 l428 0 0 -82 c0
-104 -26 -165 -95 -226 -89 -78 105 -72 -2330 -70 l-2180 3 -53 30 c-101 55
-144 129 -150 258 l-4 87 1854 0 c1784 0 1856 1 1871 18 24 27 22 85 -4 108
-21 19 -66 19 -1770 22 l-1749 2 1 1393 c0 1051 3 1400 12 1426 7 19 25 44 40
55 28 21 32 21 1005 24 886 2 978 4 994 19 26 23 24 85 -3 109 -20 18 -52 19
-978 21 -526 0 -975 -3 -998 -7z"/>
<path d="M524 3579 c-17 -19 -19 -38 -19 -201 l0 -180 28 -24 c34 -29 56 -30
91 -3 26 20 26 22 26 150 l0 129 864 2 c833 3 865 4 885 22 27 25 29 86 3 109
-17 16 -97 17 -939 17 l-920 0 -19 -21z"/>
<path d="M531 2961 c-11 -11 -23 -35 -26 -53 -3 -18 -5 -443 -3 -944 3 -881 4
-913 22 -933 l19 -21 2012 0 2012 0 21 23 22 23 0 925 c0 917 0 925 -20 947
-14 14 -33 22 -55 22 -22 0 -41 -8 -55 -22 -20 -22 -20 -30 -20 -895 l0 -873
-1905 0 -1905 0 0 890 c0 877 0 890 -20 910 -25 25 -74 26 -99 1z"/>
<path d="M962 2793 c-12 -10 -24 -30 -28 -45 -5 -22 0 -33 24 -58 l30 -30 186
0 c179 0 186 1 212 23 35 31 38 82 5 109 -21 16 -44 18 -216 18 -169 0 -195
-2 -213 -17z"/>
<path d="M1651 2784 c-26 -33 -27 -65 -2 -95 l19 -24 544 -3 c540 -2 545 -2
571 18 34 27 37 80 7 110 -20 20 -33 20 -569 20 l-550 0 -20 -26z"/>
<path d="M3131 2784 c-26 -33 -27 -65 -2 -95 16 -19 30 -24 90 -27 82 -5 123
8 140 44 16 35 14 48 -10 78 -19 25 -25 26 -109 26 -84 0 -90 -1 -109 -26z"/>
<path d="M963 2365 c-11 -8 -24 -26 -27 -40 -7 -29 15 -79 39 -89 9 -3 414 -6
899 -6 878 0 883 0 910 21 34 27 36 77 3 107 l-23 22 -890 0 c-768 0 -892 -2
-911 -15z"/>
<path d="M3055 2355 c-14 -13 -25 -36 -25 -50 0 -14 11 -37 25 -50 l24 -25
259 0 c247 0 261 1 286 21 19 15 26 30 26 54 0 24 -7 39 -26 54 -25 20 -39 21
-286 21 l-259 0 -24 -25z"/>
<path d="M3885 2355 c-14 -13 -25 -36 -25 -50 0 -14 11 -37 25 -50 21 -22 33
-25 95 -25 62 0 74 3 95 25 14 13 25 36 25 50 0 14 -11 37 -25 50 -21 22 -33
25 -95 25 -62 0 -74 -3 -95 -25z"/>
<path d="M973 1938 c-48 -23 -51 -103 -4 -127 13 -7 149 -11 395 -11 l375 0
20 26 c28 35 26 69 -4 99 l-24 25 -368 -1 c-236 0 -376 -4 -390 -11z"/>
<path d="M2007 1930 c-34 -27 -37 -80 -7 -110 18 -18 33 -20 165 -20 142 0
147 1 170 25 30 29 32 64 6 96 -18 23 -26 24 -163 27 -134 3 -145 2 -171 -18z"/>
<path d="M983 1510 c-51 -21 -63 -79 -25 -122 14 -17 51 -18 498 -18 l483 0
21 22 c37 40 22 98 -31 117 -39 13 -913 14 -946 1z"/>
</g>
</svg>
