<?xml version="1.0" standalone="no"?>
<!DOCTYPE svg PUBLIC "-//W3C//DTD SVG 20010904//EN"
 "http://www.w3.org/TR/2001/REC-SVG-20010904/DTD/svg10.dtd">
<svg version="1.0" xmlns="http://www.w3.org/2000/svg"
 width="512.000000pt" height="512.000000pt" viewBox="0 0 512.000000 512.000000"
 preserveAspectRatio="xMidYMid meet">

<g transform="translate(0.000000,512.000000) scale(0.100000,-0.100000)"
fill="#000000" stroke="none">
<path d="M2420 5105 c-295 -59 -579 -324 -785 -732 l-57 -112 -161 6 c-890 33
-1340 -443 -1102 -1165 37 -111 143 -321 220 -437 63 -95 66 -101 52 -125 -8
-14 -42 -70 -77 -124 -471 -743 -282 -1377 455 -1530 120 -25 312 -38 450 -31
72 3 137 8 145 11 11 3 32 -30 74 -114 324 -638 795 -891 1251 -672 181 87
375 280 512 509 24 39 45 82 49 96 8 31 -17 72 -51 85 -48 18 -76 -4 -152
-123 -131 -206 -263 -337 -416 -417 -317 -164 -649 -28 -922 376 -58 85 -160
272 -153 279 2 2 60 16 128 30 168 35 335 83 510 145 80 29 154 52 165 52 11
0 106 -30 210 -66 412 -142 784 -207 1110 -193 365 16 615 106 796 286 61 62
85 96 123 171 65 134 80 199 79 350 -1 195 -45 357 -160 590 -75 151 -98 180
-143 180 -38 0 -80 -39 -80 -73 0 -14 29 -80 65 -148 81 -157 140 -331 156
-466 11 -88 11 -115 -3 -191 -23 -131 -65 -211 -157 -303 -126 -125 -286 -193
-535 -225 -118 -15 -386 -17 -401 -3 -3 4 10 54 29 110 48 141 110 385 141
552 14 76 25 142 25 147 0 4 44 45 98 91 141 120 369 347 478 475 229 273 389
567 454 834 30 122 33 319 7 425 -38 154 -146 314 -276 409 -110 81 -283 149
-457 181 -125 23 -377 32 -409 15 -30 -16 -47 -62 -35 -94 17 -45 47 -56 150
-56 199 0 405 -41 544 -109 364 -178 443 -548 217 -1017 -61 -127 -158 -287
-171 -282 -4 2 -26 26 -49 53 -79 93 -315 327 -432 426 l-115 99 -23 132 c-40
229 -106 471 -201 732 -37 104 -159 337 -235 451 -263 396 -596 578 -935 510z
m310 -173 c184 -64 346 -204 493 -425 58 -88 147 -247 147 -264 0 -6 -50 -20
-111 -32 -162 -33 -384 -95 -551 -156 l-147 -54 -73 28 c-201 78 -487 160
-665 191 -40 7 -73 18 -73 23 0 6 21 49 46 96 192 354 424 566 674 615 52 10
206 -3 260 -22z m-1226 -832 c3 -3 -17 -73 -43 -155 -53 -162 -110 -398 -137
-563 l-17 -103 -126 -108 c-125 -108 -414 -395 -446 -445 -10 -14 -21 -26 -25
-26 -15 0 -112 162 -171 284 -165 344 -169 631 -11 838 106 139 334 246 590
277 80 10 376 10 386 1z m328 -46 c159 -31 508 -129 508 -143 0 -3 -67 -39
-148 -78 -192 -95 -363 -193 -542 -312 -80 -53 -148 -97 -152 -99 -25 -12 128
553 174 641 11 21 3 22 160 -9z m1616 9 c32 -61 121 -363 157 -534 l23 -110
-26 18 c-235 158 -443 282 -659 391 -84 42 -153 80 -153 83 0 6 230 79 330
105 67 17 286 62 307 63 7 1 16 -7 21 -16z m-556 -389 c198 -101 440 -245 607
-362 180 -125 165 -104 182 -273 20 -201 18 -830 -3 -992 -9 -65 -17 -119 -19
-121 -301 -227 -627 -421 -960 -571 -124 -56 -144 -62 -168 -53 -105 44 -471
231 -586 300 -205 123 -464 300 -486 331 -33 47 -47 833 -20 1106 16 164 5
146 149 248 277 196 576 365 896 506 l79 35 80 -34 c44 -19 156 -73 249 -120z
m-1622 -744 c-12 -136 -12 -604 0 -740 4 -58 7 -106 5 -108 -1 -2 -57 47 -124
108 -111 103 -341 352 -341 370 0 30 451 493 465 478 2 -2 -1 -50 -5 -108z
m2681 19 c96 -87 279 -281 335 -354 l26 -35 -58 -72 c-67 -83 -332 -351 -382
-386 l-32 -24 7 74 c10 95 10 756 0 831 -4 31 -5 57 -2 57 3 0 51 -41 106 -91z
m-3216 -555 c32 -50 320 -337 446 -445 l125 -108 23 -128 c31 -170 91 -410
142 -561 22 -68 38 -127 34 -130 -14 -14 -359 -5 -455 11 -357 61 -569 228
-625 493 -37 172 2 376 114 610 59 122 156 284 171 284 4 0 15 -12 25 -26z
m875 -770 c165 -111 349 -220 547 -321 156 -80 180 -95 160 -102 -161 -62
-621 -172 -638 -153 -33 36 -207 662 -181 650 4 -2 54 -35 112 -74z m1985 -70
c-33 -144 -83 -321 -123 -429 l-29 -80 -44 3 c-101 6 -620 142 -619 161 1 3
67 38 148 78 196 97 373 198 545 313 78 52 143 90 145 84 2 -7 -9 -65 -23
-130z"/>
<path d="M2275 3419 c-107 -34 -201 -85 -229 -123 -20 -26 -20 -28 -3 -74 34
-88 41 -121 29 -147 -15 -34 -53 -41 -110 -21 -117 42 -111 41 -139 20 -39
-29 -89 -125 -124 -237 -40 -127 -36 -140 56 -187 38 -19 78 -47 89 -62 l20
-28 -20 -27 c-11 -16 -51 -44 -89 -63 -92 -47 -96 -60 -56 -187 35 -112 85
-208 124 -237 28 -21 22 -22 139 20 57 20 95 13 110 -21 11 -26 5 -59 -28
-146 -17 -44 -17 -48 -1 -73 21 -31 141 -93 254 -131 111 -36 127 -31 173 60
19 38 47 77 61 88 24 17 29 18 56 4 29 -15 48 -46 77 -120 23 -58 52 -64 162
-32 108 32 219 89 248 128 20 27 20 29 3 75 -34 88 -41 121 -29 147 15 34 53
41 110 21 114 -41 109 -40 136 -22 31 20 94 141 131 253 36 111 31 127 -60
173 -38 19 -77 47 -88 61 -17 24 -18 29 -4 56 15 29 46 48 120 77 58 23 64 52
32 162 -32 108 -89 219 -128 248 -27 20 -29 20 -75 3 -88 -34 -121 -41 -147
-29 -34 15 -41 53 -21 110 41 114 40 109 22 136 -20 31 -141 94 -253 131 -111
36 -127 31 -173 -60 -19 -38 -47 -77 -61 -88 -24 -17 -29 -18 -56 -4 -29 15
-48 46 -77 120 -14 35 -47 58 -79 56 -7 0 -52 -14 -102 -30z m70 -170 c11 -32
74 -98 114 -118 55 -28 102 -33 155 -17 72 22 122 66 172 154 1 2 27 -7 58
-20 l57 -23 -8 -40 c-16 -80 -9 -148 20 -198 51 -87 146 -119 274 -94 l41 8
21 -57 c18 -46 19 -59 9 -65 -7 -5 -16 -9 -20 -9 -18 0 -91 -77 -110 -114 -32
-63 -29 -143 8 -203 26 -42 94 -105 125 -115 8 -3 4 -20 -12 -58 -12 -30 -23
-56 -24 -58 -1 -1 -33 3 -71 9 -189 32 -301 -95 -261 -298 l8 -41 -57 -21
c-46 -18 -59 -19 -65 -9 -5 7 -9 16 -9 20 0 18 -77 91 -114 110 -63 32 -143
29 -203 -8 -42 -26 -105 -94 -115 -124 -2 -8 -22 -4 -61 12 l-58 23 8 40 c16
80 9 148 -20 198 -51 87 -146 119 -273 94 l-41 -8 -23 57 c-16 39 -20 59 -13
61 7 3 32 20 57 39 101 77 129 195 70 291 -27 43 -94 105 -125 115 -10 3 -7
19 11 62 l23 57 41 -8 c127 -25 222 7 273 94 29 50 36 118 20 199 l-8 41 48
21 c62 26 70 26 78 1z"/>
<path d="M2499 2900 c-64 -11 -137 -51 -186 -102 -129 -133 -129 -343 0 -476
196 -203 534 -99 586 181 42 229 -167 436 -400 397z m134 -174 c117 -50 144
-210 51 -298 -116 -108 -304 -26 -304 132 0 102 76 179 178 180 23 0 57 -6 75
-14z"/>
</g>
</svg>
