<?xml version="1.0" standalone="no"?>
<!DOCTYPE svg PUBLIC "-//W3C//DTD SVG 20010904//EN"
 "http://www.w3.org/TR/2001/REC-SVG-20010904/DTD/svg10.dtd">
<svg version="1.0" xmlns="http://www.w3.org/2000/svg"
 width="512.000000pt" height="512.000000pt" viewBox="0 0 512.000000 512.000000"
 preserveAspectRatio="xMidYMid meet">

<g transform="translate(0.000000,512.000000) scale(0.100000,-0.100000)"
fill="#000000" stroke="none">
<path d="M530 5111 c-69 -21 -130 -73 -166 -141 -18 -33 -19 -72 -22 -617 l-3
-582 -37 -12 c-65 -21 -113 -50 -164 -97 -116 -109 -162 -265 -122 -417 23
-92 56 -139 195 -280 l129 -131 2 -1324 3 -1325 22 -40 c25 -47 74 -95 123
-121 34 -18 104 -19 2070 -19 l2035 0 40 22 c47 25 95 74 121 123 18 34 19
113 19 2410 0 2297 -1 2376 -19 2410 -26 49 -74 98 -121 123 l-40 22 -2020 2
c-1111 1 -2031 -2 -2045 -6z m4051 -190 l29 -30 -2 -2336 -3 -2337 -28 -24
-28 -24 -1990 0 -1991 0 -29 29 -29 29 0 1219 0 1218 718 -715 717 -716 353
-182 c194 -100 371 -186 393 -191 119 -27 240 74 239 199 -1 38 -30 100 -210
447 l-165 318 -935 937 c-820 821 -942 940 -995 966 -33 16 -72 32 -87 36
l-28 6 0 561 0 561 29 29 29 29 1992 0 1992 0 29 -29z m-4048 -1337 c20 -10
37 -20 37 -23 0 -4 -79 -85 -175 -181 -166 -166 -175 -173 -189 -155 -23 31
-39 112 -32 161 23 167 208 270 359 198z m224 -196 c29 -29 53 -57 53 -63 0
-6 -80 -90 -178 -188 l-177 -177 -60 60 -60 60 180 180 c99 99 182 180 185
180 2 0 28 -23 57 -52z m878 -878 l690 -690 -63 -62 -62 -63 -692 692 -693
693 60 60 c33 33 62 60 65 60 3 0 316 -310 695 -690z m385 -995 l-60 -60 -692
692 -693 693 60 60 60 60 692 -692 693 -693 -60 -60z m525 -46 l43 -85 -34
-19 c-34 -18 -100 -84 -139 -139 l-20 -29 -130 66 c-72 36 -137 71 -145 76
-12 9 16 42 150 175 l164 165 34 -62 c18 -34 53 -101 77 -148z m170 -326 c68
-128 49 -143 -85 -70 l-79 43 18 30 c18 29 78 84 93 84 3 0 27 -39 53 -87z"/>
<path d="M1069 4425 c-29 -16 -52 -66 -42 -93 3 -9 15 -27 26 -39 l20 -23
1487 0 1487 0 20 23 c29 31 34 52 21 87 -22 64 77 60 -1530 60 -1252 -1 -1467
-3 -1489 -15z"/>
<path d="M1082 3919 c-47 -14 -68 -64 -48 -113 11 -27 23 -37 53 -45 53 -15
2893 -15 2946 0 30 8 42 18 53 45 12 29 12 39 0 68 -11 27 -23 37 -53 45 -50
14 -2903 14 -2951 0z"/>
<path d="M1392 3387 c-22 -23 -29 -68 -16 -102 18 -46 -21 -45 1354 -45 1418
0 1336 -4 1358 60 13 35 8 56 -21 88 l-20 22 -1317 0 -1317 0 -21 -23z"/>
<path d="M1905 2875 c-25 -24 -32 -65 -19 -100 18 -46 -3 -45 1104 -45 727 0
1047 3 1062 11 29 15 50 72 39 103 -23 59 44 56 -1109 56 l-1053 0 -24 -25z"/>
<path d="M2419 2361 c-37 -38 -38 -79 -3 -115 l27 -26 798 0 798 0 27 24 c38
32 38 90 -1 123 l-26 23 -795 0 -796 0 -29 -29z"/>
<path d="M2780 1867 c-54 -27 -63 -94 -20 -137 19 -19 36 -20 653 -20 l634 0
20 23 c29 31 34 52 21 87 -21 61 -7 60 -675 60 -466 0 -614 -3 -633 -13z"/>
<path d="M1082 1359 c-47 -14 -68 -64 -48 -113 22 -52 58 -58 318 -54 l220 3
24 28 c31 36 31 78 0 114 l-24 28 -229 2 c-128 1 -243 -2 -261 -8z"/>
<path d="M3124 1356 c-68 -30 -66 -124 2 -152 42 -18 846 -20 907 -3 30 8 42
18 53 45 12 29 12 39 0 68 -11 27 -23 37 -53 45 -60 17 -869 14 -909 -3z"/>
<path d="M1053 828 c-29 -32 -34 -53 -21 -88 21 -61 7 -60 675 -60 466 0 614
3 633 13 54 27 63 94 20 137 -19 19 -36 20 -653 20 l-634 0 -20 -22z"/>
</g>
</svg>
