<svg xmlns="http://www.w3.org/2000/svg" xmlns:xlink="http://www.w3.org/1999/xlink" width="500" zoomAndPan="magnify" viewBox="0 0 375 374.999991" height="500" preserveAspectRatio="xMidYMid meet" version="1.0"><defs><clipPath id="fa0bad1ab4"><path d="M 0 68.183594 L 375 68.183594 L 375 306.683594 L 0 306.683594 Z M 0 68.183594 " clip-rule="nonzero"/></clipPath></defs><g clip-path="url(#fa0bad1ab4)"><path fill="#fdff83" d="M 373.125 98.605469 L 358.410156 98.605469 L 358.410156 85.347656 C 358.410156 84.3125 357.570312 83.472656 356.535156 83.472656 L 338.054688 83.472656 L 338.054688 70.082031 C 338.054688 69.046875 337.214844 68.207031 336.179688 68.207031 L 257.609375 68.207031 C 215.160156 68.207031 193.410156 86.171875 185.4375 94.765625 C 177.464844 86.171875 155.722656 68.207031 113.265625 68.207031 L 34.703125 68.207031 C 33.667969 68.207031 32.828125 69.046875 32.828125 70.082031 L 32.828125 83.472656 L 18.472656 83.472656 C 17.4375 83.472656 16.597656 84.3125 16.597656 85.347656 L 16.597656 98.605469 L 1.875 98.605469 C 0.839844 98.605469 0 99.445312 0 100.480469 L 0 302.621094 C 0 303.648438 0.824219 304.488281 1.851562 304.496094 L 182.941406 306.753906 C 183.082031 306.792969 183.226562 306.8125 183.375 306.8125 C 183.511719 306.8125 183.644531 306.796875 183.773438 306.769531 L 187.476562 306.8125 C 187.484375 306.8125 187.492188 306.8125 187.5 306.8125 C 187.507812 306.8125 187.515625 306.8125 187.523438 306.8125 L 373.140625 304.503906 C 374.167969 304.488281 374.992188 303.65625 374.992188 302.628906 L 374.992188 100.488281 C 375 99.453125 374.160156 98.605469 373.125 98.605469 Z M 3.757812 102.363281 L 16.597656 102.363281 L 16.597656 290.042969 C 16.597656 291.078125 17.4375 291.917969 18.472656 291.917969 L 102.988281 291.917969 C 128.820312 291.917969 157.523438 298.503906 173.78125 302.882812 L 3.757812 300.769531 Z M 182.933594 97.683594 C 182.273438 98.515625 181.90625 99.0625 181.808594 99.207031 C 181.605469 99.515625 181.492188 99.875 181.492188 100.242188 L 181.492188 297.027344 C 170.363281 287.980469 147.570312 272.898438 119.210938 272.898438 L 36.578125 272.898438 L 36.578125 71.964844 L 113.265625 71.964844 C 154.453125 71.964844 175.636719 89.847656 182.933594 97.683594 Z M 334.296875 71.964844 L 334.296875 272.90625 L 251.65625 272.90625 C 219.136719 272.90625 193.933594 292.730469 185.25 300.558594 L 185.25 100.847656 C 187.980469 97.203125 208.679688 71.964844 257.601562 71.964844 Z M 354.652344 288.160156 L 272.011719 288.160156 C 238.078125 288.160156 199.394531 299.304688 189.375 302.375 L 189.375 301.96875 C 198.976562 293.777344 222.539062 276.648438 251.65625 276.648438 L 336.171875 276.648438 C 337.207031 276.648438 338.046875 275.808594 338.046875 274.773438 L 338.046875 87.230469 L 354.644531 87.230469 L 354.644531 288.160156 Z M 32.828125 274.78125 C 32.828125 275.816406 33.667969 276.65625 34.703125 276.65625 L 119.210938 276.65625 C 146.863281 276.65625 169.546875 292.144531 179.96875 300.707031 C 165.097656 296.464844 132.277344 288.160156 102.984375 288.160156 L 20.347656 288.160156 L 20.347656 87.230469 L 32.820312 87.230469 L 32.820312 274.78125 Z M 371.242188 300.769531 L 201.21875 302.882812 C 217.46875 298.496094 246.164062 291.917969 272.011719 291.917969 L 356.527344 291.917969 C 357.5625 291.917969 358.402344 291.078125 358.402344 290.042969 L 358.402344 102.363281 L 371.242188 102.363281 Z M 371.242188 300.769531 " fill-opacity="1" fill-rule="nonzero"/></g></svg>