<svg xmlns="http://www.w3.org/2000/svg" xmlns:xlink="http://www.w3.org/1999/xlink" width="500" zoomAndPan="magnify" viewBox="0 0 375 374.999991" height="500" preserveAspectRatio="xMidYMid meet" version="1.0"><defs><clipPath id="5bbf9efc46"><path d="M 0.164062 47.109375 L 374.835938 47.109375 L 374.835938 327.609375 L 0.164062 327.609375 Z M 0.164062 47.109375 " clip-rule="nonzero"/></clipPath></defs><path fill="#8e8171" d="M 268.433594 251.535156 C 263.671875 255.679688 261.539062 251.609375 258.855469 251.527344 C 258.984375 250.636719 258.683594 249.742188 257.261719 248.84375 C 256.984375 249.300781 256.925781 250.199219 256.066406 250.839844 C 256.121094 250.589844 255.785156 249.253906 254.597656 249.546875 L 254.597656 248.878906 L 253.867188 248.878906 C 254.722656 252.910156 248.925781 252.328125 248.289062 255.9375 C 250.886719 253.429688 252.054688 257.601562 253.867188 255.972656 C 254.257812 257.734375 254.460938 259.234375 253.867188 261.441406 C 261.992188 262.871094 256.792969 259.597656 262.15625 257.304688 C 262.164062 257.6875 262.085938 258.0625 263.042969 258.6875 C 262.820312 257.789062 265.414062 252.605469 266.410156 255.1875 C 268.441406 254.984375 271.917969 255.910156 269.976562 252.402344 L 270.648438 252.402344 C 270.734375 251.261719 270.664062 251.542969 268.433594 251.535156 " fill-opacity="1" fill-rule="nonzero"/><path fill="#8e8171" d="M 189.226562 163.523438 C 186.789062 164.550781 189.871094 163.351562 189.886719 165.71875 C 189.992188 165.46875 190.964844 165.242188 190.757812 164.230469 L 192.792969 164.230469 C 192.679688 163.6875 193.21875 162.933594 194.308594 162.082031 C 193.277344 161.167969 191.953125 161.644531 190.722656 162.765625 L 189.953125 161.335938 C 189.554688 161.566406 189.007812 162.425781 189.226562 163.523438 " fill-opacity="1" fill-rule="nonzero"/><path fill="#8e8171" d="M 192.113281 160.050781 C 193.953125 159.238281 190.621094 157.121094 189.886719 159.355469 L 191.300781 159.355469 L 191.300781 160.796875 L 192.113281 160.050781 " fill-opacity="1" fill-rule="nonzero"/><path fill="#8e8171" d="M 261.488281 70.546875 C 266.039062 73.945312 265.476562 67.882812 264.132812 66.457031 C 259.734375 64.03125 259.324219 68.527344 261.488281 70.546875 " fill-opacity="1" fill-rule="nonzero"/><g clip-path="url(#5bbf9efc46)"><path fill="#8e8171" d="M 255.34375 110.785156 C 254.597656 110.75 253.207031 111.058594 252.011719 110.109375 C 253.925781 109.804688 255.875 108.605469 256.550781 111.378906 Z M 131.886719 187.726562 C 132.007812 187.738281 131.925781 187.664062 132.152344 187.96875 Z M 131.011719 197.183594 C 130.757812 196.78125 130.699219 196.066406 129.949219 195.523438 C 130.261719 195.765625 131.277344 195.71875 131.011719 197.183594 Z M 120.421875 198.828125 L 120.019531 198.433594 L 120.4375 198.816406 Z M 374.800781 166.277344 C 373.109375 160.273438 366.621094 168.726562 362.839844 162.4375 C 354.433594 166.414062 353.425781 155.738281 351.992188 148.363281 C 351.8125 147.433594 350.5625 147.234375 350.101562 148.0625 C 345.652344 156.046875 336.457031 153.191406 341.679688 148.140625 C 347.132812 148.773438 346.203125 145.941406 346.515625 142.484375 C 341.121094 136.84375 338.707031 149.601562 333.894531 138.523438 C 338.632812 137.019531 330.046875 130.289062 335.339844 129.546875 C 335.0625 128.4375 334.230469 125.566406 334.578125 123.890625 C 332.359375 124.917969 331.707031 116.46875 328.964844 118.304688 C 323.363281 105.683594 316.21875 92.578125 309.398438 83.347656 C 308.683594 82.378906 308.574219 81.082031 309.136719 80.019531 C 312.019531 74.589844 311.089844 68.617188 310.777344 63.996094 C 315.746094 58.621094 309.613281 54.921875 311 53.039062 C 308.851562 52.550781 309.664062 51.875 307.492188 53.75 C 307.410156 51.789062 304.34375 52.109375 304.714844 49.730469 C 294.132812 51.3125 306.296875 44.363281 290.585938 48.375 C 289.671875 48.609375 289.167969 49.535156 289.335938 50.460938 C 289.460938 51.125 289.304688 51.863281 288.539062 52.441406 C 289.882812 53.710938 290.566406 55.203125 292.703125 55.945312 C 291.910156 56.449219 290.851562 57.949219 290.621094 59.457031 C 293.46875 59.828125 290.214844 62.648438 287.992188 60.148438 C 288.925781 59.550781 288.488281 58.320312 287.242188 57.230469 C 284.230469 60.503906 287.796875 64.605469 281.605469 63.546875 C 281.785156 66.335938 279.945312 67.660156 279.621094 70.382812 C 279.34375 70.121094 278.988281 69.835938 278.238281 69 L 276.9375 71.027344 C 276.628906 68.949219 278.460938 65.9375 274.777344 64.871094 L 273.960938 67.023438 L 274.738281 67.023438 L 274.738281 68.324219 L 274.101562 68.324219 L 274.101562 67.617188 C 272.613281 67.453125 273.332031 69.203125 274.691406 71.167969 C 274.261719 71.207031 272.390625 71.367188 272.773438 69.625 C 271.6875 71.453125 266.058594 75.996094 269.132812 77.472656 C 268.492188 77.785156 267.78125 79.617188 266.335938 79.503906 C 274.628906 90.851562 246.367188 85.484375 260.882812 79.542969 C 255.796875 75.691406 247.097656 73.761719 254.457031 82.976562 C 253.828125 83.730469 253.808594 85.976562 253.867188 87.234375 C 260.96875 86.703125 255.742188 92.496094 259.375 94.828125 C 258 95.53125 256.804688 95.027344 254.636719 95.5 C 254.992188 95.183594 254.976562 93.921875 256.152344 94.191406 L 254.539062 92.632812 C 254.222656 93.296875 253.507812 93.480469 252.691406 93.332031 C 251.628906 93.132812 250.546875 93.566406 250.050781 94.527344 C 242.28125 109.515625 247.371094 97.867188 251.792969 109.957031 C 250.582031 109.042969 244.796875 110.652344 242.816406 107.945312 C 241.503906 108.035156 239.351562 107.96875 237.871094 107.257812 C 236.75 110.714844 237.921875 110.984375 241.4375 112.289062 C 245.328125 109.9375 244.945312 122.761719 235.839844 113.394531 L 235.125 114.816406 C 234.625 113.582031 231.871094 114.386719 232.457031 112.152344 C 227.261719 106.03125 233.855469 102.496094 224.113281 101.050781 L 224.828125 101.050781 L 224.828125 100.277344 L 223.410156 100.277344 L 223.410156 99.566406 C 221.988281 100.054688 219.519531 97.941406 221.421875 96.207031 C 221.054688 96.152344 220.554688 96.515625 219.980469 95.613281 C 221.375 94.449219 224.273438 98.789062 224.828125 97.011719 C 227.050781 98.230469 235.019531 100.710938 235.851562 98.285156 C 239.804688 103.402344 249.851562 94.191406 246.980469 88.484375 L 246.269531 88.484375 L 246.269531 87.03125 C 245.632812 88.234375 244.625 87.371094 244.894531 85.703125 C 242.164062 85.40625 240.191406 84.679688 236.453125 82.828125 L 236.453125 83.484375 C 232.039062 79.335938 224.464844 79.871094 219.148438 80.214844 C 219.226562 80.207031 218.765625 78.003906 217.785156 79.46875 C 213.160156 73.042969 216.601562 80.628906 212.183594 76.707031 C 212.324219 80.449219 211.75 78.363281 209.042969 78.125 L 209.574219 75.921875 C 209.363281 76.253906 208.152344 76.027344 207.363281 76.089844 C 207.878906 75.769531 208.617188 74.246094 207.359375 73.457031 C 207.574219 74.148438 209.800781 71.273438 207.988281 71.21875 C 208.203125 70.039062 206.917969 70.429688 205.191406 71.179688 C 205.464844 68.851562 202.058594 68.417969 200.941406 71.882812 C 201.289062 63.398438 197.726562 68.644531 197.3125 72.558594 C 196.535156 71.769531 195.863281 70.160156 196.058594 68.421875 L 195.429688 68.421875 C 198.054688 66.230469 188.726562 67.992188 193.019531 69.84375 C 191.660156 70.996094 189.882812 68.230469 189.601562 71.925781 L 188.808594 71.925781 L 189.578125 72.695312 L 188.253906 73.972656 L 187.542969 72.59375 C 185.957031 73.558594 188.070312 76.140625 184.675781 74.722656 L 184.675781 75.355469 C 182.636719 73.289062 180.503906 77.695312 181.890625 80.261719 C 181.316406 79.46875 179.652344 77.789062 179.148438 80.273438 L 178.414062 78.84375 C 177.097656 79.722656 177.933594 81.300781 178.34375 83.011719 C 176.332031 78.441406 176.675781 87.09375 175.660156 81.691406 C 174.925781 81.960938 174.679688 83.34375 174.835938 84.511719 C 172.480469 83.445312 172.597656 92.601562 170.027344 88.597656 C 168.574219 89.480469 169.773438 91.699219 168.65625 93.398438 L 168.65625 90.015625 C 168.039062 91.351562 166.90625 90.195312 165.621094 91.636719 C 166.066406 91.734375 167.246094 91.351562 167.125 92.851562 L 166.472656 92.152344 C 164.230469 93.050781 162.53125 92.5 166.414062 95.019531 C 165.679688 94.285156 161.746094 96.707031 164.996094 96.550781 C 165.054688 99.117188 160.25 98.148438 158.671875 101.320312 C 159.621094 101.910156 159.257812 102.585938 158.246094 102.746094 C 157.871094 102.808594 157.695312 103.238281 157.929688 103.539062 C 158.378906 104.113281 158.910156 104.628906 159.417969 103.640625 L 159.417969 104.816406 L 157.273438 104.816406 C 157.304688 105.171875 157.085938 105.613281 157.960938 106.253906 C 156.574219 107.292969 155.390625 107.410156 155.203125 110.371094 C 155.113281 110.25 154.929688 110.140625 154.78125 109.933594 C 154.566406 109.632812 154.105469 109.703125 153.9375 110.03125 C 153.765625 110.378906 153.648438 110.777344 153.726562 111.222656 C 154.902344 110.78125 154.949219 113.519531 153.070312 113.238281 C 153.070312 113.867188 153.367188 115.566406 151.652344 115.324219 L 151.652344 116.105469 C 153.25 116.242188 152.023438 118.375 150.644531 117.390625 C 149.96875 116.90625 149.066406 116.753906 148.363281 117.203125 C 147.929688 117.472656 147.398438 117.628906 146.726562 117.453125 C 146.882812 118.628906 145.898438 121.28125 143.929688 120.90625 L 143.929688 122.917969 C 143.269531 122.089844 143.039062 122.410156 141.859375 123.71875 C 140.972656 122.359375 140.980469 123.769531 139.011719 124.410156 L 139.011719 125.753906 C 138.761719 125.574219 138.558594 124.96875 137.515625 125.121094 C 138.421875 125.457031 138.699219 127.730469 136.941406 125.808594 C 136.5625 127.25 132.679688 125.164062 134.722656 128.617188 C 129.050781 127.605469 132.824219 128.535156 128.527344 131.292969 L 128.527344 130.046875 C 128.152344 130.066406 127.769531 129.882812 127.09375 130.730469 C 126.40625 129.226562 123.082031 130.9375 126.378906 132.238281 C 126.378906 133.691406 121.90625 132.480469 124.25 135.597656 L 122.832031 134.929688 C 121.84375 137.132812 127.523438 139.367188 122.832031 137.667969 C 122.796875 138.707031 122.796875 140.210938 124.222656 141.269531 L 123.546875 141.898438 C 122.847656 140.417969 121.3125 142.347656 123.3125 143.339844 C 120.652344 142.9375 123.429688 146.65625 126.148438 145.015625 C 125.1875 145.972656 124.878906 146.199219 123.464844 147.613281 L 124.875 148.976562 C 122.871094 148.664062 118.765625 149.910156 120.765625 153.332031 C 121.082031 152.199219 124.1875 149.597656 123.488281 153.179688 C 122.414062 153.089844 123.144531 153.570312 122.234375 155.140625 L 122.234375 154.476562 C 120.214844 156.273438 121.8125 159.96875 124.90625 160.222656 L 123.445312 161.589844 C 123.863281 161.546875 124.980469 163.125 125.617188 161.726562 L 125.617188 163.050781 C 127.09375 162.945312 128.914062 163.441406 130.582031 162.417969 L 130.582031 163.085938 C 140.636719 153.234375 137.222656 161.09375 141.015625 157.109375 C 141.390625 152.292969 144.996094 148.589844 143.820312 152.328125 C 143.589844 153.066406 143.875 153.886719 144.53125 154.296875 C 145.011719 154.597656 145.515625 154.996094 145.9375 155.28125 C 145.855469 155.429688 145.46875 155.636719 144.621094 156.75 L 144.636719 156.75 L 144.636719 163.050781 L 145.347656 163.050781 L 145.347656 164.566406 C 147.785156 162.101562 144.640625 169.433594 146.699219 170.707031 C 145.976562 171.046875 145.128906 173.644531 147.394531 173.558594 C 149.695312 178.921875 144.292969 187.167969 154.601562 186.140625 C 154.722656 181.242188 153.613281 183.5 157.464844 181.101562 L 156.765625 181.101562 C 158.507812 178.753906 160.402344 181.910156 163.023438 181.21875 C 162.707031 178.347656 164.878906 176.269531 165.820312 173.445312 L 165.144531 173.445312 C 165.609375 172.628906 165.457031 172.332031 166.554688 171.417969 C 164.160156 169.601562 168.996094 166.515625 166.550781 163.730469 L 168.042969 162.980469 L 165.867188 162.296875 C 166.855469 161.417969 170.519531 163.320312 170.027344 159.542969 C 170.707031 159.632812 171.242188 159.152344 172.113281 160.296875 C 172.402344 159.542969 172.863281 158.710938 173.707031 158.082031 C 174.140625 157.757812 174.175781 157.144531 173.773438 156.789062 C 172.519531 155.675781 177.527344 154.90625 175.660156 151.019531 L 174.292969 151.683594 C 174.863281 150.214844 172.425781 149.558594 172.875 147.523438 C 169.820312 149.667969 170.5 145.308594 168.730469 143.453125 C 170.289062 143.917969 170.097656 140.480469 170.027344 139.242188 L 170.824219 139.242188 C 169.277344 138.410156 171.746094 136.21875 171.445312 134.210938 C 165.03125 133.675781 173.367188 132.175781 175.699219 130.828125 C 173.734375 129.738281 177.574219 129.210938 175.742188 128.023438 C 176.632812 128.175781 177.296875 128.015625 177.742188 126.695312 C 178.078125 127.414062 178.824219 127.351562 179.914062 126.613281 C 180.464844 125.050781 182.011719 122.203125 183.960938 119.375 C 184.390625 118.757812 184.464844 117.976562 184.226562 117.261719 C 183.507812 115.089844 184.546875 110.527344 186.929688 111.222656 C 186.550781 104.382812 187.394531 110.308594 189.65625 107.039062 C 193.988281 109.328125 196.605469 106.570312 197.3125 114.617188 C 193.273438 113.910156 189.101562 129.949219 185.386719 127.25 C 183.171875 132.257812 184.546875 133.773438 185.386719 138.730469 C 185.914062 143.90625 181.835938 142.679688 185.441406 146.910156 C 192.203125 145.824219 191.871094 156.621094 196.644531 149.789062 L 197.355469 151.207031 C 198.925781 148.402344 203.816406 149.703125 204.40625 146.289062 L 205.121094 147.714844 C 205.574219 146.765625 207.523438 146.59375 207.949219 144.910156 C 209.070312 146.160156 211.574219 145.800781 212.183594 143.429688 C 211.648438 146.234375 215.929688 143.140625 215.382812 144.605469 C 213.679688 150.257812 223.214844 145.652344 222.585938 149.589844 L 216.960938 149.589844 L 216.960938 150.300781 L 216.40625 150.300781 L 216.40625 149.515625 C 215.574219 149.359375 215.847656 152.691406 215.15625 152.257812 C 214.691406 151.96875 214.085938 152.089844 213.910156 152.609375 C 212.765625 156.070312 210.910156 153.519531 206.753906 154.429688 C 206.226562 152.5 201.113281 154.984375 198.261719 154.464844 L 198.261719 155.882812 C 197.046875 154.65625 193.484375 159.046875 196.9375 158.785156 L 196.9375 159.953125 C 194.695312 162.109375 197.671875 165.394531 199.796875 163.121094 C 199.628906 164.894531 199.171875 174.074219 197.558594 173.914062 C 188.660156 163.402344 187.59375 168.03125 184.996094 178.886719 L 185.011719 178.882812 C 184.621094 181.351562 185.84375 183.878906 185.71875 186.570312 C 187.554688 186.15625 187.230469 187.96875 189.523438 188.605469 C 187.378906 190.039062 185.3125 185.78125 184.394531 188.363281 L 185.066406 188.363281 C 184.792969 189.792969 181.742188 191.652344 182.429688 188.203125 C 180.800781 188.890625 180.335938 190.1875 178.898438 191.40625 C 181.660156 191.972656 178.050781 193.058594 178.8125 195.253906 L 176.796875 195.253906 L 176.796875 194.546875 C 169.859375 197.457031 177.167969 186.410156 164.761719 193.152344 L 164.050781 192.386719 C 163.972656 193.585938 160.445312 194.230469 159.789062 195.964844 C 154.457031 194.070312 154.476562 203.417969 152.945312 198.101562 L 150.816406 198.101562 L 150.816406 195.253906 C 145.078125 191.738281 144.582031 195.878906 141.570312 194.457031 L 141.570312 195.253906 C 140.425781 195.195312 138.933594 195.546875 137.601562 194.65625 L 138.179688 194.65625 L 138.179688 194 L 138.847656 194 L 138.847656 192.414062 C 138.28125 192.539062 137.425781 191.980469 136.714844 193.132812 C 136.425781 192.367188 136.058594 191.453125 134.628906 191.757812 L 134.628906 191.046875 C 133.890625 191.128906 132.148438 191.230469 133.988281 189.683594 C 134.28125 189.644531 130.917969 187.878906 133.519531 187.75 C 133.261719 187.492188 132.855469 187.0625 132.007812 186.273438 C 132.265625 186.097656 132.488281 185.527344 133.519531 185.671875 C 133.632812 185.726562 131.871094 184.085938 133.441406 184.296875 C 134.152344 182.945312 138.105469 178.488281 138.253906 177.953125 C 138.671875 180.476562 141.433594 175.210938 137.65625 175.761719 L 137.65625 175.050781 C 136.496094 175.539062 136.792969 173.433594 138.453125 173.746094 C 138.257812 173.4375 137.445312 173.289062 137.65625 172.214844 L 136.175781 172.214844 C 136.785156 173.867188 131.929688 172.1875 134.046875 174.972656 C 133.785156 174.804688 133.476562 173.886719 132.734375 174.96875 C 133.09375 170.957031 130.515625 177.324219 129.238281 173.632812 C 126.667969 173.570312 128.628906 179.863281 126.96875 181.398438 C 129.976562 183.199219 129.878906 189.824219 127.515625 191.871094 L 128.171875 191.871094 C 128.023438 192.796875 128.15625 193.519531 129.550781 193.957031 C 129.386719 194.210938 128.5 194.5 129.523438 195.253906 L 126.804688 195.253906 C 126.816406 197.078125 127.046875 197.425781 126.09375 199.25 C 125.835938 198.941406 125.308594 197.796875 125.5 196.671875 L 124.679688 196.671875 C 124.960938 197.714844 123.582031 197.644531 124.828125 196.003906 C 124.039062 195.140625 121.097656 195.203125 119.75 195.253906 C 118.804688 196.503906 120.605469 198.3125 118.394531 198.855469 C 118.625 195.449219 118.488281 195.285156 114.898438 197.453125 L 114.898438 195.976562 C 114.101562 197.511719 110.175781 196.269531 110.519531 199.234375 C 111.683594 205.058594 105.59375 204.890625 108.628906 201.648438 L 107.933594 201.648438 C 109.238281 201.042969 110.054688 198.441406 107.175781 198.855469 L 107.175781 198.253906 C 106.394531 198.53125 106.964844 202.671875 104.894531 203.070312 C 105.140625 203.96875 104.257812 204.777344 102.804688 204.488281 L 102.804688 206.019531 C 103.625 205.898438 104.042969 206.304688 102.265625 207.234375 L 102.265625 205.90625 L 101.390625 205.90625 C 101.632812 207.695312 100.535156 208.570312 102.714844 209.367188 C 102.503906 209.300781 101.226562 209.636719 101.484375 210.726562 C 99.277344 211.011719 97.910156 210.289062 97.378906 208.601562 C 96.992188 208.621094 96.574219 208.414062 95.902344 209.335938 L 95.136719 208.511719 C 95.332031 209.085938 94.917969 209.691406 93.832031 210.011719 C 84.484375 208.160156 92.898438 217.65625 79.664062 217.550781 L 79.664062 218.417969 C 80.40625 218.382812 81.511719 218.65625 82.378906 219.679688 L 81.75 219.679688 L 81.75 220.394531 C 81.0625 219.632812 78.902344 219.609375 77.648438 219.679688 L 77.648438 218.96875 C 76.277344 219.203125 74.96875 218.421875 73.328125 217.515625 L 73.328125 218.265625 L 72.054688 217.597656 C 73.644531 216.632812 71.136719 216.796875 72.816406 214.808594 C 64.433594 212.054688 73.882812 225.128906 66.5 221.808594 L 67.167969 221.046875 C 66.070312 220.808594 64.675781 221.691406 63.480469 220.363281 L 63.480469 221.046875 L 62.226562 221.046875 L 62.226562 218.96875 C 61.378906 218.800781 60.082031 219.636719 61.449219 217.648438 C 59.777344 217.898438 59.417969 218.371094 57.300781 218.96875 C 57.457031 217.632812 55.921875 218.859375 54.410156 217.527344 C 54.203125 218.210938 52.675781 218.460938 51.550781 218.304688 L 51.550781 219.082031 L 53.585938 219.082031 L 53.585938 220.433594 L 52.96875 220.433594 C 53.070312 221.445312 52.066406 220.632812 50.769531 221.925781 C 51.839844 220.78125 53.125 225.25 53.082031 223.328125 L 54.464844 224.035156 C 54.417969 222.070312 55.367188 225.140625 57.183594 225.375 L 57.183594 226.085938 L 57.84375 226.085938 L 57.84375 227.503906 L 60.605469 227.503906 L 59.84375 228.214844 C 60.960938 227.957031 61.726562 228.871094 60.660156 230.300781 C 60.957031 230.226562 62.417969 230.414062 62.113281 231.722656 C 62.058594 232.371094 61.664062 240.304688 65.605469 238.75 C 65.53125 239.183594 65.980469 240.09375 64.816406 240.800781 L 65.53125 240.800781 C 64.625 241.773438 64.933594 243.257812 64.1875 245.015625 L 64.898438 245.015625 C 64.746094 246.148438 66.015625 247.992188 65.605469 249.703125 C 64.867188 248.414062 64.253906 246.789062 63.59375 244.828125 C 61.078125 246.855469 64.144531 252.113281 60.691406 251.859375 C 58.578125 260.5625 52.449219 261.496094 46.226562 256.027344 C 39.148438 254.171875 24.476562 249.277344 25.550781 246.195312 C 24.714844 246.457031 23.71875 247.664062 22.597656 246.152344 L 22.597656 246.894531 L 20.425781 246.894531 C 21.308594 247.378906 21.0625 248.023438 19.910156 248.945312 C 20.15625 247.40625 18.089844 248.109375 17.042969 246.851562 L 16.335938 248.273438 C 15.867188 247.40625 13.292969 248.273438 14.875 250.578125 L 15.589844 249.917969 C 15.652344 250.1875 15.339844 251.445312 14.164062 251.152344 L 14.164062 251.882812 L 14.988281 251.882812 C 15.316406 250.398438 17.320312 251.492188 14.792969 254.011719 C 17.328125 254.585938 12.847656 254.671875 13.546875 256.796875 C 11.476562 271.257812 2.300781 272.703125 1.675781 279.136719 C 10.140625 280.152344 -5.308594 291.648438 2.382812 292.441406 C 3.386719 291.433594 5.710938 295.257812 7.257812 293.949219 L 7.257812 294.570312 C 9.503906 292.808594 16.3125 297.011719 14.082031 299.535156 L 15.546875 299.535156 C 15.398438 300 14.746094 300.570312 14.875 301.550781 L 13.367188 301.550781 C 14.152344 303.59375 15.546875 304.242188 17.042969 306.578125 C 23.226562 299.148438 36.433594 308.617188 40.800781 306.4375 C 46.058594 299.398438 42.558594 308.117188 57.175781 296.683594 C 52.105469 291.078125 60.773438 285.925781 65.570312 283.28125 L 64.917969 283.28125 L 64.917969 282.734375 C 72.128906 278.558594 82.40625 284.105469 81.886719 272.265625 C 80.339844 268.097656 87.804688 266.171875 91.589844 268.105469 L 91.589844 269.605469 C 92.171875 269.039062 93.117188 268.359375 94.429688 268.105469 L 94.429688 269.527344 L 95.804688 269.527344 L 95.804688 270.984375 L 96.570312 270.21875 C 102.820312 277.296875 101.699219 269.824219 105.050781 270.902344 L 105.050781 270.195312 L 106.355469 270.195312 L 106.355469 270.980469 C 108.839844 269.707031 115.3125 262.773438 117.496094 266.578125 C 117.878906 265.261719 119.414062 266.722656 120.335938 267.3125 C 120.265625 266.472656 120.480469 265.636719 122.273438 265.84375 C 121.863281 266.1875 121.050781 267.019531 122.324219 267.914062 C 122.492188 278.457031 140.648438 294.917969 141.390625 292.464844 C 145.453125 296.40625 161.640625 309.617188 153.257812 311.253906 C 150.457031 320.71875 155.96875 317.214844 159.0625 311.3125 C 164.570312 310.300781 161.425781 305.125 159.359375 304.453125 C 157.910156 303.503906 158.910156 302.773438 160.523438 300.082031 L 159.792969 300.082031 C 161.394531 297.375 163.453125 300.835938 166.644531 300.195312 C 166.691406 308.820312 180.523438 299.296875 154.824219 290.949219 C 162.898438 284.136719 145.191406 294.496094 142.863281 272.773438 C 136.785156 271.144531 134.195312 269.230469 137.941406 262.929688 C 137.503906 263.023438 136.3125 262.867188 136.519531 261.566406 L 135.882812 261.566406 C 136.085938 261.421875 136.253906 260.761719 137.1875 260.917969 L 137.1875 259.539062 C 139.832031 260.839844 142.550781 256.234375 144.285156 259.617188 C 144.070312 256.960938 144.609375 259.074219 146.257812 257.59375 C 146.421875 259.160156 146.414062 259.816406 144.144531 260.953125 C 145.503906 262.089844 144.40625 264.300781 146.328125 265.976562 C 149.371094 258.519531 152.25 263.363281 151.171875 268.722656 L 152.589844 268.722656 L 152.589844 269.484375 C 153.332031 269.332031 153.695312 269.765625 154.648438 270.738281 L 152.5 270.738281 C 157.867188 277.449219 174.886719 284.421875 174.410156 287.605469 L 175.785156 287.605469 L 175.785156 288.320312 L 177.320312 288.320312 L 177.320312 288.265625 C 177.300781 287.945312 178.808594 290.460938 177.246094 290.238281 C 177.410156 293.714844 176.78125 296.382812 176.539062 299.445312 L 177.246094 299.445312 L 177.246094 300.082031 L 176.539062 300.082031 C 175.898438 302.742188 179.828125 300.894531 180.71875 304.242188 L 180.625 304.242188 C 181.015625 305.082031 181.558594 306.878906 183.402344 306.445312 C 183.589844 307.308594 182.835938 308.402344 184.222656 309.304688 C 184.054688 309.023438 187.660156 307.308594 187.003906 309.835938 C 182.769531 309.171875 183.925781 314.558594 189.039062 312.789062 L 189.039062 313.480469 C 190.777344 312.617188 193.085938 312.011719 194.828125 314.183594 C 194.90625 311.886719 197.246094 314.9375 198.84375 315.496094 C 195.375 318.773438 197.015625 313.429688 194.070312 315.386719 L 194.070312 314.75 C 178.730469 315.785156 193.289062 318.285156 189.015625 322.53125 C 190.277344 324.945312 191.441406 329.269531 192.597656 323.265625 C 193.800781 325.785156 196.035156 331.414062 196.75 324.75 L 196.75 326.082031 L 197.460938 326.082031 L 197.460938 327.457031 L 201.171875 327.457031 C 201.152344 325.996094 198.476562 325.632812 198.992188 323.128906 C 192.507812 316.890625 202.476562 324.992188 202.539062 318.875 C 197.738281 322.339844 200.027344 313.136719 204.671875 318.40625 C 206.058594 308.285156 192.875 313.445312 197.574219 307.75 C 193.429688 306.335938 200.390625 303.726562 199.640625 307.863281 C 200.335938 308.105469 200.71875 307.390625 201.210938 306.332031 C 197.804688 305.957031 191.832031 295.695312 197.464844 297.007812 C 197.996094 299.792969 199.566406 301.875 202.539062 302.972656 C 202.898438 301.386719 199.839844 301.980469 200.414062 299.523438 C 201.292969 300.464844 202.695312 301.988281 204.671875 302.300781 L 204.671875 301.457031 C 203.503906 301.722656 203.734375 300.371094 202.613281 299.445312 L 203.804688 299.445312 C 203.339844 301.410156 205.105469 301.097656 206.792969 299.914062 C 207.09375 299.703125 207 299.234375 206.640625 299.148438 C 205.050781 298.773438 202.878906 297.929688 202.539062 295.9375 C 208.148438 297.1875 204.980469 292.84375 207.335938 294.550781 C 207.515625 295.449219 211.304688 295.300781 209.671875 293.859375 C 213.898438 293.199219 216.984375 297.449219 219.894531 295.40625 C 220.261719 296.203125 219.429688 296.667969 218.613281 297.308594 C 218.199219 297.632812 218.429688 298.324219 218.957031 298.316406 C 221.976562 298.273438 224.417969 293.761719 228.0625 292.023438 C 230.03125 291.105469 233.414062 293.171875 233.433594 290.234375 C 233.433594 289.886719 233.195312 289.582031 232.859375 289.503906 C 230.160156 288.847656 226.621094 287.265625 226.78125 283.839844 C 226.789062 283.609375 226.640625 283.402344 226.410156 283.378906 C 225.890625 283.320312 225.222656 283.011719 225.402344 282.007812 C 224.871094 282.136719 223.957031 281.617188 223.316406 282.628906 C 223.441406 282.148438 222.738281 279.683594 224.691406 280.035156 C 224.679688 279.613281 224.492188 279.261719 225.425781 278.558594 C 225.476562 278.910156 223.816406 276.351562 225.402344 276.539062 L 225.402344 273.742188 C 232.097656 275.109375 226.066406 267.691406 229.929688 265.113281 C 226.382812 266.34375 230.738281 258.546875 230.496094 263.851562 C 230.917969 263.921875 232.132812 263.707031 231.976562 262.429688 C 233.640625 263.351562 233.929688 255.714844 232.804688 259.144531 C 232.320312 258.410156 229.578125 254.5625 232.34375 254.480469 L 232.34375 255.269531 C 235.640625 253.273438 239.230469 254.121094 233.824219 250.40625 L 234.375 250.40625 L 234.375 250.496094 C 240.800781 250.65625 232.902344 249.375 242.707031 246.195312 L 242.707031 246.808594 L 243.570312 246.808594 L 243.570312 245.140625 C 243.570312 244.730469 244.125 244.597656 244.3125 244.96875 C 244.691406 245.722656 245.113281 246.613281 245.5 247.457031 C 240.585938 249.957031 249.167969 251.828125 251.820312 248.328125 L 252.480469 250.464844 C 252.804688 248.675781 257.6875 245.996094 258.742188 248.28125 L 259.523438 248.28125 L 259.523438 247.570312 C 260.945312 247.78125 260.136719 245.007812 262.152344 244.808594 L 262.152344 246.195312 C 273.3125 239.15625 268.105469 244.027344 274.101562 237.183594 C 275.425781 238.671875 275.332031 236.59375 277.441406 235.863281 C 276.902344 239.78125 280.664062 233.222656 281.753906 235.917969 C 281.769531 238.660156 276.199219 237.65625 279.574219 240.542969 C 271.84375 240.9375 275.296875 242.171875 280.011719 244.667969 C 279.636719 244.660156 279.5625 244.6875 278.867188 245.347656 L 278.191406 244.5625 C 277.734375 245.578125 279.167969 246.4375 278.242188 247.429688 C 275.898438 244.789062 276.972656 247.054688 275.324219 248.9375 C 275.71875 249.113281 276.363281 249.847656 276.117188 250.914062 C 269.03125 254.695312 280.09375 254.355469 279.621094 256.566406 C 284.992188 255.035156 288.515625 261.285156 294.238281 262.90625 C 295.570312 263.742188 299.878906 262.039062 299.78125 264.933594 C 302.148438 264.207031 304.515625 268.851562 305.925781 271.070312 C 305.726562 270.371094 303.371094 273.953125 305.425781 273.929688 L 305.425781 273.21875 C 308.71875 274.058594 313.960938 270.328125 313.636719 273.929688 C 322.636719 272.699219 313.605469 283.503906 323.359375 279.535156 C 323.472656 279.746094 324.210938 279.980469 324.050781 280.933594 C 345.078125 294.652344 342.019531 265.824219 348.429688 277.980469 L 347.527344 277.980469 C 352.761719 282.382812 341.109375 281.347656 354.160156 282.972656 L 353.347656 282.160156 L 354.078125 281.574219 C 348.601562 278.03125 356.691406 278.796875 352.644531 273.21875 C 354.066406 271.578125 352.523438 269.0625 353.746094 267.359375 C 354.265625 266.632812 353.972656 265.617188 353.109375 265.402344 C 347.460938 263.984375 349.214844 261.992188 343.671875 259.304688 L 343.707031 259.238281 C 329.453125 254.171875 337.347656 248.097656 328.214844 243.898438 C 326.5 248.015625 324.855469 240.078125 327.699219 237.714844 C 326.230469 237.574219 327.230469 230.300781 328.941406 233.019531 C 329.988281 231.726562 331.578125 230.894531 332.457031 228.875 L 333.0625 229.585938 C 336.335938 224.875 327.425781 226.164062 330.394531 224.082031 C 331.113281 223.578125 331.152344 222.539062 330.453125 222.015625 C 329.042969 220.960938 327.234375 219.902344 325.882812 218.664062 C 325.269531 218.097656 324.363281 218.03125 323.636719 218.449219 C 319.203125 221.003906 319.964844 213.011719 316.507812 216.101562 C 316.3125 214.554688 316.480469 212.089844 317.960938 210.617188 C 313.921875 210.992188 315.667969 202.945312 315.839844 200.941406 L 315.230469 200.941406 C 317.234375 196.761719 317.921875 201.136719 320.613281 202.542969 C 322.996094 201.203125 321.617188 197.234375 319.324219 196.117188 C 319.914062 195.789062 320.835938 195.347656 322.035156 195.511719 C 321.828125 187.847656 322.144531 193.867188 324.71875 189.625 C 327.34375 187.691406 326.402344 183.914062 327.898438 185.414062 C 330.691406 189.164062 331.316406 180.542969 334.226562 182.648438 C 334.648438 182.953125 335.222656 182.867188 335.515625 182.433594 C 336.535156 180.925781 340.738281 182.570312 343.582031 183.726562 C 344.386719 184.050781 345.226562 183.453125 345.257812 182.585938 C 345.382812 179.328125 352.777344 186.171875 351.996094 180.226562 L 352.609375 180.226562 C 352.582031 179.914062 352.777344 179.503906 352.0625 178.859375 L 354.773438 178.859375 C 353.054688 176.476562 355.523438 177.113281 358.246094 177.429688 L 358.246094 176.011719 L 359.546875 176.011719 C 358.550781 170.132812 364.558594 176.144531 368.65625 174.027344 C 367.597656 170.023438 375.433594 170.964844 374.800781 166.277344 " fill-opacity="1" fill-rule="nonzero"/></g><path fill="#8e8171" d="M 77.683594 294.703125 C 76.867188 294.304688 77.375 293.53125 76.222656 292.53125 C 76.160156 292.730469 75.3125 293.035156 75.457031 293.976562 L 72.660156 293.976562 L 72.660156 294.796875 C 77.011719 294.335938 75.054688 299.417969 79.199219 294.683594 C 78.953125 294.6875 78.496094 294.675781 77.683594 294.703125 " fill-opacity="1" fill-rule="nonzero"/><path fill="#8e8171" d="M 83.308594 293.28125 C 81.082031 291.574219 81.613281 294.300781 84.753906 294.796875 L 84.753906 293.265625 C 84.5 293.265625 84.101562 293.257812 83.308594 293.28125 " fill-opacity="1" fill-rule="nonzero"/><path fill="#8e8171" d="M 64.949219 296.773438 L 64.949219 297.480469 L 63.53125 297.480469 L 63.53125 299.050781 C 63.929688 298.957031 64.726562 298.140625 65.722656 298.304688 C 65.679688 297.796875 65.582031 297.558594 66.570312 296.773438 L 64.949219 296.773438 " fill-opacity="1" fill-rule="nonzero"/><path fill="#8e8171" d="M 41.726562 82.957031 C 42.449219 83.582031 43.386719 85.496094 45.21875 85.105469 C 44.804688 87.074219 45.882812 90.292969 48.714844 90.03125 C 48.410156 92.03125 49.566406 91.304688 50.957031 92.890625 C 50.980469 92.460938 50.71875 92.132812 51.550781 91.476562 L 51.550781 92.105469 C 52.886719 91.847656 57.5625 90.734375 58.5625 92.851562 C 59.621094 92 64.503906 90.597656 64.1875 92.894531 C 64.886719 91.757812 67.257812 92.234375 67.71875 90.066406 C 70.457031 92.597656 73.214844 87.792969 72.011719 83.613281 C 70.132812 84.5 70.335938 81.472656 72.011719 83.050781 C 70.261719 78.953125 72.523438 81.035156 72.734375 78.617188 C 70.660156 80.222656 70.519531 78.957031 71.242188 75.960938 L 71.242188 76.574219 L 69.824219 75.867188 C 70.308594 76.992188 67 79.617188 67.097656 76.574219 C 66.125 76.847656 65.25 78.011719 63.613281 78.03125 C 63.78125 76.882812 64.972656 76.132812 63.480469 75.109375 C 61.089844 83.671875 62.792969 71.617188 60.746094 74.5 L 59.929688 73.695312 C 56.761719 80.707031 58.851562 68.125 55.816406 74.980469 C 54.824219 75.28125 54 73.398438 52.375 76.472656 L 52.375 75.902344 C 50.738281 76.671875 53.039062 73.03125 52.375 71.800781 C 52.992188 71.988281 54.109375 71.722656 54.5 70.265625 C 52.515625 71.3125 56.835938 64.839844 51.472656 65.394531 C 51.800781 65.632812 52.558594 66.519531 52.933594 67.523438 L 52.261719 67.523438 C 52.859375 69.476562 50.957031 71.820312 50.957031 68.160156 L 50.203125 68.832031 L 50.203125 66.160156 L 50.089844 66.160156 C 50.3125 66.558594 49.707031 67.34375 48.714844 66.027344 L 48.714844 68.195312 C 47.574219 67.671875 46.488281 66.859375 48.675781 68.941406 C 46.953125 69.757812 47.230469 69.957031 45.875 67.449219 L 45.875 68.902344 L 45.332031 68.902344 L 45.332031 68.160156 C 42.136719 69.6875 57.675781 74.597656 47.199219 73.105469 C 47.699219 73.464844 48.390625 74.289062 49.398438 75.25 C 48.710938 77.703125 42.101562 70.222656 41.710938 74.636719 C 42.589844 74.90625 45.410156 73.753906 45.21875 76.015625 C 46.75 75.914062 45.257812 77.710938 45.21875 79.609375 L 45.878906 78.898438 C 46.058594 80.011719 42.09375 82.304688 40.988281 80.789062 C 40.691406 81.335938 39.59375 83.171875 41.726562 82.957031 " fill-opacity="1" fill-rule="nonzero"/><path fill="#8e8171" d="M 41.757812 180.851562 C 42.277344 181.933594 43.34375 180.890625 44.421875 182.148438 C 43.070312 182.570312 42.402344 181.488281 40.609375 181.386719 Z M 36.804688 184.25 C 33.203125 187.9375 38.582031 184.058594 36.789062 187.84375 L 38.019531 187.84375 C 36.246094 188.578125 37.03125 188.582031 38.597656 188.554688 C 37.246094 188.773438 36.390625 189.8125 38.914062 188.585938 L 38.914062 189.96875 C 40.433594 188.042969 42.121094 191.207031 43.847656 189.246094 C 44.472656 189.96875 45.433594 190.183594 47.292969 188.636719 L 47.292969 189.222656 C 64.785156 188.511719 54.570312 182.613281 64.761719 173.957031 L 64.761719 175.300781 L 65.535156 175.300781 C 65.554688 171.808594 63.996094 174.585938 63.648438 172.9375 C 65.847656 172.078125 64.328125 170.824219 64.113281 168.144531 L 62.039062 168.144531 C 62.195312 166.492188 62.5625 167.148438 59.929688 165.214844 L 59.929688 166.058594 C 55.4375 165.035156 54.800781 166.472656 50.792969 168.121094 C 51.238281 168.476562 52.167969 169.710938 53.515625 169.675781 C 52.503906 169.492188 50.457031 172.777344 49.921875 172.097656 C 48.554688 170.042969 42.863281 166.609375 44.546875 171.878906 C 44.242188 172.824219 40.042969 175.671875 43.132812 176.625 L 43.132812 178.085938 C 48.964844 175.5 42.535156 180.820312 39.433594 180.726562 L 40.195312 181.386719 L 39.53125 181.386719 C 39.257812 182.765625 32.449219 182.648438 38.832031 184.234375 C 38.328125 184.238281 37.738281 184.222656 36.804688 184.25 " fill-opacity="1" fill-rule="nonzero"/><path fill="#8e8171" d="M 118.148438 278.234375 C 112.910156 276.40625 111.039062 284.859375 115.609375 288.21875 C 115.828125 285.394531 119.464844 281.847656 118.148438 278.234375 " fill-opacity="1" fill-rule="nonzero"/><path fill="#8e8171" d="M 117.007812 291.53125 L 116.441406 290.96875 L 117.097656 290.96875 C 116.957031 290.414062 115.359375 289.988281 115.609375 288.640625 C 115.300781 288.835938 115.152344 289.648438 114.078125 289.4375 L 114.078125 290.09375 C 112.921875 289.734375 109.820312 292.132812 108.484375 290.773438 C 108.082031 291.625 106.863281 298.109375 110.488281 297.21875 C 108.84375 297.660156 109.964844 300.761719 107.691406 300.601562 C 108.890625 301.855469 107.058594 306.324219 111.394531 305.640625 C 111.148438 304.6875 111.710938 302.789062 113.464844 304.261719 C 117.027344 306.359375 115.246094 296.308594 117.738281 294.363281 L 117.0625 294.363281 C 117.230469 293.832031 118.148438 292.726562 117.007812 291.53125 " fill-opacity="1" fill-rule="nonzero"/><path fill="#8e8171" d="M 148.589844 314.632812 C 136.757812 318.109375 138.589844 311.976562 134.578125 314.578125 C 133.191406 310.902344 130.652344 317.496094 132.582031 317.640625 C 140.339844 320.625 141.074219 323.734375 147.980469 325.976562 C 147.121094 324.804688 150.898438 322.8125 148.773438 322.324219 L 149.484375 321.667969 C 146.847656 321.066406 151.445312 316.472656 151.472656 313.867188 C 150.875 314.222656 149.863281 314.824219 148.589844 314.632812 " fill-opacity="1" fill-rule="nonzero"/><path fill="#8e8171" d="M 66.316406 183.710938 L 66.316406 185.195312 C 67.367188 185.394531 70.296875 184.144531 66.316406 183.710938 " fill-opacity="1" fill-rule="nonzero"/><path fill="#8e8171" d="M 74.472656 208.335938 L 75.949219 208.335938 L 75.949219 207.515625 L 73.621094 207.515625 L 74.472656 208.335938 " fill-opacity="1" fill-rule="nonzero"/><path fill="#8e8171" d="M 88.25 143.734375 C 87.925781 143.929688 87.734375 144.691406 86.589844 144.519531 L 88.25 146.085938 L 88.25 143.734375 " fill-opacity="1" fill-rule="nonzero"/><path fill="#8e8171" d="M 97.222656 139.660156 C 97.167969 145.1875 100.261719 130.058594 97.933594 138.1875 L 96.515625 138.1875 C 96.535156 138.566406 96.332031 138.984375 97.222656 139.660156 " fill-opacity="1" fill-rule="nonzero"/><path fill="#8e8171" d="M 71.242188 146.484375 C 71.023438 146.25 70.5 146.125 70.644531 145.105469 C 69.808594 145.929688 68.925781 147.726562 69.058594 149.628906 C 69.21875 148.957031 71.25 145.859375 71.242188 148.945312 C 72.109375 148.644531 71.636719 146.476562 73.441406 146.667969 C 73.128906 145.863281 74.226562 145.773438 74.101562 144.4375 C 73.816406 145.21875 72.402344 145.28125 71.242188 145.1875 L 71.242188 146.484375 " fill-opacity="1" fill-rule="nonzero"/><path fill="#8e8171" d="M 70.644531 178.222656 C 71.382812 175.976562 67.210938 177.175781 69.101562 178.914062 C 69.183594 178.878906 69.9375 178.542969 70.644531 178.222656 " fill-opacity="1" fill-rule="nonzero"/><path fill="#8e8171" d="M 69.769531 151.648438 L 69.769531 153.195312 L 71.125 152.46875 C 69.9375 156.375 72.574219 154.265625 72.734375 150.828125 C 72.5 151.058594 72.132812 151.535156 71.304688 152.214844 L 71.304688 150.878906 L 69.769531 151.648438 " fill-opacity="1" fill-rule="nonzero"/><path fill="#8e8171" d="M 71.054688 196.777344 L 70.699219 196.777344 L 70.699219 196.742188 L 71.054688 196.742188 Z M 73.796875 152.820312 L 73.8125 153.472656 L 73.1875 153.472656 L 73.1875 153.585938 C 75.726562 153.742188 72.246094 156.667969 70.25 159.097656 C 70.347656 159.164062 70.269531 159.113281 69.882812 158.574219 C 68.117188 158.621094 70.886719 158.695312 68.988281 160.160156 L 69.769531 160.160156 L 69.769531 160.769531 L 69.882812 160.769531 L 69.882812 160.160156 L 70.644531 160.160156 L 70.644531 159.488281 L 71.785156 160.628906 C 72.226562 159.53125 72.710938 158.839844 74.421875 158.503906 C 73.816406 159.035156 73.445312 159.523438 72.292969 160.589844 L 73.128906 160.589844 L 73.128906 161.183594 C 71.445312 160.761719 69.949219 162.621094 70.292969 164.828125 C 72.921875 161.441406 73.570312 163.082031 71.710938 165.464844 C 72.003906 165.46875 74.320312 165.308594 74.507812 166.765625 L 73.796875 166.765625 C 73.851562 167.628906 72.566406 169.464844 71.003906 169.5625 C 71.097656 170.035156 70.890625 171.148438 69.582031 170.929688 L 69.582031 171.691406 L 68.871094 171.691406 L 68.871094 174.589844 L 69.695312 174.589844 C 69.445312 171.632812 70.515625 173.605469 71.824219 175.382812 C 71.335938 174.453125 72.84375 171.71875 73.128906 174.628906 L 74.507812 173.917969 L 74.507812 174.589844 L 75.332031 174.589844 C 75.089844 172.429688 76.953125 175.925781 78.015625 173.964844 C 78.019531 174.238281 77.695312 175.191406 76.636719 174.957031 L 76.636719 175.535156 C 75.25 173.554688 72.753906 179.84375 75.894531 179.945312 C 73.355469 182.273438 76.574219 179.050781 77.347656 181.90625 L 75.980469 181.90625 L 75.980469 182.617188 L 75.269531 182.617188 C 75.742188 185.148438 73.976562 183.035156 73.839844 185.527344 L 74.550781 185.527344 L 74.550781 186.90625 L 75.195312 186.90625 C 75.273438 186.84375 73.636719 188.304688 73.957031 186.707031 C 73.699219 187.214844 72.609375 187.878906 72.777344 186.214844 L 71.410156 186.214844 L 71.410156 185.539062 C 70.292969 185.996094 61.03125 188.117188 67.183594 188.488281 C 68.5625 186.191406 68.789062 189.953125 67.050781 190.433594 C 68.621094 191.933594 66.28125 191.390625 65.007812 193.242188 L 64.296875 192.480469 C 62.503906 194.625 60.8125 190.691406 59.234375 194.753906 L 61.441406 194.753906 L 61.441406 195.304688 L 60.734375 195.304688 C 60.457031 197.734375 65.367188 193.40625 64.238281 197.546875 L 66.296875 197.546875 C 64.539062 200.359375 70.5625 199.210938 72.347656 198.820312 C 70.765625 200.410156 66.125 203.382812 64.113281 200.136719 L 61.835938 200.136719 C 62.925781 200.777344 62.59375 201.832031 60.492188 200.796875 C 61.066406 202.800781 54.398438 204.707031 52.839844 205.125 L 54.160156 205.125 L 54.160156 206.542969 L 55.695312 206.542969 L 55.695312 205.835938 L 56.289062 205.835938 L 56.289062 206.625 C 58.886719 203.316406 60.609375 207.175781 63.390625 207.234375 C 63.71875 204.582031 68.488281 203.46875 69.636719 207.25 C 71.390625 206.359375 72.332031 206.800781 74.664062 207.25 C 74.835938 204.289062 76.078125 207.707031 78.054688 207.25 C 78.847656 209.898438 94.007812 208.382812 88.53125 205.894531 C 87.664062 206.683594 84.476562 204.363281 85.738281 203.699219 C 86.429688 204.683594 89.195312 203.328125 87.390625 202.882812 C 87.640625 202.242188 89.148438 202.363281 90.148438 202.378906 L 90.148438 201.617188 C 95.496094 199.925781 95.59375 193.84375 86.644531 194.070312 C 88.882812 190.136719 90.410156 191.246094 85.933594 186.90625 C 86.109375 186.9375 86.371094 186.878906 86.664062 186.882812 C 87.386719 186.886719 87.945312 186.238281 87.867188 185.527344 C 87.28125 180.183594 85.140625 176.785156 84.457031 169.960938 L 84.394531 170.089844 C 84.625 167.820312 74.730469 165.824219 79.949219 166.835938 C 81.222656 167.074219 81.359375 166.179688 83.117188 165.347656 C 79.566406 164.617188 81.316406 163.957031 85.171875 164.082031 C 84.613281 162.769531 89.035156 162.457031 86.574219 160.53125 C 86.789062 160.40625 87.023438 159.726562 87.96875 159.878906 C 92.28125 156.066406 83.871094 154.808594 79.589844 156.257812 L 79.589844 154.957031 L 80.199219 154.957031 L 80.199219 154.839844 C 79.175781 154.988281 79.589844 153.835938 81.625 153.585938 C 80.796875 152.058594 91.476562 149.71875 85.171875 148.546875 L 85.171875 147.847656 C 84.628906 148.324219 82.074219 149.09375 82.332031 147.042969 L 81.570312 147.851562 L 81.070312 147.242188 C 82.058594 147.382812 80.609375 146.289062 79.476562 146.460938 C 79.613281 146.984375 79.21875 147.730469 78.683594 148.664062 L 79.394531 148.664062 C 79.203125 150.113281 76.355469 147.601562 77.941406 149.304688 C 76.960938 149.566406 76.578125 149.511719 77.304688 151.980469 C 76.863281 151.894531 77.34375 151.308594 76.039062 151.382812 C 76.332031 149.898438 73.648438 150.523438 73.796875 152.820312 " fill-opacity="1" fill-rule="nonzero"/><path fill="#8e8171" d="M 131.351562 170.5 C 125.910156 175.621094 136.371094 167.902344 139.128906 172.070312 C 140.433594 170.265625 139.765625 169.355469 140.363281 167.839844 C 140.648438 167.128906 139.914062 166.4375 139.21875 166.757812 C 136.625 167.9375 134.949219 171.152344 131.351562 170.5 " fill-opacity="1" fill-rule="nonzero"/><path fill="#8e8171" d="M 138.417969 186.707031 L 138.417969 183.847656 C 137.957031 183.875 137.683594 184.011719 136.941406 183.070312 L 136.273438 183.820312 L 135.507812 183.011719 L 135.507812 183.847656 L 134.757812 183.847656 L 134.757812 186.050781 L 136.21875 186.050781 L 136.21875 186.707031 L 138.417969 186.707031 " fill-opacity="1" fill-rule="nonzero"/><path fill="#8e8171" d="M 140.117188 182.402344 C 139.703125 182.722656 138.722656 183.628906 140.074219 184.570312 C 138.230469 185.742188 140.402344 187.082031 142.230469 186.664062 L 142.230469 187.300781 C 140.785156 187.132812 142.691406 188.261719 143.847656 188.082031 C 141.390625 186.765625 146.839844 186.417969 144.453125 184.570312 C 148.289062 181.574219 144.660156 182.058594 146.644531 180.300781 L 145.929688 180.300781 L 146.636719 179.589844 C 145.6875 179.78125 144.585938 179.003906 143.574219 180.414062 C 144.132812 180.347656 146.304688 181.535156 142.9375 181.679688 C 142.230469 184.707031 142.511719 181.308594 141.519531 180.96875 C 141.605469 181.421875 141.425781 182.585938 140.117188 182.402344 " fill-opacity="1" fill-rule="nonzero"/><path fill="#8e8171" d="M 138.679688 188.679688 C 137.816406 190.4375 144.246094 191.734375 140.214844 189.390625 L 140.214844 188.679688 L 138.679688 188.679688 " fill-opacity="1" fill-rule="nonzero"/><path fill="#8e8171" d="M 142.230469 189.445312 C 142.210938 189.9375 142.140625 190.160156 143.050781 190.964844 L 143.050781 190.160156 L 143.761719 190.160156 L 143.761719 189.390625 C 143.28125 189.421875 143.023438 189.535156 142.230469 188.601562 L 142.230469 189.445312 " fill-opacity="1" fill-rule="nonzero"/><path fill="#8e8171" d="M 207.539062 313.773438 C 206.96875 312.304688 200.539062 307.820312 198.222656 309.636719 C 201.660156 310.605469 205.355469 313.222656 208.21875 316.054688 C 208.113281 315.363281 208.578125 314.664062 207.539062 313.773438 " fill-opacity="1" fill-rule="nonzero"/><path fill="#8e8171" d="M 171.328125 84.566406 L 171.328125 85.367188 C 171.417969 85.128906 172.339844 84.867188 172.15625 83.914062 C 174.695312 85.027344 173.910156 79.230469 172.761719 81.765625 C 170.660156 81.585938 171.972656 81.8125 170.597656 83.855469 L 171.328125 84.566406 " fill-opacity="1" fill-rule="nonzero"/></svg>