<svg xmlns="http://www.w3.org/2000/svg" xmlns:xlink="http://www.w3.org/1999/xlink" width="500" zoomAndPan="magnify" viewBox="0 0 375 374.999991" height="500" preserveAspectRatio="xMidYMid meet" version="1.0"><defs><clipPath id="68a711c533"><path d="M 13.289062 6.644531 L 374.789062 6.644531 L 374.789062 368.144531 L 13.289062 368.144531 Z M 13.289062 6.644531 " clip-rule="nonzero"/></clipPath></defs><g clip-path="url(#68a711c533)"><path fill="#000000" d="M 368.765625 259.695312 L 358.566406 259.695312 C 357.714844 257.285156 356.746094 254.929688 355.667969 252.65625 L 362.867188 245.453125 C 365.222656 243.097656 365.222656 239.289062 362.867188 236.933594 L 337.308594 211.375 C 334.953125 209.019531 331.144531 209.019531 328.789062 211.375 L 321.582031 218.574219 C 319.304688 217.488281 316.949219 216.519531 314.546875 215.675781 L 314.546875 72.921875 C 314.546875 69.59375 311.847656 66.894531 308.519531 66.894531 L 230.191406 66.894531 L 230.191406 36.769531 C 230.191406 20.160156 216.675781 6.644531 200.066406 6.644531 L 127.765625 6.644531 C 111.15625 6.644531 97.640625 20.160156 97.640625 36.769531 L 97.640625 66.894531 L 19.316406 66.894531 C 15.988281 66.894531 13.289062 69.59375 13.289062 72.921875 L 13.289062 277.769531 C 13.289062 281.097656 15.988281 283.796875 19.316406 283.796875 L 206.089844 283.796875 L 206.089844 301.871094 C 206.089844 305.195312 208.789062 307.894531 212.117188 307.894531 L 222.316406 307.894531 C 223.164062 310.304688 224.136719 312.660156 225.214844 314.933594 L 218.015625 322.136719 C 215.65625 324.492188 215.65625 328.300781 218.015625 330.65625 L 243.570312 356.214844 C 245.929688 358.570312 249.734375 358.570312 252.089844 356.214844 L 259.296875 349.015625 C 261.574219 350.101562 263.929688 351.070312 266.335938 351.914062 L 266.335938 362.121094 C 266.335938 365.445312 269.035156 368.144531 272.359375 368.144531 L 308.507812 368.144531 C 311.835938 368.144531 314.535156 365.445312 314.535156 362.121094 L 314.535156 351.917969 C 316.945312 351.070312 319.300781 350.101562 321.570312 349.023438 L 328.777344 356.222656 C 331.132812 358.578125 334.941406 358.578125 337.296875 356.222656 L 362.855469 330.664062 C 365.210938 328.308594 365.210938 324.5 362.855469 322.144531 L 355.65625 314.9375 C 356.738281 312.660156 357.710938 310.304688 358.554688 307.902344 L 368.765625 307.902344 C 372.089844 307.902344 374.789062 305.203125 374.789062 301.875 L 374.789062 265.726562 C 374.789062 262.394531 372.089844 259.695312 368.765625 259.695312 Z M 109.691406 36.769531 C 109.691406 26.804688 117.800781 18.695312 127.765625 18.695312 L 200.066406 18.695312 C 210.03125 18.695312 218.140625 26.804688 218.140625 36.769531 L 218.140625 66.894531 L 206.089844 66.894531 L 206.089844 36.769531 C 206.089844 33.445312 203.390625 30.746094 200.066406 30.746094 L 127.765625 30.746094 C 124.441406 30.746094 121.742188 33.445312 121.742188 36.769531 L 121.742188 66.894531 L 109.691406 66.894531 Z M 133.789062 66.894531 L 133.789062 42.796875 L 194.039062 42.796875 L 194.039062 66.894531 Z M 25.339844 78.945312 L 302.492188 78.945312 L 302.492188 154.777344 L 287.945312 169.320312 L 188.015625 169.320312 L 188.015625 151.246094 C 188.015625 147.917969 185.316406 145.21875 181.992188 145.21875 L 145.839844 145.21875 C 142.515625 145.21875 139.816406 147.917969 139.816406 151.246094 L 139.816406 169.320312 L 39.886719 169.320312 L 25.339844 154.777344 Z M 151.867188 181.371094 L 175.964844 181.371094 L 175.964844 193.421875 L 151.867188 193.421875 Z M 151.867188 169.320312 L 151.867188 157.269531 L 175.964844 157.269531 L 175.964844 169.320312 Z M 25.339844 271.746094 L 25.339844 171.816406 L 33.128906 179.605469 C 34.257812 180.738281 35.792969 181.371094 37.390625 181.371094 L 139.816406 181.371094 L 139.816406 199.445312 C 139.816406 202.769531 142.515625 205.46875 145.839844 205.46875 L 181.992188 205.46875 C 185.316406 205.46875 188.015625 202.769531 188.015625 199.445312 L 188.015625 181.371094 L 290.441406 181.371094 C 292.035156 181.371094 293.574219 180.738281 294.699219 179.605469 L 302.492188 171.816406 L 302.492188 199.445312 L 272.367188 199.445312 C 269.039062 199.445312 266.339844 202.144531 266.339844 205.46875 L 266.339844 215.671875 C 263.929688 216.519531 261.574219 217.488281 259.304688 218.570312 L 252.097656 211.367188 C 249.742188 209.011719 245.933594 209.011719 243.578125 211.367188 L 218.019531 236.925781 C 215.664062 239.28125 215.664062 243.089844 218.019531 245.445312 L 225.21875 252.652344 C 224.136719 254.929688 223.164062 257.285156 222.320312 259.6875 L 212.117188 259.6875 C 208.789062 259.6875 206.089844 262.386719 206.089844 265.714844 L 206.089844 271.738281 L 25.339844 271.738281 Z M 362.742188 295.84375 L 354.15625 295.84375 C 351.460938 295.84375 349.09375 297.632812 348.359375 300.226562 C 347.0625 304.792969 345.273438 309.136719 343.03125 313.148438 C 341.71875 315.503906 342.128906 318.4375 344.03125 320.347656 L 350.082031 326.402344 L 333.042969 343.441406 L 326.988281 337.394531 C 325.085938 335.488281 322.136719 335.078125 319.789062 336.394531 C 315.78125 338.632812 311.429688 340.425781 306.863281 341.71875 C 304.28125 342.449219 302.492188 344.816406 302.492188 347.507812 L 302.492188 356.09375 L 278.390625 356.09375 L 278.390625 347.507812 C 278.390625 344.816406 276.601562 342.449219 274.011719 341.714844 C 269.441406 340.417969 265.097656 338.628906 261.085938 336.386719 C 258.730469 335.074219 255.796875 335.484375 253.886719 337.386719 L 247.832031 343.4375 L 230.792969 326.398438 L 236.84375 320.34375 C 238.746094 318.4375 239.15625 315.5 237.84375 313.144531 C 235.601562 309.136719 233.8125 304.785156 232.515625 300.21875 C 231.785156 297.632812 229.417969 295.84375 226.726562 295.84375 L 218.140625 295.84375 L 218.140625 271.746094 L 226.726562 271.746094 C 229.417969 271.746094 231.785156 269.957031 232.523438 267.363281 C 233.816406 262.796875 235.605469 258.453125 237.847656 254.441406 C 239.160156 252.085938 238.753906 249.152344 236.847656 247.242188 L 230.800781 241.1875 L 247.835938 224.148438 L 253.894531 230.195312 C 255.796875 232.101562 258.738281 232.515625 261.09375 231.195312 C 265.097656 228.957031 269.449219 227.167969 274.015625 225.871094 C 276.601562 225.140625 278.390625 222.773438 278.390625 220.082031 L 278.390625 211.496094 L 302.492188 211.496094 L 302.492188 220.082031 C 302.492188 222.773438 304.28125 225.140625 306.871094 225.875 C 311.4375 227.171875 315.78125 228.960938 319.792969 231.203125 C 322.144531 232.523438 325.085938 232.105469 326.992188 230.203125 L 333.050781 224.152344 L 350.089844 241.191406 L 344.039062 247.246094 C 342.136719 249.152344 341.726562 252.089844 343.039062 254.449219 C 345.28125 258.453125 347.070312 262.804688 348.363281 267.371094 C 349.09375 269.957031 351.460938 271.746094 354.15625 271.746094 L 362.742188 271.746094 Z M 362.742188 295.84375 " fill-opacity="1" fill-rule="nonzero"/></g><path fill="#000000" d="M 290.441406 241.621094 C 267.183594 241.621094 248.265625 260.539062 248.265625 283.796875 C 248.265625 307.050781 267.183594 325.96875 290.441406 325.96875 C 313.695312 325.96875 332.617188 307.050781 332.617188 283.796875 C 332.617188 260.539062 313.695312 241.621094 290.441406 241.621094 Z M 290.441406 313.921875 C 273.828125 313.921875 260.316406 300.40625 260.316406 283.796875 C 260.316406 267.183594 273.828125 253.671875 290.441406 253.671875 C 307.050781 253.671875 320.566406 267.183594 320.566406 283.796875 C 320.566406 300.40625 307.050781 313.921875 290.441406 313.921875 Z M 290.441406 313.921875 " fill-opacity="1" fill-rule="nonzero"/><path fill="#000000" d="M 37.390625 247.644531 L 49.441406 247.644531 L 49.441406 259.695312 L 37.390625 259.695312 Z M 37.390625 247.644531 " fill-opacity="1" fill-rule="nonzero"/><path fill="#000000" d="M 61.492188 247.644531 L 73.539062 247.644531 L 73.539062 259.695312 L 61.492188 259.695312 Z M 61.492188 247.644531 " fill-opacity="1" fill-rule="nonzero"/><path fill="#000000" d="M 85.589844 247.644531 L 97.640625 247.644531 L 97.640625 259.695312 L 85.589844 259.695312 Z M 85.589844 247.644531 " fill-opacity="1" fill-rule="nonzero"/></svg>