<svg xmlns="http://www.w3.org/2000/svg" xmlns:xlink="http://www.w3.org/1999/xlink" width="500" zoomAndPan="magnify" viewBox="0 0 375 374.999991" height="500" preserveAspectRatio="xMidYMid meet" version="1.0"><path fill="#cca060" d="M 367.898438 136.511719 C 371.449219 136.511719 374.355469 133.605469 374.355469 130.054688 L 374.355469 110.691406 C 374.355469 108.371094 373 106.304688 371.128906 105.078125 C 371.128906 105.078125 190.40625 1.808594 190.40625 1.808594 C 188.402344 0.644531 186.015625 0.644531 184.015625 1.808594 L 3.292969 105.078125 C 1.484375 106.304688 0.0664062 108.175781 0.0664062 110.5 C -0.0664062 110.691406 0.0664062 129.863281 0 130.054688 C 0 133.605469 2.90625 136.511719 6.453125 136.511719 L 38.726562 136.511719 L 38.726562 323.6875 L 19.363281 323.6875 C 16.585938 323.6875 14.136719 325.496094 13.230469 328.078125 L 0.324219 366.804688 C -0.324219 368.738281 0 370.933594 1.226562 372.613281 C 2.453125 374.289062 4.390625 375.324219 6.453125 375.324219 L 367.898438 375.324219 C 369.964844 375.324219 371.902344 374.355469 373.128906 372.613281 C 374.355469 370.871094 374.675781 368.738281 374.03125 366.804688 L 361.125 328.078125 C 360.21875 325.496094 357.765625 323.6875 354.992188 323.6875 L 335.628906 323.6875 L 335.628906 136.511719 Z M 187.175781 14.84375 L 343.566406 104.238281 L 30.789062 104.238281 Z M 12.910156 117.148438 L 361.445312 117.148438 L 361.445312 123.601562 L 12.910156 123.601562 Z M 77.453125 323.6875 L 77.453125 136.511719 L 296.902344 136.511719 L 296.902344 323.6875 Z M 51.636719 136.511719 L 64.542969 136.511719 L 64.542969 323.6875 L 51.636719 323.6875 Z M 358.929688 362.414062 L 15.425781 362.414062 L 24.011719 336.597656 L 350.34375 336.597656 Z M 322.71875 323.6875 L 309.8125 323.6875 L 309.8125 136.511719 L 322.71875 136.511719 Z M 322.71875 323.6875 " fill-opacity="1" fill-rule="nonzero"/><path fill="#cca060" d="M 187.175781 46.148438 C 161.617188 46.792969 161.617188 84.230469 187.175781 84.875 C 212.738281 84.230469 212.738281 46.792969 187.175781 46.148438 Z M 187.175781 71.964844 C 178.722656 71.902344 178.722656 59.121094 187.175781 59.058594 C 195.632812 59.121094 195.632812 71.902344 187.175781 71.964844 Z M 187.175781 71.964844 " fill-opacity="1" fill-rule="nonzero"/><path fill="#cca060" d="M 145.03125 262.824219 C 157.617188 249.65625 147.417969 226.421875 129.023438 226.871094 C 110.691406 226.484375 100.429688 249.71875 113.015625 262.824219 C 95.523438 269.730469 85.390625 288.511719 87.199219 307.679688 C 87.199219 311.230469 90.101562 314.136719 93.652344 314.136719 L 164.265625 314.136719 C 167.8125 314.136719 170.71875 311.230469 170.71875 307.679688 L 170.71875 301.355469 C 170.78125 284.058594 160.132812 269.148438 145.03125 262.824219 Z M 129.023438 239.78125 C 140.449219 239.972656 140.449219 256.949219 129.023438 257.144531 C 117.664062 256.949219 117.664062 239.972656 129.023438 239.78125 Z M 100.171875 301.289062 C 101.527344 263.339844 156.519531 263.339844 157.875 301.289062 Z M 100.171875 301.289062 " fill-opacity="1" fill-rule="nonzero"/><path fill="#cca060" d="M 261.210938 262.824219 C 273.796875 249.65625 263.597656 226.421875 245.203125 226.871094 C 226.871094 226.484375 216.609375 249.71875 229.195312 262.824219 C 211.703125 269.730469 201.570312 288.511719 203.378906 307.679688 C 203.378906 311.230469 206.28125 314.136719 209.832031 314.136719 L 280.441406 314.136719 C 283.992188 314.136719 286.898438 311.230469 286.898438 307.679688 L 286.898438 301.355469 C 286.960938 284.058594 276.3125 269.148438 261.210938 262.824219 Z M 245.203125 239.78125 C 256.625 239.972656 256.625 256.949219 245.203125 257.144531 C 233.84375 256.949219 233.84375 239.972656 245.203125 239.78125 Z M 216.351562 301.289062 C 217.707031 263.339844 272.699219 263.339844 274.054688 301.289062 Z M 216.351562 301.289062 " fill-opacity="1" fill-rule="nonzero"/><path fill="#cca060" d="M 151.808594 230.292969 L 222.417969 230.292969 C 225.96875 230.292969 228.871094 227.386719 228.871094 223.839844 C 230.679688 204.667969 220.609375 185.886719 203.054688 178.980469 C 215.640625 165.8125 205.441406 142.578125 187.046875 143.027344 C 168.71875 142.640625 158.457031 165.878906 171.042969 178.980469 C 155.9375 185.242188 145.222656 200.152344 145.222656 217.578125 L 145.222656 223.902344 C 145.351562 227.386719 148.257812 230.292969 151.808594 230.292969 Z M 187.113281 155.875 C 198.535156 156.066406 198.535156 173.042969 187.113281 173.234375 C 175.753906 173.042969 175.753906 156.066406 187.113281 155.875 Z M 187.113281 188.660156 C 202.992188 188.660156 215.898438 201.507812 215.964844 217.382812 L 158.261719 217.382812 C 158.324219 201.507812 171.234375 188.660156 187.113281 188.660156 Z M 187.113281 188.660156 " fill-opacity="1" fill-rule="nonzero"/></svg>