<svg xmlns="http://www.w3.org/2000/svg" xmlns:xlink="http://www.w3.org/1999/xlink" width="500" zoomAndPan="magnify" viewBox="0 0 375 374.999991" height="500" preserveAspectRatio="xMidYMid meet" version="1.0"><defs><clipPath id="672321c0cf"><path d="M 0 31.023438 L 375 31.023438 L 375 343.773438 L 0 343.773438 Z M 0 31.023438 " clip-rule="nonzero"/></clipPath></defs><g clip-path="url(#672321c0cf)"><path fill="#cca060" d="M 346.578125 328.394531 L 296.347656 328.394531 C 294.640625 328.394531 293.269531 327.023438 293.269531 325.316406 L 293.269531 70.414062 C 293.269531 68.710938 294.640625 67.335938 296.347656 67.335938 L 346.578125 67.335938 C 348.28125 67.335938 349.65625 68.710938 349.65625 70.414062 L 349.65625 325.367188 C 349.65625 327.023438 348.28125 328.394531 346.578125 328.394531 Z M 299.46875 322.242188 L 343.546875 322.242188 L 343.546875 73.492188 L 299.46875 73.492188 Z M 279.632812 328.394531 L 229.398438 328.394531 C 227.695312 328.394531 226.324219 327.023438 226.324219 325.316406 L 226.324219 101.992188 C 226.324219 100.289062 227.695312 98.914062 229.398438 98.914062 L 279.632812 98.914062 C 281.335938 98.914062 282.710938 100.289062 282.710938 101.992188 L 282.710938 325.316406 C 282.710938 327.023438 281.335938 328.394531 279.632812 328.394531 Z M 232.476562 322.242188 L 276.554688 322.242188 L 276.554688 105.070312 L 232.476562 105.070312 Z M 212.640625 328.394531 L 162.40625 328.394531 C 160.703125 328.394531 159.328125 327.023438 159.328125 325.316406 L 159.328125 132.71875 C 159.328125 131.015625 160.703125 129.640625 162.40625 129.640625 L 212.640625 129.640625 C 214.34375 129.640625 215.71875 131.015625 215.71875 132.71875 L 215.71875 325.316406 C 215.71875 327.023438 214.34375 328.394531 212.640625 328.394531 Z M 165.484375 322.242188 L 209.5625 322.242188 L 209.5625 135.796875 L 165.484375 135.796875 Z M 145.648438 328.394531 L 95.414062 328.394531 C 93.710938 328.394531 92.335938 327.023438 92.335938 325.316406 L 92.335938 175.519531 C 92.335938 173.816406 93.710938 172.441406 95.414062 172.441406 L 145.648438 172.441406 C 147.351562 172.441406 148.722656 173.816406 148.722656 175.519531 L 148.722656 325.316406 C 148.722656 327.023438 147.351562 328.394531 145.648438 328.394531 Z M 98.492188 322.242188 L 142.570312 322.242188 L 142.570312 178.597656 L 98.492188 178.597656 Z M 78.703125 328.394531 L 28.421875 328.394531 C 26.71875 328.394531 25.34375 327.023438 25.34375 325.316406 L 25.34375 220.164062 C 25.34375 218.460938 26.71875 217.085938 28.421875 217.085938 L 78.652344 217.085938 C 80.359375 217.085938 81.730469 218.460938 81.730469 220.164062 L 81.730469 325.316406 C 81.777344 327.023438 80.359375 328.394531 78.703125 328.394531 Z M 31.5 322.242188 L 75.578125 322.242188 L 75.578125 223.242188 L 31.5 223.242188 Z M 374.796875 341.132812 C 374.796875 339.425781 373.421875 338.054688 371.71875 338.054688 L 3.328125 338.054688 C 1.625 338.054688 0.25 339.425781 0.25 341.132812 C 0.25 342.835938 1.625 344.207031 3.328125 344.207031 L 371.71875 344.207031 C 373.421875 344.207031 374.796875 342.835938 374.796875 341.132812 Z M 19.238281 182.621094 C 20.894531 182.003906 186.457031 121.828125 259.605469 36.5625 C 260.695312 35.285156 260.554688 33.34375 259.273438 32.207031 C 257.996094 31.117188 256.054688 31.257812 254.917969 32.539062 C 182.859375 116.574219 18.808594 176.230469 17.152344 176.84375 C 15.542969 177.414062 14.738281 179.164062 15.308594 180.773438 C 15.734375 182.050781 16.917969 182.808594 18.195312 182.808594 C 18.527344 182.808594 18.90625 182.761719 19.238281 182.621094 Z M 259.511719 71.929688 L 259.558594 35.566406 C 259.558594 34.761719 259.226562 33.957031 258.660156 33.390625 C 258.089844 32.820312 257.144531 32.441406 256.480469 32.492188 L 221.96875 32.632812 C 220.261719 32.632812 218.890625 34.003906 218.890625 35.710938 C 218.890625 37.414062 220.261719 38.789062 221.96875 38.789062 L 253.402344 38.644531 L 253.355469 71.882812 C 253.355469 73.585938 254.730469 74.957031 256.433594 74.957031 C 258.136719 74.957031 259.511719 73.585938 259.511719 71.929688 Z M 259.511719 71.929688 " fill-opacity="1" fill-rule="nonzero"/></g></svg>