<svg xmlns="http://www.w3.org/2000/svg" xmlns:xlink="http://www.w3.org/1999/xlink" width="500" zoomAndPan="magnify" viewBox="0 0 375 374.999991" height="500" preserveAspectRatio="xMidYMid meet" version="1.0"><defs><clipPath id="80bec50e57"><path d="M 4 229 L 149 229 L 149 373.125 L 4 373.125 Z M 4 229 " clip-rule="nonzero"/></clipPath></defs><g clip-path="url(#80bec50e57)"><path fill="#cca060" d="M 49.574219 373.125 C 47.269531 373.125 44.976562 372.949219 42.699219 372.59375 C 40.421875 372.242188 38.183594 371.714844 35.988281 371.015625 C 33.792969 370.3125 31.660156 369.449219 29.597656 368.421875 C 27.535156 367.390625 25.5625 366.210938 23.683594 364.875 C 21.804688 363.539062 20.039062 362.070312 18.382812 360.460938 C 16.730469 358.855469 15.210938 357.128906 13.828125 355.289062 C 12.441406 353.445312 11.203125 351.507812 10.117188 349.472656 C 9.03125 347.441406 8.109375 345.335938 7.347656 343.160156 C 6.585938 340.984375 6 338.761719 5.582031 336.492188 C 5.164062 334.226562 4.925781 331.941406 4.859375 329.636719 C 4.796875 327.332031 4.910156 325.035156 5.203125 322.746094 C 5.496094 320.460938 5.960938 318.210938 6.601562 315.996094 C 7.242188 313.78125 8.046875 311.628906 9.019531 309.539062 C 9.992188 307.445312 11.121094 305.445312 12.402344 303.527344 C 13.683594 301.613281 15.105469 299.808594 16.667969 298.109375 C 18.230469 296.414062 19.914062 294.847656 21.71875 293.414062 L 101.296875 230.140625 C 101.496094 229.980469 101.714844 229.84375 101.945312 229.726562 C 102.175781 229.613281 102.417969 229.523438 102.667969 229.457031 C 102.917969 229.390625 103.171875 229.355469 103.429688 229.34375 C 103.691406 229.332031 103.945312 229.347656 104.203125 229.390625 C 104.457031 229.429688 104.703125 229.5 104.945312 229.59375 C 105.1875 229.6875 105.414062 229.804688 105.628906 229.949219 C 105.847656 230.089844 106.046875 230.253906 106.226562 230.4375 C 106.410156 230.621094 106.570312 230.824219 106.707031 231.039062 C 111.894531 239.101562 117.878906 246.523438 124.65625 253.300781 C 131.4375 260.078125 138.855469 266.0625 146.917969 271.25 C 147.136719 271.390625 147.335938 271.550781 147.519531 271.730469 C 147.703125 271.914062 147.867188 272.113281 148.007812 272.328125 C 148.152344 272.542969 148.269531 272.773438 148.363281 273.011719 C 148.457031 273.253906 148.527344 273.5 148.570312 273.757812 C 148.613281 274.011719 148.628906 274.269531 148.617188 274.527344 C 148.605469 274.785156 148.566406 275.039062 148.5 275.289062 C 148.4375 275.539062 148.347656 275.78125 148.230469 276.011719 C 148.113281 276.242188 147.976562 276.460938 147.816406 276.664062 L 84.539062 356.25 C 82.582031 358.714844 80.382812 360.945312 77.953125 362.949219 C 75.519531 364.949219 72.902344 366.671875 70.105469 368.121094 C 67.308594 369.570312 64.390625 370.707031 61.351562 371.539062 C 58.316406 372.371094 55.222656 372.875 52.078125 373.050781 C 51.238281 373.101562 50.398438 373.125 49.574219 373.125 Z M 102.746094 238.441406 L 26.3125 299.203125 C 25.285156 300.019531 24.304688 300.886719 23.371094 301.804688 C 22.4375 302.726562 21.554688 303.691406 20.71875 304.703125 C 19.886719 305.714844 19.109375 306.769531 18.386719 307.863281 C 17.664062 308.957031 17.003906 310.085938 16.398438 311.25 C 15.796875 312.414062 15.257812 313.605469 14.777344 314.828125 C 14.300781 316.046875 13.890625 317.292969 13.542969 318.554688 C 13.195312 319.820312 12.917969 321.097656 12.707031 322.394531 C 12.496094 323.6875 12.351562 324.988281 12.277344 326.296875 C 12.203125 327.605469 12.195312 328.914062 12.261719 330.222656 C 12.324219 331.535156 12.457031 332.835938 12.65625 334.132812 C 12.855469 335.425781 13.125 336.707031 13.460938 337.976562 C 13.796875 339.242188 14.199219 340.488281 14.664062 341.714844 C 15.132812 342.9375 15.664062 344.136719 16.253906 345.304688 C 16.847656 346.472656 17.5 347.609375 18.214844 348.707031 C 18.925781 349.808594 19.695312 350.867188 20.519531 351.886719 C 21.34375 352.90625 22.21875 353.878906 23.148438 354.808594 C 24.074219 355.734375 25.046875 356.609375 26.066406 357.433594 C 27.085938 358.257812 28.144531 359.027344 29.246094 359.742188 C 30.34375 360.453125 31.480469 361.105469 32.648438 361.699219 C 33.816406 362.292969 35.015625 362.824219 36.238281 363.289062 C 37.464844 363.757812 38.710938 364.160156 39.976562 364.496094 C 41.246094 364.832031 42.527344 365.097656 43.820312 365.300781 C 45.117188 365.5 46.421875 365.632812 47.730469 365.695312 C 49.039062 365.757812 50.347656 365.753906 51.65625 365.679688 C 52.964844 365.605469 54.265625 365.460938 55.5625 365.25 C 56.855469 365.039062 58.132812 364.757812 59.398438 364.414062 C 60.664062 364.066406 61.90625 363.65625 63.125 363.179688 C 64.347656 362.699219 65.539062 362.160156 66.703125 361.558594 C 67.867188 360.953125 68.996094 360.292969 70.089844 359.570312 C 71.183594 358.847656 72.238281 358.070312 73.25 357.238281 C 74.261719 356.40625 75.230469 355.519531 76.148438 354.585938 C 77.066406 353.652344 77.933594 352.671875 78.75 351.644531 L 139.519531 275.214844 C 132.308594 270.273438 125.609375 264.710938 119.429688 258.527344 C 113.246094 252.347656 107.6875 245.652344 102.746094 238.441406 Z M 102.746094 238.441406 " fill-opacity="1" fill-rule="nonzero"/></g><path fill="#cca060" d="M 218.664062 299.601562 C 215.738281 299.601562 212.8125 299.511719 209.890625 299.328125 C 206.972656 299.144531 204.058594 298.867188 201.15625 298.503906 C 198.25 298.136719 195.363281 297.679688 192.484375 297.136719 C 189.609375 296.589844 186.753906 295.953125 183.917969 295.230469 C 181.082031 294.503906 178.273438 293.691406 175.488281 292.792969 C 172.703125 291.890625 169.949219 290.90625 167.226562 289.832031 C 164.503906 288.761719 161.816406 287.605469 159.164062 286.363281 C 156.515625 285.125 153.902344 283.800781 151.335938 282.398438 C 148.765625 280.996094 146.246094 279.511719 143.769531 277.953125 C 141.292969 276.390625 138.867188 274.753906 136.496094 273.042969 C 134.121094 271.328125 131.804688 269.546875 129.542969 267.6875 C 127.28125 265.832031 125.078125 263.90625 122.9375 261.910156 C 120.792969 259.914062 118.71875 257.855469 116.703125 255.730469 C 114.691406 253.605469 112.746094 251.421875 110.871094 249.175781 C 108.992188 246.925781 107.191406 244.625 105.457031 242.265625 C 103.722656 239.90625 102.066406 237.496094 100.484375 235.035156 C 99.296875 233.183594 98.152344 231.304688 97.050781 229.398438 C 95.953125 227.496094 94.898438 225.566406 93.886719 223.613281 C 92.875 221.65625 91.914062 219.679688 90.996094 217.679688 C 90.078125 215.683594 89.207031 213.664062 88.386719 211.621094 C 87.5625 209.582031 86.789062 207.523438 86.0625 205.449219 C 85.335938 203.371094 84.660156 201.277344 84.03125 199.171875 C 83.402344 197.0625 82.824219 194.941406 82.296875 192.804688 C 81.765625 190.671875 81.289062 188.523438 80.859375 186.367188 C 80.429688 184.207031 80.054688 182.042969 79.726562 179.867188 C 79.402344 177.691406 79.125 175.511719 78.902344 173.320312 C 78.675781 171.132812 78.503906 168.941406 78.382812 166.746094 C 78.257812 164.546875 78.1875 162.351562 78.171875 160.152344 C 78.152344 157.949219 78.183594 155.753906 78.269531 153.554688 C 78.351562 151.355469 78.488281 149.160156 78.675781 146.96875 C 78.863281 144.777344 79.101562 142.589844 79.390625 140.410156 C 79.679688 138.230469 80.019531 136.058594 80.414062 133.894531 C 80.804688 131.726562 81.246094 129.574219 81.738281 127.429688 C 82.230469 125.285156 82.773438 123.15625 83.367188 121.035156 C 83.957031 118.917969 84.597656 116.8125 85.289062 114.726562 C 85.980469 112.636719 86.71875 110.566406 87.507812 108.511719 C 88.296875 106.457031 89.132812 104.425781 90.015625 102.410156 C 90.898438 100.394531 91.828125 98.402344 92.804688 96.429688 C 93.78125 94.460938 94.804688 92.511719 95.871094 90.589844 C 96.9375 88.667969 98.050781 86.769531 99.207031 84.898438 C 100.363281 83.027344 101.5625 81.183594 102.808594 79.367188 C 104.050781 77.554688 105.335938 75.769531 106.660156 74.015625 C 107.988281 72.261719 109.355469 70.539062 110.761719 68.847656 C 112.171875 67.15625 113.617188 65.5 115.101562 63.878906 C 116.585938 62.253906 118.109375 60.667969 119.667969 59.117188 C 121.226562 57.5625 122.824219 56.050781 124.453125 54.574219 C 126.082031 53.097656 127.746094 51.660156 129.445312 50.261719 C 131.144531 48.859375 132.871094 47.503906 134.632812 46.183594 C 136.394531 44.867188 138.1875 43.589844 140.007812 42.359375 C 141.828125 41.125 143.675781 39.933594 145.554688 38.785156 C 147.429688 37.640625 149.335938 36.535156 151.261719 35.480469 C 153.191406 34.421875 155.144531 33.410156 157.121094 32.441406 C 159.097656 31.476562 161.09375 30.554688 163.113281 29.683594 C 165.132812 28.808594 167.171875 27.984375 169.226562 27.207031 C 171.285156 26.429688 173.359375 25.703125 175.453125 25.019531 C 177.542969 24.339844 179.652344 23.710938 181.773438 23.128906 C 183.894531 22.546875 186.027344 22.015625 188.175781 21.535156 C 190.320312 21.054688 192.476562 20.621094 194.644531 20.242188 C 196.8125 19.863281 198.984375 19.53125 201.167969 19.253906 C 203.347656 18.976562 205.535156 18.75 207.730469 18.570312 C 209.921875 18.394531 212.117188 18.273438 214.316406 18.199219 C 216.515625 18.125 218.714844 18.105469 220.914062 18.132812 C 223.113281 18.164062 225.3125 18.246094 227.507812 18.378906 C 229.703125 18.511719 231.894531 18.695312 234.082031 18.929688 C 236.269531 19.167969 238.449219 19.453125 240.621094 19.789062 C 242.796875 20.128906 244.960938 20.515625 247.117188 20.957031 C 249.269531 21.394531 251.414062 21.886719 253.546875 22.425781 C 255.679688 22.964844 257.796875 23.554688 259.902344 24.191406 C 262.007812 24.832031 264.097656 25.519531 266.167969 26.257812 C 268.242188 26.992188 270.296875 27.777344 272.332031 28.609375 C 274.367188 29.445312 276.382812 30.324219 278.378906 31.253906 C 280.371094 32.179688 282.34375 33.152344 284.292969 34.171875 C 286.242188 35.195312 288.167969 36.257812 290.066406 37.367188 C 291.964844 38.480469 293.835938 39.632812 295.683594 40.832031 C 297.527344 42.027344 299.34375 43.269531 301.128906 44.550781 C 302.917969 45.835938 304.671875 47.160156 306.398438 48.523438 C 308.121094 49.890625 309.8125 51.292969 311.472656 52.738281 C 313.132812 54.183594 314.757812 55.664062 316.347656 57.1875 C 317.9375 58.707031 319.488281 60.261719 321.003906 61.855469 C 322.523438 63.449219 324 65.078125 325.441406 66.742188 C 326.882812 68.402344 328.28125 70.097656 329.644531 71.828125 C 331.003906 73.554688 332.324219 75.3125 333.601562 77.105469 C 334.878906 78.894531 336.117188 80.714844 337.308594 82.5625 C 338.503906 84.410156 339.652344 86.285156 340.757812 88.1875 C 341.863281 90.089844 342.921875 92.015625 343.9375 93.964844 C 344.953125 95.917969 345.921875 97.890625 346.84375 99.890625 C 347.765625 101.886719 348.640625 103.902344 349.46875 105.941406 C 350.296875 107.980469 351.078125 110.035156 351.808594 112.109375 C 352.539062 114.183594 353.222656 116.273438 353.855469 118.382812 C 354.492188 120.488281 355.074219 122.609375 355.609375 124.742188 C 356.144531 126.875 356.628906 129.019531 357.0625 131.179688 C 357.496094 133.335938 357.878906 135.5 358.210938 137.675781 C 358.542969 139.847656 358.824219 142.03125 359.054688 144.21875 C 359.285156 146.40625 359.464844 148.597656 359.589844 150.792969 C 359.71875 152.988281 359.792969 155.1875 359.820312 157.386719 C 359.84375 159.585938 359.816406 161.785156 359.738281 163.984375 C 359.660156 166.183594 359.527344 168.378906 359.347656 170.570312 C 359.164062 172.761719 358.933594 174.949219 358.648438 177.128906 C 358.363281 179.3125 358.03125 181.484375 357.644531 183.652344 C 357.257812 185.816406 356.824219 187.972656 356.335938 190.117188 C 355.847656 192.261719 355.3125 194.394531 354.726562 196.515625 C 354.140625 198.632812 353.503906 200.738281 352.816406 202.828125 C 352.132812 204.921875 351.398438 206.992188 350.617188 209.050781 C 349.832031 211.105469 349.003906 213.140625 348.125 215.160156 C 347.246094 217.175781 346.320312 219.171875 345.351562 221.144531 C 344.378906 223.117188 343.363281 225.066406 342.300781 226.992188 C 341.238281 228.917969 340.128906 230.820312 338.976562 232.695312 C 337.824219 234.566406 336.628906 236.414062 335.390625 238.230469 C 334.152344 240.050781 332.875 241.839844 331.550781 243.597656 C 330.230469 245.355469 328.867188 247.082031 327.464844 248.773438 C 326.0625 250.46875 324.617188 252.128906 323.136719 253.757812 C 321.65625 255.382812 320.140625 256.972656 318.582031 258.527344 C 315.304688 261.789062 311.875 264.875 308.292969 267.796875 C 304.707031 270.71875 300.992188 273.457031 297.140625 276.015625 C 293.289062 278.570312 289.324219 280.933594 285.238281 283.101562 C 281.15625 285.269531 276.976562 287.230469 272.703125 288.988281 C 268.425781 290.746094 264.078125 292.289062 259.648438 293.621094 C 255.222656 294.953125 250.742188 296.0625 246.207031 296.953125 C 241.667969 297.84375 237.101562 298.511719 232.5 298.953125 C 227.898438 299.398438 223.285156 299.613281 218.664062 299.601562 Z M 218.984375 25.601562 C 216.441406 25.605469 213.894531 25.679688 211.355469 25.828125 C 208.8125 25.976562 206.277344 26.199219 203.75 26.492188 C 201.21875 26.785156 198.699219 27.152344 196.191406 27.589844 C 193.683594 28.027344 191.191406 28.535156 188.710938 29.117188 C 186.234375 29.699219 183.773438 30.347656 181.332031 31.070312 C 178.890625 31.792969 176.46875 32.582031 174.074219 33.441406 C 171.675781 34.304688 169.308594 35.230469 166.964844 36.226562 C 164.621094 37.222656 162.308594 38.285156 160.027344 39.414062 C 157.742188 40.542969 155.496094 41.734375 153.28125 42.992188 C 151.066406 44.25 148.890625 45.566406 146.753906 46.949219 C 144.613281 48.332031 142.515625 49.773438 140.460938 51.273438 C 138.40625 52.777344 136.394531 54.335938 134.425781 55.953125 C 132.460938 57.570312 130.542969 59.242188 128.671875 60.96875 C 126.800781 62.695312 124.980469 64.476562 123.210938 66.308594 C 121.441406 68.136719 119.726562 70.019531 118.066406 71.949219 C 116.40625 73.878906 114.800781 75.851562 113.253906 77.875 C 111.703125 79.894531 110.214844 81.960938 108.785156 84.066406 C 107.355469 86.171875 105.988281 88.320312 104.679688 90.503906 C 103.375 92.6875 102.132812 94.910156 100.953125 97.167969 C 99.773438 99.421875 98.65625 101.710938 97.609375 104.03125 C 96.558594 106.351562 95.578125 108.699219 94.664062 111.074219 C 93.75 113.453125 92.90625 115.851562 92.128906 118.277344 C 91.351562 120.703125 90.644531 123.144531 90.007812 125.613281 C 89.371094 128.078125 88.808594 130.558594 88.3125 133.054688 C 87.820312 135.554688 87.394531 138.0625 87.046875 140.585938 C 86.695312 143.105469 86.417969 145.636719 86.210938 148.175781 C 86.003906 150.710938 85.871094 153.253906 85.8125 155.796875 C 85.75 158.34375 85.765625 160.890625 85.851562 163.433594 C 85.9375 165.976562 86.09375 168.519531 86.324219 171.054688 C 86.554688 173.589844 86.859375 176.117188 87.234375 178.632812 C 87.613281 181.152344 88.058594 183.65625 88.578125 186.148438 C 89.097656 188.644531 89.6875 191.117188 90.347656 193.578125 C 91.011719 196.035156 91.742188 198.472656 92.542969 200.890625 C 93.34375 203.308594 94.210938 205.699219 95.148438 208.066406 C 96.085938 210.433594 97.09375 212.773438 98.164062 215.082031 C 99.234375 217.390625 100.371094 219.667969 101.574219 221.910156 C 102.777344 224.15625 104.042969 226.363281 105.371094 228.535156 C 106.699219 230.707031 108.089844 232.839844 109.539062 234.933594 C 110.992188 237.023438 112.5 239.074219 114.070312 241.078125 C 115.636719 243.085938 117.261719 245.042969 118.941406 246.957031 C 120.621094 248.871094 122.355469 250.734375 124.144531 252.546875 C 125.929688 254.359375 127.765625 256.121094 129.65625 257.828125 C 131.542969 259.539062 133.480469 261.191406 135.460938 262.789062 C 137.445312 264.386719 139.46875 265.925781 141.542969 267.40625 C 143.613281 268.886719 145.722656 270.308594 147.875 271.667969 C 150.027344 273.027344 152.21875 274.328125 154.445312 275.5625 C 156.671875 276.796875 158.929688 277.964844 161.222656 279.070312 C 163.515625 280.175781 165.839844 281.214844 168.195312 282.1875 C 170.546875 283.160156 172.925781 284.066406 175.332031 284.902344 C 177.734375 285.738281 180.164062 286.503906 182.609375 287.199219 C 185.058594 287.898438 187.527344 288.523438 190.011719 289.082031 C 192.496094 289.636719 194.996094 290.121094 197.507812 290.535156 C 200.019531 290.945312 202.542969 291.285156 205.074219 291.554688 C 207.605469 291.824219 210.140625 292.019531 212.683594 292.140625 C 215.230469 292.265625 217.773438 292.3125 220.320312 292.292969 C 222.863281 292.269531 225.40625 292.171875 227.949219 292.003906 C 230.488281 291.835938 233.023438 291.59375 235.550781 291.28125 C 238.074219 290.96875 240.589844 290.582031 243.097656 290.125 C 245.601562 289.664062 248.089844 289.136719 250.5625 288.535156 C 253.039062 287.9375 255.492188 287.265625 257.929688 286.523438 C 260.367188 285.785156 262.777344 284.972656 265.167969 284.09375 C 267.558594 283.214844 269.917969 282.269531 272.253906 281.253906 C 274.589844 280.238281 276.894531 279.160156 279.167969 278.011719 C 281.441406 276.867188 283.679688 275.65625 285.882812 274.378906 C 288.085938 273.105469 290.253906 271.769531 292.378906 270.371094 C 294.507812 268.972656 296.59375 267.511719 298.636719 265.996094 C 300.679688 264.476562 302.679688 262.902344 304.632812 261.269531 C 306.585938 259.636719 308.492188 257.949219 310.347656 256.207031 C 312.207031 254.464844 314.011719 252.671875 315.765625 250.824219 C 317.519531 248.980469 319.21875 247.085938 320.867188 245.144531 C 322.511719 243.203125 324.101562 241.214844 325.632812 239.179688 C 327.164062 237.144531 328.636719 235.070312 330.050781 232.953125 C 331.460938 230.835938 332.8125 228.675781 334.101562 226.480469 C 335.390625 224.285156 336.617188 222.054688 337.78125 219.789062 C 338.941406 217.523438 340.039062 215.226562 341.066406 212.898438 C 342.097656 210.570312 343.058594 208.214844 343.957031 205.832031 C 344.851562 203.449219 345.675781 201.042969 346.433594 198.609375 C 347.191406 196.179688 347.878906 193.730469 348.496094 191.257812 C 349.113281 188.789062 349.65625 186.300781 350.132812 183.800781 C 350.605469 181.300781 351.007812 178.785156 351.339844 176.261719 C 351.671875 173.738281 351.929688 171.207031 352.113281 168.667969 C 352.300781 166.128906 352.410156 163.585938 352.453125 161.039062 C 352.492188 158.492188 352.457031 155.949219 352.351562 153.40625 C 352.246094 150.859375 352.070312 148.320312 351.816406 145.789062 C 351.566406 143.253906 351.242188 140.730469 350.847656 138.214844 C 350.449219 135.699219 349.984375 133.199219 349.445312 130.710938 C 348.90625 128.222656 348.292969 125.75 347.613281 123.296875 C 346.933594 120.84375 346.183594 118.414062 345.363281 116.003906 C 344.542969 113.59375 343.65625 111.207031 342.699219 108.847656 C 341.742188 106.488281 340.71875 104.15625 339.628906 101.855469 C 338.539062 99.554688 337.382812 97.289062 336.164062 95.054688 C 334.941406 92.820312 333.660156 90.621094 332.3125 88.460938 C 330.96875 86.296875 329.5625 84.175781 328.09375 82.097656 C 326.625 80.015625 325.101562 77.980469 323.515625 75.984375 C 321.933594 73.992188 320.292969 72.046875 318.597656 70.148438 C 316.902344 68.246094 315.152344 66.398438 313.351562 64.597656 C 310.261719 61.507812 307.03125 58.574219 303.652344 55.800781 C 300.273438 53.03125 296.769531 50.429688 293.136719 48.003906 C 289.5 45.574219 285.757812 43.332031 281.902344 41.273438 C 278.046875 39.21875 274.097656 37.355469 270.058594 35.683594 C 266.023438 34.015625 261.910156 32.550781 257.726562 31.285156 C 253.542969 30.023438 249.308594 28.96875 245.019531 28.121094 C 240.734375 27.277344 236.414062 26.644531 232.066406 26.222656 C 227.714844 25.800781 223.355469 25.597656 218.984375 25.605469 Z M 315.96875 255.90625 Z M 315.96875 255.90625 " fill-opacity="1" fill-rule="nonzero"/><path fill="#cca060" d="M 218.964844 266.914062 C 214.460938 266.914062 209.972656 266.628906 205.507812 266.066406 C 201.039062 265.503906 196.621094 264.664062 192.257812 263.546875 C 187.894531 262.433594 183.617188 261.050781 179.429688 259.398438 C 175.238281 257.75 171.167969 255.84375 167.214844 253.6875 C 163.261719 251.527344 159.460938 249.128906 155.808594 246.496094 C 152.152344 243.863281 148.679688 241.011719 145.382812 237.941406 C 142.085938 234.875 138.992188 231.613281 136.105469 228.15625 C 133.214844 224.703125 130.554688 221.082031 128.117188 217.292969 C 126.480469 214.71875 124.957031 212.082031 123.542969 209.378906 C 122.128906 206.675781 120.832031 203.917969 119.648438 201.105469 C 118.464844 198.296875 117.40625 195.4375 116.464844 192.539062 C 115.523438 189.636719 114.707031 186.699219 114.011719 183.730469 C 113.320312 180.761719 112.75 177.765625 112.308594 174.75 C 111.867188 171.730469 111.554688 168.699219 111.371094 165.65625 C 111.183594 162.613281 111.125 159.566406 111.199219 156.515625 C 111.269531 153.464844 111.46875 150.425781 111.796875 147.394531 C 112.121094 144.359375 112.578125 141.347656 113.160156 138.351562 C 113.738281 135.359375 114.445312 132.394531 115.277344 129.460938 C 116.109375 126.527344 117.0625 123.632812 118.136719 120.777344 C 119.210938 117.921875 120.40625 115.121094 121.71875 112.367188 C 123.027344 109.613281 124.453125 106.917969 125.992188 104.285156 C 127.53125 101.652344 129.175781 99.085938 130.933594 96.59375 C 132.6875 94.097656 134.542969 91.683594 136.5 89.34375 C 138.460938 87.003906 140.511719 84.753906 142.660156 82.589844 C 144.222656 81.027344 145.832031 79.515625 147.488281 78.050781 C 149.144531 76.585938 150.839844 75.175781 152.582031 73.816406 C 154.324219 72.457031 156.105469 71.152344 157.929688 69.902344 C 159.75 68.652344 161.609375 67.460938 163.503906 66.324219 C 165.398438 65.191406 167.328125 64.113281 169.289062 63.097656 C 171.25 62.078125 173.238281 61.125 175.257812 60.226562 C 177.277344 59.332031 179.324219 58.5 181.394531 57.730469 C 183.464844 56.960938 185.558594 56.257812 187.671875 55.617188 C 189.789062 54.972656 191.917969 54.398438 194.070312 53.886719 C 196.21875 53.378906 198.382812 52.933594 200.558594 52.558594 C 202.734375 52.179688 204.921875 51.867188 207.117188 51.625 C 209.3125 51.382812 211.515625 51.207031 213.71875 51.097656 C 215.925781 50.992188 218.136719 50.949219 220.34375 50.976562 C 222.554688 51.003906 224.757812 51.101562 226.960938 51.261719 C 229.164062 51.425781 231.363281 51.65625 233.550781 51.953125 C 235.738281 52.25 237.917969 52.617188 240.085938 53.046875 C 242.25 53.480469 244.402344 53.976562 246.539062 54.539062 C 248.675781 55.101562 250.792969 55.730469 252.890625 56.425781 C 254.988281 57.117188 257.0625 57.875 259.113281 58.695312 C 261.164062 59.515625 263.1875 60.398438 265.183594 61.34375 C 267.183594 62.289062 269.148438 63.292969 271.082031 64.359375 C 273.019531 65.425781 274.917969 66.550781 276.785156 67.730469 C 278.652344 68.914062 280.480469 70.152344 282.269531 71.445312 C 284.0625 72.742188 285.808594 74.089844 287.519531 75.492188 C 289.226562 76.894531 290.886719 78.347656 292.507812 79.851562 C 294.125 81.355469 295.695312 82.90625 297.21875 84.507812 C 298.742188 86.105469 300.214844 87.753906 301.636719 89.441406 C 303.058594 91.132812 304.425781 92.867188 305.742188 94.640625 C 307.058594 96.414062 308.316406 98.230469 309.523438 100.082031 C 310.726562 101.933594 311.875 103.820312 312.960938 105.742188 C 314.050781 107.664062 315.078125 109.621094 316.046875 111.605469 C 317.015625 113.589844 317.921875 115.605469 318.769531 117.644531 C 319.613281 119.6875 320.394531 121.753906 321.113281 123.839844 C 321.832031 125.929688 322.484375 128.039062 323.074219 130.167969 C 323.660156 132.296875 324.183594 134.445312 324.640625 136.605469 C 325.097656 138.765625 325.488281 140.941406 325.8125 143.125 C 326.136719 145.3125 326.394531 147.503906 326.582031 149.707031 C 326.769531 151.90625 326.890625 154.113281 326.945312 156.320312 C 327 158.527344 326.984375 160.738281 326.902344 162.945312 C 326.820312 165.152344 326.671875 167.355469 326.453125 169.554688 C 326.238281 171.753906 325.953125 173.941406 325.601562 176.125 C 325.25 178.304688 324.832031 180.472656 324.347656 182.628906 C 323.863281 184.785156 323.3125 186.921875 322.695312 189.042969 C 322.082031 191.164062 321.402344 193.265625 320.65625 195.347656 C 319.910156 197.425781 319.101562 199.480469 318.230469 201.511719 C 317.359375 203.542969 316.429688 205.542969 315.433594 207.515625 C 314.441406 209.488281 313.386719 211.429688 312.273438 213.339844 C 311.160156 215.246094 309.992188 217.121094 308.761719 218.957031 C 307.535156 220.792969 306.25 222.589844 304.914062 224.347656 C 303.574219 226.105469 302.183594 227.820312 300.742188 229.492188 C 299.296875 231.164062 297.804688 232.792969 296.261719 234.371094 C 294.71875 235.953125 293.125 237.484375 291.488281 238.96875 C 289.851562 240.453125 288.171875 241.882812 286.445312 243.261719 C 284.71875 244.644531 282.953125 245.96875 281.148438 247.242188 C 279.339844 248.511719 277.496094 249.726562 275.617188 250.886719 C 273.734375 252.042969 271.820312 253.144531 269.871094 254.183594 C 267.921875 255.222656 265.941406 256.203125 263.933594 257.125 C 261.925781 258.042969 259.890625 258.898438 257.828125 259.695312 C 255.765625 260.488281 253.683594 261.21875 251.578125 261.886719 C 249.46875 262.550781 247.34375 263.152344 245.203125 263.6875 C 243.058594 264.226562 240.902344 264.695312 238.730469 265.097656 C 236.558594 265.503906 234.375 265.839844 232.183594 266.109375 C 229.988281 266.378906 227.789062 266.582031 225.585938 266.714844 C 223.378906 266.851562 221.171875 266.917969 218.964844 266.914062 Z M 218.984375 58.363281 C 215.691406 58.355469 212.40625 58.507812 209.125 58.824219 C 205.847656 59.140625 202.59375 59.617188 199.359375 60.253906 C 196.128906 60.890625 192.9375 61.6875 189.785156 62.640625 C 186.632812 63.59375 183.53125 64.699219 180.488281 65.960938 C 177.445312 67.21875 174.472656 68.628906 171.566406 70.183594 C 168.664062 71.734375 165.84375 73.429688 163.105469 75.261719 C 160.371094 77.097656 157.730469 79.058594 155.1875 81.15625 C 152.644531 83.25 150.214844 85.464844 147.890625 87.796875 C 146.566406 89.121094 145.28125 90.484375 144.035156 91.878906 C 142.789062 93.273438 141.582031 94.703125 140.414062 96.167969 C 139.246094 97.628906 138.121094 99.125 137.039062 100.652344 C 135.953125 102.175781 134.914062 103.730469 133.917969 105.316406 C 132.921875 106.902344 131.96875 108.511719 131.0625 110.148438 C 130.152344 111.785156 129.292969 113.445312 128.476562 115.132812 C 127.664062 116.816406 126.898438 118.523438 126.179688 120.25 C 125.457031 121.980469 124.789062 123.726562 124.167969 125.492188 C 123.542969 127.257812 122.972656 129.039062 122.449219 130.835938 C 121.925781 132.632812 121.453125 134.441406 121.035156 136.265625 C 120.613281 138.089844 120.242188 139.925781 119.921875 141.769531 C 119.601562 143.613281 119.335938 145.464844 119.121094 147.324219 C 118.902344 149.183594 118.738281 151.046875 118.628906 152.914062 C 118.515625 154.785156 118.457031 156.652344 118.449219 158.523438 C 118.441406 160.398438 118.484375 162.265625 118.582031 164.136719 C 118.679688 166.003906 118.828125 167.871094 119.027344 169.730469 C 119.230469 171.59375 119.480469 173.445312 119.785156 175.292969 C 120.089844 177.140625 120.445312 178.976562 120.851562 180.804688 C 121.257812 182.628906 121.714844 184.445312 122.222656 186.246094 C 122.730469 188.046875 123.289062 189.832031 123.898438 191.605469 C 124.503906 193.375 125.160156 195.125 125.867188 196.859375 C 126.570312 198.59375 127.324219 200.308594 128.125 202 C 128.925781 203.691406 129.773438 205.359375 130.667969 207.003906 C 131.558594 208.648438 132.5 210.265625 133.484375 211.859375 C 134.46875 213.449219 135.496094 215.011719 136.566406 216.546875 C 137.636719 218.082031 138.75 219.585938 139.90625 221.058594 C 141.0625 222.53125 142.257812 223.972656 143.492188 225.378906 C 144.726562 226.785156 146 228.152344 147.3125 229.488281 C 148.625 230.824219 149.972656 232.121094 151.355469 233.382812 C 152.742188 234.640625 154.160156 235.859375 155.613281 237.042969 C 157.0625 238.222656 158.546875 239.363281 160.0625 240.460938 C 161.578125 241.558594 163.125 242.613281 164.699219 243.625 C 166.335938 244.671875 168.003906 245.675781 169.699219 246.628906 C 171.394531 247.578125 173.117188 248.484375 174.863281 249.335938 C 176.613281 250.1875 178.382812 250.988281 180.175781 251.738281 C 181.972656 252.492188 183.785156 253.1875 185.621094 253.832031 C 187.453125 254.476562 189.308594 255.070312 191.175781 255.605469 C 193.042969 256.144531 194.925781 256.625 196.824219 257.054688 C 198.722656 257.484375 200.628906 257.855469 202.546875 258.171875 C 204.46875 258.492188 206.394531 258.753906 208.328125 258.957031 C 210.261719 259.164062 212.199219 259.3125 214.140625 259.40625 C 216.082031 259.5 218.027344 259.539062 219.972656 259.519531 C 221.917969 259.5 223.859375 259.425781 225.800781 259.292969 C 227.738281 259.160156 229.675781 258.972656 231.605469 258.726562 C 233.535156 258.484375 235.453125 258.183594 237.367188 257.828125 C 239.277344 257.472656 241.179688 257.0625 243.066406 256.59375 C 244.953125 256.128906 246.828125 255.609375 248.683594 255.035156 C 250.542969 254.460938 252.382812 253.832031 254.203125 253.152344 C 256.027344 252.46875 257.828125 251.738281 259.605469 250.949219 C 261.382812 250.164062 263.140625 249.328125 264.871094 248.441406 C 266.601562 247.554688 268.304688 246.617188 269.980469 245.632812 C 271.65625 244.644531 273.300781 243.609375 274.917969 242.527344 C 276.535156 241.445312 278.117188 240.320312 279.667969 239.144531 C 281.21875 237.972656 282.734375 236.753906 284.214844 235.492188 C 285.695312 234.230469 287.136719 232.929688 288.542969 231.582031 C 289.945312 230.238281 291.308594 228.851562 292.632812 227.429688 C 293.957031 226.003906 295.242188 224.542969 296.480469 223.042969 C 297.71875 221.546875 298.914062 220.011719 300.0625 218.445312 C 301.214844 216.875 302.320312 215.277344 303.375 213.644531 C 304.433594 212.011719 305.445312 210.351562 306.40625 208.660156 C 307.367188 206.96875 308.277344 205.253906 309.140625 203.511719 C 310 201.765625 310.8125 200 311.570312 198.210938 C 312.328125 196.417969 313.035156 194.609375 313.691406 192.777344 C 314.34375 190.945312 314.945312 189.097656 315.492188 187.230469 C 316.039062 185.363281 316.53125 183.484375 316.96875 181.589844 C 317.40625 179.691406 317.789062 177.789062 318.117188 175.871094 C 318.445312 173.953125 318.714844 172.027344 318.929688 170.09375 C 319.148438 168.164062 319.304688 166.226562 319.410156 164.285156 C 319.511719 162.339844 319.558594 160.398438 319.550781 158.453125 C 319.539062 156.507812 319.472656 154.566406 319.351562 152.625 C 319.230469 150.683594 319.050781 148.746094 318.816406 146.816406 C 318.582031 144.886719 318.292969 142.964844 317.945312 141.050781 C 317.601562 139.136719 317.199219 137.234375 316.742188 135.34375 C 316.285156 133.453125 315.777344 131.578125 315.210938 129.71875 C 314.644531 127.855469 314.027344 126.015625 313.355469 124.1875 C 312.683594 122.363281 311.957031 120.558594 311.179688 118.777344 C 310.40625 116.996094 309.578125 115.234375 308.699219 113.5 C 307.820312 111.765625 306.890625 110.058594 305.914062 108.375 C 304.933594 106.695312 303.910156 105.042969 302.835938 103.421875 C 301.761719 101.800781 300.644531 100.210938 299.476562 98.65625 C 298.3125 97.097656 297.101562 95.578125 295.847656 94.089844 C 294.59375 92.605469 293.296875 91.15625 291.960938 89.746094 C 290.621094 88.332031 289.242188 86.960938 287.824219 85.628906 C 286.40625 84.300781 284.953125 83.011719 283.460938 81.761719 C 281.96875 80.515625 280.441406 79.3125 278.878906 78.15625 C 277.316406 76.996094 275.722656 75.886719 274.09375 74.820312 C 272.46875 73.753906 270.8125 72.734375 269.128906 71.765625 C 267.441406 70.796875 265.730469 69.875 263.988281 69.003906 C 262.25 68.136719 260.488281 67.316406 258.703125 66.546875 C 256.914062 65.777344 255.105469 65.0625 253.277344 64.398438 C 251.449219 63.738281 249.605469 63.128906 247.742188 62.570312 C 245.878906 62.015625 244 61.511719 242.109375 61.066406 C 240.214844 60.617188 238.3125 60.226562 236.394531 59.890625 C 234.480469 59.550781 232.558594 59.269531 230.625 59.046875 C 228.691406 58.820312 226.757812 58.652344 224.816406 58.539062 C 222.875 58.425781 220.929688 58.367188 218.984375 58.367188 Z M 218.984375 58.363281 " fill-opacity="1" fill-rule="nonzero"/><path fill="#cca060" d="M 46.5625 346.257812 C 45.597656 346.253906 44.644531 346.160156 43.703125 345.96875 C 42.757812 345.78125 41.84375 345.5 40.953125 345.132812 C 40.066406 344.761719 39.21875 344.308594 38.421875 343.773438 C 37.621094 343.234375 36.882812 342.628906 36.203125 341.945312 C 35.523438 341.265625 34.914062 340.523438 34.382812 339.722656 C 33.847656 338.921875 33.398438 338.074219 33.03125 337.183594 C 32.664062 336.296875 32.386719 335.378906 32.199219 334.433594 C 32.011719 333.488281 31.917969 332.535156 31.917969 331.574219 C 31.917969 330.609375 32.015625 329.65625 32.203125 328.714844 C 32.390625 327.769531 32.667969 326.851562 33.039062 325.964844 C 33.40625 325.074219 33.859375 324.230469 34.394531 323.429688 C 34.929688 322.628906 35.535156 321.890625 36.21875 321.207031 C 36.898438 320.527344 37.640625 319.921875 38.4375 319.386719 C 39.238281 318.851562 40.085938 318.398438 40.972656 318.03125 C 41.863281 317.660156 42.78125 317.382812 43.722656 317.195312 C 44.667969 317.007812 45.621094 316.914062 46.585938 316.914062 C 47.546875 316.910156 48.5 317.003906 49.445312 317.191406 C 50.386719 317.378906 51.304688 317.65625 52.195312 318.023438 C 53.085938 318.390625 53.929688 318.84375 54.730469 319.378906 C 55.53125 319.910156 56.273438 320.519531 56.953125 321.199219 C 57.636719 321.878906 58.246094 322.617188 58.78125 323.417969 C 59.316406 324.21875 59.769531 325.0625 60.140625 325.949219 C 60.507812 326.839844 60.789062 327.753906 60.976562 328.699219 C 61.167969 329.644531 61.261719 330.597656 61.265625 331.558594 C 61.265625 332.523438 61.171875 333.480469 60.984375 334.429688 C 60.796875 335.375 60.515625 336.292969 60.148438 337.1875 C 59.777344 338.078125 59.324219 338.925781 58.789062 339.730469 C 58.253906 340.53125 57.644531 341.273438 56.960938 341.957031 C 56.277344 342.640625 55.535156 343.25 54.730469 343.785156 C 53.929688 344.320312 53.082031 344.773438 52.191406 345.144531 C 51.296875 345.511719 50.378906 345.789062 49.429688 345.976562 C 48.484375 346.164062 47.527344 346.257812 46.5625 346.257812 Z M 46.5625 324.3125 C 46.085938 324.3125 45.609375 324.363281 45.144531 324.457031 C 44.675781 324.550781 44.21875 324.691406 43.777344 324.875 C 43.339844 325.0625 42.921875 325.289062 42.523438 325.554688 C 42.128906 325.820312 41.761719 326.125 41.425781 326.464844 C 41.089844 326.804688 40.789062 327.171875 40.523438 327.570312 C 40.261719 327.96875 40.039062 328.390625 39.855469 328.832031 C 39.675781 329.273438 39.539062 329.730469 39.449219 330.199219 C 39.355469 330.667969 39.3125 331.140625 39.3125 331.617188 C 39.316406 332.097656 39.363281 332.570312 39.460938 333.039062 C 39.554688 333.503906 39.695312 333.960938 39.878906 334.402344 C 40.0625 334.839844 40.289062 335.261719 40.558594 335.65625 C 40.824219 336.050781 41.128906 336.417969 41.464844 336.753906 C 41.804688 337.089844 42.175781 337.390625 42.574219 337.65625 C 42.972656 337.917969 43.390625 338.140625 43.835938 338.324219 C 44.277344 338.503906 44.730469 338.640625 45.199219 338.730469 C 45.667969 338.824219 46.144531 338.867188 46.621094 338.867188 C 47.097656 338.863281 47.570312 338.816406 48.039062 338.71875 C 48.507812 338.625 48.960938 338.484375 49.402344 338.300781 C 49.84375 338.117188 50.261719 337.890625 50.660156 337.621094 C 51.054688 337.355469 51.421875 337.050781 51.757812 336.714844 C 52.09375 336.375 52.394531 336.003906 52.660156 335.605469 C 52.921875 335.207031 53.144531 334.789062 53.324219 334.347656 C 53.507812 333.902344 53.644531 333.449219 53.734375 332.980469 C 53.824219 332.511719 53.871094 332.035156 53.867188 331.558594 C 53.867188 331.082031 53.820312 330.609375 53.726562 330.140625 C 53.632812 329.671875 53.492188 329.214844 53.308594 328.773438 C 53.125 328.332031 52.898438 327.914062 52.632812 327.519531 C 52.363281 327.121094 52.0625 326.753906 51.722656 326.417969 C 51.382812 326.082031 51.011719 325.78125 50.613281 325.515625 C 50.214844 325.253906 49.792969 325.03125 49.351562 324.851562 C 48.910156 324.671875 48.453125 324.535156 47.984375 324.445312 C 47.511719 324.355469 47.039062 324.3125 46.5625 324.316406 Z M 46.5625 324.3125 " fill-opacity="1" fill-rule="nonzero"/><path fill="#cca060" d="M 219.015625 205.761719 C 176.464844 205.761719 142.8125 163.035156 141.402344 161.214844 C 141.148438 160.890625 140.957031 160.535156 140.824219 160.148438 C 140.691406 159.757812 140.625 159.359375 140.625 158.949219 C 140.625 158.539062 140.691406 158.140625 140.824219 157.753906 C 140.957031 157.363281 141.148438 157.007812 141.402344 156.683594 C 142.8125 154.863281 176.464844 112.136719 219.015625 112.136719 C 261.566406 112.136719 295.257812 154.863281 296.667969 156.683594 C 296.917969 157.007812 297.109375 157.363281 297.246094 157.753906 C 297.378906 158.140625 297.445312 158.539062 297.445312 158.949219 C 297.445312 159.359375 297.378906 159.757812 297.246094 160.148438 C 297.109375 160.535156 296.917969 160.890625 296.667969 161.214844 C 295.257812 163.035156 261.601562 205.761719 219.015625 205.761719 Z M 149.128906 158.949219 C 156.621094 167.652344 185.457031 198.367188 219.015625 198.367188 C 252.574219 198.367188 281.449219 167.652344 288.9375 158.949219 C 281.449219 150.25 252.609375 119.53125 219.015625 119.53125 C 185.421875 119.53125 156.621094 150.25 149.128906 158.949219 Z M 149.128906 158.949219 " fill-opacity="1" fill-rule="nonzero"/><path fill="#cca060" d="M 219.035156 186.277344 C 218.140625 186.277344 217.246094 186.230469 216.355469 186.144531 C 215.464844 186.058594 214.582031 185.925781 213.703125 185.75 C 212.824219 185.578125 211.957031 185.359375 211.101562 185.097656 C 210.246094 184.839844 209.402344 184.539062 208.578125 184.195312 C 207.75 183.851562 206.941406 183.472656 206.152344 183.050781 C 205.363281 182.628906 204.597656 182.167969 203.851562 181.671875 C 203.109375 181.171875 202.390625 180.640625 201.699219 180.074219 C 201.007812 179.503906 200.34375 178.90625 199.710938 178.273438 C 199.078125 177.640625 198.476562 176.976562 197.910156 176.285156 C 197.34375 175.59375 196.808594 174.875 196.3125 174.132812 C 195.816406 173.386719 195.355469 172.621094 194.933594 171.832031 C 194.511719 171.042969 194.128906 170.234375 193.789062 169.40625 C 193.445312 168.582031 193.144531 167.738281 192.882812 166.882812 C 192.625 166.027344 192.40625 165.160156 192.234375 164.28125 C 192.058594 163.402344 191.925781 162.519531 191.839844 161.628906 C 191.75 160.738281 191.707031 159.84375 191.707031 158.949219 C 191.707031 158.054688 191.75 157.164062 191.839844 156.273438 C 191.925781 155.382812 192.058594 154.496094 192.234375 153.617188 C 192.40625 152.742188 192.625 151.875 192.882812 151.019531 C 193.144531 150.160156 193.445312 149.320312 193.789062 148.492188 C 194.128906 147.664062 194.511719 146.859375 194.933594 146.070312 C 195.355469 145.277344 195.816406 144.511719 196.3125 143.769531 C 196.808594 143.023438 197.34375 142.304688 197.910156 141.613281 C 198.476562 140.921875 199.078125 140.261719 199.710938 139.628906 C 200.34375 138.996094 201.007812 138.394531 201.699219 137.828125 C 202.390625 137.257812 203.109375 136.726562 203.851562 136.230469 C 204.597656 135.730469 205.363281 135.273438 206.152344 134.851562 C 206.941406 134.429688 207.75 134.046875 208.578125 133.703125 C 209.402344 133.363281 210.246094 133.058594 211.101562 132.800781 C 211.957031 132.539062 212.824219 132.324219 213.703125 132.148438 C 214.582031 131.972656 215.464844 131.84375 216.355469 131.753906 C 217.246094 131.667969 218.140625 131.625 219.035156 131.625 C 219.929688 131.625 220.820312 131.667969 221.710938 131.753906 C 222.601562 131.84375 223.488281 131.972656 224.363281 132.148438 C 225.242188 132.324219 226.109375 132.539062 226.964844 132.800781 C 227.824219 133.058594 228.664062 133.363281 229.492188 133.703125 C 230.316406 134.046875 231.125 134.429688 231.914062 134.851562 C 232.703125 135.273438 233.472656 135.730469 234.214844 136.230469 C 234.960938 136.726562 235.675781 137.257812 236.371094 137.828125 C 237.0625 138.394531 237.722656 138.996094 238.355469 139.628906 C 238.988281 140.261719 239.589844 140.921875 240.15625 141.613281 C 240.726562 142.304688 241.257812 143.023438 241.753906 143.769531 C 242.253906 144.511719 242.710938 145.277344 243.132812 146.070312 C 243.554688 146.859375 243.9375 147.664062 244.28125 148.492188 C 244.621094 149.320312 244.921875 150.160156 245.183594 151.019531 C 245.441406 151.875 245.660156 152.742188 245.835938 153.617188 C 246.007812 154.496094 246.140625 155.382812 246.230469 156.273438 C 246.316406 157.164062 246.359375 158.054688 246.359375 158.949219 C 246.359375 159.84375 246.3125 160.738281 246.226562 161.628906 C 246.136719 162.515625 246.003906 163.402344 245.828125 164.277344 C 245.652344 165.15625 245.4375 166.023438 245.175781 166.878906 C 244.914062 167.734375 244.613281 168.574219 244.269531 169.402344 C 243.925781 170.226562 243.542969 171.035156 243.121094 171.824219 C 242.699219 172.613281 242.242188 173.378906 241.742188 174.121094 C 241.246094 174.867188 240.714844 175.585938 240.144531 176.277344 C 239.578125 176.96875 238.976562 177.628906 238.34375 178.261719 C 237.714844 178.894531 237.050781 179.496094 236.359375 180.0625 C 235.667969 180.628906 234.949219 181.164062 234.207031 181.660156 C 233.464844 182.15625 232.695312 182.617188 231.90625 183.039062 C 231.121094 183.460938 230.3125 183.84375 229.484375 184.1875 C 228.660156 184.527344 227.816406 184.832031 226.960938 185.089844 C 226.105469 185.351562 225.238281 185.570312 224.363281 185.746094 C 223.484375 185.921875 222.601562 186.050781 221.710938 186.140625 C 220.820312 186.230469 219.929688 186.273438 219.035156 186.277344 Z M 219.035156 139.019531 C 218.382812 139.019531 217.730469 139.050781 217.082031 139.117188 C 216.429688 139.179688 215.785156 139.273438 215.144531 139.402344 C 214.503906 139.53125 213.875 139.6875 213.25 139.878906 C 212.625 140.066406 212.011719 140.285156 211.40625 140.535156 C 210.804688 140.785156 210.214844 141.066406 209.640625 141.371094 C 209.0625 141.679688 208.503906 142.015625 207.960938 142.378906 C 207.417969 142.742188 206.894531 143.128906 206.390625 143.542969 C 205.886719 143.957031 205.402344 144.394531 204.941406 144.855469 C 204.480469 145.320312 204.042969 145.800781 203.628906 146.304688 C 203.214844 146.8125 202.824219 147.335938 202.460938 147.878906 C 202.101562 148.417969 201.765625 148.980469 201.457031 149.554688 C 201.148438 150.128906 200.871094 150.71875 200.621094 151.324219 C 200.371094 151.925781 200.152344 152.539062 199.960938 153.164062 C 199.773438 153.789062 199.613281 154.421875 199.488281 155.0625 C 199.359375 155.703125 199.261719 156.347656 199.199219 156.996094 C 199.136719 157.644531 199.101562 158.296875 199.101562 158.949219 C 199.101562 159.601562 199.136719 160.253906 199.199219 160.902344 C 199.261719 161.554688 199.359375 162.199219 199.488281 162.839844 C 199.613281 163.476562 199.773438 164.109375 199.960938 164.734375 C 200.152344 165.359375 200.371094 165.972656 200.621094 166.578125 C 200.871094 167.179688 201.148438 167.769531 201.457031 168.34375 C 201.765625 168.921875 202.101562 169.480469 202.460938 170.023438 C 202.824219 170.566406 203.214844 171.089844 203.628906 171.59375 C 204.042969 172.097656 204.480469 172.582031 204.941406 173.042969 C 205.402344 173.503906 205.886719 173.941406 206.390625 174.355469 C 206.894531 174.769531 207.417969 175.160156 207.960938 175.523438 C 208.503906 175.882812 209.0625 176.21875 209.640625 176.527344 C 210.214844 176.835938 210.804688 177.113281 211.40625 177.363281 C 212.011719 177.613281 212.625 177.832031 213.25 178.023438 C 213.875 178.210938 214.503906 178.371094 215.144531 178.496094 C 215.785156 178.625 216.429688 178.71875 217.082031 178.785156 C 217.730469 178.847656 218.382812 178.878906 219.035156 178.878906 C 219.6875 178.878906 220.339844 178.847656 220.988281 178.785156 C 221.636719 178.71875 222.28125 178.625 222.921875 178.496094 C 223.5625 178.371094 224.195312 178.210938 224.820312 178.023438 C 225.445312 177.832031 226.058594 177.613281 226.660156 177.363281 C 227.265625 177.113281 227.855469 176.835938 228.429688 176.527344 C 229.003906 176.21875 229.5625 175.882812 230.105469 175.523438 C 230.648438 175.160156 231.171875 174.769531 231.679688 174.355469 C 232.183594 173.941406 232.664062 173.503906 233.128906 173.042969 C 233.589844 172.582031 234.027344 172.097656 234.441406 171.59375 C 234.855469 171.089844 235.242188 170.566406 235.605469 170.023438 C 235.96875 169.480469 236.304688 168.921875 236.609375 168.34375 C 236.917969 167.769531 237.199219 167.179688 237.449219 166.578125 C 237.699219 165.972656 237.917969 165.359375 238.105469 164.734375 C 238.296875 164.109375 238.453125 163.476562 238.582031 162.839844 C 238.710938 162.199219 238.804688 161.554688 238.867188 160.902344 C 238.933594 160.253906 238.964844 159.601562 238.964844 158.949219 C 238.964844 158.296875 238.929688 157.648438 238.867188 156.996094 C 238.800781 156.347656 238.703125 155.703125 238.574219 155.0625 C 238.449219 154.425781 238.289062 153.792969 238.097656 153.167969 C 237.90625 152.542969 237.6875 151.929688 237.4375 151.328125 C 237.1875 150.726562 236.910156 150.136719 236.601562 149.5625 C 236.292969 148.988281 235.957031 148.429688 235.59375 147.886719 C 235.230469 147.34375 234.84375 146.820312 234.429688 146.316406 C 234.015625 145.8125 233.578125 145.328125 233.117188 144.867188 C 232.65625 144.40625 232.171875 143.96875 231.667969 143.554688 C 231.164062 143.140625 230.640625 142.753906 230.097656 142.390625 C 229.554688 142.027344 228.996094 141.691406 228.421875 141.382812 C 227.847656 141.074219 227.257812 140.796875 226.65625 140.546875 C 226.054688 140.296875 225.441406 140.074219 224.816406 139.886719 C 224.191406 139.695312 223.558594 139.535156 222.917969 139.410156 C 222.28125 139.28125 221.636719 139.183594 220.988281 139.117188 C 220.335938 139.054688 219.6875 139.019531 219.035156 139.019531 Z M 219.035156 139.019531 " fill-opacity="1" fill-rule="nonzero"/></svg>