<svg xmlns="http://www.w3.org/2000/svg" xmlns:xlink="http://www.w3.org/1999/xlink" width="500" zoomAndPan="magnify" viewBox="0 0 375 374.999991" height="500" preserveAspectRatio="xMidYMid meet" version="1.0"><defs><clipPath id="76d66ee852"><path d="M 2.269531 2.269531 L 372.769531 2.269531 L 372.769531 372.769531 L 2.269531 372.769531 Z M 2.269531 2.269531 " clip-rule="nonzero"/></clipPath></defs><g clip-path="url(#76d66ee852)"><path fill="#cca060" d="M 187.496094 2.269531 C 85.363281 2.269531 2.269531 85.363281 2.269531 187.496094 C 2.269531 289.632812 85.363281 372.722656 187.496094 372.722656 C 289.632812 372.722656 372.722656 289.632812 372.722656 187.496094 C 372.722656 85.363281 289.632812 2.269531 187.496094 2.269531 Z M 26.96875 187.496094 C 26.96875 98.984375 98.984375 26.96875 187.496094 26.96875 C 227.519531 26.96875 264.070312 41.785156 292.210938 66.101562 C 291.421875 66.59375 290.582031 66.953125 289.902344 67.632812 L 67.632812 289.902344 C 66.953125 290.582031 66.582031 291.433594 66.101562 292.210938 C 41.785156 264.070312 26.96875 227.519531 26.96875 187.496094 Z M 187.496094 348.027344 C 147.476562 348.027344 110.925781 333.210938 82.78125 308.894531 C 83.574219 308.402344 84.414062 308.042969 85.09375 307.363281 L 307.363281 85.09375 C 308.042969 84.414062 308.414062 83.5625 308.894531 82.78125 C 333.210938 110.925781 348.027344 147.476562 348.027344 187.496094 C 348.027344 276.011719 276.023438 348.027344 187.496094 348.027344 Z M 187.496094 348.027344 " fill-opacity="1" fill-rule="nonzero"/></g></svg>