<svg xmlns="http://www.w3.org/2000/svg" xmlns:xlink="http://www.w3.org/1999/xlink" width="500" zoomAndPan="magnify" viewBox="0 0 375 374.999991" height="500" preserveAspectRatio="xMidYMid meet" version="1.0"><path fill="#000000" d="M 373.679688 42.488281 C 372.320312 39.207031 369.113281 37.066406 365.558594 37.066406 L 337.933594 37.066406 L 337.933594 9.441406 C 337.933594 5.886719 335.792969 2.683594 332.507812 1.320312 C 329.226562 -0.0390625 325.445312 0.714844 322.929688 3.226562 L 292.726562 33.433594 C 291.078125 35.082031 290.152344 37.316406 290.152344 39.648438 L 290.152344 72.417969 L 282.015625 80.554688 C 252.054688 53.535156 212.410156 37.0625 168.984375 37.0625 C 75.828125 37.0625 0.0351562 112.855469 0.0351562 206.011719 C 0.0351562 299.171875 75.828125 374.960938 168.984375 374.960938 C 262.144531 374.960938 337.933594 299.171875 337.933594 206.011719 C 337.933594 162.589844 321.460938 122.941406 294.445312 92.984375 L 302.582031 84.847656 L 335.351562 84.847656 C 337.683594 84.847656 339.917969 83.921875 341.566406 82.273438 L 371.773438 52.066406 C 374.285156 49.554688 375.039062 45.773438 373.679688 42.488281 Z M 320.355469 206.011719 C 320.355469 289.480469 252.453125 357.386719 168.984375 357.386719 C 85.519531 357.386719 17.613281 289.480469 17.613281 206.011719 C 17.613281 122.546875 85.519531 54.640625 168.984375 54.640625 C 207.5625 54.640625 242.808594 69.15625 269.570312 93 L 237.199219 125.371094 C 218.777344 109.765625 194.964844 100.335938 168.984375 100.335938 C 110.714844 100.335938 63.308594 147.742188 63.308594 206.011719 C 63.308594 264.285156 110.714844 311.6875 168.984375 311.6875 C 227.257812 311.6875 274.660156 264.285156 274.660156 206.011719 C 274.660156 180.035156 265.234375 156.222656 249.628906 137.800781 L 282 105.429688 C 305.84375 132.191406 320.355469 167.4375 320.355469 206.011719 Z M 197.765625 206.011719 C 197.765625 221.882812 184.855469 234.792969 168.984375 234.792969 C 153.117188 234.792969 140.207031 221.882812 140.207031 206.011719 C 140.207031 190.144531 153.117188 177.234375 168.984375 177.234375 C 173.722656 177.234375 178.195312 178.390625 182.140625 180.429688 L 162.769531 199.800781 C 159.339844 203.230469 159.339844 208.796875 162.769531 212.230469 C 164.488281 213.945312 166.738281 214.804688 168.984375 214.804688 C 171.234375 214.804688 173.484375 213.945312 175.199219 212.230469 L 194.570312 192.859375 C 196.605469 196.804688 197.765625 201.273438 197.765625 206.011719 Z M 194.945312 167.625 C 187.53125 162.597656 178.597656 159.65625 168.984375 159.65625 C 143.425781 159.65625 122.628906 180.453125 122.628906 206.011719 C 122.628906 231.574219 143.425781 252.371094 168.984375 252.371094 C 194.546875 252.371094 215.34375 231.574219 215.34375 206.011719 C 215.34375 196.402344 212.402344 187.464844 207.375 180.054688 L 237.15625 150.273438 C 249.605469 165.46875 257.085938 184.882812 257.085938 206.011719 C 257.085938 254.589844 217.5625 294.113281 168.988281 294.113281 C 120.410156 294.113281 80.886719 254.589844 80.886719 206.011719 C 80.886719 157.433594 120.410156 117.914062 168.988281 117.914062 C 190.117188 117.914062 209.53125 125.394531 224.726562 137.84375 Z M 331.710938 67.269531 L 307.726562 67.269531 L 307.726562 43.289062 L 320.355469 30.65625 L 320.355469 45.851562 C 320.355469 50.707031 324.292969 54.640625 329.144531 54.640625 L 344.339844 54.640625 Z M 331.710938 67.269531 " fill-opacity="1" fill-rule="nonzero"/></svg>