<svg xmlns="http://www.w3.org/2000/svg" xmlns:xlink="http://www.w3.org/1999/xlink" width="500" zoomAndPan="magnify" viewBox="0 0 375 374.999991" height="500" preserveAspectRatio="xMidYMid meet" version="1.0"><path fill="#cca060" d="M 208.289062 -0.0429688 L 183.035156 25.207031 C 180.570312 27.675781 180.570312 31.667969 183.035156 34.136719 L 208.289062 59.386719 L 217.214844 50.460938 L 203.675781 36.921875 C 271.222656 44 326.09375 94.898438 337.089844 163.257812 L 349.546875 161.238281 C 337.484375 86.195312 276.597656 30.484375 202.097656 24 L 217.214844 8.882812 L 208.289062 -0.0429688 " fill-opacity="1" fill-rule="nonzero"/><path fill="#cca060" d="M 25.207031 191.964844 C 26.441406 193.195312 28.042969 193.8125 29.671875 193.8125 C 31.300781 193.8125 32.902344 193.195312 34.136719 191.964844 L 59.386719 166.710938 L 50.460938 157.785156 L 36.921875 171.324219 C 44 103.777344 94.898438 48.90625 163.257812 37.910156 L 161.238281 25.453125 C 86.195312 37.515625 30.484375 98.402344 24 172.902344 L 8.882812 157.785156 L -0.0429688 166.710938 L 25.207031 191.964844 " fill-opacity="1" fill-rule="nonzero"/><path fill="#cca060" d="M 166.710938 375.042969 L 191.964844 349.792969 C 194.429688 347.324219 194.429688 343.332031 191.964844 340.863281 L 166.710938 315.613281 L 157.785156 324.539062 L 171.324219 338.078125 C 103.777344 331 48.90625 280.101562 37.910156 211.742188 L 25.453125 213.761719 C 37.515625 288.804688 98.402344 344.515625 172.902344 351 L 157.785156 366.117188 L 166.710938 375.042969 " fill-opacity="1" fill-rule="nonzero"/><path fill="#cca060" d="M 349.792969 183.035156 C 347.324219 180.570312 343.332031 180.570312 340.863281 183.035156 L 315.613281 208.289062 L 324.539062 217.214844 L 338.078125 203.675781 C 331 271.222656 280.101562 326.09375 211.742188 337.089844 L 213.761719 349.546875 C 288.804688 337.484375 344.515625 276.597656 351 202.097656 L 366.117188 217.214844 L 375.042969 208.289062 L 349.792969 183.035156 " fill-opacity="1" fill-rule="nonzero"/><path fill="#cca060" d="M 197.214844 266.710938 L 177.785156 266.710938 C 175.5625 266.710938 173.515625 267.867188 172.359375 269.769531 L 161.0625 288.460938 L 149.546875 284.710938 L 151.398438 262.9375 C 151.570312 260.742188 150.609375 258.597656 148.808594 257.289062 L 133.074219 245.871094 C 131.273438 244.566406 128.929688 244.292969 126.910156 245.15625 L 106.761719 253.640625 L 99.660156 243.847656 L 113.9375 227.300781 C 115.390625 225.625 115.859375 223.332031 115.171875 221.234375 L 109.152344 202.742188 C 108.460938 200.621094 106.734375 199.042969 104.589844 198.523438 L 83.308594 193.566406 L 83.308594 181.433594 L 104.589844 176.476562 C 106.734375 175.957031 108.460938 174.378906 109.152344 172.257812 L 115.171875 153.765625 C 115.859375 151.667969 115.390625 149.375 113.9375 147.699219 L 99.660156 131.148438 L 106.761719 121.359375 L 126.910156 129.84375 C 128.929688 130.707031 131.273438 130.433594 133.074219 129.128906 L 148.808594 117.710938 C 150.609375 116.402344 151.570312 114.257812 151.398438 112.0625 L 149.546875 90.289062 L 161.0625 86.539062 L 172.359375 105.230469 C 173.515625 107.132812 175.5625 108.289062 177.785156 108.289062 L 197.214844 108.289062 C 199.4375 108.289062 201.484375 107.132812 202.640625 105.230469 L 213.9375 86.539062 L 225.453125 90.289062 L 223.601562 112.0625 C 223.429688 114.257812 224.390625 116.402344 226.191406 117.710938 L 241.925781 129.128906 C 243.726562 130.433594 246.042969 130.707031 248.089844 129.84375 L 268.238281 121.359375 L 275.339844 131.148438 L 261.0625 147.699219 C 259.609375 149.375 259.140625 151.667969 259.828125 153.765625 L 265.847656 172.257812 C 266.539062 174.378906 268.261719 175.957031 270.410156 176.476562 L 291.691406 181.433594 L 291.691406 193.566406 L 270.410156 198.523438 C 268.261719 199.042969 266.539062 200.621094 265.847656 202.742188 L 259.828125 221.234375 C 259.140625 223.332031 259.609375 225.625 261.0625 227.300781 L 275.339844 243.847656 L 268.238281 253.640625 L 248.089844 245.15625 C 246.042969 244.292969 243.726562 244.566406 241.925781 245.871094 L 226.191406 257.289062 C 224.390625 258.597656 223.429688 260.742188 223.601562 262.9375 L 225.453125 284.710938 L 213.9375 288.460938 L 202.640625 269.769531 C 201.484375 267.867188 199.4375 266.710938 197.214844 266.710938 Z M 211.125 302.320312 C 211.765625 302.320312 212.433594 302.222656 213.074219 302.023438 L 234.132812 295.167969 C 236.921875 294.28125 238.695312 291.566406 238.472656 288.632812 L 236.5 265.425781 L 246.464844 258.175781 L 267.941406 267.226562 C 270.65625 268.363281 273.789062 267.472656 275.515625 265.105469 L 288.511719 247.203125 C 290.234375 244.835938 290.089844 241.582031 288.191406 239.363281 L 272.949219 221.730469 L 276.746094 210.015625 L 299.433594 204.714844 C 302.296875 204.046875 304.316406 201.507812 304.316406 198.574219 L 304.316406 176.425781 C 304.316406 173.492188 302.296875 170.953125 299.433594 170.285156 L 276.746094 164.984375 L 272.949219 153.269531 L 288.191406 135.636719 C 290.089844 133.417969 290.234375 130.164062 288.511719 127.796875 L 275.515625 109.894531 C 273.789062 107.527344 270.65625 106.636719 267.941406 107.773438 L 246.464844 116.824219 L 236.5 109.574219 L 238.472656 86.367188 C 238.695312 83.433594 236.921875 80.71875 234.132812 79.832031 L 213.074219 72.976562 C 210.285156 72.0625 207.253906 73.199219 205.722656 75.714844 L 193.664062 95.664062 L 181.335938 95.664062 L 169.277344 75.714844 C 167.746094 73.199219 164.714844 72.0625 161.925781 72.976562 L 140.867188 79.832031 C 138.078125 80.71875 136.304688 83.433594 136.527344 86.367188 L 138.5 109.574219 L 128.535156 116.824219 L 107.058594 107.773438 C 104.34375 106.636719 101.210938 107.5 99.484375 109.894531 L 86.488281 127.796875 C 84.761719 130.164062 84.910156 133.417969 86.808594 135.636719 L 102.050781 153.269531 L 98.253906 164.984375 L 75.566406 170.285156 C 72.703125 170.953125 70.683594 173.492188 70.683594 176.425781 L 70.683594 198.574219 C 70.683594 201.507812 72.703125 204.046875 75.566406 204.714844 L 98.253906 210.015625 L 102.050781 221.730469 L 86.808594 239.363281 C 84.910156 241.582031 84.761719 244.835938 86.488281 247.203125 L 99.484375 265.105469 C 101.210938 267.472656 104.34375 268.363281 107.058594 267.226562 L 128.535156 258.175781 L 138.5 265.425781 L 136.527344 288.632812 C 136.304688 291.566406 138.078125 294.28125 140.867188 295.167969 L 161.925781 302.023438 C 164.714844 302.9375 167.746094 301.777344 169.277344 299.285156 L 181.335938 279.335938 L 193.664062 279.335938 L 205.722656 299.285156 C 206.882812 301.210938 208.953125 302.320312 211.125 302.320312 " fill-opacity="1" fill-rule="nonzero"/><path fill="#cca060" d="M 187.5 238.003906 C 159.65625 238.003906 136.996094 215.34375 136.996094 187.5 C 136.996094 159.65625 159.65625 136.996094 187.5 136.996094 C 215.34375 136.996094 238.003906 159.65625 238.003906 187.5 C 238.003906 215.34375 215.34375 238.003906 187.5 238.003906 Z M 250.632812 187.5 C 250.632812 152.679688 222.320312 124.367188 187.5 124.367188 C 152.679688 124.367188 124.367188 152.679688 124.367188 187.5 C 124.367188 222.320312 152.679688 250.632812 187.5 250.632812 C 222.320312 250.632812 250.632812 222.320312 250.632812 187.5 " fill-opacity="1" fill-rule="nonzero"/><path fill="#cca060" d="M 251.46875 365.796875 C 255.660156 364.292969 259.804688 362.640625 263.800781 360.890625 L 258.71875 349.324219 C 254.996094 350.976562 251.125 352.503906 247.226562 353.910156 L 251.46875 365.796875 " fill-opacity="1" fill-rule="nonzero"/><path fill="#cca060" d="M 270.039062 343.875 L 275.910156 355.042969 C 318.964844 332.355469 351.296875 294.355469 366.980469 248.089844 L 355.019531 244.046875 C 340.394531 287.226562 310.210938 322.691406 270.039062 343.875 " fill-opacity="1" fill-rule="nonzero"/><path fill="#cca060" d="M 123.53125 9.203125 C 119.339844 10.707031 115.195312 12.359375 111.199219 14.109375 L 116.28125 25.675781 C 120.003906 24.023438 123.875 22.496094 127.773438 21.089844 L 123.53125 9.203125 " fill-opacity="1" fill-rule="nonzero"/><path fill="#cca060" d="M 104.960938 31.125 L 99.089844 19.957031 C 56.035156 42.644531 23.703125 80.644531 8.019531 126.910156 L 19.980469 130.953125 C 34.605469 87.773438 64.789062 52.308594 104.960938 31.125 " fill-opacity="1" fill-rule="nonzero"/><path fill="#cca060" d="M 181.1875 193.8125 L 193.8125 193.8125 L 193.8125 181.1875 L 181.1875 181.1875 L 181.1875 193.8125 " fill-opacity="1" fill-rule="nonzero"/><path fill="#cca060" d="M 206.4375 193.8125 L 219.066406 193.8125 L 219.066406 181.1875 L 206.4375 181.1875 L 206.4375 193.8125 " fill-opacity="1" fill-rule="nonzero"/><path fill="#cca060" d="M 155.933594 193.8125 L 168.5625 193.8125 L 168.5625 181.1875 L 155.933594 181.1875 L 155.933594 193.8125 " fill-opacity="1" fill-rule="nonzero"/></svg>