<svg xmlns="http://www.w3.org/2000/svg" xmlns:xlink="http://www.w3.org/1999/xlink" width="500" zoomAndPan="magnify" viewBox="0 0 375 374.999991" height="500" preserveAspectRatio="xMidYMid meet" version="1.0"><defs><clipPath id="52aa9c98de"><path d="M 12 0 L 363.46875 0 L 363.46875 375 L 12 375 Z M 12 0 " clip-rule="nonzero"/></clipPath></defs><g clip-path="url(#52aa9c98de)"><path fill="#000000" d="M 354.753906 325.1875 L 338.554688 325.1875 L 338.554688 153.613281 L 354.753906 153.613281 C 354.757812 153.613281 354.765625 153.613281 354.769531 153.613281 C 359.578125 153.613281 363.472656 149.71875 363.472656 144.914062 C 363.472656 142.027344 362.066406 139.46875 359.898438 137.886719 L 193.425781 2.835938 C 190.230469 0.242188 185.652344 0.242188 182.457031 2.835938 L 15.648438 138.160156 C 12.785156 140.480469 11.699219 144.351562 12.929688 147.820312 C 14.164062 151.292969 17.445312 153.613281 21.132812 153.613281 L 37.328125 153.613281 L 37.328125 325.1875 L 21.132812 325.1875 C 16.324219 325.1875 12.429688 329.082031 12.429688 333.886719 L 12.429688 366.105469 C 12.429688 370.910156 16.324219 374.804688 21.132812 374.804688 L 354.753906 374.804688 C 359.558594 374.804688 363.453125 370.910156 363.453125 366.105469 L 363.453125 333.886719 C 363.453125 329.082031 359.558594 325.1875 354.753906 325.1875 Z M 321.148438 325.1875 L 281.789062 325.1875 L 281.789062 153.613281 L 321.148438 153.613281 Z M 225.027344 325.1875 L 225.027344 153.613281 L 264.386719 153.613281 L 264.386719 325.1875 Z M 168.261719 325.1875 L 168.261719 153.613281 L 207.621094 153.613281 L 207.621094 325.1875 Z M 111.5 325.1875 L 111.5 153.613281 L 150.859375 153.613281 L 150.859375 325.1875 Z M 187.941406 20.789062 L 330.222656 136.214844 L 45.660156 136.214844 Z M 54.734375 153.613281 L 94.09375 153.613281 L 94.09375 325.1875 L 54.734375 325.1875 Z M 346.050781 357.410156 L 29.835938 357.410156 L 29.835938 342.582031 L 346.050781 342.582031 Z M 346.050781 357.410156 " fill-opacity="1" fill-rule="nonzero"/></g></svg>