<svg xmlns="http://www.w3.org/2000/svg" xmlns:xlink="http://www.w3.org/1999/xlink" width="500" zoomAndPan="magnify" viewBox="0 0 375 374.999991" height="500" preserveAspectRatio="xMidYMid meet" version="1.0"><path fill="#cca060" d="M 369.664062 98.359375 L 345.472656 94.902344 C 341.652344 94.359375 340.570312 91.230469 340.328125 90.292969 C 340.085938 89.347656 339.535156 86.082031 342.617188 83.769531 L 362.171875 69.109375 C 363.496094 68.121094 364.367188 66.648438 364.601562 65.019531 C 364.832031 63.382812 364.410156 61.730469 363.421875 60.410156 L 341.027344 30.558594 C 340.039062 29.234375 338.5625 28.363281 336.933594 28.128906 C 335.265625 27.890625 333.644531 28.320312 332.324219 29.308594 L 312.78125 43.96875 C 309.6875 46.273438 306.710938 44.84375 305.871094 44.339844 C 305.03125 43.84375 302.34375 41.929688 302.890625 38.117188 L 306.347656 13.925781 C 306.835938 10.523438 304.472656 7.371094 301.070312 6.882812 L 264.125 1.617188 C 262.492188 1.378906 260.832031 1.808594 259.515625 2.796875 C 258.191406 3.789062 257.320312 5.261719 257.082031 6.890625 L 253.625 31.082031 C 253.085938 34.902344 249.957031 35.984375 249.015625 36.226562 C 248.066406 36.472656 244.8125 37.019531 242.492188 33.9375 L 227.835938 14.382812 C 226.847656 13.058594 225.375 12.1875 223.742188 11.953125 C 222.125 11.714844 220.453125 12.144531 219.136719 13.132812 L 200.441406 27.15625 C 191.878906 26.28125 183.320312 26.25 175.007812 27.164062 C 119.855469 33.253906 76.039062 77.816406 70.820312 133.109375 C 70.652344 134.863281 70.597656 136.609375 70.503906 138.363281 L 68.632812 138.363281 C 65.691406 138.363281 63.148438 140.421875 62.542969 143.308594 L 58.253906 163.742188 L 41.0625 151.902344 C 38.601562 150.191406 35.253906 150.503906 33.140625 152.625 L 14.484375 171.28125 C 12.363281 173.402344 12.050781 176.734375 13.761719 179.203125 L 25.601562 196.386719 L 5.160156 200.691406 C 2.28125 201.300781 0.222656 203.835938 0.222656 206.777344 L 0.222656 231.652344 C 0.222656 234.597656 2.28125 237.132812 5.160156 237.742188 L 25.601562 242.039062 L 13.761719 259.222656 C 12.058594 261.691406 12.363281 265.03125 14.484375 267.144531 L 33.140625 285.800781 C 35.261719 287.921875 38.601562 288.238281 41.0625 286.523438 L 58.253906 274.675781 L 62.542969 295.117188 C 63.148438 298.003906 65.695312 300.0625 68.632812 300.0625 L 93.507812 300.0625 C 96.449219 300.0625 98.984375 298.003906 99.597656 295.125 L 103.894531 274.683594 L 121.074219 286.523438 C 123.539062 288.234375 126.878906 287.921875 129 285.800781 L 138.679688 276.121094 L 138.679688 293.84375 C 138.679688 303.011719 143.71875 310.945312 151.121094 315.261719 L 151.121094 349.8125 C 151.121094 363.53125 162.277344 374.6875 175.996094 374.6875 L 200.871094 374.6875 C 214.589844 374.6875 225.746094 363.53125 225.746094 349.8125 L 225.746094 315.261719 C 233.148438 310.945312 238.183594 303.011719 238.183594 293.84375 L 238.183594 269.230469 C 238.183594 259.167969 243.5625 249.671875 252.570312 243.84375 C 257.710938 240.511719 262.636719 236.742188 267.207031 232.648438 L 258.910156 223.382812 C 254.820312 227.050781 250.410156 230.421875 245.808594 233.402344 C 233.246094 241.535156 225.746094 254.929688 225.746094 269.230469 L 225.746094 293.84375 C 225.746094 300.703125 220.167969 306.28125 213.308594 306.28125 L 163.558594 306.28125 C 156.699219 306.28125 151.121094 300.703125 151.121094 293.84375 L 151.121094 268.710938 C 151.121094 254.664062 143.742188 241.546875 131.394531 233.613281 C 97.910156 212.113281 79.441406 174.054688 83.195312 134.277344 C 87.867188 84.832031 127.050781 44.980469 176.367188 39.535156 C 179.90625 39.140625 183.488281 38.972656 187.097656 38.949219 C 187.035156 39.183594 186.890625 39.382812 186.859375 39.625 C 186.628906 41.261719 187.050781 42.917969 188.042969 44.234375 L 202.699219 63.78125 C 205.011719 66.871094 203.574219 69.851562 203.078125 70.683594 C 202.574219 71.523438 200.628906 74.183594 196.847656 73.667969 L 172.65625 70.210938 C 169.253906 69.746094 166.101562 72.089844 165.617188 75.492188 L 160.335938 112.425781 C 160.105469 114.0625 160.527344 115.714844 161.515625 117.035156 C 162.507812 118.359375 163.980469 119.230469 165.609375 119.464844 L 189.800781 122.921875 C 193.621094 123.464844 194.707031 126.59375 194.949219 127.53125 C 195.1875 128.46875 195.738281 131.742188 192.65625 134.054688 L 173.109375 148.710938 C 170.359375 150.769531 169.808594 154.671875 171.867188 157.414062 L 194.253906 187.261719 C 196.304688 190.011719 200.210938 190.558594 202.953125 188.507812 L 222.511719 173.847656 C 225.589844 171.535156 228.5625 172.972656 229.402344 173.46875 C 230.242188 173.96875 232.933594 175.890625 232.386719 179.703125 L 228.929688 203.894531 C 228.445312 207.292969 230.808594 210.449219 234.210938 210.933594 L 271.144531 216.210938 C 271.4375 216.257812 271.734375 216.273438 272.027344 216.273438 C 273.363281 216.273438 274.675781 215.847656 275.757812 215.03125 C 277.082031 214.042969 277.953125 212.570312 278.191406 210.9375 L 281.648438 186.746094 C 282.1875 182.929688 285.316406 181.847656 286.257812 181.605469 C 287.203125 181.355469 290.453125 180.808594 292.78125 183.894531 L 307.4375 203.4375 C 309.488281 206.1875 313.390625 206.734375 316.136719 204.683594 L 345.988281 182.292969 C 348.738281 180.234375 349.296875 176.335938 347.234375 173.59375 L 332.574219 154.042969 C 330.265625 150.957031 331.703125 147.980469 332.203125 147.144531 C 332.691406 146.300781 334.59375 143.601562 338.425781 144.160156 L 362.617188 147.617188 C 366.050781 148.109375 369.171875 145.738281 369.65625 142.339844 L 374.9375 105.402344 C 375.167969 103.769531 374.746094 102.113281 373.757812 100.796875 C 372.765625 99.464844 371.292969 98.59375 369.664062 98.359375 Z M 81.304688 194.367188 C 86.988281 206.625 94.765625 217.875 104.390625 227.613281 C 100.890625 237.3125 91.585938 244.09375 81.070312 244.09375 C 67.351562 244.09375 56.195312 232.933594 56.195312 219.214844 C 56.195312 205.496094 67.351562 194.339844 81.070312 194.339844 C 81.152344 194.339844 81.226562 194.367188 81.304688 194.367188 Z M 200.871094 362.25 L 175.996094 362.25 C 169.136719 362.25 163.558594 356.671875 163.558594 349.8125 L 163.558594 343.59375 L 213.308594 343.59375 L 213.308594 349.8125 C 213.308594 356.671875 207.730469 362.25 200.871094 362.25 Z M 213.308594 318.71875 L 213.308594 331.15625 L 163.558594 331.15625 L 163.558594 318.71875 Z M 137.207031 260.007812 L 123.867188 273.347656 L 110.953125 264.441406 C 107.519531 262.066406 103.152344 261.574219 99.273438 263.128906 C 95.398438 264.675781 92.582031 268.042969 91.722656 272.113281 L 88.464844 287.625 L 73.679688 287.625 L 70.429688 272.121094 C 69.566406 268.042969 66.742188 264.683594 62.875 263.132812 C 59 261.59375 54.640625 262.070312 51.195312 264.445312 L 38.277344 273.351562 L 26.945312 262.019531 L 35.847656 249.109375 C 38.222656 245.679688 38.710938 241.3125 37.171875 237.429688 C 35.621094 233.558594 32.257812 230.734375 28.179688 229.875 L 12.675781 226.617188 L 12.675781 211.835938 L 28.171875 208.574219 C 32.257812 207.71875 35.621094 204.894531 37.171875 201.019531 C 38.710938 197.140625 38.222656 192.773438 35.851562 189.347656 L 26.945312 176.429688 L 38.277344 165.097656 L 51.199219 174.003906 C 54.632812 176.375 59 176.851562 62.867188 175.316406 C 66.742188 173.773438 69.566406 170.410156 70.429688 166.324219 L 71.515625 161.144531 C 72.53125 168.351562 74.160156 175.410156 76.449219 182.234375 C 58.046875 184.507812 43.757812 200.210938 43.757812 219.214844 C 43.757812 239.792969 60.492188 256.53125 81.070312 256.53125 C 95.148438 256.53125 107.734375 248.394531 114.042969 236.320312 C 117.429688 239.066406 120.945312 241.691406 124.675781 244.085938 C 130.765625 247.996094 135.097656 253.652344 137.207031 260.007812 Z M 358.226562 134.414062 L 340.199219 131.839844 C 332.519531 130.738281 325.429688 134.191406 321.511719 140.800781 C 317.585938 147.417969 318.015625 155.355469 322.636719 161.5 L 333.5625 176.074219 L 313.667969 190.996094 L 302.734375 176.429688 C 298.121094 170.273438 290.632812 167.617188 283.179688 169.550781 C 275.734375 171.460938 270.421875 177.375 269.335938 184.980469 L 266.761719 203.011719 L 242.140625 199.496094 L 244.714844 181.46875 C 245.800781 173.847656 242.363281 166.691406 235.746094 162.773438 C 229.136719 158.855469 221.199219 159.277344 215.054688 163.90625 L 200.480469 174.832031 L 185.558594 154.9375 L 200.125 144.003906 C 206.28125 139.390625 208.917969 131.898438 207.003906 124.445312 C 205.09375 116.996094 199.179688 111.691406 191.574219 110.601562 L 173.542969 108.027344 L 177.058594 83.40625 L 195.085938 85.984375 C 202.730469 87.058594 209.863281 83.632812 213.78125 77.019531 C 217.699219 70.402344 217.269531 62.46875 212.648438 56.320312 L 201.722656 41.746094 L 221.617188 26.820312 L 232.550781 41.394531 C 237.164062 47.542969 244.644531 50.1875 252.109375 48.269531 C 259.550781 46.363281 264.863281 40.449219 265.953125 32.84375 L 268.527344 14.8125 L 293.148438 18.328125 L 290.570312 36.355469 C 289.484375 43.96875 292.921875 51.125 299.535156 55.042969 C 306.144531 58.96875 314.085938 58.53125 320.234375 53.917969 L 334.808594 42.992188 L 349.734375 62.886719 L 335.160156 73.820312 C 329.011719 78.433594 326.375 85.921875 328.285156 93.375 C 330.191406 100.820312 336.105469 106.132812 343.710938 107.21875 L 361.742188 109.792969 Z M 358.226562 134.414062 " fill-opacity="1" fill-rule="nonzero"/><path fill="#cca060" d="M 267.636719 59.167969 C 240.207031 59.167969 217.886719 81.484375 217.886719 108.917969 C 217.886719 136.347656 240.207031 158.667969 267.636719 158.667969 C 295.070312 158.667969 317.386719 136.347656 317.386719 108.917969 C 317.386719 81.484375 295.070312 59.167969 267.636719 59.167969 Z M 267.636719 146.230469 C 247.058594 146.230469 230.324219 129.496094 230.324219 108.917969 C 230.324219 88.339844 247.058594 71.605469 267.636719 71.605469 C 288.214844 71.605469 304.949219 88.339844 304.949219 108.917969 C 304.949219 129.496094 288.214844 146.230469 267.636719 146.230469 Z M 267.636719 146.230469 " fill-opacity="1" fill-rule="nonzero"/><path fill="#cca060" d="M 182.214844 275.1875 L 194.652344 275.1875 L 194.652344 293.84375 L 182.214844 293.84375 Z M 182.214844 275.1875 " fill-opacity="1" fill-rule="nonzero"/><path fill="#cca060" d="M 161.230469 214.109375 C 132.417969 202.816406 113.804688 175.535156 113.804688 144.589844 C 113.804688 118.820312 126.835938 95.21875 148.65625 81.441406 L 142.015625 70.925781 C 116.5625 86.988281 101.367188 114.527344 101.367188 144.589844 C 101.367188 180.691406 123.085938 212.523438 156.691406 225.683594 C 172.195312 231.765625 182.214844 246.304688 182.214844 262.75 L 194.652344 262.75 C 194.652344 241.152344 181.535156 222.058594 161.230469 214.109375 Z M 161.230469 214.109375 " fill-opacity="1" fill-rule="nonzero"/><path fill="#cca060" d="M 306.59375 231.652344 L 350.125 231.652344 L 350.125 244.09375 L 306.59375 244.09375 Z M 306.59375 231.652344 " fill-opacity="1" fill-rule="nonzero"/><path fill="#cca060" d="M 296.394531 273.742188 L 304.355469 264.183594 L 341.671875 295.273438 L 333.710938 304.832031 Z M 296.394531 273.742188 " fill-opacity="1" fill-rule="nonzero"/><path fill="#cca060" d="M 269.277344 281.40625 L 281.714844 281.40625 L 281.714844 324.9375 L 269.277344 324.9375 Z M 269.277344 281.40625 " fill-opacity="1" fill-rule="nonzero"/><path fill="#cca060" d="M 6.574219 107.464844 L 56.324219 95.027344 L 59.335938 107.085938 L 9.585938 119.523438 Z M 6.574219 107.464844 " fill-opacity="1" fill-rule="nonzero"/><path fill="#cca060" d="M 16.910156 43.929688 L 24.132812 33.8125 L 67.664062 64.90625 L 60.441406 75.023438 Z M 16.910156 43.929688 " fill-opacity="1" fill-rule="nonzero"/><path fill="#cca060" d="M 70.1875 3.085938 L 82.238281 0.0078125 L 94.957031 49.753906 L 82.90625 52.835938 Z M 70.1875 3.085938 " fill-opacity="1" fill-rule="nonzero"/></svg>