<svg xmlns="http://www.w3.org/2000/svg" xmlns:xlink="http://www.w3.org/1999/xlink" width="500" zoomAndPan="magnify" viewBox="0 0 375 374.999991" height="500" preserveAspectRatio="xMidYMid meet" version="1.0"><path fill="#000000" d="M 340.816406 173.925781 C 339.316406 173.925781 337.816406 173.351562 336.671875 172.207031 L 233.089844 68.59375 C 231.988281 67.492188 231.375 66.011719 231.375 64.453125 C 231.375 62.894531 231.988281 61.402344 233.089844 60.308594 L 261.433594 31.964844 C 263.722656 29.671875 267.425781 29.671875 269.71875 31.964844 L 373.300781 135.578125 C 374.402344 136.679688 375.015625 138.160156 375.015625 139.71875 C 375.015625 141.277344 374.402344 142.769531 373.300781 143.863281 L 344.957031 172.207031 C 343.816406 173.351562 342.316406 173.925781 340.816406 173.925781 Z M 245.519531 64.453125 L 340.816406 159.777344 L 360.871094 139.71875 L 265.574219 44.394531 Z M 245.519531 64.453125 " fill-opacity="1" fill-rule="nonzero"/><path fill="#000000" d="M 34.21875 173.925781 C 32.71875 173.925781 31.21875 173.351562 30.078125 172.207031 L 1.699219 143.839844 C 0.597656 142.738281 -0.015625 141.253906 -0.015625 139.695312 C -0.015625 138.144531 0.597656 136.648438 1.699219 135.554688 L 105.28125 31.941406 C 107.574219 29.648438 111.277344 29.648438 113.566406 31.941406 L 141.941406 60.308594 C 143.042969 61.410156 143.660156 62.894531 143.660156 64.453125 C 143.660156 66.003906 143.042969 67.5 141.941406 68.59375 L 38.363281 172.207031 C 37.21875 173.351562 35.71875 173.925781 34.21875 173.925781 Z M 14.128906 139.695312 L 34.21875 159.777344 L 129.515625 64.453125 L 109.421875 44.371094 Z M 14.128906 139.695312 " fill-opacity="1" fill-rule="nonzero"/><path fill="#000000" d="M 88.0625 236.070312 C 85.695312 236.070312 83.457031 234.625 82.570312 232.273438 L 57.722656 165.976562 C 56.589844 162.941406 58.121094 159.566406 61.148438 158.429688 C 64.191406 157.308594 67.566406 158.820312 68.695312 161.859375 L 93.550781 228.152344 C 94.683594 231.1875 93.152344 234.566406 90.121094 235.703125 C 89.445312 235.953125 88.746094 236.070312 88.0625 236.070312 Z M 88.0625 236.070312 " fill-opacity="1" fill-rule="nonzero"/><path fill="#000000" d="M 187.503906 111.738281 C 187.070312 111.738281 186.625 111.691406 186.179688 111.59375 L 132.316406 99.160156 C 129.164062 98.433594 127.195312 95.289062 127.921875 92.132812 C 128.648438 88.980469 131.808594 87.015625 134.945312 87.738281 L 188.8125 100.167969 C 191.964844 100.894531 193.933594 104.042969 193.207031 107.195312 C 192.585938 109.910156 190.171875 111.738281 187.503906 111.738281 Z M 187.503906 111.738281 " fill-opacity="1" fill-rule="nonzero"/><path fill="#000000" d="M 278.660156 270.253906 C 272.402344 270.253906 266.511719 267.816406 262.089844 263.378906 L 257.953125 259.238281 C 255.660156 256.949219 255.660156 253.242188 257.953125 250.953125 C 260.242188 248.660156 263.945312 248.660156 266.238281 250.953125 L 270.378906 255.097656 C 274.808594 259.527344 282.519531 259.527344 286.949219 255.097656 C 289.164062 252.878906 290.382812 249.945312 290.382812 246.8125 C 290.382812 243.683594 289.164062 240.738281 286.949219 238.519531 L 282.808594 234.378906 C 280.515625 232.085938 280.515625 228.382812 282.808594 226.089844 C 285.097656 223.796875 288.800781 223.796875 291.09375 226.089844 L 295.234375 230.234375 C 299.667969 234.664062 302.105469 240.550781 302.105469 246.8125 C 302.105469 253.074219 299.667969 258.964844 295.230469 263.390625 C 290.804688 267.816406 284.921875 270.253906 278.660156 270.253906 Z M 278.660156 270.253906 " fill-opacity="1" fill-rule="nonzero"/><path fill="#000000" d="M 253.804688 295.121094 C 253.800781 295.121094 253.800781 295.121094 253.792969 295.121094 C 247.535156 295.117188 241.652344 292.675781 237.230469 288.242188 L 233.09375 284.101562 C 230.800781 281.8125 230.800781 278.105469 233.09375 275.816406 C 235.382812 273.523438 239.085938 273.523438 241.378906 275.816406 L 245.519531 279.957031 C 247.734375 282.175781 250.675781 283.398438 253.800781 283.398438 C 256.929688 283.398438 259.871094 282.175781 262.089844 279.957031 C 266.65625 275.394531 266.648438 267.957031 262.085938 263.378906 L 257.949219 259.238281 C 255.65625 256.949219 255.65625 253.242188 257.949219 250.953125 C 260.238281 248.660156 263.941406 248.660156 266.234375 250.953125 L 270.375 255.097656 C 279.511719 264.246094 279.511719 279.121094 270.375 288.246094 C 265.949219 292.683594 260.0625 295.121094 253.804688 295.121094 Z M 253.804688 295.121094 " fill-opacity="1" fill-rule="nonzero"/><path fill="#000000" d="M 228.945312 319.972656 C 222.945312 319.972656 216.9375 317.691406 212.375 313.132812 L 208.226562 308.984375 C 205.933594 306.691406 205.933594 302.988281 208.226562 300.695312 C 210.515625 298.402344 214.21875 298.402344 216.511719 300.695312 L 220.652344 304.839844 C 225.21875 309.394531 232.664062 309.398438 237.242188 304.832031 C 241.792969 300.269531 241.792969 292.824219 237.230469 288.246094 L 233.09375 284.109375 C 230.800781 281.816406 230.800781 278.113281 233.09375 275.820312 C 235.382812 273.53125 239.085938 273.53125 241.378906 275.820312 L 245.519531 279.964844 C 254.648438 289.113281 254.648438 303.984375 245.527344 313.121094 C 240.949219 317.6875 234.949219 319.972656 228.945312 319.972656 Z M 228.945312 319.972656 " fill-opacity="1" fill-rule="nonzero"/><path fill="#000000" d="M 204.089844 344.839844 C 198.089844 344.839844 192.082031 342.554688 187.519531 337.996094 L 183.371094 333.847656 C 181.078125 331.554688 181.078125 327.851562 183.371094 325.558594 C 185.660156 323.265625 189.363281 323.265625 191.65625 325.558594 L 195.796875 329.703125 C 200.355469 334.261719 207.796875 334.269531 212.367188 329.703125 C 214.582031 327.488281 215.800781 324.539062 215.800781 321.410156 C 215.800781 318.277344 214.582031 315.34375 212.375 313.132812 L 208.226562 308.984375 C 205.933594 306.691406 205.933594 302.988281 208.226562 300.695312 C 210.515625 298.402344 214.21875 298.402344 216.511719 300.695312 L 220.652344 304.839844 C 225.082031 309.257812 227.519531 315.148438 227.519531 321.410156 C 227.519531 327.675781 225.082031 333.558594 220.652344 337.988281 C 216.089844 342.554688 210.085938 344.839844 204.089844 344.839844 Z M 204.089844 344.839844 " fill-opacity="1" fill-rule="nonzero"/><path fill="#000000" d="M 54.921875 178.070312 C 53.421875 178.070312 51.921875 177.496094 50.777344 176.351562 C 48.488281 174.058594 48.488281 170.355469 50.777344 168.066406 L 137.777344 81.015625 C 140.070312 78.722656 143.773438 78.722656 146.0625 81.015625 C 148.351562 83.308594 148.351562 87.011719 146.0625 89.304688 L 59.0625 176.351562 C 57.921875 177.496094 56.421875 178.070312 54.921875 178.070312 Z M 54.921875 178.070312 " fill-opacity="1" fill-rule="nonzero"/><path fill="#000000" d="M 141.921875 91.019531 C 140.417969 91.019531 138.921875 90.445312 137.777344 89.304688 L 125.347656 76.871094 C 123.058594 74.578125 123.058594 70.875 125.347656 68.582031 C 127.640625 66.292969 131.34375 66.292969 133.632812 68.582031 L 146.0625 81.015625 C 148.351562 83.308594 148.351562 87.011719 146.0625 89.304688 C 144.914062 90.453125 143.417969 91.019531 141.921875 91.019531 Z M 141.921875 91.019531 " fill-opacity="1" fill-rule="nonzero"/><path fill="#000000" d="M 54.921875 178.070312 C 53.421875 178.070312 51.921875 177.496094 50.777344 176.351562 L 38.351562 163.921875 C 36.058594 161.628906 36.058594 157.925781 38.351562 155.632812 C 40.640625 153.339844 44.34375 153.339844 46.636719 155.632812 L 59.0625 168.066406 C 61.351562 170.355469 61.351562 174.058594 59.0625 176.351562 C 57.921875 177.496094 56.421875 178.070312 54.921875 178.070312 Z M 54.921875 178.070312 " fill-opacity="1" fill-rule="nonzero"/><path fill="#000000" d="M 286.949219 236.09375 C 286.265625 236.09375 285.574219 235.972656 284.894531 235.726562 C 281.859375 234.589844 280.328125 231.207031 281.460938 228.183594 L 306.316406 161.871094 C 307.445312 158.828125 310.84375 157.308594 313.855469 158.433594 C 316.890625 159.570312 318.421875 162.953125 317.289062 165.976562 L 292.433594 232.289062 C 291.554688 234.648438 289.316406 236.09375 286.949219 236.09375 Z M 286.949219 236.09375 " fill-opacity="1" fill-rule="nonzero"/><path fill="#000000" d="M 187.503906 111.75 C 184.839844 111.75 182.425781 109.917969 181.796875 107.207031 C 181.070312 104.054688 183.039062 100.90625 186.191406 100.179688 L 240.058594 87.75 C 243.203125 87.015625 246.355469 88.992188 247.082031 92.144531 C 247.808594 95.300781 245.839844 98.445312 242.6875 99.171875 L 188.824219 111.605469 C 188.386719 111.710938 187.941406 111.75 187.503906 111.75 Z M 187.503906 111.75 " fill-opacity="1" fill-rule="nonzero"/><path fill="#000000" d="M 141.941406 157.351562 C 140.441406 157.351562 138.945312 156.777344 137.800781 155.632812 C 135.507812 153.339844 135.507812 149.636719 137.800781 147.34375 L 183.367188 101.75 C 185.660156 99.460938 189.363281 99.460938 191.652344 101.75 C 193.945312 104.042969 193.945312 107.746094 191.652344 110.039062 L 146.085938 155.632812 C 144.9375 156.777344 143.4375 157.351562 141.941406 157.351562 Z M 141.941406 157.351562 " fill-opacity="1" fill-rule="nonzero"/><path fill="#000000" d="M 166.796875 182.214844 C 165.296875 182.214844 163.796875 181.640625 162.65625 180.496094 C 160.363281 178.203125 160.363281 174.5 162.65625 172.207031 L 187.511719 147.34375 C 189.800781 145.054688 193.503906 145.054688 195.796875 147.34375 C 198.089844 149.636719 198.085938 153.339844 195.796875 155.632812 L 170.941406 180.496094 C 169.796875 181.640625 168.296875 182.214844 166.796875 182.214844 Z M 166.796875 182.214844 " fill-opacity="1" fill-rule="nonzero"/><path fill="#000000" d="M 208.222656 157.351562 C 206.722656 157.351562 205.222656 156.777344 204.082031 155.632812 C 201.789062 153.339844 198.085938 153.339844 195.796875 155.632812 C 193.503906 157.925781 189.800781 157.925781 187.511719 155.632812 C 185.21875 153.339844 185.21875 149.636719 187.511719 147.34375 C 194.367188 140.488281 205.511719 140.488281 212.367188 147.34375 C 214.65625 149.636719 214.65625 153.339844 212.367188 155.632812 C 211.222656 156.777344 209.722656 157.351562 208.222656 157.351562 Z M 208.222656 157.351562 " fill-opacity="1" fill-rule="nonzero"/><path fill="#000000" d="M 286.949219 236.09375 C 285.449219 236.09375 283.949219 235.519531 282.808594 234.378906 L 204.082031 155.632812 C 201.792969 153.339844 201.792969 149.636719 204.082031 147.34375 C 206.375 145.054688 210.078125 145.054688 212.367188 147.34375 L 291.09375 226.089844 C 293.382812 228.382812 293.382812 232.085938 291.09375 234.378906 C 289.945312 235.527344 288.449219 236.09375 286.949219 236.09375 Z M 286.949219 236.09375 " fill-opacity="1" fill-rule="nonzero"/><path fill="#000000" d="M 154.371094 187.351562 C 148.371094 187.351562 142.367188 185.066406 137.800781 180.496094 C 128.660156 171.351562 128.660156 156.484375 137.800781 147.34375 C 140.09375 145.054688 143.796875 145.054688 146.085938 147.34375 C 148.375 149.636719 148.378906 153.339844 146.085938 155.632812 C 141.523438 160.199219 141.523438 167.640625 146.085938 172.207031 C 150.648438 176.773438 158.09375 176.773438 162.65625 172.207031 C 164.949219 169.917969 168.652344 169.917969 170.941406 172.207031 C 173.234375 174.5 173.234375 178.203125 170.941406 180.496094 C 166.375 185.066406 160.371094 187.351562 154.371094 187.351562 Z M 154.371094 187.351562 " fill-opacity="1" fill-rule="nonzero"/><path fill="#000000" d="M 96.347656 270.265625 C 90.089844 270.265625 84.207031 267.828125 79.777344 263.394531 C 70.636719 254.253906 70.636719 239.382812 79.777344 230.246094 L 83.917969 226.101562 C 92.777344 217.238281 108.207031 217.238281 117.058594 226.101562 C 126.199219 235.246094 126.199219 250.113281 117.058594 259.25 L 112.914062 263.394531 C 108.492188 267.828125 102.609375 270.265625 96.347656 270.265625 Z M 100.488281 230.953125 C 97.359375 230.953125 94.417969 232.171875 92.203125 234.390625 L 88.0625 238.53125 C 83.496094 243.097656 83.496094 250.542969 88.0625 255.109375 C 92.488281 259.539062 100.199219 259.539062 104.628906 255.109375 L 108.773438 250.964844 C 113.335938 246.398438 113.335938 238.953125 108.773438 234.390625 C 106.5625 232.171875 103.621094 230.953125 100.488281 230.953125 Z M 100.488281 230.953125 " fill-opacity="1" fill-rule="nonzero"/><path fill="#000000" d="M 121.210938 295.128906 C 114.953125 295.128906 109.066406 292.6875 104.636719 288.257812 C 95.496094 279.113281 95.496094 264.246094 104.636719 255.109375 L 108.78125 250.964844 C 117.636719 242.101562 133.070312 242.101562 141.929688 250.964844 C 151.070312 260.105469 151.070312 274.976562 141.929688 284.113281 L 137.789062 288.257812 C 133.359375 292.6875 127.46875 295.128906 121.210938 295.128906 Z M 125.355469 255.816406 C 122.226562 255.816406 119.277344 257.035156 117.0625 259.25 L 112.921875 263.394531 C 108.355469 267.960938 108.355469 275.40625 112.921875 279.96875 C 117.351562 284.402344 125.074219 284.402344 129.503906 279.96875 L 133.644531 275.828125 C 138.210938 271.261719 138.210938 263.816406 133.644531 259.25 C 131.429688 257.035156 128.484375 255.816406 125.355469 255.816406 Z M 125.355469 255.816406 " fill-opacity="1" fill-rule="nonzero"/><path fill="#000000" d="M 146.070312 320.007812 C 139.808594 320.007812 133.921875 317.570312 129.5 313.132812 C 120.359375 303.996094 120.359375 289.113281 129.503906 279.976562 L 133.648438 275.832031 C 142.507812 266.972656 157.933594 266.972656 166.789062 275.832031 C 175.933594 284.976562 175.933594 299.859375 166.789062 308.996094 L 162.644531 313.140625 C 158.214844 317.570312 152.332031 320.007812 146.070312 320.007812 Z M 150.214844 280.6875 C 147.085938 280.6875 144.144531 281.90625 141.929688 284.121094 L 137.789062 288.265625 C 133.21875 292.835938 133.21875 300.28125 137.789062 304.851562 C 142.21875 309.28125 149.929688 309.28125 154.359375 304.851562 L 158.5 300.707031 C 163.070312 296.136719 163.070312 288.691406 158.5 284.121094 C 156.285156 281.90625 153.34375 280.6875 150.214844 280.6875 Z M 150.214844 280.6875 " fill-opacity="1" fill-rule="nonzero"/><path fill="#000000" d="M 170.929688 344.871094 C 164.671875 344.871094 158.789062 342.433594 154.359375 338 C 145.21875 328.859375 145.21875 313.988281 154.359375 304.851562 L 158.503906 300.707031 C 167.363281 291.84375 182.789062 291.84375 191.644531 300.707031 C 200.785156 309.851562 200.785156 324.71875 191.644531 333.859375 L 187.5 338 C 183.070312 342.433594 177.1875 344.871094 170.929688 344.871094 Z M 175.070312 305.558594 C 171.941406 305.558594 169 306.78125 166.785156 308.996094 L 162.644531 313.140625 C 158.078125 317.703125 158.078125 325.148438 162.644531 329.714844 C 167.074219 334.144531 174.785156 334.144531 179.214844 329.714844 L 183.355469 325.570312 C 187.921875 321.003906 187.921875 313.5625 183.355469 308.996094 C 181.144531 306.78125 178.199219 305.558594 175.070312 305.558594 Z M 175.070312 305.558594 " fill-opacity="1" fill-rule="nonzero"/><path fill="#000000" d="M 320.09375 178.070312 C 318.589844 178.070312 317.089844 177.496094 315.949219 176.351562 L 228.949219 89.328125 C 226.660156 87.035156 226.660156 83.332031 228.949219 81.039062 C 231.238281 78.746094 234.941406 78.746094 237.234375 81.039062 L 324.234375 168.066406 C 326.523438 170.355469 326.523438 174.058594 324.234375 176.351562 C 323.089844 177.496094 321.589844 178.070312 320.09375 178.070312 Z M 320.09375 178.070312 " fill-opacity="1" fill-rule="nonzero"/><path fill="#000000" d="M 233.089844 91.042969 C 231.589844 91.042969 230.089844 90.46875 228.949219 89.328125 C 226.65625 87.039062 226.65625 83.332031 228.949219 81.039062 L 241.375 68.59375 C 243.667969 66.304688 247.371094 66.304688 249.660156 68.59375 C 251.953125 70.882812 251.953125 74.589844 249.660156 76.882812 L 237.234375 89.328125 C 236.089844 90.476562 234.589844 91.042969 233.089844 91.042969 Z M 233.089844 91.042969 " fill-opacity="1" fill-rule="nonzero"/><path fill="#000000" d="M 320.09375 178.070312 C 318.589844 178.070312 317.089844 177.496094 315.949219 176.351562 C 313.660156 174.058594 313.660156 170.355469 315.949219 168.066406 L 328.375 155.632812 C 330.667969 153.339844 334.371094 153.339844 336.660156 155.632812 C 338.953125 157.925781 338.953125 161.628906 336.660156 163.921875 L 324.234375 176.351562 C 323.089844 177.496094 321.589844 178.070312 320.09375 178.070312 Z M 320.09375 178.070312 " fill-opacity="1" fill-rule="nonzero"/></svg>