<svg xmlns="http://www.w3.org/2000/svg" xmlns:xlink="http://www.w3.org/1999/xlink" width="500" zoomAndPan="magnify" viewBox="0 0 375 374.999991" height="500" preserveAspectRatio="xMidYMid meet" version="1.0"><defs><clipPath id="8ba3fa8359"><path d="M 0 0.980469 L 374.015625 0.980469 L 374.015625 374.992188 L 0 374.992188 Z M 0 0.980469 " clip-rule="nonzero"/></clipPath><clipPath id="575cccb339"><path d="M 187.007812 0.980469 C 83.726562 0.980469 0 84.707031 0 187.988281 C 0 291.269531 83.726562 374.992188 187.007812 374.992188 C 290.289062 374.992188 374.015625 291.269531 374.015625 187.988281 C 374.015625 84.707031 290.289062 0.980469 187.007812 0.980469 Z M 187.007812 0.980469 " clip-rule="nonzero"/></clipPath><clipPath id="189522c45f"><path d="M 83.328125 141.039062 L 277.320312 141.039062 L 277.320312 247.382812 L 83.328125 247.382812 Z M 83.328125 141.039062 " clip-rule="nonzero"/></clipPath><clipPath id="6eaf6f808a"><path d="M 248.203125 127.707031 L 288.601562 127.707031 L 288.601562 170 L 248.203125 170 Z M 248.203125 127.707031 " clip-rule="nonzero"/></clipPath></defs><g clip-path="url(#8ba3fa8359)"><g clip-path="url(#575cccb339)"><path stroke-linecap="butt" transform="matrix(5.701987, 0, 0, 5.701987, 0.0000045, 0.979167)" fill="none" stroke-linejoin="miter" d="M 32.796955 0.000228305 C 14.683752 0.000228305 -0.000000789199 14.683981 -0.000000789199 32.797185 C -0.000000789199 50.910388 14.683752 65.593456 32.796955 65.593456 C 50.910159 65.593456 65.593912 50.910388 65.593912 32.797185 C 65.593912 14.683981 50.910159 0.000228305 32.796955 0.000228305 Z M 32.796955 0.000228305 " stroke="#fdff83" stroke-width="1.052265" stroke-opacity="1" stroke-miterlimit="4"/></g></g><g clip-path="url(#189522c45f)"><path fill="#fdff83" d="M 92.097656 248.191406 C 89.855469 248.191406 87.609375 247.335938 85.898438 245.625 C 82.472656 242.199219 82.472656 236.644531 85.898438 233.21875 L 157.742188 161.375 C 161.167969 157.949219 166.722656 157.949219 170.144531 161.375 L 207.367188 198.597656 L 262.210938 143.753906 C 265.636719 140.332031 271.1875 140.332031 274.613281 143.753906 C 278.039062 147.179688 278.039062 152.734375 274.613281 156.15625 L 213.570312 217.199219 C 210.144531 220.625 204.59375 220.625 201.167969 217.199219 L 163.945312 179.980469 L 98.300781 245.625 C 96.589844 247.335938 94.34375 248.191406 92.097656 248.191406 " fill-opacity="1" fill-rule="nonzero"/></g><g clip-path="url(#6eaf6f808a)"><path fill="#fdff83" d="M 279.347656 169.941406 L 290.660156 127.707031 L 248.425781 139.019531 Z M 279.347656 169.941406 " fill-opacity="1" fill-rule="nonzero"/></g></svg>