<svg xmlns="http://www.w3.org/2000/svg" xmlns:xlink="http://www.w3.org/1999/xlink" width="500" zoomAndPan="magnify" viewBox="0 0 375 374.999991" height="500" preserveAspectRatio="xMidYMid meet" version="1.0"><defs><clipPath id="35cebd3493"><path d="M 0 103 L 350.886719 103 L 350.886719 296.65625 L 0 296.65625 Z M 0 103 " clip-rule="nonzero"/></clipPath><clipPath id="e88c5a3f2b"><path d="M 298.222656 78.726562 L 375 78.726562 L 375 155.503906 L 298.222656 155.503906 Z M 298.222656 78.726562 " clip-rule="nonzero"/></clipPath></defs><rect x="-37.5" width="450" fill="#ffffff" y="-37.499999" height="449.999989" fill-opacity="1"/><rect x="-37.5" width="450" fill="#ffffff" y="-37.499999" height="449.999989" fill-opacity="1"/><g clip-path="url(#35cebd3493)"><path fill="#fdff83" d="M 15.863281 296.65625 C 11.804688 296.65625 7.742188 295.109375 4.648438 292.011719 C -1.550781 285.816406 -1.550781 275.773438 4.648438 269.578125 L 134.597656 139.621094 C 140.796875 133.429688 150.839844 133.429688 157.035156 139.621094 L 224.363281 206.949219 L 323.558594 107.753906 C 329.753906 101.558594 339.796875 101.558594 345.992188 107.753906 C 352.1875 113.949219 352.1875 123.992188 345.992188 130.1875 L 235.578125 240.601562 C 229.382812 246.792969 219.339844 246.792969 213.144531 240.601562 L 145.816406 173.273438 L 27.078125 292.011719 C 23.984375 295.109375 19.921875 296.65625 15.863281 296.65625 " fill-opacity="1" fill-rule="nonzero"/></g><g clip-path="url(#e88c5a3f2b)"><path fill="#fdff83" d="M 354.554688 155.117188 L 375.023438 78.722656 L 298.628906 99.1875 Z M 354.554688 155.117188 " fill-opacity="1" fill-rule="nonzero"/></g></svg>