<svg xmlns="http://www.w3.org/2000/svg" xmlns:xlink="http://www.w3.org/1999/xlink" width="500" zoomAndPan="magnify" viewBox="0 0 375 374.999991" height="500" preserveAspectRatio="xMidYMid meet" version="1.0"><defs><clipPath id="75c425548f"><path d="M 187.5 0 C 83.945312 0 0 83.945312 0 187.5 C 0 291.054688 83.945312 375 187.5 375 C 291.054688 375 375 291.054688 375 187.5 C 375 83.945312 291.054688 0 187.5 0 Z M 187.5 0 " clip-rule="nonzero"/></clipPath><clipPath id="0f5397f89e"><path d="M 103 80.023438 L 272 80.023438 L 272 307.273438 L 103 307.273438 Z M 103 80.023438 " clip-rule="nonzero"/></clipPath><clipPath id="694491079c"><path d="M 282 165 L 301.136719 165 L 301.136719 174 L 282 174 Z M 282 165 " clip-rule="nonzero"/></clipPath><clipPath id="80d29ce15a"><path d="M 73.886719 165 L 93 165 L 93 174 L 73.886719 174 Z M 73.886719 165 " clip-rule="nonzero"/></clipPath></defs><g clip-path="url(#75c425548f)"><path stroke-linecap="butt" transform="matrix(0.75, 0, 0, 0.75, 0.0000045, 0.000000000000042633)" fill="none" stroke-linejoin="miter" d="M 249.999994 -0.000000000000056843 C 111.927078 -0.000000000000056843 -0.000006 111.927084 -0.000006 250 C -0.000006 388.072917 111.927078 500.000001 249.999994 500.000001 C 388.072911 500.000001 499.999995 388.072917 499.999995 250 C 499.999995 111.927084 388.072911 -0.000000000000056843 249.999994 -0.000000000000056843 Z M 249.999994 -0.000000000000056843 " stroke="#fdff83" stroke-width="8" stroke-opacity="1" stroke-miterlimit="4"/></g><g clip-path="url(#0f5397f89e)"><path fill="#fdff83" d="M 216.558594 249.316406 C 216.546875 248.3125 216.679688 247.328125 216.949219 246.363281 C 217.21875 245.398438 217.621094 244.488281 218.148438 243.636719 C 218.679688 242.785156 219.320312 242.023438 220.066406 241.355469 C 220.8125 240.6875 221.636719 240.132812 222.542969 239.699219 C 223.972656 239.042969 225.382812 238.339844 226.773438 237.601562 C 228.164062 236.863281 229.535156 236.085938 230.882812 235.269531 C 232.230469 234.453125 233.550781 233.597656 234.851562 232.707031 C 236.148438 231.816406 237.421875 230.886719 238.667969 229.925781 C 239.914062 228.960938 241.132812 227.964844 242.324219 226.929688 C 243.511719 225.898438 244.671875 224.835938 245.804688 223.738281 C 246.933594 222.640625 248.03125 221.511719 249.097656 220.351562 C 250.164062 219.191406 251.195312 218.003906 252.195312 216.785156 C 253.195312 215.566406 254.160156 214.320312 255.085938 213.050781 C 256.015625 211.777344 256.910156 210.480469 257.765625 209.15625 C 258.621094 207.835938 259.4375 206.488281 260.21875 205.121094 C 260.996094 203.75 261.738281 202.359375 262.4375 200.949219 C 263.140625 199.539062 263.800781 198.109375 264.421875 196.664062 C 265.039062 195.214844 265.621094 193.75 266.15625 192.269531 C 266.695312 190.789062 267.191406 189.292969 267.644531 187.785156 C 268.097656 186.277344 268.507812 184.757812 268.875 183.226562 C 269.242188 181.691406 269.566406 180.152344 269.847656 178.601562 C 270.128906 177.050781 270.363281 175.496094 270.554688 173.929688 C 270.75 172.367188 270.898438 170.800781 271 169.226562 C 271.105469 167.65625 271.164062 166.082031 271.179688 164.507812 C 271.195312 162.933594 271.164062 161.359375 271.089844 159.785156 C 271.019531 158.210938 270.898438 156.640625 270.738281 155.074219 C 270.574219 153.507812 270.367188 151.945312 270.117188 150.390625 C 269.867188 148.835938 269.574219 147.289062 269.234375 145.75 C 268.898438 144.210938 268.515625 142.683594 268.09375 141.167969 C 267.667969 139.648438 267.203125 138.144531 266.691406 136.65625 C 266.183594 135.164062 265.632812 133.6875 265.039062 132.230469 C 264.449219 130.769531 263.8125 129.328125 263.140625 127.902344 C 262.464844 126.480469 261.753906 125.078125 261 123.691406 C 260.246094 122.308594 259.457031 120.949219 258.625 119.609375 C 257.796875 118.269531 256.929688 116.957031 256.023438 115.664062 C 255.121094 114.375 254.179688 113.113281 253.203125 111.875 C 252.230469 110.636719 251.21875 109.429688 250.175781 108.25 C 249.132812 107.070312 248.054688 105.921875 246.945312 104.800781 C 245.839844 103.683594 244.699219 102.597656 243.527344 101.542969 C 242.359375 100.488281 241.160156 99.464844 239.933594 98.476562 C 238.703125 97.492188 237.449219 96.539062 236.167969 95.625 C 234.886719 94.707031 233.582031 93.828125 232.25 92.984375 C 230.917969 92.144531 229.566406 91.339844 228.1875 90.574219 C 226.8125 89.808594 225.414062 89.082031 223.996094 88.394531 C 222.578125 87.707031 221.144531 87.058594 219.691406 86.453125 C 218.234375 85.847656 216.765625 85.28125 215.28125 84.761719 C 213.792969 84.238281 212.292969 83.757812 210.78125 83.316406 C 209.269531 82.878906 207.746094 82.484375 206.207031 82.132812 C 204.671875 81.78125 203.128906 81.472656 201.578125 81.207031 C 200.023438 80.941406 198.464844 80.71875 196.898438 80.542969 C 195.335938 80.367188 193.765625 80.234375 192.191406 80.144531 C 190.621094 80.054688 189.046875 80.011719 187.46875 80.011719 C 185.894531 80.011719 184.320312 80.058594 182.75 80.148438 C 181.175781 80.234375 179.605469 80.371094 178.042969 80.546875 C 176.476562 80.726562 174.917969 80.949219 173.363281 81.214844 C 171.8125 81.480469 170.269531 81.789062 168.734375 82.140625 C 167.199219 82.496094 165.671875 82.890625 164.160156 83.332031 C 162.648438 83.769531 161.148438 84.25 159.664062 84.773438 C 158.175781 85.296875 156.707031 85.863281 155.253906 86.472656 C 153.800781 87.078125 152.363281 87.726562 150.949219 88.414062 C 149.53125 89.101562 148.132812 89.828125 146.757812 90.59375 C 145.382812 91.363281 144.027344 92.167969 142.699219 93.011719 C 141.367188 93.851562 140.0625 94.734375 138.78125 95.648438 C 137.5 96.566406 136.246094 97.519531 135.019531 98.507812 C 133.789062 99.496094 132.59375 100.515625 131.421875 101.570312 C 130.253906 102.625 129.113281 103.714844 128.007812 104.835938 C 126.898438 105.953125 125.824219 107.105469 124.78125 108.285156 C 123.738281 109.464844 122.726562 110.671875 121.753906 111.910156 C 120.777344 113.148438 119.839844 114.414062 118.933594 115.703125 C 118.03125 116.992188 117.164062 118.308594 116.335938 119.648438 C 115.507812 120.988281 114.714844 122.347656 113.964844 123.730469 C 113.210938 125.117188 112.5 126.519531 111.824219 127.945312 C 111.152344 129.367188 110.519531 130.8125 109.929688 132.269531 C 109.335938 133.730469 108.789062 135.207031 108.277344 136.699219 C 107.769531 138.1875 107.304688 139.691406 106.882812 141.210938 C 106.457031 142.726562 106.078125 144.253906 105.742188 145.792969 C 105.402344 147.332031 105.109375 148.878906 104.859375 150.433594 C 104.609375 151.992188 104.40625 153.550781 104.242188 155.117188 C 104.082031 156.6875 103.964844 158.257812 103.890625 159.828125 C 103.820312 161.402344 103.789062 162.976562 103.804688 164.554688 C 103.824219 166.128906 103.882812 167.703125 103.988281 169.273438 C 104.09375 170.84375 104.242188 172.414062 104.433594 173.976562 C 104.628906 175.539062 104.867188 177.097656 105.148438 178.644531 C 105.429688 180.195312 105.753906 181.738281 106.121094 183.269531 C 106.488281 184.800781 106.902344 186.320312 107.355469 187.828125 C 107.808594 189.335938 108.304688 190.832031 108.84375 192.3125 C 109.382812 193.792969 109.960938 195.257812 110.582031 196.703125 C 111.203125 198.152344 111.867188 199.582031 112.566406 200.992188 C 113.269531 202.402344 114.011719 203.789062 114.789062 205.160156 C 115.570312 206.527344 116.390625 207.871094 117.246094 209.195312 C 118.101562 210.515625 118.996094 211.8125 119.925781 213.085938 C 120.855469 214.359375 121.820312 215.601562 122.820312 216.820312 C 123.816406 218.039062 124.851562 219.226562 125.917969 220.382812 C 126.984375 221.542969 128.085938 222.671875 129.214844 223.769531 C 130.34375 224.863281 131.507812 225.929688 132.695312 226.960938 C 133.886719 227.992188 135.105469 228.988281 136.351562 229.953125 C 137.601562 230.914062 138.875 231.839844 140.171875 232.730469 C 141.472656 233.621094 142.796875 234.476562 144.144531 235.292969 C 145.488281 236.109375 146.859375 236.886719 148.25 237.625 C 149.640625 238.363281 151.054688 239.0625 152.484375 239.71875 C 153.386719 240.152344 154.207031 240.707031 154.953125 241.375 C 155.695312 242.042969 156.328125 242.804688 156.855469 243.652344 C 157.382812 244.503906 157.78125 245.410156 158.046875 246.375 C 158.316406 247.335938 158.441406 248.320312 158.429688 249.320312 L 158.25 280.726562 L 154.546875 280.726562 C 154.046875 280.726562 153.5625 280.824219 153.097656 281.015625 C 152.636719 281.207031 152.226562 281.484375 151.871094 281.835938 C 151.515625 282.191406 151.242188 282.601562 151.050781 283.066406 C 150.855469 283.53125 150.761719 284.011719 150.761719 284.515625 C 150.761719 285.015625 150.855469 285.5 151.050781 285.964844 C 151.242188 286.429688 151.515625 286.839844 151.871094 287.191406 C 152.226562 287.546875 152.636719 287.820312 153.097656 288.015625 C 153.5625 288.207031 154.046875 288.300781 154.546875 288.300781 L 158.179688 288.300781 L 158.09375 295.742188 C 158.085938 296.496094 158.148438 297.238281 158.289062 297.980469 C 158.425781 298.71875 158.636719 299.433594 158.917969 300.132812 C 159.199219 300.828125 159.546875 301.492188 159.960938 302.117188 C 160.375 302.746094 160.84375 303.328125 161.375 303.863281 C 161.902344 304.398438 162.476562 304.875 163.101562 305.292969 C 163.722656 305.714844 164.382812 306.070312 165.074219 306.359375 C 165.769531 306.648438 166.484375 306.867188 167.222656 307.015625 C 167.957031 307.164062 168.703125 307.238281 169.453125 307.238281 L 205.09375 307.238281 C 205.835938 307.234375 206.570312 307.160156 207.300781 307.015625 C 208.03125 306.871094 208.738281 306.65625 209.425781 306.371094 C 210.113281 306.085938 210.765625 305.738281 211.382812 305.324219 C 212 304.914062 212.574219 304.445312 213.101562 303.921875 C 213.628906 303.394531 214.097656 302.824219 214.515625 302.207031 C 214.929688 301.589844 215.28125 300.941406 215.566406 300.253906 C 215.855469 299.570312 216.074219 298.863281 216.222656 298.132812 C 216.371094 297.40625 216.449219 296.667969 216.453125 295.925781 L 216.464844 288.300781 L 220.105469 288.300781 C 220.609375 288.300781 221.09375 288.207031 221.554688 288.015625 C 222.019531 287.820312 222.429688 287.546875 222.785156 287.191406 C 223.140625 286.839844 223.414062 286.429688 223.605469 285.964844 C 223.796875 285.5 223.894531 285.015625 223.894531 284.515625 C 223.894531 284.011719 223.796875 283.53125 223.605469 283.066406 C 223.414062 282.601562 223.140625 282.191406 222.785156 281.835938 C 222.429688 281.484375 222.019531 281.207031 221.554688 281.015625 C 221.09375 280.824219 220.609375 280.726562 220.105469 280.726562 L 216.5 280.726562 Z M 155.65625 232.839844 C 154.355469 232.238281 153.074219 231.605469 151.808594 230.929688 C 150.542969 230.257812 149.296875 229.550781 148.070312 228.808594 C 146.847656 228.066406 145.644531 227.292969 144.460938 226.480469 C 143.28125 225.671875 142.121094 224.828125 140.988281 223.953125 C 139.855469 223.074219 138.746094 222.167969 137.664062 221.230469 C 136.582031 220.292969 135.523438 219.324219 134.496094 218.324219 C 133.46875 217.328125 132.46875 216.300781 131.5 215.246094 C 130.53125 214.191406 129.589844 213.113281 128.679688 212.003906 C 127.773438 210.898438 126.894531 209.765625 126.050781 208.609375 C 125.203125 207.453125 124.390625 206.273438 123.613281 205.070312 C 122.835938 203.867188 122.089844 202.640625 121.382812 201.398438 C 120.671875 200.152344 120 198.890625 119.359375 197.605469 C 118.722656 196.324219 118.121094 195.023438 117.558594 193.707031 C 116.992188 192.390625 116.464844 191.058594 115.976562 189.710938 C 115.484375 188.363281 115.035156 187.003906 114.621094 185.632812 C 114.210938 184.261719 113.835938 182.878906 113.5 181.484375 C 113.167969 180.09375 112.871094 178.691406 112.617188 177.28125 C 112.359375 175.871094 112.144531 174.457031 111.96875 173.035156 C 111.792969 171.613281 111.660156 170.1875 111.5625 168.757812 C 111.46875 167.328125 111.414062 165.894531 111.398438 164.464844 C 111.386719 163.03125 111.414062 161.597656 111.480469 160.167969 C 111.546875 158.734375 111.652344 157.308594 111.800781 155.882812 C 111.945312 154.457031 112.132812 153.039062 112.363281 151.625 C 112.589844 150.207031 112.855469 148.800781 113.164062 147.402344 C 113.46875 146.003906 113.816406 144.613281 114.203125 143.234375 C 114.585938 141.851562 115.011719 140.484375 115.472656 139.128906 C 115.9375 137.773438 116.4375 136.429688 116.976562 135.105469 C 117.515625 133.777344 118.089844 132.464844 118.703125 131.167969 C 119.316406 129.875 119.964844 128.597656 120.648438 127.339844 C 121.332031 126.078125 122.050781 124.839844 122.804688 123.625 C 123.5625 122.40625 124.347656 121.210938 125.171875 120.035156 C 125.992188 118.863281 126.847656 117.714844 127.734375 116.589844 C 128.621094 115.464844 129.539062 114.363281 130.488281 113.289062 C 131.4375 112.21875 132.417969 111.171875 133.425781 110.152344 C 134.433594 109.136719 135.46875 108.144531 136.53125 107.1875 C 137.597656 106.226562 138.6875 105.296875 139.804688 104.398438 C 140.917969 103.503906 142.058594 102.636719 143.226562 101.800781 C 144.390625 100.96875 145.578125 100.167969 146.789062 99.402344 C 148 98.636719 149.230469 97.902344 150.480469 97.207031 C 151.734375 96.511719 153.003906 95.847656 154.292969 95.222656 C 155.582031 94.597656 156.886719 94.007812 158.210938 93.457031 C 159.53125 92.90625 160.871094 92.394531 162.222656 91.917969 C 163.570312 91.441406 164.9375 91.003906 166.3125 90.605469 C 167.6875 90.203125 169.074219 89.84375 170.46875 89.523438 C 171.867188 89.203125 173.269531 88.921875 174.683594 88.679688 C 176.097656 88.4375 177.515625 88.238281 178.9375 88.078125 C 180.359375 87.914062 181.789062 87.792969 183.21875 87.714844 C 184.648438 87.632812 186.082031 87.589844 187.511719 87.589844 C 188.945312 87.589844 190.378906 87.632812 191.808594 87.714844 C 193.238281 87.792969 194.664062 87.914062 196.089844 88.078125 C 197.511719 88.238281 198.929688 88.4375 200.34375 88.679688 C 201.753906 88.921875 203.160156 89.203125 204.554688 89.523438 C 205.953125 89.84375 207.339844 90.203125 208.714844 90.605469 C 210.089844 91.003906 211.453125 91.441406 212.804688 91.917969 C 214.15625 92.394531 215.492188 92.90625 216.816406 93.457031 C 218.136719 94.007812 219.445312 94.597656 220.734375 95.222656 C 222.023438 95.847656 223.292969 96.511719 224.542969 97.207031 C 225.796875 97.902344 227.027344 98.636719 228.238281 99.402344 C 229.449219 100.167969 230.636719 100.96875 231.800781 101.800781 C 232.964844 102.636719 234.109375 103.503906 235.222656 104.398438 C 236.339844 105.296875 237.429688 106.226562 238.496094 107.1875 C 239.558594 108.144531 240.59375 109.136719 241.601562 110.152344 C 242.609375 111.171875 243.589844 112.21875 244.539062 113.289062 C 245.488281 114.363281 246.40625 115.464844 247.292969 116.589844 C 248.179688 117.714844 249.035156 118.863281 249.855469 120.035156 C 250.675781 121.210938 251.464844 122.40625 252.21875 123.625 C 252.976562 124.839844 253.695312 126.078125 254.378906 127.339844 C 255.0625 128.597656 255.710938 129.875 256.324219 131.167969 C 256.9375 132.464844 257.511719 133.777344 258.050781 135.105469 C 258.589844 136.429688 259.089844 137.773438 259.550781 139.128906 C 260.015625 140.484375 260.4375 141.851562 260.824219 143.234375 C 261.210938 144.613281 261.554688 146.003906 261.863281 147.402344 C 262.171875 148.800781 262.4375 150.207031 262.664062 151.625 C 262.890625 153.039062 263.078125 154.457031 263.226562 155.882812 C 263.375 157.308594 263.480469 158.738281 263.546875 160.167969 C 263.613281 161.597656 263.640625 163.03125 263.625 164.464844 C 263.613281 165.894531 263.558594 167.328125 263.460938 168.757812 C 263.367188 170.1875 263.234375 171.613281 263.058594 173.035156 C 262.882812 174.457031 262.664062 175.871094 262.410156 177.28125 C 262.15625 178.691406 261.859375 180.09375 261.523438 181.484375 C 261.191406 182.878906 260.816406 184.261719 260.402344 185.632812 C 259.992188 187.003906 259.539062 188.363281 259.050781 189.710938 C 258.5625 191.058594 258.035156 192.390625 257.46875 193.707031 C 256.90625 195.023438 256.304688 196.324219 255.664062 197.605469 C 255.027344 198.890625 254.355469 200.152344 253.644531 201.398438 C 252.933594 202.640625 252.191406 203.867188 251.414062 205.070312 C 250.632812 206.273438 249.824219 207.453125 248.976562 208.609375 C 248.132812 209.765625 247.253906 210.898438 246.347656 212.003906 C 245.4375 213.113281 244.496094 214.191406 243.527344 215.246094 C 242.558594 216.300781 241.558594 217.328125 240.53125 218.324219 C 239.5 219.324219 238.445312 220.292969 237.363281 221.230469 C 236.28125 222.167969 235.171875 223.074219 234.039062 223.953125 C 232.90625 224.828125 231.746094 225.671875 230.566406 226.480469 C 229.382812 227.292969 228.179688 228.066406 226.953125 228.808594 C 225.730469 229.550781 224.484375 230.257812 223.21875 230.929688 C 221.953125 231.605469 220.671875 232.238281 219.367188 232.839844 C 218.59375 233.207031 217.847656 233.625 217.128906 234.097656 C 216.414062 234.574219 215.734375 235.09375 215.089844 235.664062 C 214.449219 236.234375 213.847656 236.84375 213.292969 237.5 C 212.738281 238.15625 212.230469 238.84375 211.773438 239.570312 C 211.316406 240.296875 210.914062 241.054688 210.5625 241.839844 C 210.210938 242.621094 209.917969 243.425781 209.683594 244.253906 C 209.445312 245.078125 209.269531 245.917969 209.152344 246.765625 C 209.035156 247.617188 208.980469 248.472656 208.984375 249.332031 L 208.984375 261.792969 L 202.46875 261.792969 L 202.46875 221.105469 L 211.777344 211.804688 C 212.515625 211.066406 212.886719 210.175781 212.886719 209.128906 L 212.886719 173.378906 L 217.6875 173.378906 C 218.191406 173.378906 218.671875 173.285156 219.136719 173.09375 C 219.601562 172.898438 220.011719 172.625 220.363281 172.273438 C 220.71875 171.917969 220.992188 171.507812 221.1875 171.042969 C 221.378906 170.578125 221.472656 170.097656 221.472656 169.59375 C 221.472656 169.089844 221.378906 168.609375 221.1875 168.144531 C 220.992188 167.679688 220.71875 167.269531 220.363281 166.917969 C 220.011719 166.5625 219.601562 166.289062 219.136719 166.09375 C 218.671875 165.902344 218.191406 165.808594 217.6875 165.808594 L 212.886719 165.808594 L 212.886719 159.546875 C 212.886719 159.046875 212.789062 158.5625 212.597656 158.097656 C 212.40625 157.632812 212.132812 157.222656 211.777344 156.871094 C 211.421875 156.515625 211.011719 156.242188 210.546875 156.046875 C 210.082031 155.855469 209.601562 155.761719 209.097656 155.761719 C 208.597656 155.761719 208.113281 155.855469 207.648438 156.046875 C 207.1875 156.242188 206.777344 156.515625 206.421875 156.871094 C 206.066406 157.222656 205.792969 157.632812 205.601562 158.097656 C 205.40625 158.5625 205.3125 159.046875 205.3125 159.546875 L 205.3125 165.808594 L 169.316406 165.808594 L 169.316406 159.546875 C 169.316406 159.046875 169.222656 158.5625 169.027344 158.097656 C 168.835938 157.632812 168.5625 157.222656 168.207031 156.871094 C 167.851562 156.515625 167.445312 156.242188 166.980469 156.046875 C 166.515625 155.855469 166.03125 155.761719 165.53125 155.761719 C 165.027344 155.761719 164.546875 155.855469 164.082031 156.046875 C 163.617188 156.242188 163.207031 156.515625 162.851562 156.871094 C 162.496094 157.222656 162.222656 157.632812 162.03125 158.097656 C 161.839844 158.5625 161.742188 159.046875 161.742188 159.546875 L 161.742188 165.808594 L 156.949219 165.808594 C 156.445312 165.808594 155.964844 165.902344 155.5 166.09375 C 155.035156 166.289062 154.625 166.5625 154.269531 166.917969 C 153.917969 167.269531 153.644531 167.679688 153.449219 168.144531 C 153.257812 168.609375 153.164062 169.089844 153.164062 169.59375 C 153.164062 170.097656 153.257812 170.578125 153.449219 171.042969 C 153.644531 171.507812 153.917969 171.917969 154.269531 172.273438 C 154.625 172.625 155.035156 172.898438 155.5 173.09375 C 155.964844 173.285156 156.445312 173.378906 156.949219 173.378906 L 161.742188 173.378906 L 161.742188 209.121094 C 161.742188 210.167969 162.113281 211.058594 162.851562 211.800781 L 172.164062 221.105469 L 172.164062 261.792969 L 166.003906 261.792969 L 166.003906 249.320312 C 166.007812 248.460938 165.953125 247.609375 165.839844 246.757812 C 165.722656 245.910156 165.546875 245.074219 165.3125 244.25 C 165.078125 243.421875 164.789062 242.621094 164.4375 241.835938 C 164.089844 241.054688 163.6875 240.296875 163.230469 239.570312 C 162.777344 238.847656 162.269531 238.15625 161.71875 237.5 C 161.164062 236.847656 160.566406 236.234375 159.925781 235.664062 C 159.285156 235.09375 158.605469 234.574219 157.890625 234.101562 C 157.175781 233.628906 156.433594 233.207031 155.65625 232.839844 Z M 179.746094 261.792969 L 179.746094 219.539062 C 179.746094 218.492188 179.375 217.601562 178.636719 216.863281 L 169.316406 207.554688 L 169.316406 173.378906 L 205.292969 173.378906 L 205.292969 207.554688 L 195.984375 216.863281 C 195.246094 217.601562 194.875 218.492188 194.875 219.539062 L 194.875 261.792969 Z M 208.859375 295.875 C 208.859375 296.378906 208.765625 296.859375 208.570312 297.324219 C 208.378906 297.789062 208.105469 298.199219 207.75 298.554688 C 207.394531 298.910156 206.988281 299.183594 206.523438 299.375 C 206.058594 299.566406 205.574219 299.664062 205.074219 299.664062 L 169.433594 299.664062 C 168.929688 299.664062 168.441406 299.566406 167.976562 299.371094 C 167.507812 299.175781 167.097656 298.898438 166.742188 298.539062 C 166.386719 298.179688 166.113281 297.761719 165.921875 297.292969 C 165.734375 296.824219 165.640625 296.335938 165.648438 295.832031 L 165.738281 288.300781 L 208.910156 288.300781 Z M 165.824219 280.726562 L 165.957031 269.367188 L 208.96875 269.367188 L 208.925781 280.726562 Z M 165.824219 280.726562 " fill-opacity="1" fill-rule="nonzero"/></g><g clip-path="url(#694491079c)"><path fill="#fdff83" d="M 297.316406 165.808594 L 286.515625 165.808594 C 286.011719 165.808594 285.53125 165.902344 285.066406 166.09375 C 284.601562 166.289062 284.191406 166.5625 283.835938 166.917969 C 283.480469 167.269531 283.207031 167.679688 283.015625 168.144531 C 282.824219 168.609375 282.726562 169.089844 282.726562 169.59375 C 282.726562 170.097656 282.824219 170.578125 283.015625 171.042969 C 283.207031 171.507812 283.480469 171.917969 283.835938 172.273438 C 284.191406 172.625 284.601562 172.898438 285.066406 173.09375 C 285.53125 173.285156 286.011719 173.378906 286.515625 173.378906 L 297.316406 173.378906 C 297.816406 173.378906 298.300781 173.285156 298.765625 173.09375 C 299.226562 172.898438 299.636719 172.625 299.992188 172.273438 C 300.347656 171.917969 300.621094 171.507812 300.8125 171.042969 C 301.003906 170.578125 301.101562 170.097656 301.101562 169.59375 C 301.101562 169.089844 301.003906 168.609375 300.8125 168.144531 C 300.621094 167.679688 300.347656 167.269531 299.992188 166.917969 C 299.636719 166.5625 299.226562 166.289062 298.765625 166.09375 C 298.300781 165.902344 297.816406 165.808594 297.316406 165.808594 Z M 297.316406 165.808594 " fill-opacity="1" fill-rule="nonzero"/></g><path fill="#fdff83" d="M 274.660156 126.394531 C 275.296875 126.394531 275.898438 126.242188 276.457031 125.9375 L 285.953125 120.816406 C 286.183594 120.703125 286.398438 120.566406 286.597656 120.410156 C 286.800781 120.257812 286.984375 120.082031 287.148438 119.890625 C 287.316406 119.695312 287.460938 119.488281 287.585938 119.265625 C 287.707031 119.042969 287.808594 118.8125 287.886719 118.570312 C 287.964844 118.328125 288.015625 118.078125 288.042969 117.828125 C 288.070312 117.574219 288.074219 117.320312 288.050781 117.066406 C 288.027344 116.8125 287.976562 116.566406 287.902344 116.320312 C 287.828125 116.078125 287.730469 115.84375 287.613281 115.621094 C 287.492188 115.394531 287.347656 115.1875 287.1875 114.992188 C 287.023438 114.796875 286.839844 114.617188 286.644531 114.460938 C 286.445312 114.300781 286.230469 114.164062 286.003906 114.046875 C 285.777344 113.933594 285.542969 113.839844 285.296875 113.769531 C 285.050781 113.703125 284.804688 113.660156 284.550781 113.640625 C 284.296875 113.621094 284.042969 113.628906 283.789062 113.664062 C 283.539062 113.695312 283.292969 113.753906 283.050781 113.835938 C 282.808594 113.917969 282.578125 114.023438 282.359375 114.152344 L 272.855469 119.273438 C 272.484375 119.472656 272.15625 119.730469 271.871094 120.039062 C 271.585938 120.347656 271.355469 120.695312 271.1875 121.082031 C 271.015625 121.46875 270.914062 121.871094 270.878906 122.292969 C 270.84375 122.710938 270.878906 123.125 270.984375 123.535156 C 271.085938 123.945312 271.253906 124.324219 271.484375 124.679688 C 271.714844 125.03125 271.996094 125.335938 272.328125 125.59375 C 272.664062 125.855469 273.027344 126.050781 273.425781 126.1875 C 273.824219 126.324219 274.234375 126.394531 274.65625 126.394531 Z M 274.660156 126.394531 " fill-opacity="1" fill-rule="nonzero"/><path fill="#fdff83" d="M 285.953125 218.375 L 276.453125 213.253906 C 276.234375 213.125 276.003906 213.023438 275.765625 212.941406 C 275.523438 212.859375 275.277344 212.804688 275.027344 212.773438 C 274.773438 212.742188 274.523438 212.734375 274.269531 212.753906 C 274.019531 212.773438 273.769531 212.816406 273.527344 212.886719 C 273.28125 212.957031 273.046875 213.046875 272.824219 213.164062 C 272.597656 213.28125 272.386719 213.417969 272.1875 213.574219 C 271.992188 213.734375 271.8125 213.910156 271.648438 214.105469 C 271.484375 214.300781 271.34375 214.507812 271.222656 214.730469 C 271.105469 214.953125 271.007812 215.1875 270.933594 215.429688 C 270.859375 215.671875 270.8125 215.917969 270.785156 216.171875 C 270.761719 216.421875 270.765625 216.675781 270.789062 216.925781 C 270.816406 217.179688 270.867188 217.425781 270.945312 217.667969 C 271.019531 217.910156 271.121094 218.140625 271.242188 218.363281 C 271.363281 218.585938 271.507812 218.792969 271.671875 218.984375 C 271.835938 219.175781 272.019531 219.351562 272.21875 219.507812 C 272.417969 219.664062 272.628906 219.800781 272.855469 219.914062 L 282.359375 225.042969 C 282.578125 225.167969 282.808594 225.265625 283.046875 225.347656 C 283.289062 225.425781 283.53125 225.480469 283.78125 225.507812 C 284.035156 225.539062 284.285156 225.542969 284.535156 225.523438 C 284.785156 225.5 285.035156 225.457031 285.277344 225.386719 C 285.519531 225.316406 285.75 225.222656 285.972656 225.109375 C 286.199219 224.992188 286.40625 224.855469 286.605469 224.695312 C 286.800781 224.539062 286.980469 224.363281 287.140625 224.167969 C 287.300781 223.972656 287.441406 223.765625 287.5625 223.542969 C 287.679688 223.324219 287.777344 223.089844 287.851562 222.851562 C 287.925781 222.609375 287.972656 222.363281 287.996094 222.113281 C 288.023438 221.863281 288.019531 221.609375 287.996094 221.359375 C 287.96875 221.109375 287.917969 220.863281 287.84375 220.621094 C 287.769531 220.382812 287.671875 220.152344 287.550781 219.929688 C 287.429688 219.710938 287.289062 219.503906 287.125 219.308594 C 286.964844 219.117188 286.785156 218.941406 286.585938 218.785156 C 286.390625 218.628906 286.179688 218.492188 285.953125 218.375 Z M 285.953125 218.375 " fill-opacity="1" fill-rule="nonzero"/><g clip-path="url(#80d29ce15a)"><path fill="#fdff83" d="M 92.261719 169.59375 C 92.261719 169.089844 92.164062 168.609375 91.972656 168.144531 C 91.78125 167.679688 91.507812 167.269531 91.152344 166.917969 C 90.796875 166.5625 90.386719 166.289062 89.921875 166.09375 C 89.460938 165.902344 88.976562 165.808594 88.472656 165.808594 L 77.675781 165.808594 C 77.171875 165.808594 76.6875 165.902344 76.226562 166.09375 C 75.761719 166.289062 75.351562 166.5625 74.996094 166.917969 C 74.640625 167.269531 74.367188 167.679688 74.175781 168.144531 C 73.984375 168.609375 73.886719 169.089844 73.886719 169.59375 C 73.886719 170.097656 73.984375 170.578125 74.175781 171.042969 C 74.367188 171.507812 74.640625 171.917969 74.996094 172.273438 C 75.351562 172.625 75.761719 172.898438 76.226562 173.09375 C 76.6875 173.285156 77.171875 173.378906 77.675781 173.378906 L 88.472656 173.378906 C 88.976562 173.378906 89.460938 173.285156 89.921875 173.09375 C 90.386719 172.898438 90.796875 172.625 91.152344 172.273438 C 91.507812 171.917969 91.78125 171.507812 91.972656 171.042969 C 92.164062 170.578125 92.261719 170.097656 92.261719 169.59375 Z M 92.261719 169.59375 " fill-opacity="1" fill-rule="nonzero"/></g><path fill="#fdff83" d="M 89.035156 120.816406 L 98.535156 125.9375 C 98.976562 126.175781 99.445312 126.324219 99.945312 126.375 C 100.445312 126.429688 100.933594 126.382812 101.414062 126.242188 C 101.894531 126.101562 102.332031 125.871094 102.722656 125.554688 C 103.113281 125.242188 103.425781 124.863281 103.667969 124.421875 C 103.90625 123.984375 104.050781 123.511719 104.105469 123.015625 C 104.15625 122.515625 104.113281 122.027344 103.972656 121.542969 C 103.828125 121.0625 103.601562 120.628906 103.285156 120.238281 C 102.96875 119.847656 102.59375 119.53125 102.152344 119.292969 L 92.648438 114.171875 C 92.429688 114.035156 92.199219 113.921875 91.957031 113.835938 C 91.714844 113.746094 91.464844 113.683594 91.210938 113.644531 C 90.957031 113.605469 90.699219 113.59375 90.441406 113.609375 C 90.183594 113.621094 89.929688 113.660156 89.679688 113.726562 C 89.433594 113.792969 89.191406 113.882812 88.960938 114 C 88.730469 114.113281 88.511719 114.25 88.308594 114.410156 C 88.109375 114.570312 87.921875 114.746094 87.757812 114.945312 C 87.589844 115.140625 87.445312 115.351562 87.320312 115.578125 C 87.199219 115.804688 87.101562 116.042969 87.023438 116.289062 C 86.949219 116.535156 86.902344 116.789062 86.878906 117.042969 C 86.855469 117.300781 86.855469 117.558594 86.886719 117.8125 C 86.914062 118.070312 86.96875 118.320312 87.050781 118.566406 C 87.128906 118.8125 87.234375 119.046875 87.363281 119.269531 C 87.488281 119.492188 87.640625 119.703125 87.808594 119.894531 C 87.980469 120.089844 88.167969 120.261719 88.375 120.417969 C 88.582031 120.574219 88.800781 120.703125 89.035156 120.816406 Z M 89.035156 120.816406 " fill-opacity="1" fill-rule="nonzero"/><path fill="#fdff83" d="M 98.53125 213.253906 L 89.035156 218.375 C 88.808594 218.492188 88.597656 218.628906 88.402344 218.785156 C 88.207031 218.941406 88.027344 219.117188 87.863281 219.308594 C 87.699219 219.503906 87.558594 219.710938 87.4375 219.929688 C 87.316406 220.152344 87.21875 220.382812 87.144531 220.621094 C 87.070312 220.863281 87.019531 221.109375 86.992188 221.359375 C 86.96875 221.609375 86.96875 221.863281 86.992188 222.113281 C 87.015625 222.363281 87.066406 222.609375 87.136719 222.851562 C 87.210938 223.089844 87.308594 223.324219 87.425781 223.542969 C 87.546875 223.765625 87.6875 223.972656 87.847656 224.167969 C 88.007812 224.363281 88.1875 224.539062 88.382812 224.695312 C 88.582031 224.855469 88.789062 224.992188 89.015625 225.109375 C 89.238281 225.222656 89.472656 225.316406 89.714844 225.386719 C 89.957031 225.457031 90.203125 225.5 90.453125 225.523438 C 90.703125 225.542969 90.957031 225.539062 91.207031 225.507812 C 91.457031 225.480469 91.699219 225.425781 91.941406 225.347656 C 92.179688 225.265625 92.410156 225.167969 92.628906 225.042969 L 102.132812 219.914062 C 102.359375 219.800781 102.574219 219.664062 102.773438 219.507812 C 102.972656 219.351562 103.152344 219.175781 103.316406 218.984375 C 103.480469 218.792969 103.625 218.585938 103.746094 218.363281 C 103.871094 218.140625 103.96875 217.910156 104.042969 217.667969 C 104.121094 217.425781 104.171875 217.179688 104.199219 216.925781 C 104.226562 216.675781 104.226562 216.421875 104.203125 216.171875 C 104.179688 215.917969 104.128906 215.671875 104.054688 215.429688 C 103.980469 215.1875 103.882812 214.953125 103.765625 214.730469 C 103.644531 214.507812 103.503906 214.300781 103.339844 214.105469 C 103.179688 213.910156 103 213.734375 102.800781 213.574219 C 102.601562 213.417969 102.390625 213.28125 102.167969 213.164062 C 101.941406 213.046875 101.707031 212.957031 101.460938 212.886719 C 101.21875 212.816406 100.972656 212.773438 100.71875 212.753906 C 100.464844 212.734375 100.214844 212.742188 99.960938 212.773438 C 99.710938 212.804688 99.464844 212.859375 99.226562 212.941406 C 98.984375 213.023438 98.753906 213.125 98.535156 213.253906 Z M 98.53125 213.253906 " fill-opacity="1" fill-rule="nonzero"/></svg>