<svg xmlns="http://www.w3.org/2000/svg" xmlns:xlink="http://www.w3.org/1999/xlink" width="500" zoomAndPan="magnify" viewBox="0 0 375 374.999991" height="500" preserveAspectRatio="xMidYMid meet" version="1.0"><defs><clipPath id="4f9523cf93"><path d="M 49 6.136719 L 326 6.136719 L 326 375 L 49 375 Z M 49 6.136719 " clip-rule="nonzero"/></clipPath></defs><rect x="-37.5" width="450" fill="#ffffff" y="-37.499999" height="449.999989" fill-opacity="1"/><rect x="-37.5" width="450" fill="#ffffff" y="-37.499999" height="449.999989" fill-opacity="1"/><g clip-path="url(#4f9523cf93)"><path fill="#fdff83" d="M 235.46875 285.542969 C 235.460938 284.71875 235.511719 283.898438 235.617188 283.082031 C 235.726562 282.265625 235.890625 281.460938 236.113281 280.667969 C 236.335938 279.875 236.613281 279.101562 236.945312 278.347656 C 237.277344 277.59375 237.660156 276.867188 238.09375 276.167969 C 238.53125 275.46875 239.011719 274.804688 239.542969 274.171875 C 240.070312 273.542969 240.640625 272.953125 241.253906 272.402344 C 241.867188 271.855469 242.519531 271.351562 243.203125 270.894531 C 243.886719 270.433594 244.601562 270.027344 245.34375 269.671875 C 247.703125 268.582031 250.03125 267.429688 252.328125 266.207031 C 254.625 264.988281 256.882812 263.703125 259.105469 262.355469 C 261.332031 261.007812 263.511719 259.597656 265.65625 258.128906 C 267.800781 256.65625 269.902344 255.125 271.957031 253.535156 C 274.015625 251.945312 276.027344 250.300781 277.992188 248.597656 C 279.953125 246.894531 281.867188 245.136719 283.734375 243.324219 C 285.597656 241.511719 287.410156 239.652344 289.171875 237.738281 C 290.929688 235.824219 292.636719 233.859375 294.285156 231.851562 C 295.933594 229.839844 297.523438 227.785156 299.058594 225.6875 C 300.589844 223.585938 302.0625 221.445312 303.476562 219.261719 C 304.886719 217.078125 306.234375 214.859375 307.523438 212.597656 C 308.808594 210.339844 310.03125 208.046875 311.1875 205.71875 C 312.34375 203.390625 313.4375 201.03125 314.460938 198.640625 C 315.484375 196.25 316.4375 193.835938 317.328125 191.390625 C 318.214844 188.945312 319.03125 186.480469 319.78125 183.988281 C 320.527344 181.5 321.207031 178.992188 321.8125 176.464844 C 322.417969 173.933594 322.953125 171.390625 323.414062 168.832031 C 323.878906 166.273438 324.269531 163.707031 324.585938 161.125 C 324.90625 158.542969 325.148438 155.957031 325.320312 153.363281 C 325.492188 150.769531 325.589844 148.171875 325.617188 145.570312 C 325.640625 142.972656 325.59375 140.375 325.472656 137.777344 C 325.347656 135.179688 325.152344 132.589844 324.886719 130.003906 C 324.617188 127.417969 324.277344 124.839844 323.863281 122.273438 C 323.449219 119.707031 322.964844 117.152344 322.40625 114.613281 C 321.847656 112.074219 321.21875 109.554688 320.519531 107.050781 C 319.820312 104.546875 319.050781 102.0625 318.210938 99.601562 C 317.371094 97.144531 316.460938 94.707031 315.484375 92.300781 C 314.503906 89.890625 313.460938 87.511719 312.347656 85.160156 C 311.234375 82.808594 310.058594 80.492188 308.816406 78.210938 C 307.574219 75.925781 306.265625 73.679688 304.894531 71.46875 C 303.527344 69.261719 302.09375 67.089844 300.601562 64.960938 C 299.109375 62.832031 297.558594 60.746094 295.949219 58.707031 C 294.339844 56.664062 292.671875 54.671875 290.949219 52.722656 C 289.226562 50.777344 287.453125 48.878906 285.621094 47.03125 C 283.792969 45.183594 281.910156 43.390625 279.980469 41.652344 C 278.050781 39.910156 276.070312 38.226562 274.042969 36.597656 C 272.019531 34.96875 269.949219 33.394531 267.832031 31.882812 C 265.71875 30.371094 263.5625 28.921875 261.363281 27.53125 C 259.167969 26.140625 256.933594 24.8125 254.664062 23.546875 C 252.390625 22.285156 250.085938 21.085938 247.746094 19.949219 C 245.40625 18.816406 243.035156 17.75 240.636719 16.75 C 238.238281 15.75 235.808594 14.816406 233.359375 13.953125 C 230.90625 13.089844 228.429688 12.296875 225.933594 11.574219 C 223.4375 10.851562 220.921875 10.199219 218.386719 9.617188 C 215.851562 9.035156 213.304688 8.527344 210.742188 8.089844 C 208.179688 7.652344 205.605469 7.285156 203.023438 6.996094 C 200.4375 6.703125 197.847656 6.484375 195.253906 6.335938 C 192.65625 6.191406 190.058594 6.117188 187.460938 6.117188 C 184.859375 6.121094 182.261719 6.195312 179.667969 6.339844 C 177.070312 6.488281 174.480469 6.710938 171.898438 7.003906 C 169.316406 7.296875 166.742188 7.664062 164.179688 8.101562 C 161.617188 8.539062 159.070312 9.050781 156.535156 9.632812 C 154 10.214844 151.484375 10.871094 148.988281 11.59375 C 146.492188 12.320312 144.019531 13.113281 141.566406 13.980469 C 139.113281 14.84375 136.6875 15.777344 134.289062 16.777344 C 131.890625 17.78125 129.519531 18.847656 127.183594 19.984375 C 124.84375 21.117188 122.539062 22.320312 120.265625 23.585938 C 117.996094 24.851562 115.761719 26.179688 113.566406 27.570312 C 111.371094 28.960938 109.214844 30.414062 107.101562 31.925781 C 104.988281 33.441406 102.917969 35.011719 100.890625 36.644531 C 98.867188 38.273438 96.890625 39.957031 94.957031 41.699219 C 93.027344 43.441406 91.148438 45.238281 89.320312 47.085938 C 87.492188 48.933594 85.714844 50.832031 83.996094 52.78125 C 82.273438 54.726562 80.609375 56.722656 79 58.765625 C 77.390625 60.808594 75.839844 62.894531 74.347656 65.023438 C 72.859375 67.152344 71.429688 69.324219 70.058594 71.535156 C 68.691406 73.742188 67.386719 75.992188 66.144531 78.277344 C 64.902344 80.558594 63.726562 82.878906 62.613281 85.226562 C 61.503906 87.578125 60.460938 89.957031 59.484375 92.367188 C 58.507812 94.777344 57.601562 97.210938 56.761719 99.671875 C 55.921875 102.132812 55.152344 104.617188 54.453125 107.121094 C 53.753906 109.625 53.128906 112.148438 52.570312 114.6875 C 52.015625 117.226562 51.53125 119.78125 51.117188 122.347656 C 50.707031 124.914062 50.367188 127.492188 50.101562 130.078125 C 49.835938 132.664062 49.640625 135.253906 49.519531 137.851562 C 49.398438 140.449219 49.351562 143.046875 49.378906 145.648438 C 49.40625 148.246094 49.503906 150.84375 49.679688 153.4375 C 49.851562 156.03125 50.097656 158.617188 50.417969 161.199219 C 50.734375 163.78125 51.128906 166.347656 51.59375 168.90625 C 52.054688 171.464844 52.59375 174.007812 53.199219 176.535156 C 53.808594 179.0625 54.488281 181.570312 55.234375 184.0625 C 55.984375 186.550781 56.804688 189.015625 57.691406 191.460938 C 58.582031 193.902344 59.539062 196.320312 60.5625 198.710938 C 61.589844 201.097656 62.679688 203.457031 63.839844 205.785156 C 64.996094 208.113281 66.222656 210.40625 67.507812 212.664062 C 68.796875 214.921875 70.148438 217.140625 71.558594 219.324219 C 72.972656 221.507812 74.445312 223.648438 75.980469 225.746094 C 77.515625 227.847656 79.109375 229.898438 80.757812 231.910156 C 82.40625 233.917969 84.113281 235.878906 85.875 237.792969 C 87.636719 239.703125 89.449219 241.566406 91.3125 243.375 C 93.179688 245.1875 95.09375 246.945312 97.0625 248.644531 C 99.027344 250.347656 101.039062 251.992188 103.09375 253.582031 C 105.152344 255.171875 107.253906 256.699219 109.398438 258.171875 C 111.542969 259.640625 113.726562 261.046875 115.953125 262.394531 C 118.175781 263.742188 120.4375 265.023438 122.730469 266.242188 C 125.027344 267.460938 127.355469 268.617188 129.71875 269.703125 C 130.457031 270.058594 131.167969 270.46875 131.851562 270.925781 C 132.535156 271.382812 133.179688 271.886719 133.789062 272.433594 C 134.402344 272.984375 134.96875 273.574219 135.496094 274.203125 C 136.023438 274.832031 136.503906 275.496094 136.933594 276.195312 C 137.367188 276.894531 137.746094 277.617188 138.078125 278.371094 C 138.40625 279.121094 138.679688 279.894531 138.902344 280.6875 C 139.121094 281.476562 139.28125 282.28125 139.390625 283.09375 C 139.496094 283.910156 139.542969 284.726562 139.53125 285.546875 L 139.238281 337.386719 L 133.125 337.386719 C 132.714844 337.386719 132.308594 337.425781 131.90625 337.503906 C 131.503906 337.585938 131.113281 337.703125 130.734375 337.859375 C 130.355469 338.019531 129.992188 338.210938 129.652344 338.4375 C 129.3125 338.667969 128.996094 338.925781 128.707031 339.214844 C 128.414062 339.503906 128.15625 339.820312 127.929688 340.164062 C 127.699219 340.503906 127.507812 340.863281 127.351562 341.242188 C 127.195312 341.621094 127.074219 342.011719 126.996094 342.414062 C 126.914062 342.816406 126.875 343.222656 126.875 343.636719 C 126.875 344.046875 126.914062 344.453125 126.996094 344.855469 C 127.074219 345.257812 127.195312 345.648438 127.351562 346.027344 C 127.507812 346.40625 127.699219 346.765625 127.929688 347.105469 C 128.15625 347.449219 128.414062 347.765625 128.707031 348.054688 C 128.996094 348.34375 129.3125 348.605469 129.652344 348.832031 C 129.992188 349.058594 130.355469 349.253906 130.734375 349.410156 C 131.113281 349.566406 131.503906 349.683594 131.90625 349.765625 C 132.308594 349.84375 132.714844 349.886719 133.125 349.886719 L 139.117188 349.886719 L 138.976562 362.167969 C 138.96875 362.785156 138.992188 363.402344 139.046875 364.019531 C 139.097656 364.636719 139.183594 365.246094 139.296875 365.855469 C 139.414062 366.464844 139.554688 367.0625 139.730469 367.65625 C 139.90625 368.25 140.105469 368.835938 140.339844 369.410156 C 140.570312 369.980469 140.832031 370.542969 141.117188 371.089844 C 141.40625 371.640625 141.71875 372.171875 142.058594 372.6875 C 142.398438 373.207031 142.761719 373.703125 143.152344 374.183594 C 143.542969 374.664062 143.953125 375.125 144.390625 375.566406 C 144.824219 376.007812 145.28125 376.421875 145.753906 376.820312 C 146.230469 377.214844 146.726562 377.582031 147.238281 377.929688 C 147.753906 378.277344 148.28125 378.59375 148.824219 378.890625 C 149.371094 379.183594 149.929688 379.449219 150.5 379.6875 C 151.070312 379.925781 151.652344 380.136719 152.242188 380.316406 C 152.835938 380.496094 153.433594 380.648438 154.039062 380.769531 C 154.648438 380.890625 155.257812 380.980469 155.875 381.042969 C 156.488281 381.105469 157.105469 381.136719 157.726562 381.136719 L 216.542969 381.136719 C 217.15625 381.132812 217.765625 381.101562 218.375 381.042969 C 218.984375 380.980469 219.589844 380.890625 220.1875 380.769531 C 220.789062 380.652344 221.382812 380.5 221.96875 380.324219 C 222.554688 380.144531 223.128906 379.941406 223.695312 379.707031 C 224.261719 379.472656 224.8125 379.210938 225.351562 378.921875 C 225.894531 378.632812 226.417969 378.320312 226.925781 377.980469 C 227.4375 377.640625 227.925781 377.277344 228.402344 376.890625 C 228.875 376.503906 229.328125 376.09375 229.761719 375.660156 C 230.195312 375.230469 230.609375 374.777344 230.996094 374.304688 C 231.386719 373.832031 231.753906 373.34375 232.09375 372.835938 C 232.4375 372.328125 232.753906 371.804688 233.042969 371.265625 C 233.332031 370.726562 233.597656 370.175781 233.832031 369.609375 C 234.070312 369.046875 234.277344 368.472656 234.457031 367.886719 C 234.640625 367.300781 234.789062 366.710938 234.914062 366.109375 C 235.035156 365.511719 235.128906 364.90625 235.191406 364.296875 C 235.257812 363.6875 235.289062 363.078125 235.292969 362.464844 L 235.3125 349.886719 L 241.324219 349.886719 C 241.734375 349.886719 242.140625 349.84375 242.542969 349.765625 C 242.945312 349.683594 243.335938 349.566406 243.714844 349.410156 C 244.097656 349.253906 244.457031 349.058594 244.796875 348.832031 C 245.136719 348.605469 245.453125 348.34375 245.746094 348.054688 C 246.035156 347.765625 246.292969 347.449219 246.523438 347.105469 C 246.75 346.765625 246.941406 346.40625 247.097656 346.027344 C 247.257812 345.648438 247.375 345.257812 247.453125 344.855469 C 247.535156 344.453125 247.574219 344.046875 247.574219 343.636719 C 247.574219 343.222656 247.535156 342.816406 247.453125 342.414062 C 247.375 342.011719 247.257812 341.621094 247.097656 341.242188 C 246.941406 340.863281 246.75 340.503906 246.523438 340.164062 C 246.292969 339.820312 246.035156 339.503906 245.746094 339.214844 C 245.453125 338.925781 245.136719 338.667969 244.796875 338.4375 C 244.457031 338.210938 244.097656 338.019531 243.714844 337.859375 C 243.335938 337.703125 242.945312 337.585938 242.542969 337.503906 C 242.140625 337.425781 241.734375 337.386719 241.324219 337.386719 L 235.367188 337.386719 Z M 134.957031 258.347656 C 132.808594 257.359375 130.691406 256.308594 128.601562 255.199219 C 126.515625 254.089844 124.457031 252.921875 122.4375 251.699219 C 120.414062 250.472656 118.425781 249.191406 116.476562 247.851562 C 114.527344 246.515625 112.617188 245.125 110.746094 243.679688 C 108.875 242.234375 107.042969 240.738281 105.257812 239.1875 C 103.46875 237.640625 101.730469 236.042969 100.03125 234.394531 C 98.335938 232.746094 96.6875 231.054688 95.085938 229.3125 C 93.484375 227.574219 91.933594 225.789062 90.433594 223.960938 C 88.933594 222.132812 87.484375 220.265625 86.089844 218.355469 C 84.695312 216.449219 83.355469 214.5 82.070312 212.515625 C 80.785156 210.53125 79.558594 208.511719 78.386719 206.457031 C 77.214844 204.402344 76.105469 202.316406 75.050781 200.199219 C 73.996094 198.082031 73.003906 195.9375 72.074219 193.761719 C 71.140625 191.589844 70.273438 189.390625 69.464844 187.167969 C 68.65625 184.945312 67.910156 182.703125 67.230469 180.4375 C 66.550781 178.175781 65.933594 175.894531 65.378906 173.59375 C 64.828125 171.292969 64.339844 168.980469 63.917969 166.65625 C 63.496094 164.328125 63.140625 161.992188 62.851562 159.644531 C 62.5625 157.296875 62.339844 154.945312 62.183594 152.585938 C 62.027344 150.226562 61.9375 147.863281 61.914062 145.5 C 61.890625 143.132812 61.933594 140.769531 62.042969 138.410156 C 62.152344 136.046875 62.328125 133.691406 62.570312 131.335938 C 62.816406 128.984375 63.125 126.640625 63.5 124.308594 C 63.875 121.972656 64.316406 119.652344 64.824219 117.339844 C 65.328125 115.03125 65.902344 112.738281 66.535156 110.460938 C 67.171875 108.183594 67.871094 105.925781 68.636719 103.6875 C 69.398438 101.449219 70.226562 99.234375 71.113281 97.042969 C 72.003906 94.851562 72.953125 92.6875 73.964844 90.550781 C 74.976562 88.410156 76.046875 86.304688 77.175781 84.226562 C 78.304688 82.148438 79.492188 80.105469 80.738281 78.097656 C 81.984375 76.085938 83.285156 74.113281 84.640625 72.175781 C 85.996094 70.238281 87.40625 68.34375 88.871094 66.484375 C 90.335938 64.628906 91.851562 62.8125 93.417969 61.042969 C 94.984375 59.269531 96.597656 57.542969 98.261719 55.863281 C 99.925781 54.183594 101.636719 52.550781 103.390625 50.96875 C 105.148438 49.382812 106.945312 47.851562 108.789062 46.371094 C 110.632812 44.886719 112.515625 43.457031 114.4375 42.082031 C 116.359375 40.707031 118.320312 39.386719 120.320312 38.121094 C 122.316406 36.855469 124.347656 35.648438 126.414062 34.496094 C 128.480469 33.347656 130.578125 32.253906 132.703125 31.222656 C 134.832031 30.191406 136.988281 29.21875 139.167969 28.308594 C 141.351562 27.398438 143.558594 26.550781 145.789062 25.765625 C 148.019531 24.980469 150.269531 24.257812 152.539062 23.601562 C 154.8125 22.941406 157.097656 22.347656 159.402344 21.816406 C 161.707031 21.289062 164.027344 20.824219 166.355469 20.425781 C 168.6875 20.027344 171.027344 19.695312 173.378906 19.429688 C 175.726562 19.160156 178.082031 18.960938 180.441406 18.828125 C 182.804688 18.695312 185.167969 18.628906 187.53125 18.628906 C 189.894531 18.628906 192.257812 18.695312 194.621094 18.828125 C 196.980469 18.960938 199.335938 19.160156 201.683594 19.429688 C 204.035156 19.695312 206.375 20.027344 208.707031 20.425781 C 211.035156 20.824219 213.355469 21.289062 215.660156 21.816406 C 217.964844 22.347656 220.25 22.941406 222.523438 23.601562 C 224.792969 24.257812 227.042969 24.980469 229.273438 25.765625 C 231.503906 26.550781 233.710938 27.398438 235.894531 28.308594 C 238.074219 29.21875 240.230469 30.191406 242.359375 31.222656 C 244.484375 32.257812 246.582031 33.347656 248.648438 34.496094 C 250.714844 35.648438 252.746094 36.855469 254.742188 38.121094 C 256.742188 39.386719 258.703125 40.707031 260.625 42.082031 C 262.546875 43.457031 264.429688 44.886719 266.273438 46.371094 C 268.117188 47.851562 269.914062 49.382812 271.671875 50.96875 C 273.425781 52.550781 275.136719 54.183594 276.800781 55.863281 C 278.464844 57.542969 280.078125 59.269531 281.644531 61.042969 C 283.210938 62.8125 284.726562 64.628906 286.191406 66.484375 C 287.65625 68.34375 289.066406 70.238281 290.421875 72.175781 C 291.777344 74.113281 293.078125 76.085938 294.324219 78.097656 C 295.570312 80.105469 296.757812 82.148438 297.886719 84.226562 C 299.015625 86.304688 300.085938 88.410156 301.097656 90.550781 C 302.109375 92.6875 303.058594 94.851562 303.949219 97.042969 C 304.835938 99.234375 305.664062 101.449219 306.425781 103.6875 C 307.191406 105.925781 307.890625 108.183594 308.527344 110.460938 C 309.160156 112.738281 309.734375 115.03125 310.238281 117.339844 C 310.746094 119.652344 311.1875 121.972656 311.5625 124.308594 C 311.9375 126.640625 312.246094 128.984375 312.492188 131.335938 C 312.734375 133.691406 312.910156 136.046875 313.019531 138.410156 C 313.128906 140.769531 313.171875 143.132812 313.148438 145.5 C 313.125 147.863281 313.035156 150.226562 312.878906 152.585938 C 312.722656 154.945312 312.5 157.296875 312.210938 159.644531 C 311.921875 161.992188 311.566406 164.328125 311.144531 166.65625 C 310.722656 168.980469 310.234375 171.292969 309.683594 173.59375 C 309.128906 175.894531 308.511719 178.175781 307.832031 180.4375 C 307.152344 182.703125 306.40625 184.945312 305.597656 187.167969 C 304.789062 189.390625 303.921875 191.589844 302.988281 193.761719 C 302.058594 195.9375 301.0625 198.082031 300.011719 200.199219 C 298.957031 202.316406 297.847656 204.402344 296.675781 206.457031 C 295.503906 208.511719 294.277344 210.53125 292.992188 212.515625 C 291.707031 214.5 290.367188 216.449219 288.972656 218.355469 C 287.578125 220.265625 286.128906 222.132812 284.628906 223.960938 C 283.128906 225.789062 281.578125 227.574219 279.976562 229.3125 C 278.375 231.054688 276.726562 232.746094 275.03125 234.394531 C 273.332031 236.042969 271.59375 237.640625 269.804688 239.1875 C 268.019531 240.738281 266.1875 242.234375 264.316406 243.679688 C 262.445312 245.125 260.535156 246.515625 258.585938 247.851562 C 256.636719 249.191406 254.648438 250.472656 252.625 251.699219 C 250.605469 252.921875 248.546875 254.089844 246.460938 255.199219 C 244.371094 256.308594 242.253906 257.359375 240.105469 258.347656 C 238.824219 258.953125 237.59375 259.648438 236.410156 260.425781 C 235.226562 261.207031 234.105469 262.070312 233.046875 263.007812 C 231.984375 263.949219 230.996094 264.960938 230.078125 266.039062 C 229.164062 267.121094 228.328125 268.261719 227.570312 269.460938 C 226.816406 270.660156 226.148438 271.90625 225.570312 273.199219 C 224.992188 274.492188 224.511719 275.820312 224.121094 277.183594 C 223.730469 278.546875 223.441406 279.929688 223.246094 281.335938 C 223.054688 282.738281 222.960938 284.148438 222.96875 285.566406 L 222.96875 306.136719 L 212.210938 306.136719 L 212.210938 238.984375 L 227.574219 223.636719 C 228.160156 223.050781 228.613281 222.375 228.929688 221.609375 C 229.246094 220.84375 229.40625 220.046875 229.40625 219.214844 L 229.40625 160.214844 L 237.332031 160.214844 C 237.742188 160.214844 238.148438 160.175781 238.550781 160.097656 C 238.953125 160.015625 239.34375 159.898438 239.722656 159.742188 C 240.101562 159.582031 240.460938 159.390625 240.804688 159.164062 C 241.144531 158.933594 241.460938 158.675781 241.75 158.386719 C 242.039062 158.09375 242.300781 157.78125 242.527344 157.4375 C 242.753906 157.097656 242.949219 156.738281 243.105469 156.359375 C 243.261719 155.980469 243.382812 155.589844 243.460938 155.183594 C 243.542969 154.78125 243.582031 154.375 243.582031 153.964844 C 243.582031 153.554688 243.542969 153.148438 243.460938 152.746094 C 243.382812 152.34375 243.261719 151.953125 243.105469 151.574219 C 242.949219 151.195312 242.757812 150.835938 242.527344 150.492188 C 242.300781 150.152344 242.039062 149.835938 241.75 149.546875 C 241.460938 149.257812 241.144531 148.996094 240.804688 148.769531 C 240.460938 148.542969 240.101562 148.347656 239.722656 148.191406 C 239.34375 148.035156 238.953125 147.917969 238.550781 147.835938 C 238.148438 147.757812 237.742188 147.714844 237.332031 147.714844 L 229.40625 147.714844 L 229.40625 137.386719 C 229.40625 136.972656 229.367188 136.566406 229.285156 136.164062 C 229.207031 135.761719 229.085938 135.371094 228.929688 134.992188 C 228.773438 134.613281 228.582031 134.253906 228.351562 133.914062 C 228.125 133.570312 227.867188 133.253906 227.574219 132.964844 C 227.285156 132.675781 226.96875 132.417969 226.628906 132.1875 C 226.289062 131.960938 225.925781 131.769531 225.546875 131.609375 C 225.167969 131.453125 224.777344 131.335938 224.375 131.253906 C 223.972656 131.175781 223.566406 131.136719 223.15625 131.136719 C 222.746094 131.136719 222.339844 131.175781 221.9375 131.253906 C 221.535156 131.335938 221.144531 131.453125 220.765625 131.609375 C 220.386719 131.769531 220.023438 131.960938 219.683594 132.1875 C 219.34375 132.417969 219.027344 132.675781 218.738281 132.964844 C 218.445312 133.253906 218.1875 133.570312 217.960938 133.914062 C 217.730469 134.253906 217.539062 134.613281 217.382812 134.992188 C 217.226562 135.371094 217.105469 135.761719 217.027344 136.164062 C 216.945312 136.566406 216.90625 136.972656 216.90625 137.386719 L 216.90625 147.714844 L 157.5 147.714844 L 157.5 137.386719 C 157.5 136.972656 157.460938 136.566406 157.378906 136.164062 C 157.300781 135.761719 157.179688 135.371094 157.023438 134.992188 C 156.867188 134.613281 156.675781 134.253906 156.445312 133.914062 C 156.21875 133.570312 155.960938 133.253906 155.667969 132.964844 C 155.378906 132.675781 155.0625 132.417969 154.722656 132.1875 C 154.382812 131.960938 154.019531 131.769531 153.640625 131.609375 C 153.261719 131.453125 152.871094 131.335938 152.46875 131.253906 C 152.066406 131.175781 151.660156 131.136719 151.25 131.136719 C 150.839844 131.136719 150.433594 131.175781 150.03125 131.253906 C 149.628906 131.335938 149.238281 131.453125 148.859375 131.609375 C 148.480469 131.769531 148.117188 131.960938 147.777344 132.1875 C 147.4375 132.417969 147.121094 132.675781 146.832031 132.964844 C 146.539062 133.253906 146.28125 133.570312 146.054688 133.914062 C 145.824219 134.253906 145.632812 134.613281 145.476562 134.992188 C 145.320312 135.371094 145.199219 135.761719 145.121094 136.164062 C 145.039062 136.566406 145 136.972656 145 137.386719 L 145 147.714844 L 137.085938 147.714844 C 136.675781 147.714844 136.269531 147.757812 135.867188 147.835938 C 135.464844 147.917969 135.074219 148.035156 134.695312 148.191406 C 134.316406 148.347656 133.957031 148.542969 133.613281 148.769531 C 133.273438 148.996094 132.957031 149.257812 132.667969 149.546875 C 132.378906 149.835938 132.117188 150.152344 131.890625 150.492188 C 131.664062 150.835938 131.46875 151.195312 131.3125 151.574219 C 131.15625 151.953125 131.039062 152.34375 130.957031 152.746094 C 130.878906 153.148438 130.835938 153.554688 130.835938 153.964844 C 130.835938 154.375 130.878906 154.78125 130.957031 155.183594 C 131.039062 155.589844 131.15625 155.980469 131.3125 156.359375 C 131.46875 156.738281 131.664062 157.097656 131.890625 157.4375 C 132.117188 157.78125 132.378906 158.09375 132.667969 158.386719 C 132.957031 158.675781 133.273438 158.933594 133.613281 159.164062 C 133.957031 159.390625 134.316406 159.582031 134.695312 159.742188 C 135.074219 159.898438 135.464844 160.015625 135.867188 160.097656 C 136.269531 160.175781 136.675781 160.214844 137.085938 160.214844 L 145 160.214844 L 145 219.203125 C 145 220.03125 145.160156 220.828125 145.476562 221.59375 C 145.792969 222.359375 146.246094 223.035156 146.832031 223.621094 L 162.199219 238.984375 L 162.199219 306.136719 L 152.03125 306.136719 L 152.03125 285.546875 C 152.039062 284.132812 151.949219 282.722656 151.757812 281.320312 C 151.566406 279.917969 151.277344 278.539062 150.890625 277.175781 C 150.503906 275.816406 150.023438 274.488281 149.449219 273.195312 C 148.871094 271.902344 148.207031 270.660156 147.457031 269.460938 C 146.703125 268.261719 145.871094 267.121094 144.957031 266.042969 C 144.042969 264.960938 143.058594 263.953125 142 263.011719 C 140.941406 262.070312 139.824219 261.210938 138.644531 260.429688 C 137.464844 259.648438 136.234375 258.953125 134.957031 258.347656 Z M 174.710938 306.136719 L 174.710938 236.398438 C 174.710938 235.570312 174.554688 234.773438 174.234375 234.007812 C 173.917969 233.242188 173.46875 232.566406 172.882812 231.980469 L 157.5 216.617188 L 157.5 160.214844 L 216.875 160.214844 L 216.875 216.617188 L 201.511719 231.980469 C 200.925781 232.566406 200.476562 233.242188 200.15625 234.007812 C 199.839844 234.773438 199.679688 235.570312 199.679688 236.398438 L 199.679688 306.136719 Z M 222.761719 362.386719 C 222.761719 362.796875 222.722656 363.203125 222.640625 363.605469 C 222.5625 364.007812 222.445312 364.398438 222.285156 364.777344 C 222.128906 365.15625 221.9375 365.515625 221.710938 365.855469 C 221.480469 366.199219 221.222656 366.515625 220.933594 366.804688 C 220.640625 367.09375 220.324219 367.355469 219.984375 367.582031 C 219.644531 367.808594 219.285156 368.003906 218.902344 368.160156 C 218.523438 368.316406 218.132812 368.433594 217.730469 368.515625 C 217.328125 368.59375 216.921875 368.636719 216.511719 368.636719 L 157.695312 368.636719 C 157.28125 368.636719 156.871094 368.59375 156.464844 368.511719 C 156.058594 368.433594 155.667969 368.3125 155.285156 368.152344 C 154.902344 367.992188 154.539062 367.796875 154.199219 367.566406 C 153.855469 367.335938 153.539062 367.070312 153.246094 366.777344 C 152.957031 366.484375 152.699219 366.164062 152.472656 365.820312 C 152.242188 365.472656 152.050781 365.109375 151.898438 364.726562 C 151.742188 364.339844 151.628906 363.945312 151.550781 363.539062 C 151.472656 363.132812 151.4375 362.722656 151.445312 362.308594 L 151.59375 349.886719 L 222.84375 349.886719 Z M 151.738281 337.386719 L 151.957031 318.636719 L 222.945312 318.636719 L 222.867188 337.386719 Z M 151.738281 337.386719 " fill-opacity="1" fill-rule="nonzero"/></g><path fill="#fdff83" d="M 368.75 147.714844 L 350.925781 147.714844 C 350.515625 147.714844 350.109375 147.757812 349.707031 147.835938 C 349.304688 147.917969 348.914062 148.035156 348.53125 148.191406 C 348.152344 148.347656 347.792969 148.542969 347.453125 148.769531 C 347.113281 148.996094 346.796875 149.257812 346.503906 149.546875 C 346.214844 149.835938 345.957031 150.152344 345.726562 150.492188 C 345.5 150.835938 345.308594 151.195312 345.152344 151.574219 C 344.992188 151.953125 344.875 152.34375 344.796875 152.746094 C 344.714844 153.148438 344.675781 153.554688 344.675781 153.964844 C 344.675781 154.375 344.714844 154.78125 344.796875 155.183594 C 344.875 155.589844 344.992188 155.980469 345.152344 156.359375 C 345.308594 156.738281 345.5 157.097656 345.726562 157.4375 C 345.957031 157.78125 346.214844 158.09375 346.503906 158.386719 C 346.796875 158.675781 347.113281 158.933594 347.453125 159.164062 C 347.792969 159.390625 348.152344 159.582031 348.53125 159.742188 C 348.914062 159.898438 349.304688 160.015625 349.707031 160.097656 C 350.109375 160.175781 350.515625 160.214844 350.925781 160.214844 L 368.75 160.214844 C 369.160156 160.214844 369.566406 160.175781 369.96875 160.097656 C 370.371094 160.015625 370.761719 159.898438 371.140625 159.742188 C 371.519531 159.582031 371.882812 159.390625 372.222656 159.164062 C 372.5625 158.933594 372.878906 158.675781 373.167969 158.386719 C 373.460938 158.09375 373.71875 157.78125 373.945312 157.4375 C 374.175781 157.097656 374.367188 156.738281 374.523438 156.359375 C 374.679688 155.980469 374.800781 155.589844 374.878906 155.183594 C 374.960938 154.78125 375 154.375 375 153.964844 C 375 153.554688 374.960938 153.148438 374.878906 152.746094 C 374.800781 152.34375 374.679688 151.953125 374.523438 151.574219 C 374.367188 151.195312 374.175781 150.835938 373.945312 150.492188 C 373.71875 150.152344 373.460938 149.835938 373.167969 149.546875 C 372.878906 149.257812 372.5625 148.996094 372.222656 148.769531 C 371.882812 148.542969 371.519531 148.347656 371.140625 148.191406 C 370.761719 148.035156 370.371094 147.917969 369.96875 147.835938 C 369.566406 147.757812 369.160156 147.714844 368.75 147.714844 Z M 368.75 147.714844 " fill-opacity="1" fill-rule="nonzero"/><path fill="#fdff83" d="M 331.363281 82.667969 C 332.414062 82.667969 333.402344 82.417969 334.324219 81.917969 L 350 73.460938 C 350.375 73.273438 350.730469 73.050781 351.0625 72.796875 C 351.394531 72.539062 351.699219 72.25 351.972656 71.933594 C 352.246094 71.613281 352.484375 71.269531 352.691406 70.90625 C 352.894531 70.539062 353.0625 70.15625 353.1875 69.753906 C 353.316406 69.355469 353.402344 68.945312 353.449219 68.527344 C 353.492188 68.109375 353.496094 67.691406 353.457031 67.273438 C 353.417969 66.855469 353.339844 66.445312 353.21875 66.042969 C 353.09375 65.644531 352.933594 65.257812 352.734375 64.886719 C 352.535156 64.519531 352.300781 64.171875 352.03125 63.847656 C 351.761719 63.527344 351.464844 63.234375 351.136719 62.972656 C 350.808594 62.710938 350.457031 62.484375 350.082031 62.292969 C 349.710938 62.101562 349.320312 61.949219 348.917969 61.835938 C 348.511719 61.722656 348.101562 61.652344 347.679688 61.621094 C 347.261719 61.589844 346.84375 61.601562 346.429688 61.65625 C 346.011719 61.710938 345.605469 61.804688 345.207031 61.941406 C 344.808594 62.078125 344.429688 62.253906 344.070312 62.464844 L 328.382812 70.917969 C 327.769531 71.246094 327.226562 71.667969 326.753906 72.179688 C 326.285156 72.691406 325.90625 73.265625 325.628906 73.902344 C 325.347656 74.539062 325.179688 75.203125 325.121094 75.898438 C 325.0625 76.589844 325.121094 77.277344 325.289062 77.949219 C 325.460938 78.625 325.738281 79.253906 326.117188 79.835938 C 326.5 80.417969 326.964844 80.921875 327.511719 81.351562 C 328.0625 81.777344 328.667969 82.105469 329.324219 82.328125 C 329.984375 82.554688 330.660156 82.667969 331.355469 82.667969 Z M 331.363281 82.667969 " fill-opacity="1" fill-rule="nonzero"/><path fill="#fdff83" d="M 350 234.480469 L 334.320312 226.023438 C 333.957031 225.8125 333.578125 225.640625 333.179688 225.507812 C 332.785156 225.375 332.378906 225.28125 331.964844 225.230469 C 331.550781 225.179688 331.132812 225.167969 330.71875 225.199219 C 330.300781 225.230469 329.890625 225.304688 329.488281 225.417969 C 329.085938 225.53125 328.699219 225.683594 328.328125 225.875 C 327.957031 226.066406 327.605469 226.292969 327.28125 226.554688 C 326.953125 226.816406 326.65625 227.109375 326.390625 227.429688 C 326.121094 227.75 325.886719 228.09375 325.691406 228.460938 C 325.492188 228.832031 325.332031 229.214844 325.210938 229.613281 C 325.085938 230.015625 325.007812 230.421875 324.96875 230.839844 C 324.925781 231.253906 324.929688 231.671875 324.972656 232.085938 C 325.015625 232.503906 325.101562 232.910156 325.226562 233.308594 C 325.351562 233.707031 325.515625 234.089844 325.71875 234.457031 C 325.921875 234.820312 326.15625 235.164062 326.429688 235.480469 C 326.699219 235.800781 327 236.089844 327.328125 236.347656 C 327.65625 236.605469 328.007812 236.828125 328.382812 237.015625 L 344.070312 245.480469 C 344.429688 245.683594 344.808594 245.851562 345.203125 245.980469 C 345.601562 246.109375 346.003906 246.199219 346.417969 246.25 C 346.828125 246.296875 347.242188 246.304688 347.660156 246.269531 C 348.074219 246.238281 348.480469 246.164062 348.878906 246.046875 C 349.28125 245.933594 349.664062 245.78125 350.03125 245.585938 C 350.402344 245.394531 350.75 245.167969 351.074219 244.910156 C 351.398438 244.648438 351.691406 244.355469 351.957031 244.035156 C 352.222656 243.71875 352.453125 243.375 352.652344 243.007812 C 352.851562 242.640625 353.007812 242.261719 353.128906 241.863281 C 353.25 241.464844 353.332031 241.058594 353.371094 240.644531 C 353.410156 240.230469 353.410156 239.816406 353.367188 239.402344 C 353.324219 238.988281 353.242188 238.582031 353.121094 238.1875 C 352.996094 237.789062 352.835938 237.40625 352.632812 237.042969 C 352.433594 236.675781 352.203125 236.335938 351.933594 236.019531 C 351.664062 235.699219 351.367188 235.410156 351.042969 235.152344 C 350.71875 234.894531 350.371094 234.667969 350 234.480469 Z M 350 234.480469 " fill-opacity="1" fill-rule="nonzero"/><path fill="#fdff83" d="M 30.324219 153.964844 C 30.324219 153.554688 30.285156 153.148438 30.203125 152.746094 C 30.125 152.34375 30.007812 151.953125 29.847656 151.574219 C 29.691406 151.195312 29.5 150.835938 29.273438 150.492188 C 29.042969 150.152344 28.785156 149.835938 28.496094 149.546875 C 28.203125 149.257812 27.886719 148.996094 27.546875 148.769531 C 27.207031 148.542969 26.847656 148.347656 26.464844 148.191406 C 26.085938 148.035156 25.695312 147.917969 25.292969 147.835938 C 24.890625 147.757812 24.484375 147.714844 24.074219 147.714844 L 6.25 147.714844 C 5.839844 147.714844 5.433594 147.757812 5.03125 147.835938 C 4.628906 147.917969 4.238281 148.035156 3.859375 148.191406 C 3.480469 148.347656 3.117188 148.542969 2.777344 148.769531 C 2.4375 148.996094 2.121094 149.257812 1.832031 149.546875 C 1.539062 149.835938 1.28125 150.152344 1.054688 150.492188 C 0.824219 150.835938 0.632812 151.195312 0.476562 151.574219 C 0.320312 151.953125 0.199219 152.34375 0.121094 152.746094 C 0.0390625 153.148438 0 153.554688 0 153.964844 C 0 154.375 0.0390625 154.78125 0.121094 155.183594 C 0.199219 155.589844 0.320312 155.980469 0.476562 156.359375 C 0.632812 156.738281 0.824219 157.097656 1.054688 157.4375 C 1.28125 157.78125 1.539062 158.09375 1.832031 158.386719 C 2.121094 158.675781 2.4375 158.933594 2.777344 159.164062 C 3.117188 159.390625 3.480469 159.582031 3.859375 159.742188 C 4.238281 159.898438 4.628906 160.015625 5.03125 160.097656 C 5.433594 160.175781 5.839844 160.214844 6.25 160.214844 L 24.074219 160.214844 C 24.484375 160.214844 24.890625 160.175781 25.292969 160.097656 C 25.695312 160.015625 26.085938 159.898438 26.464844 159.742188 C 26.847656 159.582031 27.207031 159.390625 27.546875 159.164062 C 27.886719 158.933594 28.203125 158.675781 28.496094 158.386719 C 28.785156 158.09375 29.042969 157.78125 29.273438 157.4375 C 29.5 157.097656 29.691406 156.738281 29.847656 156.359375 C 30.007812 155.980469 30.125 155.589844 30.203125 155.183594 C 30.285156 154.78125 30.324219 154.375 30.324219 153.964844 Z M 30.324219 153.964844 " fill-opacity="1" fill-rule="nonzero"/><path fill="#fdff83" d="M 25 73.460938 L 40.679688 81.917969 C 41.042969 82.113281 41.417969 82.269531 41.808594 82.390625 C 42.199219 82.511719 42.597656 82.597656 43.007812 82.640625 C 43.414062 82.683594 43.824219 82.683594 44.230469 82.648438 C 44.640625 82.609375 45.039062 82.535156 45.433594 82.417969 C 45.824219 82.300781 46.203125 82.148438 46.566406 81.957031 C 46.929688 81.769531 47.269531 81.542969 47.589844 81.285156 C 47.910156 81.027344 48.199219 80.742188 48.460938 80.429688 C 48.722656 80.113281 48.953125 79.777344 49.148438 79.417969 C 49.34375 79.054688 49.503906 78.679688 49.625 78.289062 C 49.746094 77.898438 49.828125 77.496094 49.871094 77.089844 C 49.914062 76.683594 49.917969 76.273438 49.882812 75.867188 C 49.84375 75.457031 49.765625 75.058594 49.652344 74.664062 C 49.535156 74.273438 49.382812 73.894531 49.191406 73.53125 C 49 73.167969 48.777344 72.828125 48.519531 72.507812 C 48.261719 72.1875 47.976562 71.898438 47.660156 71.636719 C 47.347656 71.375 47.011719 71.144531 46.648438 70.949219 L 30.960938 62.496094 C 30.601562 62.273438 30.21875 62.085938 29.820312 61.941406 C 29.421875 61.792969 29.011719 61.6875 28.589844 61.625 C 28.167969 61.5625 27.746094 61.542969 27.320312 61.566406 C 26.898438 61.589844 26.480469 61.65625 26.066406 61.761719 C 25.65625 61.871094 25.257812 62.019531 24.878906 62.210938 C 24.496094 62.402344 24.140625 62.628906 23.804688 62.890625 C 23.46875 63.152344 23.164062 63.445312 22.890625 63.773438 C 22.617188 64.097656 22.375 64.445312 22.171875 64.820312 C 21.96875 65.195312 21.804688 65.585938 21.683594 65.992188 C 21.558594 66.398438 21.476562 66.8125 21.441406 67.238281 C 21.402344 67.660156 21.40625 68.085938 21.453125 68.507812 C 21.5 68.929688 21.589844 69.34375 21.722656 69.75 C 21.855469 70.152344 22.027344 70.539062 22.238281 70.910156 C 22.449219 71.28125 22.695312 71.625 22.980469 71.941406 C 23.261719 72.261719 23.570312 72.550781 23.910156 72.804688 C 24.253906 73.058594 24.613281 73.277344 25 73.460938 Z M 25 73.460938 " fill-opacity="1" fill-rule="nonzero"/><path fill="#fdff83" d="M 40.675781 226.023438 L 25 234.480469 C 24.628906 234.667969 24.28125 234.894531 23.957031 235.152344 C 23.632812 235.410156 23.335938 235.699219 23.066406 236.019531 C 22.796875 236.335938 22.566406 236.675781 22.367188 237.042969 C 22.164062 237.40625 22.003906 237.789062 21.878906 238.1875 C 21.757812 238.582031 21.675781 238.988281 21.632812 239.402344 C 21.589844 239.816406 21.585938 240.230469 21.628906 240.644531 C 21.667969 241.058594 21.75 241.464844 21.871094 241.863281 C 21.992188 242.261719 22.148438 242.640625 22.347656 243.007812 C 22.546875 243.375 22.777344 243.71875 23.042969 244.035156 C 23.308594 244.355469 23.601562 244.648438 23.925781 244.910156 C 24.25 245.167969 24.597656 245.394531 24.964844 245.585938 C 25.335938 245.78125 25.71875 245.933594 26.121094 246.046875 C 26.519531 246.164062 26.925781 246.238281 27.339844 246.269531 C 27.757812 246.304688 28.171875 246.296875 28.582031 246.25 C 28.996094 246.199219 29.398438 246.109375 29.796875 245.980469 C 30.191406 245.851562 30.570312 245.683594 30.929688 245.480469 L 46.617188 237.015625 C 46.992188 236.828125 47.34375 236.605469 47.671875 236.347656 C 48 236.089844 48.300781 235.800781 48.570312 235.480469 C 48.84375 235.164062 49.078125 234.820312 49.28125 234.457031 C 49.484375 234.089844 49.648438 233.707031 49.773438 233.308594 C 49.898438 232.910156 49.984375 232.503906 50.027344 232.085938 C 50.070312 231.671875 50.074219 231.253906 50.03125 230.839844 C 49.992188 230.421875 49.914062 230.015625 49.789062 229.613281 C 49.667969 229.214844 49.507812 228.832031 49.308594 228.460938 C 49.113281 228.09375 48.878906 227.75 48.609375 227.429688 C 48.34375 227.109375 48.046875 226.816406 47.71875 226.554688 C 47.394531 226.292969 47.042969 226.066406 46.671875 225.875 C 46.300781 225.683594 45.914062 225.53125 45.511719 225.417969 C 45.109375 225.304688 44.699219 225.230469 44.28125 225.199219 C 43.867188 225.167969 43.449219 225.179688 43.035156 225.230469 C 42.621094 225.28125 42.214844 225.375 41.820312 225.507812 C 41.421875 225.640625 41.042969 225.8125 40.679688 226.023438 Z M 40.675781 226.023438 " fill-opacity="1" fill-rule="nonzero"/></svg>