<svg xmlns="http://www.w3.org/2000/svg" xmlns:xlink="http://www.w3.org/1999/xlink" width="500" zoomAndPan="magnify" viewBox="0 0 375 374.999991" height="500" preserveAspectRatio="xMidYMid meet" version="1.0"><defs><clipPath id="1fbe65dfad"><path d="M 187.5 0 C 83.945312 0 0 83.945312 0 187.5 C 0 291.054688 83.945312 375 187.5 375 C 291.054688 375 375 291.054688 375 187.5 C 375 83.945312 291.054688 0 187.5 0 Z M 187.5 0 " clip-rule="nonzero"/></clipPath><clipPath id="62fced5c3a"><path d="M 90.085938 125.507812 L 285 125.507812 L 285 249.257812 L 90.085938 249.257812 Z M 90.085938 125.507812 " clip-rule="nonzero"/></clipPath></defs><g clip-path="url(#1fbe65dfad)"><path stroke-linecap="butt" transform="matrix(0.75, 0, 0, 0.75, 0.0000045, 0)" fill="none" stroke-linejoin="miter" d="M 249.999994 0 C 111.927078 0 -0.000006 111.927084 -0.000006 250 C -0.000006 388.072917 111.927078 500.000001 249.999994 500.000001 C 388.072911 500.000001 499.999995 388.072917 499.999995 250 C 499.999995 111.927084 388.072911 0 249.999994 0 Z M 249.999994 0 " stroke="#fdff83" stroke-width="8" stroke-opacity="1" stroke-miterlimit="4"/></g><g clip-path="url(#62fced5c3a)"><path fill="#fdff83" d="M 283.9375 141.316406 L 276.292969 141.316406 L 276.292969 134.425781 C 276.292969 133.886719 275.855469 133.453125 275.316406 133.453125 L 265.71875 133.453125 L 265.71875 126.496094 C 265.71875 125.957031 265.28125 125.523438 264.742188 125.523438 L 223.921875 125.523438 C 201.867188 125.523438 190.570312 134.855469 186.425781 139.320312 C 182.285156 134.855469 170.988281 125.523438 148.929688 125.523438 L 108.117188 125.523438 C 107.578125 125.523438 107.140625 125.957031 107.140625 126.496094 L 107.140625 133.453125 L 99.683594 133.453125 C 99.144531 133.453125 98.710938 133.886719 98.710938 134.425781 L 98.710938 141.316406 L 91.0625 141.316406 C 90.523438 141.316406 90.085938 141.75 90.085938 142.289062 L 90.085938 247.308594 C 90.085938 247.839844 90.515625 248.277344 91.050781 248.28125 L 185.128906 249.453125 C 185.203125 249.472656 185.277344 249.484375 185.355469 249.484375 C 185.425781 249.484375 185.496094 249.476562 185.5625 249.460938 L 187.488281 249.484375 C 187.492188 249.484375 187.496094 249.484375 187.5 249.484375 C 187.503906 249.484375 187.507812 249.484375 187.511719 249.484375 L 283.945312 248.285156 C 284.476562 248.277344 284.90625 247.84375 284.90625 247.3125 L 284.90625 142.292969 C 284.910156 141.753906 284.472656 141.316406 283.9375 141.316406 Z M 92.039062 143.265625 L 98.710938 143.265625 L 98.710938 240.773438 C 98.710938 241.308594 99.144531 241.746094 99.683594 241.746094 L 143.59375 241.746094 C 157.011719 241.746094 171.925781 245.167969 180.371094 247.445312 L 92.039062 246.34375 Z M 185.125 140.835938 C 184.78125 141.269531 184.59375 141.550781 184.542969 141.625 C 184.4375 141.785156 184.378906 141.972656 184.378906 142.164062 L 184.378906 244.398438 C 178.59375 239.699219 166.753906 231.867188 152.019531 231.867188 L 109.089844 231.867188 L 109.089844 127.476562 L 148.929688 127.476562 C 170.332031 127.476562 181.335938 136.765625 185.125 140.835938 Z M 263.765625 127.476562 L 263.765625 231.871094 L 220.828125 231.871094 C 203.933594 231.871094 190.84375 242.167969 186.328125 246.234375 L 186.328125 142.480469 C 187.75 140.585938 198.503906 127.476562 223.917969 127.476562 Z M 274.339844 239.792969 L 231.40625 239.792969 C 213.777344 239.792969 193.679688 245.585938 188.472656 247.179688 L 188.472656 246.96875 C 193.460938 242.714844 205.703125 233.8125 220.828125 233.8125 L 264.738281 233.8125 C 265.277344 233.8125 265.714844 233.378906 265.714844 232.839844 L 265.714844 135.402344 L 274.335938 135.402344 L 274.335938 239.792969 Z M 107.140625 232.84375 C 107.140625 233.382812 107.578125 233.816406 108.117188 233.816406 L 152.019531 233.816406 C 166.386719 233.816406 178.171875 241.863281 183.585938 246.3125 C 175.859375 244.109375 158.808594 239.792969 143.589844 239.792969 L 100.65625 239.792969 L 100.65625 135.402344 L 107.136719 135.402344 L 107.136719 232.84375 Z M 282.957031 246.34375 L 194.625 247.445312 C 203.070312 245.164062 217.976562 241.746094 231.40625 241.746094 L 275.3125 241.746094 C 275.851562 241.746094 276.289062 241.308594 276.289062 240.773438 L 276.289062 143.265625 L 282.957031 143.265625 Z M 282.957031 246.34375 " fill-opacity="1" fill-rule="nonzero"/></g></svg>