<svg xmlns="http://www.w3.org/2000/svg" xmlns:xlink="http://www.w3.org/1999/xlink" width="500" zoomAndPan="magnify" viewBox="0 0 375 374.999991" height="500" preserveAspectRatio="xMidYMid meet" version="1.0"><defs><clipPath id="61413f0112"><path d="M 0 0 L 374.992188 0 L 374.992188 374.992188 L 0 374.992188 Z M 0 0 " clip-rule="nonzero"/></clipPath><clipPath id="90484f6c09"><path d="M 187.496094 0 C 83.945312 0 0 83.945312 0 187.496094 C 0 291.046875 83.945312 374.992188 187.496094 374.992188 C 291.046875 374.992188 374.992188 291.046875 374.992188 187.496094 C 374.992188 83.945312 291.046875 0 187.496094 0 Z M 187.496094 0 " clip-rule="nonzero"/></clipPath><clipPath id="11890674b6"><path d="M 124 80.023438 L 257 80.023438 L 257 140 L 124 140 Z M 124 80.023438 " clip-rule="nonzero"/></clipPath><clipPath id="ff4acad97c"><path d="M 243 221 L 307.328125 221 L 307.328125 285.832031 L 243 285.832031 Z M 243 221 " clip-rule="nonzero"/></clipPath><clipPath id="939d7d470a"><path d="M 101.519531 102 L 234 102 L 234 285.832031 L 101.519531 285.832031 Z M 101.519531 102 " clip-rule="nonzero"/></clipPath></defs><g clip-path="url(#61413f0112)"><g clip-path="url(#90484f6c09)"><path stroke-linecap="butt" transform="matrix(5.716914, 0, 0, 5.716914, 0.0000045, 0.0000364607)" fill="none" stroke-linejoin="miter" d="M 32.796733 -0.0000063777 C 14.683676 -0.0000063777 -0.000000787138 14.683671 -0.000000787138 32.796727 C -0.000000787138 50.909784 14.683676 65.593461 32.796733 65.593461 C 50.90979 65.593461 65.593467 50.909784 65.593467 32.796727 C 65.593467 14.683671 50.90979 -0.0000063777 32.796733 -0.0000063777 Z M 32.796733 -0.0000063777 " stroke="#fdff83" stroke-width="1.049517" stroke-opacity="1" stroke-miterlimit="4"/></g></g><path fill="#fdff83" d="M 239.953125 257.328125 L 239.953125 263.769531 L 246.394531 263.769531 C 247.679688 263.769531 248.96875 263.445312 250.09375 262.964844 L 245.425781 257.328125 Z M 239.953125 257.328125 " fill-opacity="1" fill-rule="nonzero"/><g clip-path="url(#11890674b6)"><path fill="#fdff83" d="M 130.496094 89.921875 C 130.496094 88.152344 131.945312 86.703125 133.714844 86.703125 L 246.394531 86.703125 C 248.164062 86.703125 249.613281 88.152344 249.613281 89.921875 L 249.613281 133.382812 C 251.703125 134.992188 253.636719 136.761719 255.566406 138.695312 C 255.730469 138.855469 255.890625 139.015625 256.050781 139.179688 L 256.050781 89.921875 C 256.050781 84.609375 251.703125 80.261719 246.394531 80.261719 L 133.714844 80.261719 C 128.402344 80.261719 124.054688 84.609375 124.054688 89.921875 L 124.054688 96.359375 L 130.496094 96.359375 Z M 130.496094 89.921875 " fill-opacity="1" fill-rule="nonzero"/></g><g clip-path="url(#ff4acad97c)"><path fill="#fdff83" d="M 300.316406 250.570312 L 265.546875 221.59375 C 264.421875 223.363281 263.292969 225.296875 262.007812 226.90625 L 265.871094 230.125 L 251.542969 244.453125 L 248.324219 240.589844 C 246.554688 241.875 244.78125 243.164062 243.011719 244.128906 L 271.988281 278.898438 C 275.527344 283.246094 280.839844 285.820312 286.472656 286.144531 C 290.980469 286.304688 295.648438 285.015625 299.351562 282.28125 C 304.664062 278.417969 308.042969 271.65625 307.722656 264.894531 C 307.238281 259.421875 304.664062 254.269531 300.316406 250.570312 Z M 255.566406 249.441406 L 270.699219 234.3125 L 277.136719 239.621094 L 260.878906 255.878906 Z M 297.097656 275.839844 C 294.363281 278.578125 290.660156 280.027344 286.636719 279.863281 C 282.773438 279.703125 279.230469 277.933594 276.816406 275.035156 L 265.066406 261.03125 L 282.128906 243.96875 L 296.132812 255.71875 C 299.191406 258.132812 300.800781 261.675781 300.960938 265.539062 C 301.285156 269.402344 299.835938 273.105469 297.097656 275.839844 Z M 297.097656 275.839844 " fill-opacity="1" fill-rule="nonzero"/></g><path fill="#fdff83" d="M 124.054688 258.9375 L 210.980469 258.9375 C 212.75 258.9375 214.199219 257.492188 214.199219 255.71875 C 214.199219 255.074219 214.039062 254.433594 213.554688 253.789062 C 211.625 253.949219 209.691406 254.109375 207.761719 254.109375 C 202.929688 254.109375 198.101562 253.628906 193.273438 252.5 L 124.054688 252.5 C 122.285156 252.5 120.835938 253.949219 120.835938 255.71875 C 120.835938 257.492188 122.285156 258.9375 124.054688 258.9375 Z M 124.054688 258.9375 " fill-opacity="1" fill-rule="nonzero"/><path fill="#fdff83" d="M 124.054688 234.792969 L 160.433594 234.792969 C 160.273438 234.632812 160.113281 234.472656 159.953125 234.3125 C 158.019531 232.378906 156.25 230.449219 154.640625 228.355469 L 124.054688 228.355469 C 122.285156 228.355469 120.835938 229.804688 120.835938 231.574219 C 120.835938 233.34375 122.285156 234.792969 124.054688 234.792969 Z M 124.054688 234.792969 " fill-opacity="1" fill-rule="nonzero"/><path fill="#fdff83" d="M 124.054688 210.648438 L 144.660156 210.648438 C 143.855469 208.554688 143.210938 206.464844 142.566406 204.210938 L 124.054688 204.210938 C 122.285156 204.210938 120.835938 205.660156 120.835938 207.429688 C 120.835938 209.199219 122.285156 210.648438 124.054688 210.648438 Z M 124.054688 210.648438 " fill-opacity="1" fill-rule="nonzero"/><path fill="#fdff83" d="M 124.054688 186.503906 L 140.152344 186.503906 C 140.152344 184.410156 140.3125 182.15625 140.476562 180.0625 L 124.054688 180.0625 C 122.285156 180.0625 120.835938 181.511719 120.835938 183.285156 C 120.835938 185.054688 122.285156 186.503906 124.054688 186.503906 Z M 124.054688 186.503906 " fill-opacity="1" fill-rule="nonzero"/><path fill="#fdff83" d="M 124.054688 162.359375 L 144.660156 162.359375 C 145.464844 160.105469 146.429688 158.011719 147.558594 155.917969 L 124.054688 155.917969 C 122.285156 155.917969 120.835938 157.367188 120.835938 159.136719 C 120.835938 160.910156 122.285156 162.359375 124.054688 162.359375 Z M 124.054688 162.359375 " fill-opacity="1" fill-rule="nonzero"/><path fill="#fdff83" d="M 124.054688 136.601562 L 162.207031 136.601562 C 164.78125 134.1875 167.519531 132.09375 170.414062 130.164062 L 124.054688 130.164062 C 122.285156 130.164062 120.835938 131.613281 120.835938 133.382812 C 120.835938 135.152344 122.285156 136.601562 124.054688 136.601562 Z M 124.054688 136.601562 " fill-opacity="1" fill-rule="nonzero"/><g clip-path="url(#939d7d470a)"><path fill="#fdff83" d="M 227.078125 276.644531 C 227.078125 278.417969 225.628906 279.863281 223.855469 279.863281 L 111.179688 279.863281 C 109.40625 279.863281 107.960938 278.417969 107.960938 276.644531 L 107.960938 112.457031 C 107.960938 110.6875 109.40625 109.238281 111.179688 109.238281 L 223.855469 109.238281 C 225.628906 109.238281 227.078125 110.6875 227.078125 112.457031 L 227.078125 121.792969 C 229.332031 122.4375 231.421875 123.242188 233.515625 124.046875 L 233.515625 112.457031 C 233.515625 107.144531 229.167969 102.800781 223.855469 102.800781 L 111.179688 102.800781 C 105.867188 102.800781 101.519531 107.144531 101.519531 112.457031 L 101.519531 276.644531 C 101.519531 281.957031 105.867188 286.304688 111.179688 286.304688 L 223.855469 286.304688 C 229.167969 286.304688 233.515625 281.957031 233.515625 276.644531 L 233.515625 248.960938 C 231.421875 249.765625 229.332031 250.570312 227.078125 251.210938 Z M 227.078125 276.644531 " fill-opacity="1" fill-rule="nonzero"/></g><path fill="#fdff83" d="M 251.0625 143.203125 C 227.238281 119.378906 188.445312 119.378906 164.621094 143.203125 C 140.796875 167.027344 140.796875 205.820312 164.621094 229.644531 C 176.371094 241.714844 192.144531 247.671875 207.761719 247.671875 C 223.375 247.671875 239.148438 241.714844 251.0625 229.804688 C 274.882812 205.980469 274.882812 167.027344 251.0625 143.203125 Z M 169.128906 225.136719 C 147.71875 203.886719 147.71875 169.117188 169.128906 147.871094 C 179.75 137.246094 193.757812 131.933594 207.761719 131.933594 C 221.765625 131.933594 235.769531 137.246094 246.394531 147.871094 C 267.800781 169.28125 267.800781 203.886719 246.394531 225.296875 C 225.144531 246.542969 190.375 246.542969 169.128906 225.136719 Z M 169.128906 225.136719 " fill-opacity="1" fill-rule="nonzero"/><path fill="#fdff83" d="M 233.675781 161.390625 C 232.226562 160.425781 230.136719 160.746094 229.167969 162.195312 L 200.035156 204.210938 L 185.707031 191.652344 C 184.417969 190.527344 182.328125 190.6875 181.199219 191.976562 C 180.074219 193.265625 180.234375 195.355469 181.523438 196.484375 L 198.585938 211.453125 C 199.230469 211.9375 199.871094 212.257812 200.675781 212.257812 C 200.839844 212.257812 201 212.257812 201 212.257812 C 201.964844 212.097656 202.769531 211.613281 203.253906 210.96875 L 234.480469 165.898438 C 235.609375 164.289062 235.125 162.359375 233.675781 161.390625 Z M 233.675781 161.390625 " fill-opacity="1" fill-rule="nonzero"/></svg>