<svg xmlns="http://www.w3.org/2000/svg" xmlns:xlink="http://www.w3.org/1999/xlink" width="500" zoomAndPan="magnify" viewBox="0 0 375 374.999991" height="500" preserveAspectRatio="xMidYMid meet" version="1.0"><rect x="-37.5" width="450" fill="#ffffff" y="-37.499999" height="449.999989" fill-opacity="1"/><rect x="-37.5" width="450" fill="#ffffff" y="-37.499999" height="449.999989" fill-opacity="1"/><path fill="#fdff83" d="M 251.363281 321.949219 L 251.363281 333.640625 L 263.054688 333.640625 C 265.394531 333.640625 267.730469 333.058594 269.777344 332.179688 L 261.300781 321.949219 Z M 251.363281 321.949219 " fill-opacity="1" fill-rule="nonzero"/><path fill="#fdff83" d="M 52.609375 17.976562 C 52.609375 14.761719 55.242188 12.128906 58.457031 12.128906 L 263.054688 12.128906 C 266.269531 12.128906 268.902344 14.761719 268.902344 17.976562 L 268.902344 96.890625 C 272.699219 99.816406 276.207031 103.03125 279.714844 106.539062 C 280.007812 106.828125 280.300781 107.121094 280.59375 107.414062 L 280.59375 17.976562 C 280.59375 8.332031 272.699219 0.4375 263.054688 0.4375 L 58.457031 0.4375 C 48.8125 0.4375 40.917969 8.332031 40.917969 17.976562 L 40.917969 29.667969 L 52.609375 29.667969 Z M 52.609375 17.976562 " fill-opacity="1" fill-rule="nonzero"/><path fill="#fdff83" d="M 360.96875 309.675781 L 297.835938 257.0625 C 295.792969 260.277344 293.746094 263.785156 291.40625 266.707031 L 298.421875 272.554688 L 272.410156 298.566406 L 266.5625 291.554688 C 263.347656 293.890625 260.132812 296.230469 256.917969 297.984375 L 309.527344 361.117188 C 315.957031 369.007812 325.605469 373.683594 335.832031 374.269531 C 344.019531 374.5625 352.492188 372.222656 359.214844 367.253906 C 368.863281 360.238281 375 347.964844 374.414062 335.6875 C 373.539062 325.75 368.863281 316.398438 360.96875 309.675781 Z M 279.714844 307.628906 L 307.191406 280.152344 L 318.882812 289.800781 L 289.359375 319.320312 Z M 355.125 355.5625 C 350.15625 360.53125 343.433594 363.164062 336.125 362.871094 C 329.113281 362.578125 322.679688 359.363281 318.296875 354.101562 L 296.960938 328.671875 L 327.941406 297.691406 L 353.371094 319.027344 C 358.925781 323.410156 361.847656 329.84375 362.140625 336.855469 C 362.722656 343.871094 360.09375 350.59375 355.125 355.5625 Z M 355.125 355.5625 " fill-opacity="1" fill-rule="nonzero"/><path fill="#fdff83" d="M 40.917969 324.875 L 198.753906 324.875 C 201.96875 324.875 204.597656 322.242188 204.597656 319.027344 C 204.597656 317.859375 204.304688 316.6875 203.429688 315.519531 C 199.921875 315.8125 196.414062 316.105469 192.90625 316.105469 C 184.140625 316.105469 175.371094 315.226562 166.601562 313.183594 L 40.917969 313.183594 C 37.703125 313.183594 35.074219 315.8125 35.074219 319.027344 C 35.074219 322.242188 37.703125 324.875 40.917969 324.875 Z M 40.917969 324.875 " fill-opacity="1" fill-rule="nonzero"/><path fill="#fdff83" d="M 40.917969 281.03125 L 106.976562 281.03125 C 106.683594 280.738281 106.390625 280.445312 106.097656 280.152344 C 102.589844 276.648438 99.375 273.140625 96.453125 269.339844 L 40.917969 269.339844 C 37.703125 269.339844 35.074219 271.96875 35.074219 275.183594 C 35.074219 278.398438 37.703125 281.03125 40.917969 281.03125 Z M 40.917969 281.03125 " fill-opacity="1" fill-rule="nonzero"/><path fill="#fdff83" d="M 40.917969 237.1875 L 78.332031 237.1875 C 76.871094 233.386719 75.703125 229.589844 74.53125 225.496094 L 40.917969 225.496094 C 37.703125 225.496094 35.074219 228.128906 35.074219 231.34375 C 35.074219 234.558594 37.703125 237.1875 40.917969 237.1875 Z M 40.917969 237.1875 " fill-opacity="1" fill-rule="nonzero"/><path fill="#fdff83" d="M 40.917969 193.34375 L 70.148438 193.34375 C 70.148438 189.546875 70.441406 185.453125 70.734375 181.65625 L 40.917969 181.65625 C 37.703125 181.65625 35.074219 184.285156 35.074219 187.5 C 35.074219 190.714844 37.703125 193.34375 40.917969 193.34375 Z M 40.917969 193.34375 " fill-opacity="1" fill-rule="nonzero"/><path fill="#fdff83" d="M 40.917969 149.503906 L 78.332031 149.503906 C 79.792969 145.410156 81.546875 141.613281 83.59375 137.8125 L 40.917969 137.8125 C 37.703125 137.8125 35.074219 140.441406 35.074219 143.65625 C 35.074219 146.871094 37.703125 149.503906 40.917969 149.503906 Z M 40.917969 149.503906 " fill-opacity="1" fill-rule="nonzero"/><path fill="#fdff83" d="M 40.917969 102.738281 L 110.191406 102.738281 C 114.867188 98.351562 119.835938 94.554688 125.097656 91.046875 L 40.917969 91.046875 C 37.703125 91.046875 35.074219 93.675781 35.074219 96.890625 C 35.074219 100.105469 37.703125 102.738281 40.917969 102.738281 Z M 40.917969 102.738281 " fill-opacity="1" fill-rule="nonzero"/><path fill="#fdff83" d="M 227.980469 357.023438 C 227.980469 360.238281 225.351562 362.871094 222.136719 362.871094 L 17.535156 362.871094 C 14.320312 362.871094 11.691406 360.238281 11.691406 357.023438 L 11.691406 58.894531 C 11.691406 55.679688 14.320312 53.050781 17.535156 53.050781 L 222.136719 53.050781 C 225.351562 53.050781 227.980469 55.679688 227.980469 58.894531 L 227.980469 75.847656 C 232.074219 77.015625 235.871094 78.476562 239.671875 79.941406 L 239.671875 58.894531 C 239.671875 49.25 231.78125 41.359375 222.136719 41.359375 L 17.535156 41.359375 C 7.890625 41.359375 0 49.25 0 58.894531 L 0 357.023438 C 0 366.667969 7.890625 374.5625 17.535156 374.5625 L 222.136719 374.5625 C 231.78125 374.5625 239.671875 366.667969 239.671875 357.023438 L 239.671875 306.75 C 235.871094 308.214844 232.074219 309.675781 227.980469 310.84375 Z M 227.980469 357.023438 " fill-opacity="1" fill-rule="nonzero"/><path fill="#fdff83" d="M 271.53125 114.722656 C 228.273438 71.464844 157.832031 71.464844 114.574219 114.722656 C 71.316406 157.980469 71.316406 228.417969 114.574219 271.675781 C 135.910156 293.597656 164.554688 304.414062 192.90625 304.414062 C 221.257812 304.414062 249.902344 293.597656 271.53125 271.96875 C 314.789062 228.710938 314.789062 157.980469 271.53125 114.722656 Z M 122.757812 263.492188 C 83.886719 224.914062 83.886719 161.777344 122.757812 123.199219 C 142.050781 103.90625 167.480469 94.261719 192.90625 94.261719 C 218.335938 94.261719 243.765625 103.90625 263.054688 123.199219 C 301.929688 162.070312 301.929688 224.914062 263.054688 263.785156 C 224.472656 302.367188 161.339844 302.367188 122.757812 263.492188 Z M 122.757812 263.492188 " fill-opacity="1" fill-rule="nonzero"/><path fill="#fdff83" d="M 239.964844 147.75 C 237.335938 145.996094 233.535156 146.582031 231.78125 149.210938 L 178.878906 225.496094 L 152.863281 202.699219 C 150.527344 200.652344 146.726562 200.945312 144.679688 203.285156 C 142.632812 205.621094 142.925781 209.421875 145.265625 211.46875 L 176.246094 238.648438 C 177.417969 239.527344 178.585938 240.109375 180.046875 240.109375 C 180.339844 240.109375 180.632812 240.109375 180.632812 240.109375 C 182.386719 239.820312 183.847656 238.941406 184.722656 237.773438 L 241.425781 155.933594 C 243.472656 153.011719 242.59375 149.503906 239.964844 147.75 Z M 239.964844 147.75 " fill-opacity="1" fill-rule="nonzero"/></svg>