<svg xmlns="http://www.w3.org/2000/svg" xmlns:xlink="http://www.w3.org/1999/xlink" width="500" zoomAndPan="magnify" viewBox="0 0 375 374.999991" height="500" preserveAspectRatio="xMidYMid meet" version="1.0"><defs><clipPath id="86ed7b0848"><path d="M 2.8125 1 L 374.8125 1 L 374.8125 375 L 2.8125 375 Z M 2.8125 1 " clip-rule="nonzero"/></clipPath></defs><g clip-path="url(#86ed7b0848)"><path fill="#201e1e" d="M 169.207031 329.765625 C 165.558594 329.765625 150.238281 314.445312 157.535156 311.527344 C 162.640625 308.609375 161.910156 317.363281 171.398438 323.199219 C 174.316406 325.390625 172.855469 329.765625 169.207031 329.765625 Z M 370.570312 375 L 59.042969 375 C 27.671875 375 2.867188 349.464844 2.867188 318.824219 L 2.867188 118.191406 C 2.867188 95.574219 20.375 78.0625 42.992188 78.0625 C 62.691406 78.0625 78.742188 91.925781 82.390625 110.164062 L 112.300781 110.164062 C 109.382812 104.328125 107.195312 97.03125 107.195312 85.359375 C 107.195312 52.527344 133.457031 26.265625 166.289062 26.265625 C 199.121094 26.265625 225.386719 52.527344 225.386719 85.359375 C 225.386719 97.03125 223.195312 104.328125 220.277344 110.164062 L 277.183594 110.164062 L 277.183594 29.183594 C 277.183594 16.78125 286.667969 7.296875 299.070312 7.296875 L 310.746094 7.296875 C 323.148438 7.296875 332.632812 16.78125 332.632812 29.183594 L 332.632812 110.164062 L 371.300781 110.164062 C 373.488281 110.164062 374.945312 111.625 374.945312 113.8125 L 374.21875 371.351562 C 374.21875 373.539062 372.757812 375 370.570312 375 Z M 80.199219 367.703125 L 366.921875 367.703125 L 367.652344 117.460938 L 332.632812 117.460938 L 332.632812 259 L 307.828125 304.960938 C 306.367188 307.878906 303.449219 307.878906 301.988281 304.960938 L 277.914062 260.457031 C 277.183594 259.726562 277.183594 259 277.183594 258.269531 L 277.183594 117.460938 L 215.902344 117.460938 C 207.144531 127.675781 199.851562 134.242188 199.121094 161.234375 C 207.144531 163.425781 207.875 172.910156 204.226562 178.015625 C 209.335938 183.851562 205.6875 195.523438 196.929688 195.523438 L 186.71875 195.523438 C 180.152344 214.496094 152.425781 214.496094 145.863281 195.523438 C 136.378906 195.523438 126.164062 197.714844 126.164062 183.851562 C 126.164062 181.664062 126.894531 179.476562 128.351562 178.015625 C 124.703125 172.910156 125.433594 163.425781 133.457031 161.234375 C 132.730469 134.242188 125.433594 127.675781 116.679688 117.460938 L 83.117188 117.460938 L 83.117188 215.953125 C 83.117188 217.414062 82.390625 218.140625 81.660156 218.871094 L 69.984375 226.167969 L 81.660156 233.464844 C 82.390625 234.191406 83.117188 234.921875 83.117188 236.382812 L 83.117188 318.824219 C 83.117188 323.929688 75.824219 323.929688 75.824219 318.824219 C 75.824219 300.582031 61.230469 285.992188 42.992188 285.992188 C 24.753906 285.992188 10.160156 300.582031 10.160156 318.824219 C 10.160156 345.816406 32.046875 367.703125 59.042969 367.703125 Z M 121.785156 110.894531 L 125.433594 116 C 132 124.757812 140.023438 133.511719 140.753906 161.234375 L 150.96875 161.234375 L 150.96875 119.648438 C 145.863281 119.648438 139.296875 121.109375 139.296875 116 C 139.296875 110.894531 145.863281 112.355469 150.96875 112.355469 C 150.96875 107.246094 149.507812 100.679688 154.617188 100.679688 C 159.722656 100.679688 158.265625 107.246094 158.265625 112.355469 L 174.316406 112.355469 C 174.316406 107.246094 172.855469 100.679688 177.960938 100.679688 C 183.070312 100.679688 181.609375 107.246094 181.609375 112.355469 C 186.71875 112.355469 193.285156 110.894531 193.285156 116 C 193.285156 121.109375 186.71875 119.648438 181.609375 119.648438 L 181.609375 161.234375 L 191.824219 161.234375 C 193.285156 110.164062 218.089844 123.296875 218.089844 85.359375 C 218.089844 56.90625 194.742188 33.558594 166.289062 33.558594 C 137.835938 33.558594 114.488281 56.90625 114.488281 85.359375 C 114.488281 99.222656 117.40625 105.789062 121.785156 110.894531 Z M 42.992188 278.695312 C 56.855469 278.695312 68.527344 285.261719 75.824219 295.476562 L 75.824219 238.570312 L 61.230469 229.085938 C 59.042969 227.625 59.042969 224.707031 61.230469 223.25 L 75.824219 213.765625 L 75.824219 118.191406 C 75.824219 99.953125 61.230469 85.359375 42.992188 85.359375 C 24.753906 85.359375 10.160156 99.953125 10.160156 118.191406 L 10.160156 295.476562 C 17.457031 285.261719 29.128906 278.695312 42.992188 278.695312 Z M 79.46875 215.953125 Z M 27.671875 203.550781 C 25.480469 203.550781 24.023438 202.089844 24.023438 199.902344 L 24.023438 124.757812 C 24.023438 119.648438 31.320312 119.648438 31.320312 124.757812 L 31.320312 199.902344 C 31.320312 202.089844 29.859375 203.550781 27.671875 203.550781 Z M 304.90625 62.742188 L 284.480469 62.742188 L 284.480469 67.851562 L 325.335938 67.851562 L 325.335938 51.070312 L 284.480469 51.070312 L 284.480469 55.449219 L 304.90625 55.449219 C 310.015625 55.449219 310.015625 62.742188 304.90625 62.742188 Z M 325.335938 254.621094 L 325.335938 75.144531 L 316.582031 75.144531 L 316.582031 254.621094 Z M 284.480469 75.144531 L 284.480469 254.621094 L 293.234375 254.621094 L 293.234375 75.144531 Z M 284.480469 43.773438 L 325.335938 43.773438 L 325.335938 29.183594 C 325.335938 21.15625 318.769531 14.589844 310.746094 14.589844 L 299.070312 14.589844 C 291.046875 14.589844 284.480469 21.15625 284.480469 29.183594 Z M 300.53125 254.621094 L 309.285156 254.621094 L 309.285156 75.144531 L 300.53125 75.144531 Z M 286.667969 261.917969 L 296.882812 280.886719 L 315.851562 275.777344 L 323.148438 261.917969 Z M 300.53125 287.453125 L 304.90625 295.476562 L 310.746094 284.53125 Z M 196.929688 174.367188 C 199.851562 174.367188 199.851562 168.53125 196.929688 168.53125 L 135.648438 168.53125 C 132 168.53125 132.730469 174.367188 135.648438 174.367188 Z M 158.265625 161.234375 L 174.316406 161.234375 L 174.316406 119.648438 L 158.265625 119.648438 Z M 178.691406 195.523438 L 153.886719 195.523438 C 158.992188 205.007812 172.855469 205.007812 178.691406 195.523438 Z M 135.648438 181.664062 C 132.730469 181.664062 132.730469 188.230469 135.648438 188.230469 L 196.929688 188.230469 C 199.851562 188.230469 199.851562 181.664062 196.929688 181.664062 Z M 166.289062 19.699219 C 161.183594 19.699219 162.640625 12.402344 162.640625 5.105469 C 162.640625 0 169.9375 0 169.9375 5.105469 C 169.9375 12.402344 171.398438 19.699219 166.289062 19.699219 Z M 132 29.183594 C 130.539062 29.183594 129.8125 28.453125 129.082031 27.722656 L 123.246094 18.238281 C 120.328125 13.863281 126.894531 10.214844 129.082031 13.863281 L 134.917969 23.347656 C 136.378906 26.265625 134.917969 29.183594 132 29.183594 Z M 106.464844 54.71875 C 104.277344 54.71875 97.710938 50.339844 94.792969 48.152344 C 91.144531 45.964844 94.792969 39.398438 99.167969 42.316406 C 105.003906 45.964844 112.300781 48.882812 109.382812 53.257812 C 108.652344 53.988281 107.921875 54.71875 106.464844 54.71875 Z M 97.710938 89.007812 L 86.035156 89.007812 C 80.929688 89.007812 80.929688 81.710938 86.035156 81.710938 L 97.710938 81.710938 C 102.816406 81.710938 102.816406 89.007812 97.710938 89.007812 Z M 200.578125 29.183594 C 197.660156 29.183594 196.203125 26.265625 197.660156 23.347656 C 201.308594 17.507812 204.226562 10.214844 208.605469 13.132812 C 210.0625 13.863281 210.792969 16.050781 209.335938 18.238281 C 206.414062 23.347656 204.226562 29.183594 200.578125 29.183594 Z M 226.113281 54.71875 C 222.464844 54.71875 221.007812 49.609375 223.925781 48.152344 L 233.410156 42.316406 C 237.789062 39.398438 241.433594 45.964844 237.789062 48.152344 C 235.597656 49.609375 228.304688 54.71875 226.113281 54.71875 Z M 246.542969 89.007812 L 234.871094 89.007812 C 229.761719 89.007812 229.761719 81.710938 234.871094 81.710938 L 246.542969 81.710938 C 251.648438 81.710938 251.648438 89.007812 246.542969 89.007812 Z M 202.039062 362.597656 L 182.339844 362.597656 C 177.234375 362.597656 178.691406 355.300781 178.691406 348.003906 C 172.855469 346.546875 167.75 344.359375 163.371094 341.441406 L 155.347656 349.464844 C 153.886719 350.925781 151.699219 350.925781 150.238281 349.464844 L 136.378906 335.601562 C 134.917969 334.144531 134.917969 331.226562 136.378906 329.765625 L 144.402344 321.742188 C 140.753906 317.363281 138.566406 312.257812 137.105469 306.421875 C 129.8125 306.421875 122.515625 307.878906 122.515625 302.773438 L 122.515625 283.074219 C 122.515625 277.96875 129.8125 279.425781 137.105469 279.425781 C 138.566406 273.589844 140.753906 268.484375 144.402344 264.105469 L 136.378906 256.078125 C 134.917969 254.621094 134.917969 251.703125 136.378906 250.972656 L 150.238281 236.382812 C 150.96875 235.652344 153.886719 235.652344 154.617188 236.382812 L 163.371094 244.40625 C 168.476562 241.488281 173.585938 239.300781 178.691406 237.839844 C 178.691406 230.542969 177.234375 223.25 182.339844 223.25 L 202.039062 223.25 C 207.144531 223.25 205.6875 230.542969 205.6875 237.839844 C 210.792969 239.300781 215.902344 241.488281 221.007812 244.40625 L 229.761719 236.382812 C 231.222656 235.652344 233.410156 235.652344 234.140625 237.109375 L 248 250.972656 C 249.460938 252.433594 249.460938 254.621094 248 256.078125 L 240.707031 264.105469 C 243.625 268.484375 245.8125 273.589844 247.273438 279.425781 C 254.566406 279.425781 261.863281 277.96875 261.863281 283.074219 L 261.863281 302.773438 C 261.863281 307.878906 254.566406 306.421875 247.273438 306.421875 C 245.8125 312.257812 243.625 317.363281 240.707031 321.742188 L 248 329.765625 C 249.460938 331.226562 249.460938 334.144531 248 335.601562 L 234.140625 349.464844 C 232.679688 350.925781 230.492188 350.925781 229.03125 349.464844 L 221.007812 341.441406 C 216.628906 344.359375 211.523438 346.546875 205.6875 348.003906 C 205.6875 355.300781 207.144531 362.597656 202.039062 362.597656 Z M 185.988281 355.300781 L 198.390625 355.300781 C 198.390625 348.734375 196.929688 342.167969 201.308594 341.441406 C 218.089844 337.792969 220.277344 329.765625 224.65625 333.414062 L 231.949219 341.441406 L 240.707031 332.683594 C 235.597656 327.578125 229.761719 323.929688 232.679688 320.28125 C 242.894531 307.148438 238.515625 299.125 244.355469 299.125 L 254.566406 299.125 L 254.566406 286.722656 C 248 286.722656 241.433594 288.179688 240.707031 283.804688 C 237.058594 267.023438 229.03125 264.835938 232.679688 261.1875 L 240.707031 253.160156 L 231.949219 244.40625 C 226.84375 248.785156 223.195312 253.890625 219.546875 251.703125 C 196.929688 237.839844 198.390625 252.433594 198.390625 230.542969 L 185.988281 230.542969 C 185.988281 252.433594 186.71875 237.839844 164.832031 251.703125 C 161.183594 253.890625 157.535156 248.785156 152.425781 244.40625 L 143.671875 253.160156 C 148.78125 258.269531 154.617188 261.917969 151.699219 265.5625 C 141.484375 278.695312 145.863281 286.722656 140.023438 286.722656 L 129.8125 286.722656 L 129.8125 299.125 C 136.378906 299.125 142.941406 297.664062 143.671875 302.042969 C 147.320312 318.824219 155.347656 321.011719 151.699219 325.390625 L 143.671875 332.683594 L 152.425781 341.441406 C 157.535156 336.332031 161.183594 330.496094 164.832031 333.414062 C 177.960938 343.628906 185.988281 339.25 185.988281 345.085938 Z M 192.554688 322.472656 C 175.773438 322.472656 162.640625 309.339844 162.640625 292.558594 C 162.640625 276.507812 175.773438 263.375 192.554688 263.375 C 208.605469 263.375 221.738281 276.507812 221.738281 292.558594 C 221.738281 309.339844 208.605469 322.472656 192.554688 322.472656 Z M 192.554688 270.671875 C 180.152344 270.671875 169.9375 280.15625 169.9375 292.558594 C 169.9375 304.960938 180.152344 315.175781 192.554688 315.175781 C 204.226562 315.175781 214.441406 304.960938 214.441406 292.558594 C 214.441406 280.886719 204.226562 270.671875 192.554688 270.671875 Z M 229.761719 283.074219 C 223.195312 283.074219 226.84375 269.941406 208.605469 259 C 204.957031 256.808594 208.605469 250.242188 212.253906 253.160156 C 222.464844 258.269531 229.03125 267.023438 233.410156 277.96875 C 234.140625 280.886719 231.949219 283.074219 229.761719 283.074219 Z M 229.761719 283.074219 " fill-opacity="1" fill-rule="evenodd"/></g></svg>