<svg xmlns="http://www.w3.org/2000/svg" xmlns:xlink="http://www.w3.org/1999/xlink" width="500" zoomAndPan="magnify" viewBox="0 0 375 374.999991" height="500" preserveAspectRatio="xMidYMid meet" version="1.0"><defs><clipPath id="c39384aaaa"><path d="M 10.78125 0 L 279 0 L 279 354 L 10.78125 354 Z M 10.78125 0 " clip-rule="nonzero"/></clipPath></defs><g clip-path="url(#c39384aaaa)"><path fill="#000000" d="M 19.371094 345.070312 L 189.914062 345.070312 L 189.914062 158.398438 C 189.914062 156.027344 191.832031 154.109375 194.207031 154.109375 L 270.171875 154.109375 L 270.171875 8.679688 L 19.371094 8.679688 Z M 194.207031 353.652344 L 15.074219 353.652344 C 12.703125 353.652344 10.78125 351.734375 10.78125 349.359375 L 10.78125 4.378906 C 10.78125 2.003906 12.703125 0.0859375 15.074219 0.0859375 L 274.464844 0.0859375 C 276.839844 0.0859375 278.761719 2.003906 278.761719 4.378906 L 278.761719 158.398438 C 278.761719 160.769531 276.839844 162.691406 274.464844 162.691406 L 198.503906 162.691406 L 198.503906 349.359375 C 198.503906 351.734375 196.570312 353.664062 194.207031 353.652344 Z M 194.207031 353.652344 " fill-opacity="1" fill-rule="evenodd"/></g><path fill="#000000" d="M 89.992188 36.183594 C 83.195312 36.183594 77.003906 38.179688 71.929688 40.667969 C 67.042969 43.0625 62.585938 46.375 59.058594 50.222656 C 54.0625 55.65625 51.320312 62.6875 51.320312 69.996094 L 51.320312 133.976562 C 51.320312 136.941406 54.007812 139.367188 57.308594 139.367188 L 125.105469 139.378906 C 128.40625 139.378906 131.082031 136.964844 131.082031 133.988281 L 131.082031 64.820312 C 131.082031 63.375 130.953125 62.113281 130.695312 60.941406 C 128.675781 51.914062 120.726562 50.4375 120.378906 50.382812 C 119.472656 50.242188 118.675781 49.824219 118.015625 49.164062 C 108.390625 39.453125 98.691406 36.183594 89.992188 36.183594 Z M 125.105469 147.953125 L 57.308594 147.941406 C 49.269531 147.941406 42.730469 141.675781 42.730469 133.976562 L 42.730469 69.996094 C 42.730469 60.53125 46.28125 51.453125 52.734375 44.421875 C 56.984375 39.796875 62.316406 35.828125 68.152344 32.960938 C 79.539062 27.375 101.691406 21.273438 123.226562 42.242188 C 126.941406 43.257812 136.371094 46.988281 139.070312 59.054688 C 139.46875 60.84375 139.671875 62.730469 139.671875 64.8125 L 139.671875 133.976562 C 139.671875 141.6875 133.144531 147.953125 125.105469 147.953125 Z M 125.105469 147.953125 " fill-opacity="1" fill-rule="evenodd"/><path fill="#000000" d="M 63.363281 98.277344 C 64.109375 113.566406 76.96875 126.484375 91.449219 126.484375 C 105.929688 126.484375 118.773438 113.597656 119.539062 98.320312 L 119.539062 80.023438 C 113 79.226562 108.488281 75.152344 105.886719 71.90625 C 89.085938 82.859375 71.671875 82.265625 62.972656 80.996094 Z M 91.449219 135.066406 C 72.179688 135.066406 55.722656 118.722656 54.785156 98.625 C 54.785156 98.589844 54.785156 98.558594 54.773438 98.515625 L 54.277344 75.839844 C 54.246094 74.472656 54.871094 73.175781 55.960938 72.335938 C 57.050781 71.496094 58.464844 71.238281 59.78125 71.625 C 60.007812 71.691406 83.777344 78.246094 104.410156 62.460938 C 105.433594 61.683594 106.75 61.402344 108.003906 61.683594 C 109.253906 61.984375 110.3125 62.828125 110.875 63.980469 C 111.035156 64.304688 115.242188 72.476562 123.324219 71.484375 C 124.542969 71.332031 125.773438 71.710938 126.691406 72.53125 C 127.609375 73.351562 128.148438 74.515625 128.148438 75.742188 L 128.148438 98.417969 C 128.148438 98.484375 128.148438 98.558594 128.136719 98.625 C 127.175781 118.722656 110.722656 135.066406 91.449219 135.066406 Z M 91.449219 135.066406 " fill-opacity="1" fill-rule="evenodd"/><path fill="#000000" d="M 109.40625 147.953125 C 107.03125 147.953125 105.109375 146.03125 105.109375 143.660156 L 105.109375 125.050781 C 105.109375 122.679688 107.03125 120.757812 109.40625 120.757812 C 111.78125 120.757812 113.699219 122.679688 113.699219 125.050781 L 113.699219 143.660156 C 113.6875 146.019531 111.769531 147.953125 109.40625 147.953125 Z M 109.40625 147.953125 " fill-opacity="1" fill-rule="evenodd"/><path fill="#000000" d="M 73.007812 147.929688 C 70.636719 147.929688 68.714844 146.011719 68.714844 143.636719 L 68.714844 124.511719 C 68.714844 122.140625 70.636719 120.21875 73.007812 120.21875 C 75.382812 120.21875 77.304688 122.140625 77.304688 124.511719 L 77.304688 143.636719 C 77.304688 146.011719 75.382812 147.929688 73.007812 147.929688 Z M 73.007812 147.929688 " fill-opacity="1" fill-rule="evenodd"/><path fill="#000000" d="M 242.515625 45.878906 L 163.042969 45.878906 C 160.671875 45.878906 158.75 43.957031 158.75 41.585938 C 158.75 39.214844 160.671875 37.292969 163.042969 37.292969 L 242.515625 37.292969 C 244.890625 37.292969 246.8125 39.214844 246.8125 41.585938 C 246.8125 43.957031 244.890625 45.878906 242.515625 45.878906 Z M 242.515625 45.878906 " fill-opacity="1" fill-rule="evenodd"/><path fill="#000000" d="M 229.988281 68.984375 L 175.5625 68.984375 C 173.1875 68.984375 171.265625 67.0625 171.265625 64.691406 C 171.265625 62.320312 173.1875 60.402344 175.5625 60.402344 L 229.988281 60.402344 C 232.363281 60.402344 234.28125 62.320312 234.28125 64.691406 C 234.28125 67.0625 232.363281 68.984375 229.988281 68.984375 Z M 229.988281 68.984375 " fill-opacity="1" fill-rule="evenodd"/><path fill="#000000" d="M 242.515625 92.078125 L 163.042969 92.078125 C 160.671875 92.078125 158.75 90.160156 158.75 87.789062 C 158.75 85.414062 160.671875 83.496094 163.042969 83.496094 L 242.515625 83.496094 C 244.890625 83.496094 246.8125 85.414062 246.8125 87.789062 C 246.8125 90.160156 244.890625 92.078125 242.515625 92.078125 Z M 242.515625 92.078125 " fill-opacity="1" fill-rule="evenodd"/><path fill="#000000" d="M 229.988281 115.183594 L 175.5625 115.183594 C 173.1875 115.183594 171.265625 113.265625 171.265625 110.894531 C 171.265625 108.519531 173.1875 106.601562 175.5625 106.601562 L 229.988281 106.601562 C 232.363281 106.601562 234.28125 108.519531 234.28125 110.894531 C 234.28125 113.265625 232.363281 115.183594 229.988281 115.183594 Z M 229.988281 115.183594 " fill-opacity="1" fill-rule="evenodd"/><path fill="#000000" d="M 242.515625 138.28125 L 163.042969 138.28125 C 160.671875 138.28125 158.75 136.359375 158.75 133.988281 C 158.75 131.617188 160.671875 129.695312 163.042969 129.695312 L 242.515625 129.695312 C 244.890625 129.695312 246.8125 131.617188 246.8125 133.988281 C 246.8125 136.359375 244.890625 138.28125 242.515625 138.28125 Z M 242.515625 138.28125 " fill-opacity="1" fill-rule="evenodd"/><path fill="#000000" d="M 121.1875 181.09375 L 126.519531 181.09375 C 130.144531 181.09375 131.773438 179.445312 131.773438 177.808594 C 131.773438 176.167969 130.144531 174.519531 126.519531 174.519531 L 121.1875 174.519531 Z M 126.519531 189.679688 L 116.894531 189.679688 C 114.519531 189.679688 112.597656 187.757812 112.597656 185.386719 L 112.597656 170.226562 C 112.597656 167.855469 114.519531 165.9375 116.894531 165.9375 L 126.519531 165.9375 C 135.605469 165.9375 140.363281 171.910156 140.363281 177.808594 C 140.363281 183.703125 135.605469 189.679688 126.519531 189.679688 Z M 126.519531 189.679688 " fill-opacity="1" fill-rule="evenodd"/><path fill="#000000" d="M 121.1875 196.253906 L 130.285156 196.253906 C 132.097656 196.253906 133.574219 194.777344 133.574219 192.964844 C 133.574219 191.15625 132.097656 189.679688 130.285156 189.679688 L 121.1875 189.679688 Z M 130.285156 204.828125 L 116.894531 204.828125 C 114.519531 204.828125 112.597656 202.90625 112.597656 200.535156 L 112.597656 185.375 C 112.597656 183.003906 114.519531 181.085938 116.894531 181.085938 L 130.285156 181.085938 C 136.835938 181.085938 142.164062 186.410156 142.164062 192.957031 C 142.164062 199.5 136.824219 204.828125 130.285156 204.828125 Z M 130.285156 204.828125 " fill-opacity="1" fill-rule="evenodd"/><path fill="#000000" d="M 59.164062 204.828125 C 51.484375 204.828125 45.222656 198.691406 45.222656 191.144531 C 45.222656 188.773438 47.144531 186.851562 49.519531 186.851562 C 51.894531 186.851562 53.8125 188.773438 53.8125 191.144531 C 53.8125 193.957031 56.207031 196.246094 59.164062 196.246094 C 62.121094 196.246094 64.515625 193.957031 64.515625 191.144531 L 64.515625 170.214844 C 64.515625 167.84375 66.4375 165.925781 68.8125 165.925781 C 71.1875 165.925781 73.105469 167.84375 73.105469 170.214844 L 73.105469 191.144531 C 73.117188 198.691406 66.859375 204.828125 59.164062 204.828125 Z M 59.164062 204.828125 " fill-opacity="1" fill-rule="evenodd"/><path fill="#000000" d="M 92.851562 174.507812 C 88.191406 174.507812 84.402344 179.382812 84.402344 185.375 C 84.402344 191.371094 88.191406 196.246094 92.851562 196.246094 C 97.515625 196.246094 101.300781 191.371094 101.300781 185.375 C 101.300781 179.382812 97.515625 174.507812 92.851562 174.507812 Z M 92.851562 204.828125 C 83.453125 204.828125 75.804688 196.105469 75.804688 185.375 C 75.804688 174.648438 83.445312 165.925781 92.851562 165.925781 C 102.25 165.925781 109.902344 174.648438 109.902344 185.375 C 109.890625 196.105469 102.25 204.828125 92.851562 204.828125 Z M 92.851562 204.828125 " fill-opacity="1" fill-rule="evenodd"/><path fill="#000000" d="M 194.207031 174.507812 L 161.597656 174.507812 C 159.226562 174.507812 157.304688 172.589844 157.304688 170.214844 C 157.304688 167.84375 159.226562 165.925781 161.597656 165.925781 L 194.207031 165.925781 C 196.582031 165.925781 198.503906 167.84375 198.503906 170.214844 C 198.503906 172.589844 196.570312 174.507812 194.207031 174.507812 Z M 194.207031 174.507812 " fill-opacity="1" fill-rule="evenodd"/><path fill="#000000" d="M 194.207031 204.828125 L 161.597656 204.828125 C 159.226562 204.828125 157.304688 202.90625 157.304688 200.535156 C 157.304688 198.164062 159.226562 196.246094 161.597656 196.246094 L 194.207031 196.246094 C 196.582031 196.246094 198.503906 198.164062 198.503906 200.535156 C 198.503906 202.90625 196.570312 204.828125 194.207031 204.828125 Z M 194.207031 204.828125 " fill-opacity="1" fill-rule="evenodd"/><path fill="#000000" d="M 194.207031 235.15625 L 49.53125 235.15625 C 47.15625 235.15625 45.234375 233.238281 45.234375 230.867188 C 45.234375 228.492188 47.15625 226.574219 49.53125 226.574219 L 194.207031 226.574219 C 196.582031 226.574219 198.503906 228.492188 198.503906 230.867188 C 198.503906 233.238281 196.570312 235.15625 194.207031 235.15625 Z M 194.207031 235.15625 " fill-opacity="1" fill-rule="evenodd"/><path fill="#000000" d="M 194.207031 265.476562 L 49.53125 265.476562 C 47.15625 265.476562 45.234375 263.558594 45.234375 261.183594 C 45.234375 258.8125 47.15625 256.894531 49.53125 256.894531 L 194.207031 256.894531 C 196.582031 256.894531 198.503906 258.8125 198.503906 261.183594 C 198.503906 263.546875 196.570312 265.476562 194.207031 265.476562 Z M 194.207031 265.476562 " fill-opacity="1" fill-rule="evenodd"/><path fill="#000000" d="M 157.917969 295.785156 L 49.53125 295.785156 C 47.15625 295.785156 45.234375 293.863281 45.234375 291.492188 C 45.234375 289.121094 47.15625 287.203125 49.53125 287.203125 L 157.929688 287.203125 C 160.304688 287.203125 162.226562 289.121094 162.226562 291.492188 C 162.214844 293.863281 160.292969 295.785156 157.917969 295.785156 Z M 157.917969 295.785156 " fill-opacity="1" fill-rule="evenodd"/><path fill="#000000" d="M 157.917969 326.105469 L 49.53125 326.105469 C 47.15625 326.105469 45.234375 324.183594 45.234375 321.8125 C 45.234375 319.441406 47.15625 317.519531 49.53125 317.519531 L 157.929688 317.519531 C 160.304688 317.519531 162.226562 319.441406 162.226562 321.8125 C 162.226562 324.183594 160.292969 326.105469 157.917969 326.105469 Z M 157.917969 326.105469 " fill-opacity="1" fill-rule="evenodd"/><path fill="#000000" d="M 340.222656 226.101562 L 224.972656 226.101562 C 222.597656 226.101562 220.675781 224.179688 220.675781 221.808594 C 220.675781 219.4375 222.597656 217.515625 224.972656 217.515625 L 340.222656 217.515625 C 342.597656 217.515625 344.519531 219.4375 344.519531 221.808594 C 344.519531 224.179688 342.597656 226.101562 340.222656 226.101562 Z M 340.222656 226.101562 " fill-opacity="1" fill-rule="evenodd"/><path fill="#000000" d="M 340.222656 250.941406 L 224.972656 250.941406 C 222.597656 250.941406 220.675781 249.023438 220.675781 246.652344 C 220.675781 244.277344 222.597656 242.359375 224.972656 242.359375 L 340.222656 242.359375 C 342.597656 242.359375 344.519531 244.277344 344.519531 246.652344 C 344.519531 249.023438 342.597656 250.941406 340.222656 250.941406 Z M 340.222656 250.941406 " fill-opacity="1" fill-rule="evenodd"/><path fill="#000000" d="M 340.222656 275.785156 L 224.972656 275.785156 C 222.597656 275.785156 220.675781 273.863281 220.675781 271.492188 C 220.675781 269.121094 222.597656 267.199219 224.972656 267.199219 L 340.222656 267.199219 C 342.597656 267.199219 344.519531 269.121094 344.519531 271.492188 C 344.519531 273.863281 342.597656 275.785156 340.222656 275.785156 Z M 340.222656 275.785156 " fill-opacity="1" fill-rule="evenodd"/><path fill="#000000" d="M 340.222656 300.625 L 224.972656 300.625 C 222.597656 300.625 220.675781 298.707031 220.675781 296.335938 C 220.675781 293.960938 222.597656 292.042969 224.972656 292.042969 L 340.222656 292.042969 C 342.597656 292.042969 344.519531 293.960938 344.519531 296.335938 C 344.519531 298.707031 342.597656 300.625 340.222656 300.625 Z M 340.222656 300.625 " fill-opacity="1" fill-rule="evenodd"/><path fill="#000000" d="M 340.222656 325.476562 L 224.972656 325.476562 C 222.597656 325.476562 220.675781 323.558594 220.675781 321.1875 C 220.675781 318.804688 222.597656 316.894531 224.972656 316.894531 L 340.222656 316.894531 C 342.597656 316.894531 344.519531 318.804688 344.519531 321.1875 C 344.519531 323.546875 342.597656 325.476562 340.222656 325.476562 Z M 340.222656 325.476562 " fill-opacity="1" fill-rule="evenodd"/><path fill="#000000" d="M 340.222656 350.320312 L 224.972656 350.320312 C 222.597656 350.320312 220.675781 348.402344 220.675781 346.027344 C 220.675781 343.65625 222.597656 341.738281 224.972656 341.738281 L 340.222656 341.738281 C 342.597656 341.738281 344.519531 343.65625 344.519531 346.027344 C 344.519531 348.390625 342.597656 350.320312 340.222656 350.320312 Z M 340.222656 350.320312 " fill-opacity="1" fill-rule="evenodd"/><path fill="#000000" d="M 198.503906 366.320312 L 366.703125 366.320312 L 366.703125 162.703125 L 198.503906 162.703125 Z M 370.996094 374.914062 L 194.207031 374.914062 C 191.832031 374.914062 189.914062 372.996094 189.914062 370.621094 L 189.914062 158.410156 C 189.914062 156.039062 191.832031 154.117188 194.207031 154.117188 L 370.996094 154.117188 C 373.371094 154.117188 375.28125 156.039062 375.28125 158.410156 L 375.28125 370.621094 C 375.28125 372.984375 373.371094 374.914062 370.996094 374.914062 Z M 370.996094 374.914062 " fill-opacity="1" fill-rule="evenodd"/><path fill="#000000" d="M 320.746094 201.515625 C 308.660156 201.515625 298.84375 191.695312 298.84375 179.628906 C 298.84375 177.257812 300.761719 175.335938 303.136719 175.335938 C 305.511719 175.335938 307.429688 177.257812 307.429688 179.628906 C 307.429688 186.972656 313.398438 192.933594 320.746094 192.933594 C 328.09375 192.933594 334.0625 186.960938 334.0625 179.628906 L 334.0625 142.882812 C 334.0625 135.542969 328.09375 129.578125 320.746094 129.578125 C 313.398438 129.578125 307.429688 135.550781 307.429688 142.882812 L 307.429688 158.410156 C 307.429688 160.78125 305.511719 162.703125 303.136719 162.703125 C 300.761719 162.703125 298.84375 160.78125 298.84375 158.410156 L 298.84375 142.882812 C 298.84375 130.808594 308.671875 120.996094 320.746094 120.996094 C 332.832031 120.996094 342.660156 130.820312 342.660156 142.894531 L 342.660156 179.640625 C 342.652344 191.695312 332.832031 201.515625 320.746094 201.515625 Z M 320.746094 201.515625 " fill-opacity="1" fill-rule="evenodd"/></svg>