<svg xmlns="http://www.w3.org/2000/svg" xmlns:xlink="http://www.w3.org/1999/xlink" width="500" zoomAndPan="magnify" viewBox="0 0 375 374.999991" height="500" preserveAspectRatio="xMidYMid meet" version="1.0"><defs><clipPath id="2f79dd9ef4"><path d="M 0 29.765625 L 375 29.765625 L 375 345.515625 L 0 345.515625 Z M 0 29.765625 " clip-rule="nonzero"/></clipPath></defs><path fill="#000000" d="M 321.980469 48.539062 L 53.019531 48.539062 C 51.375 48.539062 50.042969 49.875 50.042969 51.519531 L 50.042969 236.144531 C 50.042969 237.789062 51.375 239.121094 53.019531 239.121094 L 321.980469 239.121094 C 323.625 239.121094 324.957031 237.789062 324.957031 236.144531 L 324.957031 51.519531 C 324.957031 49.875 323.625 48.539062 321.980469 48.539062 Z M 319.003906 54.5 L 319.003906 111.125 L 55.996094 111.125 L 55.996094 54.5 Z M 55.996094 233.164062 L 55.996094 117.082031 L 319.003906 117.082031 L 319.003906 233.164062 Z M 55.996094 233.164062 " fill-opacity="1" fill-rule="nonzero"/><g clip-path="url(#2f79dd9ef4)"><path fill="#000000" d="M 374.996094 323.761719 L 340.59375 263.507812 L 340.59375 45.140625 C 340.59375 36.664062 333.703125 29.765625 325.234375 29.765625 L 49.765625 29.765625 C 41.296875 29.765625 34.40625 36.664062 34.40625 45.140625 L 34.40625 263.507812 L 0.00390625 323.761719 L 0.00390625 342.535156 C 0.00390625 344.183594 1.335938 345.515625 2.980469 345.515625 L 372.019531 345.515625 C 373.664062 345.515625 374.996094 344.183594 374.996094 342.535156 Z M 366.855469 320.78125 L 230.117188 320.78125 L 223.289062 304.835938 L 334.488281 304.835938 C 335.519531 304.835938 336.480469 304.300781 337.019531 303.421875 C 337.5625 302.542969 337.613281 301.449219 337.152344 300.523438 L 320.542969 267.285156 L 335.902344 267.285156 Z M 54.707031 280.101562 L 61.113281 267.285156 L 76.703125 267.285156 L 71.363281 280.101562 Z M 68.882812 286.0625 L 63.546875 298.878906 L 45.328125 298.878906 L 51.730469 286.0625 Z M 75.332031 286.0625 L 92.675781 286.0625 L 88.40625 298.878906 L 69.996094 298.878906 Z M 77.8125 280.101562 L 83.152344 267.285156 L 98.929688 267.285156 L 94.660156 280.101562 Z M 98.949219 286.0625 L 116.449219 286.0625 L 113.246094 298.878906 L 94.679688 298.878906 Z M 100.933594 280.101562 L 105.203125 267.285156 L 121.140625 267.285156 L 117.9375 280.101562 Z M 122.582031 286.0625 L 138.339844 286.0625 L 135.136719 298.878906 L 119.382812 298.878906 Z M 124.070312 280.101562 L 127.273438 267.285156 L 143.03125 267.285156 L 139.828125 280.101562 Z M 144.476562 286.0625 L 162.09375 286.0625 L 159.960938 298.878906 L 141.273438 298.878906 Z M 145.964844 280.101562 L 149.167969 267.285156 L 165.222656 267.285156 L 163.085938 280.101562 Z M 216.8125 304.835938 L 223.644531 320.785156 L 151.355469 320.785156 L 158.1875 304.835938 Z M 184.523438 286.0625 L 184.523438 298.878906 L 165.992188 298.878906 L 168.128906 286.0625 Z M 169.121094 280.101562 L 171.257812 267.285156 L 184.523438 267.285156 L 184.523438 280.101562 Z M 206.871094 286.0625 L 209.007812 298.878906 L 190.476562 298.878906 L 190.476562 286.0625 Z M 190.476562 280.101562 L 190.476562 267.285156 L 203.742188 267.285156 L 205.878906 280.101562 Z M 303.636719 280.101562 L 298.296875 267.285156 L 313.886719 267.285156 L 320.292969 280.101562 Z M 323.269531 286.0625 L 329.671875 298.878906 L 311.453125 298.878906 L 306.117188 286.0625 Z M 299.667969 286.0625 L 305.003906 298.878906 L 286.597656 298.878906 L 282.324219 286.0625 Z M 280.339844 280.101562 L 276.070312 267.285156 L 291.847656 267.285156 L 297.1875 280.101562 Z M 280.320312 298.878906 L 261.753906 298.878906 L 258.550781 286.0625 L 276.050781 286.0625 Z M 257.0625 280.101562 L 253.859375 267.285156 L 269.796875 267.285156 L 274.066406 280.101562 Z M 255.617188 298.878906 L 239.863281 298.878906 L 236.660156 286.0625 L 252.417969 286.0625 Z M 235.171875 280.101562 L 231.96875 267.285156 L 247.726562 267.285156 L 250.929688 280.101562 Z M 233.726562 298.878906 L 215.039062 298.878906 L 212.90625 286.0625 L 230.523438 286.0625 Z M 211.914062 280.101562 L 209.777344 267.285156 L 225.832031 267.285156 L 229.035156 280.101562 Z M 40.359375 45.140625 C 40.359375 39.949219 44.578125 35.722656 49.765625 35.722656 L 325.234375 35.722656 C 330.421875 35.722656 334.640625 39.949219 334.640625 45.140625 L 334.640625 261.328125 L 40.359375 261.328125 Z M 39.097656 267.285156 L 54.457031 267.285156 L 37.847656 300.523438 C 37.386719 301.449219 37.4375 302.542969 37.980469 303.421875 C 38.519531 304.300781 39.480469 304.835938 40.511719 304.835938 L 151.710938 304.835938 L 144.882812 320.78125 L 8.144531 320.78125 Z M 369.042969 339.558594 L 5.957031 339.558594 L 5.957031 326.742188 L 369.042969 326.742188 Z M 369.042969 339.558594 " fill-opacity="1" fill-rule="nonzero"/></g><path fill="#000000" d="M 81.167969 142.117188 L 115.570312 142.117188 C 117.210938 142.117188 118.542969 140.78125 118.542969 139.136719 C 118.542969 137.492188 117.210938 136.160156 115.570312 136.160156 L 81.167969 136.160156 C 79.523438 136.160156 78.191406 137.492188 78.191406 139.136719 C 78.191406 140.78125 79.523438 142.117188 81.167969 142.117188 Z M 81.167969 142.117188 " fill-opacity="1" fill-rule="nonzero"/><path fill="#000000" d="M 134.332031 142.117188 L 303.214844 142.117188 C 304.859375 142.117188 306.191406 140.78125 306.191406 139.136719 C 306.191406 137.492188 304.859375 136.160156 303.214844 136.160156 L 134.332031 136.160156 C 132.691406 136.160156 131.355469 137.492188 131.355469 139.136719 C 131.355469 140.78125 132.691406 142.117188 134.332031 142.117188 Z M 134.332031 142.117188 " fill-opacity="1" fill-rule="nonzero"/><path fill="#000000" d="M 306.34375 161.191406 L 68.65625 161.191406 C 67.011719 161.191406 65.679688 162.527344 65.679688 164.171875 C 65.679688 165.816406 67.011719 167.148438 68.65625 167.148438 L 306.34375 167.148438 C 307.988281 167.148438 309.320312 165.816406 309.320312 164.171875 C 309.320312 162.527344 307.988281 161.191406 306.34375 161.191406 Z M 306.34375 161.191406 " fill-opacity="1" fill-rule="nonzero"/><path fill="#000000" d="M 124.949219 189.355469 L 68.65625 189.355469 C 67.011719 189.355469 65.679688 190.6875 65.679688 192.335938 C 65.679688 193.980469 67.011719 195.3125 68.65625 195.3125 L 124.949219 195.3125 C 126.59375 195.3125 127.925781 193.980469 127.925781 192.335938 C 127.925781 190.6875 126.59375 189.355469 124.949219 189.355469 Z M 124.949219 189.355469 " fill-opacity="1" fill-rule="nonzero"/><path fill="#000000" d="M 140.589844 176.839844 C 138.945312 176.839844 137.613281 178.171875 137.613281 179.816406 L 137.613281 204.851562 C 137.613281 206.496094 138.945312 207.828125 140.589844 207.828125 C 142.230469 207.828125 143.5625 206.496094 143.5625 204.851562 L 143.5625 179.816406 C 143.5625 178.171875 142.230469 176.839844 140.589844 176.839844 Z M 140.589844 176.839844 " fill-opacity="1" fill-rule="nonzero"/><path fill="#000000" d="M 65.53125 92.546875 C 63.886719 92.546875 62.554688 93.878906 62.554688 95.523438 C 62.554688 97.167969 63.886719 98.503906 65.53125 98.503906 L 80.777344 98.503906 C 82.417969 98.503906 83.75 97.167969 83.75 95.523438 C 83.75 93.878906 82.417969 92.546875 80.777344 92.546875 L 76.128906 92.546875 L 76.128906 73.078125 L 80.777344 73.078125 C 82.417969 73.078125 83.75 71.746094 83.75 70.101562 C 83.75 68.453125 82.417969 67.121094 80.777344 67.121094 L 65.53125 67.121094 C 63.886719 67.121094 62.554688 68.453125 62.554688 70.101562 C 62.554688 71.746094 63.886719 73.078125 65.53125 73.078125 L 70.175781 73.078125 L 70.175781 92.546875 Z M 65.53125 92.546875 " fill-opacity="1" fill-rule="nonzero"/><path fill="#000000" d="M 90.941406 98.503906 C 92.582031 98.503906 93.914062 97.167969 93.914062 95.523438 L 93.914062 80.851562 L 103.632812 97.058594 C 104.183594 97.96875 105.160156 98.503906 106.1875 98.503906 C 106.449219 98.503906 106.71875 98.46875 106.980469 98.394531 C 108.269531 98.039062 109.164062 96.863281 109.164062 95.523438 L 109.164062 70.101562 C 109.164062 68.453125 107.828125 67.121094 106.1875 67.121094 C 104.542969 67.121094 103.210938 68.453125 103.210938 70.101562 L 103.210938 84.773438 L 93.492188 68.566406 C 92.804688 67.417969 91.4375 66.871094 90.144531 67.230469 C 88.855469 67.585938 87.964844 68.761719 87.964844 70.101562 L 87.964844 95.523438 C 87.964844 97.167969 89.296875 98.503906 90.941406 98.503906 Z M 90.941406 98.503906 " fill-opacity="1" fill-rule="nonzero"/><path fill="#000000" d="M 116.351562 73.078125 L 120.996094 73.078125 L 120.996094 95.523438 C 120.996094 97.171875 122.332031 98.503906 123.972656 98.503906 C 125.617188 98.503906 126.949219 97.171875 126.949219 95.523438 L 126.949219 73.078125 L 131.597656 73.078125 C 133.242188 73.078125 134.574219 71.746094 134.574219 70.101562 C 134.574219 68.453125 133.242188 67.121094 131.597656 67.121094 L 116.351562 67.121094 C 114.707031 67.121094 113.375 68.453125 113.375 70.101562 C 113.375 71.746094 114.707031 73.078125 116.351562 73.078125 Z M 116.351562 73.078125 " fill-opacity="1" fill-rule="nonzero"/><path fill="#000000" d="M 141.761719 98.503906 L 157.007812 98.503906 C 158.652344 98.503906 159.984375 97.167969 159.984375 95.523438 C 159.984375 93.878906 158.652344 92.546875 157.007812 92.546875 L 144.738281 92.546875 L 144.738281 85.789062 L 157.007812 85.789062 C 158.652344 85.789062 159.984375 84.457031 159.984375 82.8125 C 159.984375 81.167969 158.652344 79.832031 157.007812 79.832031 L 144.738281 79.832031 L 144.738281 73.078125 L 157.007812 73.078125 C 158.652344 73.078125 159.984375 71.742188 159.984375 70.097656 C 159.984375 68.453125 158.652344 67.121094 157.007812 67.121094 L 141.761719 67.121094 C 140.117188 67.121094 138.785156 68.453125 138.785156 70.097656 L 138.785156 95.523438 C 138.785156 97.167969 140.117188 98.503906 141.761719 98.503906 Z M 141.761719 98.503906 " fill-opacity="1" fill-rule="nonzero"/><path fill="#000000" d="M 192.582031 98.503906 C 194.226562 98.503906 195.558594 97.167969 195.558594 95.523438 L 195.558594 80.851562 L 205.277344 97.058594 C 205.824219 97.96875 206.804688 98.503906 207.828125 98.503906 C 208.09375 98.503906 208.359375 98.46875 208.625 98.394531 C 209.914062 98.039062 210.804688 96.863281 210.804688 95.523438 L 210.804688 70.101562 C 210.804688 68.453125 209.472656 67.121094 207.828125 67.121094 C 206.1875 67.121094 204.851562 68.453125 204.851562 70.101562 L 204.851562 84.773438 L 195.132812 68.566406 C 194.445312 67.417969 193.078125 66.871094 191.785156 67.230469 C 190.496094 67.585938 189.605469 68.761719 189.605469 70.101562 L 189.605469 95.523438 C 189.605469 97.167969 190.9375 98.503906 192.582031 98.503906 Z M 192.582031 98.503906 " fill-opacity="1" fill-rule="nonzero"/><path fill="#000000" d="M 243.402344 98.503906 C 245.046875 98.503906 246.378906 97.167969 246.378906 95.523438 L 246.378906 85.789062 L 255.671875 85.789062 L 255.671875 95.523438 C 255.671875 97.167969 257.003906 98.503906 258.648438 98.503906 C 260.292969 98.503906 261.625 97.167969 261.625 95.523438 L 261.625 70.101562 C 261.625 68.453125 260.292969 67.121094 258.648438 67.121094 C 257.003906 67.121094 255.671875 68.453125 255.671875 70.101562 L 255.671875 79.832031 L 246.378906 79.832031 L 246.378906 70.101562 C 246.378906 68.453125 245.046875 67.121094 243.402344 67.121094 C 241.761719 67.121094 240.425781 68.453125 240.425781 70.101562 L 240.425781 95.523438 C 240.425781 97.167969 241.761719 98.503906 243.402344 98.503906 Z M 243.402344 98.503906 " fill-opacity="1" fill-rule="nonzero"/><path fill="#000000" d="M 268.8125 92.546875 C 267.171875 92.546875 265.835938 93.878906 265.835938 95.523438 C 265.835938 97.167969 267.171875 98.503906 268.8125 98.503906 L 284.058594 98.503906 C 285.703125 98.503906 287.035156 97.167969 287.035156 95.523438 C 287.035156 93.878906 285.703125 92.546875 284.058594 92.546875 L 279.414062 92.546875 L 279.414062 73.078125 L 284.058594 73.078125 C 285.703125 73.078125 287.035156 71.746094 287.035156 70.101562 C 287.035156 68.453125 285.703125 67.121094 284.058594 67.121094 L 268.8125 67.121094 C 267.171875 67.121094 265.835938 68.453125 265.835938 70.101562 C 265.835938 71.746094 267.171875 73.078125 268.8125 73.078125 L 273.460938 73.078125 L 273.460938 92.546875 Z M 268.8125 92.546875 " fill-opacity="1" fill-rule="nonzero"/><path fill="#000000" d="M 294.222656 98.503906 C 295.867188 98.503906 297.199219 97.167969 297.199219 95.523438 L 297.199219 85.789062 L 303.117188 85.789062 C 308.261719 85.789062 312.445312 81.601562 312.445312 76.453125 C 312.445312 71.308594 308.261719 67.121094 303.117188 67.121094 L 294.222656 67.121094 C 292.582031 67.121094 291.25 68.453125 291.25 70.097656 L 291.25 95.523438 C 291.25 97.167969 292.582031 98.503906 294.222656 98.503906 Z M 297.199219 73.078125 L 303.117188 73.078125 C 304.980469 73.078125 306.496094 74.59375 306.496094 76.457031 C 306.496094 78.316406 304.980469 79.832031 303.117188 79.832031 L 297.199219 79.832031 Z M 297.199219 73.078125 " fill-opacity="1" fill-rule="nonzero"/><path fill="#000000" d="M 167.171875 98.503906 C 168.816406 98.503906 170.148438 97.167969 170.148438 95.523438 L 170.148438 85.789062 L 173.109375 85.789062 L 179.867188 97.058594 C 180.425781 97.988281 181.410156 98.503906 182.421875 98.503906 C 182.941406 98.503906 183.46875 98.367188 183.949219 98.078125 C 185.359375 97.230469 185.816406 95.402344 184.96875 93.992188 L 179.625 85.078125 C 183.007812 83.675781 185.394531 80.339844 185.394531 76.453125 C 185.394531 71.308594 181.210938 67.121094 176.066406 67.121094 L 167.171875 67.121094 C 165.527344 67.121094 164.195312 68.453125 164.195312 70.097656 L 164.195312 95.523438 C 164.195312 97.167969 165.527344 98.503906 167.171875 98.503906 Z M 170.148438 73.078125 L 176.066406 73.078125 C 177.925781 73.078125 179.441406 74.59375 179.441406 76.457031 C 179.441406 78.316406 177.925781 79.832031 176.066406 79.832031 L 170.148438 79.832031 Z M 170.148438 73.078125 " fill-opacity="1" fill-rule="nonzero"/><path fill="#000000" d="M 227.957031 91.875 C 227.324219 92.21875 226.636719 92.433594 225.914062 92.511719 C 223.765625 92.742188 221.617188 91.792969 220.4375 90.089844 C 219.5 88.738281 217.648438 88.402344 216.296875 89.339844 C 214.945312 90.277344 214.609375 92.132812 215.546875 93.484375 C 217.714844 96.613281 221.441406 98.5 225.292969 98.5 C 225.714844 98.5 226.136719 98.476562 226.554688 98.433594 C 228.050781 98.269531 229.480469 97.824219 230.796875 97.109375 C 234.535156 95.085938 236.570312 91.105469 235.863281 87.210938 C 235.710938 86.375 235.433594 85.578125 235.035156 84.84375 C 233.179688 81.398438 229.402344 80.628906 226.367188 80.011719 C 224.941406 79.71875 223.597656 79.445312 222.625 78.976562 C 222.074219 78.710938 221.625 78.28125 221.429688 77.945312 C 221.332031 77.761719 221.265625 77.566406 221.226562 77.347656 C 220.980469 75.992188 221.800781 74.542969 223.273438 73.746094 C 223.90625 73.402344 224.59375 73.1875 225.316406 73.109375 C 227.464844 72.882812 229.613281 73.828125 230.792969 75.53125 C 231.730469 76.886719 233.582031 77.222656 234.933594 76.285156 C 236.285156 75.347656 236.621094 73.492188 235.683594 72.136719 C 233.277344 68.667969 228.957031 66.71875 224.675781 67.1875 C 223.179688 67.351562 221.753906 67.796875 220.4375 68.511719 C 216.699219 70.539062 214.664062 74.515625 215.367188 78.414062 C 215.519531 79.246094 215.796875 80.042969 216.195312 80.777344 C 216.199219 80.789062 216.203125 80.796875 216.210938 80.808594 C 217.003906 82.265625 218.398438 83.554688 220.039062 84.34375 C 221.683594 85.136719 223.460938 85.5 225.179688 85.847656 C 227.277344 86.277344 229.261719 86.679688 229.796875 87.671875 C 229.894531 87.859375 229.964844 88.054688 230.003906 88.277344 C 230.25 89.632812 229.429688 91.078125 227.957031 91.875 Z M 227.957031 91.875 " fill-opacity="1" fill-rule="nonzero"/></svg>