<svg xmlns="http://www.w3.org/2000/svg" xmlns:xlink="http://www.w3.org/1999/xlink" width="500" zoomAndPan="magnify" viewBox="0 0 375 374.999991" height="500" preserveAspectRatio="xMidYMid meet" version="1.0"><path fill="#000000" d="M 366.417969 132.105469 C 369.441406 132.148438 371.855469 134.640625 371.800781 137.6875 L 371.800781 242.808594 C 371.800781 263.4375 360.015625 277.855469 344.269531 279.785156 L 342.316406 280.015625 L 371.417969 356.261719 C 372.507812 359.074219 371.085938 362.269531 368.273438 363.335938 C 365.425781 364.429688 362.25 363.011719 361.15625 360.164062 L 331.117188 281.382812 L 287.875 286.667969 L 260.039062 360.164062 C 259.046875 363.082031 255.824219 364.609375 252.933594 363.515625 C 250.03125 362.402344 248.617188 359.125 249.808594 356.28125 L 278.808594 279.683594 C 279.546875 277.777344 281.25 276.433594 283.257812 276.179688 L 342.957031 268.921875 C 353.195312 267.65625 360.859375 259.632812 360.859375 242.808594 L 360.859375 137.6875 C 360.800781 134.585938 363.316406 132.050781 366.417969 132.105469 Z M 366.417969 132.105469 " fill-opacity="1" fill-rule="nonzero"/><path fill="#000000" d="M 169.605469 126.113281 L 174.96875 132.453125 C 164.632812 140.929688 156.226562 150.929688 151.425781 163.234375 C 148.636719 162.125 145.457031 161.714844 142.105469 162.300781 C 146.421875 147.992188 158.027344 133.828125 169.605469 126.113281 Z M 49.894531 113.21875 C 57.4375 113.21875 62.746094 118.371094 67.0625 127.410156 L 91.617188 178.671875 C 92.683594 180.910156 95.09375 182.15625 97.53125 181.71875 L 143.753906 173.085938 C 148.449219 172.195312 150.152344 174.484375 150.660156 177 C 151.164062 179.535156 150.789062 182.476562 144.285156 184.101562 L 89.835938 197.730469 C 86.839844 198.183594 84.019531 196.742188 82.722656 194.050781 L 60.703125 152.578125 C 57.835938 147.144531 52.507812 150.0625 54.710938 155.441406 L 70.40625 193.769531 L 70.40625 223.433594 C 70.433594 226.179688 72.46875 228.484375 75.1875 228.839844 L 125.441406 235.335938 C 130.292969 235.972656 134.355469 239.273438 136.007812 243.867188 L 168.640625 335.40625 C 170.265625 339.902344 169.734375 343.203125 168.230469 345.917969 C 166.734375 348.660156 164.019531 350.832031 160.820312 351.976562 C 157.621094 353.125 154.089844 353.148438 151.191406 351.976562 C 148.324219 350.8125 145.808594 348.660156 144.207031 344.136719 L 115.386719 263.238281 C 114.679688 261.308594 112.972656 259.910156 110.921875 259.632812 L 45.121094 251.109375 C 38.621094 250.269531 33.792969 244.835938 33.792969 238.261719 L 33.792969 126.160156 C 33.792969 122.152344 34.886719 119.183594 37.089844 117.054688 C 39.304688 114.917969 43.113281 113.1875 49.894531 113.21875 Z M 49.894531 102.253906 C 41.15625 102.253906 34.175781 104.636719 29.5 109.179688 C 24.804688 113.695312 22.847656 119.992188 22.847656 126.15625 L 22.847656 238.261719 C 22.847656 250.246094 31.816406 260.425781 43.699219 262 L 106.167969 270.070312 L 133.902344 347.835938 C 136.441406 354.910156 141.371094 359.863281 147.058594 362.175781 C 152.769531 364.457031 158.992188 364.304688 164.476562 362.351562 C 169.992188 360.398438 174.917969 356.5625 177.859375 351.183594 C 180.804688 345.804688 181.511719 338.851562 179.007812 331.746094 L 146.320312 240.25 C 143.320312 231.773438 135.78125 225.6875 126.871094 224.515625 L 81.363281 218.628906 L 81.363281 204.152344 C 83.417969 207.734375 88.554688 209.332031 92.007812 208.464844 L 146.933594 194.738281 C 157.625 192.074219 163.007812 182.785156 161.410156 174.84375 C 161.175781 173.648438 160.746094 172.527344 160.238281 171.4375 C 164.355469 157.300781 172.960938 146.257812 185.609375 137.226562 C 188.203125 135.351562 188.683594 131.667969 186.601562 129.230469 L 174.433594 114.839844 C 173.347656 113.574219 171.742188 112.867188 170.097656 112.9375 C 169.234375 112.9375 168.421875 113.164062 167.65625 113.574219 C 150.546875 122.835938 134.796875 142.65625 130.328125 163.515625 C 130.273438 163.847656 130.230469 164.15625 130.230469 164.488281 L 99.671875 170.171875 L 76.996094 122.84375 C 71.582031 111.621094 62.5625 102.285156 49.894531 102.253906 Z M 49.894531 102.253906 " fill-opacity="1" fill-rule="nonzero"/><path fill="#000000" d="M 324.136719 113.21875 C 330.917969 113.21875 335.566406 115.027344 338.378906 117.355469 C 341.171875 119.691406 342.414062 122.558594 342.414062 126.160156 L 342.414062 238.261719 C 342.441406 244.835938 337.671875 250.269531 331.140625 251.109375 L 265.371094 259.632812 C 263.308594 259.910156 261.589844 261.28125 260.902344 263.238281 L 232.054688 344.148438 C 230.457031 348.667969 227.964844 350.828125 225.074219 351.988281 C 222.171875 353.15625 218.671875 353.132812 215.472656 351.988281 C 212.273438 350.84375 209.53125 348.667969 208.007812 345.925781 C 206.507812 343.210938 205.976562 339.90625 207.597656 335.414062 L 240.28125 243.902344 C 241.144531 241.484375 241.25 239.941406 243.4375 238.695312 C 246.460938 239.964844 251.359375 238.820312 253.519531 238.136719 L 315.886719 218.234375 C 322.570312 216.105469 327.621094 210.21875 328.101562 203.210938 L 331.804688 147.988281 C 332.191406 142.078125 326.347656 140.625 325.332031 147.324219 L 317.199219 201.96875 C 316.691406 205.296875 314.664062 207.121094 312.53125 207.8125 L 250.183594 227.679688 C 247.644531 228.492188 246.804688 228.871094 244.113281 227.527344 C 243.230469 227.097656 241.953125 225.574219 241.300781 223.546875 C 240.714844 221.671875 240.714844 219.554688 241.421875 218.34375 C 242.714844 216.105469 244.644531 215.476562 246.199219 214.988281 L 298.71875 198.1875 C 302.171875 197.078125 304.6875 193.953125 305.011719 190.347656 L 310.671875 128.320312 C 311.234375 122.234375 312.8125 118.476562 314.746094 116.414062 C 316.671875 114.335938 319.210938 113.195312 324.113281 113.195312 Z M 324.136719 102.253906 C 317.199219 102.253906 310.953125 104.382812 306.714844 108.953125 C 302.449219 113.550781 300.492188 119.847656 299.785156 127.332031 L 294.195312 188.140625 L 242.898438 204.539062 C 237.308594 206.113281 233.300781 209.765625 231.472656 213.753906 C 229.515625 217.9375 229.3125 223.699219 230.324219 226.871094 C 231.339844 230.046875 232.332031 231.953125 234.109375 233.242188 C 232.179688 235.269531 231.1875 236.746094 229.949219 240.199219 L 197.261719 331.746094 C 194.746094 338.824219 195.460938 345.804688 198.40625 351.183594 C 201.378906 356.5625 206.28125 360.398438 211.765625 362.351562 C 217.246094 364.304688 223.46875 364.457031 229.183594 362.175781 C 234.875 359.863281 239.851562 354.910156 242.394531 347.835938 L 270.066406 270.042969 L 332.59375 261.976562 C 344.453125 260.429688 353.421875 250.222656 353.390625 238.238281 L 353.390625 126.140625 C 353.390625 119.59375 350.542969 113.242188 345.359375 108.929688 C 340.15625 104.613281 332.84375 102.253906 324.136719 102.253906 Z M 324.136719 102.253906 " fill-opacity="1" fill-rule="nonzero"/><path fill="#000000" d="M 67.140625 24.261719 C 74.453125 27.152344 80.621094 32.863281 84.027344 40.710938 C 90.753906 56.316406 83.621094 74.335938 68 81.089844 C 52.277344 87.839844 34.253906 80.707031 27.496094 65.023438 C 20.742188 49.394531 27.871094 31.402344 43.589844 24.625 C 51.421875 21.242188 59.828125 21.375 67.140625 24.261719 Z M 71.125 14.136719 C 61.195312 10.203125 49.769531 10.023438 39.230469 14.570312 C 18.074219 23.679688 8.324219 48.296875 17.441406 69.386719 C 26.53125 90.476562 51.214844 100.277344 72.34375 91.164062 C 93.445312 82.074219 103.179688 57.402344 94.085938 36.339844 C 89.511719 25.8125 81.050781 18.074219 71.125 14.136719 Z M 71.125 14.136719 " fill-opacity="1" fill-rule="evenodd"/><path fill="#000000" d="M 8.859375 132.105469 C 5.835938 132.148438 3.421875 134.640625 3.476562 137.6875 L 3.476562 242.808594 C 3.476562 263.4375 15.257812 277.855469 31.03125 279.785156 L 32.960938 280.015625 L 3.875 356.257812 C 2.761719 359.066406 4.183594 362.265625 7.023438 363.355469 C 9.84375 364.421875 13.042969 363.011719 14.109375 360.164062 L 44.179688 281.382812 L 87.40625 286.667969 L 115.234375 360.164062 C 116.25 363.082031 119.472656 364.609375 122.375 363.515625 C 125.265625 362.402344 126.664062 359.125 125.46875 356.28125 L 96.46875 279.683594 C 95.761719 277.777344 94.054688 276.433594 92.054688 276.179688 L 32.351562 268.921875 C 22.09375 267.65625 14.449219 259.632812 14.449219 242.808594 L 14.449219 137.6875 C 14.496094 134.585938 11.949219 132.050781 8.859375 132.105469 Z M 8.859375 132.105469 " fill-opacity="1" fill-rule="nonzero"/><path fill="#000000" d="M 331.878906 24.261719 C 339.167969 27.152344 345.359375 32.863281 348.746094 40.710938 C 355.496094 56.316406 348.359375 74.335938 332.71875 81.089844 C 317.023438 87.839844 298.996094 80.707031 292.242188 65.023438 C 285.460938 49.394531 292.59375 31.402344 308.3125 24.625 C 316.128906 21.242188 324.566406 21.375 331.878906 24.261719 Z M 335.886719 14.136719 C 325.960938 10.203125 314.53125 10.023438 303.992188 14.570312 C 282.867188 23.679688 273.0625 48.296875 282.15625 69.386719 C 291.269531 90.476562 315.953125 100.277344 337.082031 91.164062 C 358.183594 82.074219 367.910156 57.402344 358.792969 36.339844 C 354.253906 25.8125 345.847656 18.074219 335.886719 14.136719 Z M 335.886719 14.136719 " fill-opacity="1" fill-rule="evenodd"/></svg>