<svg xmlns="http://www.w3.org/2000/svg" xmlns:xlink="http://www.w3.org/1999/xlink" width="500" zoomAndPan="magnify" viewBox="0 0 375 374.999991" height="500" preserveAspectRatio="xMidYMid meet" version="1.0"><defs><clipPath id="543ab4a8c1"><path d="M 0 59.765625 L 375 59.765625 L 375 315.515625 L 0 315.515625 Z M 0 59.765625 " clip-rule="nonzero"/></clipPath></defs><g clip-path="url(#543ab4a8c1)"><path fill="#eceff1" d="M 0.15625 59.765625 L 374.84375 59.765625 L 374.84375 315.515625 L 0.15625 315.515625 Z M 0.15625 59.765625 " fill-opacity="1" fill-rule="nonzero"/></g><path fill="#d50000" d="M 264.140625 187.640625 C 264.140625 188.894531 264.109375 190.152344 264.046875 191.40625 C 263.988281 192.660156 263.894531 193.910156 263.773438 195.160156 C 263.648438 196.410156 263.496094 197.65625 263.3125 198.898438 C 263.128906 200.140625 262.914062 201.378906 262.667969 202.609375 C 262.421875 203.839844 262.148438 205.066406 261.84375 206.285156 C 261.539062 207.5 261.203125 208.710938 260.839844 209.914062 C 260.476562 211.113281 260.082031 212.304688 259.660156 213.488281 C 259.238281 214.671875 258.785156 215.84375 258.308594 217.003906 C 257.828125 218.160156 257.320312 219.308594 256.78125 220.445312 C 256.246094 221.578125 255.683594 222.699219 255.089844 223.808594 C 254.5 224.914062 253.882812 226.007812 253.238281 227.085938 C 252.59375 228.164062 251.921875 229.222656 251.222656 230.265625 C 250.527344 231.3125 249.804688 232.335938 249.058594 233.34375 C 248.3125 234.355469 247.539062 235.34375 246.742188 236.3125 C 245.949219 237.285156 245.128906 238.234375 244.285156 239.164062 C 243.445312 240.097656 242.578125 241.003906 241.691406 241.894531 C 240.804688 242.78125 239.898438 243.648438 238.96875 244.488281 C 238.039062 245.332031 237.089844 246.152344 236.121094 246.949219 C 235.152344 247.746094 234.164062 248.519531 233.15625 249.265625 C 232.148438 250.015625 231.121094 250.738281 230.078125 251.433594 C 229.035156 252.132812 227.976562 252.804688 226.902344 253.449219 C 225.824219 254.09375 224.734375 254.714844 223.628906 255.304688 C 222.523438 255.898438 221.402344 256.460938 220.269531 257 C 219.132812 257.535156 217.988281 258.042969 216.828125 258.523438 C 215.671875 259.003906 214.5 259.457031 213.320312 259.878906 C 212.136719 260.304688 210.949219 260.699219 209.746094 261.0625 C 208.546875 261.425781 207.339844 261.761719 206.121094 262.066406 C 204.90625 262.371094 203.683594 262.644531 202.453125 262.890625 C 201.222656 263.136719 199.984375 263.351562 198.746094 263.535156 C 197.503906 263.71875 196.261719 263.875 195.011719 263.996094 C 193.765625 264.121094 192.511719 264.210938 191.261719 264.273438 C 190.007812 264.335938 188.753906 264.367188 187.5 264.367188 C 186.246094 264.367188 184.992188 264.335938 183.738281 264.273438 C 182.488281 264.210938 181.234375 264.121094 179.988281 263.996094 C 178.738281 263.875 177.496094 263.71875 176.253906 263.535156 C 175.015625 263.351562 173.777344 263.136719 172.546875 262.890625 C 171.316406 262.644531 170.09375 262.371094 168.878906 262.066406 C 167.660156 261.761719 166.453125 261.425781 165.253906 261.0625 C 164.050781 260.699219 162.863281 260.304688 161.679688 259.878906 C 160.5 259.457031 159.328125 259.003906 158.171875 258.523438 C 157.011719 258.042969 155.867188 257.535156 154.730469 257 C 153.597656 256.460938 152.476562 255.898438 151.371094 255.304688 C 150.265625 254.714844 149.175781 254.09375 148.097656 253.449219 C 147.023438 252.804688 145.964844 252.132812 144.921875 251.433594 C 143.878906 250.738281 142.851562 250.015625 141.84375 249.265625 C 140.835938 248.519531 139.847656 247.746094 138.878906 246.949219 C 137.910156 246.152344 136.960938 245.332031 136.03125 244.488281 C 135.101562 243.648438 134.195312 242.78125 133.308594 241.894531 C 132.421875 241.003906 131.554688 240.097656 130.714844 239.164062 C 129.871094 238.234375 129.050781 237.285156 128.257812 236.3125 C 127.460938 235.34375 126.6875 234.355469 125.941406 233.34375 C 125.195312 232.335938 124.472656 231.3125 123.777344 230.265625 C 123.078125 229.222656 122.40625 228.164062 121.761719 227.085938 C 121.117188 226.007812 120.5 224.914062 119.910156 223.808594 C 119.316406 222.699219 118.753906 221.578125 118.21875 220.445312 C 117.679688 219.308594 117.171875 218.160156 116.691406 217.003906 C 116.214844 215.84375 115.761719 214.671875 115.339844 213.488281 C 114.917969 212.304688 114.523438 211.113281 114.160156 209.914062 C 113.796875 208.710938 113.460938 207.5 113.15625 206.285156 C 112.851562 205.066406 112.578125 203.839844 112.332031 202.609375 C 112.085938 201.378906 111.871094 200.140625 111.6875 198.898438 C 111.503906 197.65625 111.351562 196.410156 111.226562 195.160156 C 111.105469 193.910156 111.011719 192.660156 110.953125 191.40625 C 110.890625 190.152344 110.859375 188.894531 110.859375 187.640625 C 110.859375 186.386719 110.890625 185.128906 110.953125 183.875 C 111.011719 182.621094 111.105469 181.371094 111.226562 180.121094 C 111.351562 178.871094 111.503906 177.625 111.6875 176.382812 C 111.871094 175.140625 112.085938 173.902344 112.332031 172.671875 C 112.578125 171.441406 112.851562 170.214844 113.15625 168.996094 C 113.460938 167.78125 113.796875 166.570312 114.160156 165.367188 C 114.523438 164.167969 114.917969 162.976562 115.339844 161.792969 C 115.761719 160.609375 116.214844 159.4375 116.691406 158.277344 C 117.171875 157.117188 117.679688 155.972656 118.21875 154.835938 C 118.753906 153.703125 119.316406 152.582031 119.910156 151.472656 C 120.5 150.367188 121.117188 149.273438 121.761719 148.195312 C 122.40625 147.117188 123.078125 146.058594 123.777344 145.015625 C 124.472656 143.96875 125.195312 142.945312 125.941406 141.9375 C 126.6875 140.925781 127.460938 139.9375 128.257812 138.96875 C 129.050781 137.996094 129.871094 137.046875 130.714844 136.117188 C 131.554688 135.183594 132.421875 134.277344 133.308594 133.386719 C 134.195312 132.5 135.101562 131.632812 136.03125 130.792969 C 136.960938 129.949219 137.910156 129.128906 138.878906 128.332031 C 139.847656 127.535156 140.835938 126.761719 141.84375 126.015625 C 142.851562 125.265625 143.878906 124.542969 144.921875 123.847656 C 145.964844 123.148438 147.023438 122.476562 148.097656 121.832031 C 149.175781 121.1875 150.265625 120.566406 151.371094 119.976562 C 152.476562 119.382812 153.597656 118.820312 154.730469 118.28125 C 155.867188 117.746094 157.011719 117.238281 158.171875 116.757812 C 159.328125 116.277344 160.5 115.824219 161.679688 115.402344 C 162.863281 114.976562 164.050781 114.582031 165.253906 114.21875 C 166.453125 113.855469 167.660156 113.519531 168.878906 113.214844 C 170.09375 112.910156 171.316406 112.636719 172.546875 112.390625 C 173.777344 112.144531 175.015625 111.929688 176.253906 111.746094 C 177.496094 111.5625 178.738281 111.40625 179.988281 111.285156 C 181.234375 111.160156 182.488281 111.070312 183.738281 111.007812 C 184.992188 110.945312 186.246094 110.914062 187.5 110.914062 C 188.753906 110.914062 190.007812 110.945312 191.261719 111.007812 C 192.511719 111.070312 193.765625 111.160156 195.011719 111.285156 C 196.261719 111.40625 197.503906 111.5625 198.746094 111.746094 C 199.984375 111.929688 201.222656 112.144531 202.453125 112.390625 C 203.683594 112.636719 204.90625 112.910156 206.121094 113.214844 C 207.339844 113.519531 208.546875 113.855469 209.746094 114.21875 C 210.949219 114.582031 212.136719 114.976562 213.320312 115.402344 C 214.5 115.824219 215.671875 116.277344 216.828125 116.757812 C 217.988281 117.238281 219.132812 117.746094 220.269531 118.28125 C 221.402344 118.820312 222.523438 119.382812 223.628906 119.976562 C 224.734375 120.566406 225.824219 121.1875 226.902344 121.832031 C 227.976562 122.476562 229.035156 123.148438 230.078125 123.847656 C 231.121094 124.542969 232.148438 125.265625 233.15625 126.015625 C 234.164062 126.761719 235.152344 127.535156 236.121094 128.332031 C 237.089844 129.128906 238.039062 129.949219 238.96875 130.792969 C 239.898438 131.632812 240.804688 132.5 241.691406 133.386719 C 242.578125 134.277344 243.445312 135.183594 244.285156 136.117188 C 245.128906 137.046875 245.949219 137.996094 246.742188 138.96875 C 247.539062 139.9375 248.3125 140.925781 249.058594 141.9375 C 249.804688 142.945312 250.527344 143.96875 251.222656 145.015625 C 251.921875 146.058594 252.59375 147.117188 253.238281 148.195312 C 253.882812 149.273438 254.5 150.367188 255.089844 151.472656 C 255.683594 152.582031 256.246094 153.703125 256.78125 154.835938 C 257.320312 155.972656 257.828125 157.117188 258.308594 158.277344 C 258.785156 159.4375 259.238281 160.609375 259.660156 161.792969 C 260.082031 162.976562 260.476562 164.167969 260.839844 165.367188 C 261.203125 166.570312 261.539062 167.78125 261.84375 168.996094 C 262.148438 170.214844 262.421875 171.441406 262.667969 172.671875 C 262.914062 173.902344 263.128906 175.140625 263.3125 176.382812 C 263.496094 177.625 263.648438 178.871094 263.773438 180.121094 C 263.894531 181.371094 263.988281 182.621094 264.046875 183.875 C 264.109375 185.128906 264.140625 186.386719 264.140625 187.640625 Z M 264.140625 187.640625 " fill-opacity="1" fill-rule="nonzero"/></svg>