<svg xmlns="http://www.w3.org/2000/svg" xmlns:xlink="http://www.w3.org/1999/xlink" width="500" zoomAndPan="magnify" viewBox="0 0 375 374.999991" height="500" preserveAspectRatio="xMidYMid meet" version="1.0"><defs><clipPath id="d80bc3d11d"><path d="M 0 62.578125 L 375 62.578125 L 375 188 L 0 188 Z M 0 62.578125 " clip-rule="nonzero"/></clipPath><clipPath id="6acfc9c713"><path d="M 0 187 L 375 187 L 375 312.328125 L 0 312.328125 Z M 0 187 " clip-rule="nonzero"/></clipPath></defs><g clip-path="url(#d80bc3d11d)"><path fill="#ed2939" d="M 0.117188 62.578125 L 374.882812 62.578125 L 374.882812 187.453125 L 0.117188 187.453125 Z M 0.117188 62.578125 " fill-opacity="1" fill-rule="nonzero"/></g><g clip-path="url(#6acfc9c713)"><path fill="#ffffff" d="M 0.117188 187.453125 L 374.882812 187.453125 L 374.882812 312.328125 L 0.117188 312.328125 Z M 0.117188 187.453125 " fill-opacity="1" fill-rule="nonzero"/></g><path fill="#ffffff" d="M 128.652344 125.015625 C 128.652344 126.554688 128.578125 128.085938 128.425781 129.617188 C 128.273438 131.148438 128.046875 132.667969 127.75 134.175781 C 127.449219 135.683594 127.074219 137.171875 126.625 138.644531 C 126.179688 140.113281 125.660156 141.5625 125.074219 142.980469 C 124.484375 144.402344 123.828125 145.789062 123.101562 147.144531 C 122.375 148.5 121.585938 149.820312 120.730469 151.097656 C 119.875 152.375 118.960938 153.609375 117.984375 154.796875 C 117.007812 155.984375 115.976562 157.125 114.886719 158.210938 C 113.800781 159.296875 112.664062 160.328125 111.472656 161.304688 C 110.285156 162.277344 109.050781 163.195312 107.769531 164.046875 C 106.492188 164.902344 105.171875 165.691406 103.816406 166.417969 C 102.460938 167.140625 101.070312 167.796875 99.648438 168.386719 C 98.230469 168.972656 96.78125 169.492188 95.308594 169.9375 C 93.839844 170.382812 92.347656 170.757812 90.839844 171.058594 C 89.332031 171.355469 87.8125 171.582031 86.28125 171.734375 C 84.75 171.882812 83.214844 171.957031 81.675781 171.957031 C 80.136719 171.957031 78.605469 171.882812 77.074219 171.734375 C 75.542969 171.582031 74.023438 171.355469 72.515625 171.058594 C 71.003906 170.757812 69.515625 170.382812 68.042969 169.9375 C 66.570312 169.492188 65.125 168.972656 63.703125 168.386719 C 62.28125 167.796875 60.894531 167.140625 59.535156 166.417969 C 58.179688 165.691406 56.863281 164.902344 55.582031 164.046875 C 54.304688 163.195312 53.070312 162.277344 51.878906 161.304688 C 50.691406 160.328125 49.550781 159.296875 48.464844 158.210938 C 47.375 157.125 46.34375 155.984375 45.367188 154.796875 C 44.394531 153.609375 43.476562 152.375 42.621094 151.097656 C 41.765625 149.820312 40.976562 148.5 40.25 147.144531 C 39.527344 145.789062 38.871094 144.402344 38.28125 142.980469 C 37.691406 141.5625 37.171875 140.113281 36.726562 138.644531 C 36.28125 137.171875 35.90625 135.683594 35.605469 134.175781 C 35.304688 132.667969 35.078125 131.148438 34.925781 129.617188 C 34.777344 128.085938 34.699219 126.554688 34.699219 125.015625 C 34.699219 123.476562 34.773438 121.941406 34.925781 120.410156 C 35.074219 118.878906 35.300781 117.359375 35.597656 115.851562 C 35.898438 114.34375 36.273438 112.851562 36.71875 111.378906 C 37.164062 109.910156 37.683594 108.460938 38.269531 107.039062 C 38.859375 105.617188 39.515625 104.230469 40.242188 102.871094 C 40.964844 101.515625 41.757812 100.199219 42.609375 98.917969 C 43.464844 97.640625 44.382812 96.40625 45.355469 95.214844 C 46.332031 94.027344 47.363281 92.886719 48.453125 91.800781 C 49.542969 90.710938 50.679688 89.679688 51.871094 88.703125 C 53.058594 87.726562 54.292969 86.8125 55.574219 85.957031 C 56.851562 85.101562 58.171875 84.3125 59.527344 83.585938 C 60.882812 82.863281 62.273438 82.207031 63.695312 81.617188 C 65.117188 81.027344 66.5625 80.507812 68.035156 80.0625 C 69.507812 79.617188 71 79.242188 72.511719 78.941406 C 74.019531 78.644531 75.539062 78.417969 77.070312 78.265625 C 78.601562 78.117188 80.136719 78.039062 81.675781 78.039062 C 83.214844 78.039062 84.75 78.117188 86.28125 78.265625 C 87.8125 78.417969 89.335938 78.644531 90.84375 78.941406 C 92.351562 79.242188 93.84375 79.617188 95.316406 80.0625 C 96.789062 80.507812 98.234375 81.027344 99.65625 81.617188 C 101.078125 82.207031 102.46875 82.863281 103.824219 83.585938 C 105.183594 84.3125 106.5 85.101562 107.78125 85.957031 C 109.058594 86.8125 110.292969 87.726562 111.484375 88.703125 C 112.671875 89.679688 113.8125 90.710938 114.898438 91.800781 C 115.988281 92.886719 117.019531 94.027344 117.996094 95.214844 C 118.972656 96.40625 119.886719 97.640625 120.742188 98.917969 C 121.597656 100.199219 122.386719 101.515625 123.113281 102.871094 C 123.835938 104.230469 124.492188 105.617188 125.082031 107.039062 C 125.671875 108.460938 126.1875 109.910156 126.632812 111.378906 C 127.082031 112.851562 127.453125 114.34375 127.753906 115.851562 C 128.054688 117.359375 128.277344 118.878906 128.429688 120.410156 C 128.578125 121.941406 128.652344 123.476562 128.652344 125.015625 Z M 128.652344 125.015625 " fill-opacity="1" fill-rule="nonzero"/><path fill="#ed2939" d="M 143.414062 125.015625 C 143.414062 126.46875 143.34375 127.917969 143.203125 129.367188 C 143.058594 130.8125 142.847656 132.246094 142.5625 133.671875 C 142.277344 135.097656 141.925781 136.507812 141.503906 137.898438 C 141.082031 139.289062 140.59375 140.65625 140.035156 141.996094 C 139.480469 143.339844 138.859375 144.652344 138.171875 145.933594 C 137.488281 147.214844 136.742188 148.460938 135.933594 149.667969 C 135.125 150.878906 134.261719 152.042969 133.339844 153.167969 C 132.414062 154.292969 131.441406 155.367188 130.414062 156.394531 C 129.382812 157.421875 128.308594 158.398438 127.183594 159.320312 C 126.0625 160.242188 124.894531 161.105469 123.683594 161.914062 C 122.476562 162.71875 121.230469 163.46875 119.949219 164.152344 C 118.667969 164.835938 117.355469 165.457031 116.011719 166.015625 C 114.667969 166.570312 113.300781 167.058594 111.910156 167.480469 C 110.515625 167.902344 109.109375 168.253906 107.683594 168.539062 C 106.257812 168.824219 104.820312 169.035156 103.375 169.179688 C 101.925781 169.320312 100.476562 169.390625 99.023438 169.390625 C 97.566406 169.390625 96.117188 169.320312 94.671875 169.179688 C 93.222656 169.035156 91.789062 168.824219 90.363281 168.539062 C 88.933594 168.253906 87.527344 167.902344 86.136719 167.480469 C 84.742188 167.058594 83.375 166.570312 82.035156 166.015625 C 80.691406 165.457031 79.378906 164.835938 78.09375 164.152344 C 76.8125 163.46875 75.566406 162.71875 74.359375 161.914062 C 73.148438 161.105469 71.984375 160.242188 70.859375 159.320312 C 69.734375 158.398438 68.660156 157.421875 67.632812 156.394531 C 66.601562 155.367188 65.628906 154.292969 64.707031 153.167969 C 63.785156 152.042969 62.917969 150.878906 62.109375 149.667969 C 61.304688 148.460938 60.554688 147.214844 59.871094 145.933594 C 59.183594 144.652344 58.566406 143.339844 58.007812 141.996094 C 57.453125 140.65625 56.960938 139.289062 56.539062 137.898438 C 56.117188 136.507812 55.765625 135.097656 55.480469 133.671875 C 55.199219 132.246094 54.984375 130.8125 54.84375 129.367188 C 54.699219 127.917969 54.628906 126.46875 54.628906 125.015625 C 54.628906 123.5625 54.699219 122.113281 54.84375 120.664062 C 54.984375 119.21875 55.199219 117.785156 55.480469 116.359375 C 55.765625 114.933594 56.117188 113.523438 56.539062 112.132812 C 56.960938 110.742188 57.453125 109.375 58.007812 108.035156 C 58.566406 106.691406 59.183594 105.378906 59.871094 104.097656 C 60.554688 102.816406 61.304688 101.570312 62.109375 100.363281 C 62.917969 99.152344 63.785156 97.988281 64.707031 96.863281 C 65.628906 95.738281 66.601562 94.664062 67.632812 93.636719 C 68.660156 92.609375 69.734375 91.632812 70.859375 90.710938 C 71.984375 89.789062 73.148438 88.925781 74.359375 88.117188 C 75.566406 87.308594 76.8125 86.5625 78.09375 85.878906 C 79.378906 85.195312 80.691406 84.574219 82.035156 84.015625 C 83.375 83.460938 84.742188 82.972656 86.136719 82.550781 C 87.527344 82.128906 88.933594 81.777344 90.363281 81.492188 C 91.789062 81.207031 93.222656 80.996094 94.671875 80.851562 C 96.117188 80.710938 97.566406 80.640625 99.023438 80.640625 C 100.476562 80.640625 101.925781 80.710938 103.375 80.851562 C 104.820312 80.996094 106.257812 81.207031 107.683594 81.492188 C 109.109375 81.777344 110.515625 82.128906 111.910156 82.550781 C 113.300781 82.972656 114.667969 83.460938 116.011719 84.015625 C 117.355469 84.574219 118.667969 85.195312 119.949219 85.878906 C 121.230469 86.5625 122.476562 87.308594 123.683594 88.117188 C 124.894531 88.925781 126.0625 89.789062 127.183594 90.710938 C 128.308594 91.632812 129.382812 92.609375 130.414062 93.636719 C 131.441406 94.664062 132.414062 95.738281 133.339844 96.863281 C 134.261719 97.988281 135.125 99.152344 135.933594 100.363281 C 136.742188 101.570312 137.488281 102.816406 138.171875 104.097656 C 138.859375 105.378906 139.480469 106.691406 140.035156 108.035156 C 140.59375 109.375 141.082031 110.742188 141.503906 112.132812 C 141.925781 113.523438 142.277344 114.933594 142.5625 116.359375 C 142.847656 117.785156 143.058594 119.21875 143.203125 120.664062 C 143.34375 122.113281 143.414062 123.5625 143.414062 125.015625 Z M 143.414062 125.015625 " fill-opacity="1" fill-rule="nonzero"/><path fill="#ffffff" d="M 87.492188 126.148438 L 81.109375 121.253906 L 74.730469 126.148438 L 77.1875 118.257812 L 70.785156 113.394531 L 78.683594 113.410156 L 81.109375 105.511719 L 83.535156 113.410156 L 91.433594 113.390625 L 85.035156 118.257812 Z M 87.492188 126.148438 " fill-opacity="1" fill-rule="nonzero"/><path fill="#ffffff" d="M 137.566406 126.148438 L 131.183594 121.253906 L 124.804688 126.148438 L 127.257812 118.257812 L 120.859375 113.394531 L 128.757812 113.410156 L 131.179688 105.511719 L 133.605469 113.410156 L 141.507812 113.390625 L 135.105469 118.257812 Z M 137.566406 126.148438 " fill-opacity="1" fill-rule="nonzero"/><path fill="#ffffff" d="M 112.554688 107.570312 L 106.171875 102.679688 L 99.792969 107.574219 L 102.25 99.683594 L 95.847656 94.820312 L 103.746094 94.835938 L 106.167969 86.933594 L 108.59375 94.835938 L 116.496094 94.816406 L 110.09375 99.683594 Z M 112.554688 107.570312 " fill-opacity="1" fill-rule="nonzero"/><path fill="#ffffff" d="M 96.859375 155.871094 L 90.480469 150.976562 L 84.101562 155.875 L 86.554688 147.980469 L 80.152344 143.117188 L 88.054688 143.132812 L 90.476562 135.234375 L 92.902344 143.132812 L 100.800781 143.113281 L 94.402344 147.980469 Z M 96.859375 155.871094 " fill-opacity="1" fill-rule="nonzero"/><path fill="#ffffff" d="M 128.195312 155.871094 L 121.8125 150.976562 L 115.433594 155.875 L 117.890625 147.980469 L 111.488281 143.117188 L 119.386719 143.132812 L 121.8125 135.234375 L 124.238281 143.132812 L 132.136719 143.113281 L 125.734375 147.980469 Z M 128.195312 155.871094 " fill-opacity="1" fill-rule="nonzero"/></svg>